<svg width="109" height="102" viewBox="0 0 109 102" fill="none" xmlns="http://www.w3.org/2000/svg">
<rect width="109" height="102" fill="#F7F7F9"/>
<path d="M67.2885 51.8461C71.1658 51.2239 74.6304 54.0028 75.4613 57.85L75.5336 58.226L75.5365 58.2416L75.5385 58.2582L76.6449 65.8236H76.6429C76.9063 67.3429 76.0003 68.9472 74.3344 69.2328C72.6342 69.5899 71.176 68.3683 70.9633 66.7719V66.7709L69.8636 59.2552C69.6526 58.0815 68.7082 57.6096 67.9594 57.8353L66.0258 58.4183V52.0482L67.2885 51.8461Z" fill="white" stroke="#EAEAEF" stroke-width="3" stroke-miterlimit="10"/>
<path d="M58.6974 56.9954L59.9274 58.2254C60.3453 58.6442 60.8418 58.9764 61.3883 59.2031C61.9348 59.4298 62.5207 59.5465 63.1124 59.5465C63.704 59.5465 64.2899 59.4298 64.8364 59.2031C65.3829 58.9764 65.8794 58.6442 66.2974 58.2254C66.7158 57.8083 67.0478 57.3127 67.2744 56.767C67.5009 56.2213 67.6176 55.6363 67.6176 55.0454C67.6176 54.4546 67.5009 53.8695 67.2744 53.3239C67.0478 52.7782 66.7158 52.2825 66.2974 51.8654L63.1074 48.6754" fill="white"/>
<path d="M58.6974 56.9954L59.9274 58.2254C60.3453 58.6442 60.8418 58.9764 61.3883 59.2031C61.9348 59.4298 62.5207 59.5465 63.1124 59.5465C63.704 59.5465 64.2899 59.4298 64.8364 59.2031C65.3829 58.9764 65.8794 58.6442 66.2974 58.2254C66.7158 57.8083 67.0478 57.3127 67.2744 56.767C67.5009 56.2213 67.6176 55.6363 67.6176 55.0454C67.6176 54.4546 67.5009 53.8695 67.2744 53.3239C67.0478 52.7782 66.7158 52.2825 66.2974 51.8654L63.1074 48.6754" stroke="#EAEAEF" stroke-width="3" stroke-linecap="round" stroke-linejoin="round"/>
<path d="M50.2872 68.7787C49.7263 68.7752 49.1762 68.6248 48.6915 68.3424C48.2003 68.0615 47.7924 67.6553 47.5094 67.1653C47.2263 66.6753 47.0783 66.119 47.0803 65.5531L47.0648 62.08L47.0646 55.2603L53.5888 60.2602L53.5888 63.2602L53.7447 63.3502C54.3003 63.6697 54.7348 64.1638 54.9809 64.7557C55.2269 65.3476 55.2706 66.0041 55.1053 66.6234C54.9399 67.2427 54.5747 67.7901 54.0664 68.1805C53.558 68.5709 52.935 68.7826 52.2941 68.7827L50.2872 68.7787Z" fill="white" stroke="#EAEAEF" stroke-width="3" stroke-linecap="round" stroke-linejoin="round"/>
<path fill-rule="evenodd" clip-rule="evenodd" d="M48.807 63.2601C57.0913 63.2601 63.807 56.5444 63.807 48.2601C63.807 39.9759 57.0913 33.2601 48.807 33.2601C40.5227 33.2601 33.807 39.9759 33.807 48.2601C33.807 52.7026 35.7383 56.6941 38.807 59.4407C39.1282 59.7282 39.4619 60.002 39.8071 60.2613L39.8072 62.0799L39.8227 65.553C39.8207 66.1188 39.9687 66.6752 40.2518 67.1652C40.5348 67.6552 40.9427 68.0613 41.4339 68.3423C41.9186 68.6246 42.4687 68.775 43.0296 68.7785L45.2941 68.7824C45.935 68.7823 46.558 68.5706 47.0664 68.1802C47.5747 67.7898 47.9399 67.2424 48.1053 66.6231C48.2706 66.0038 48.2269 65.3473 47.9809 64.7554C47.7348 64.1635 47.3003 63.6694 46.7446 63.3498L46.5888 63.2599V63.0972C47.3126 63.2045 48.0533 63.2601 48.807 63.2601Z" fill="white"/>
<path d="M38.807 59.4407L37.8066 60.5584H37.8066L38.807 59.4407ZM39.8071 60.2613L41.3071 60.2613C41.3071 59.7895 41.0852 59.3453 40.708 59.062L39.8071 60.2613ZM39.8072 62.0799L38.3072 62.0799L38.3072 62.0866L39.8072 62.0799ZM39.8227 65.553L41.3227 65.5584L41.3227 65.5463L39.8227 65.553ZM40.2518 67.1652L41.5506 66.4149H41.5506L40.2518 67.1652ZM41.4339 68.3423L42.189 67.0461L42.1787 67.0402L41.4339 68.3423ZM43.0296 68.7785L43.0201 70.2785L43.027 70.2785L43.0296 68.7785ZM45.2941 68.7824L45.2915 70.2824H45.2942L45.2941 68.7824ZM48.1053 66.6231L49.5545 67.0101L49.5545 67.0101L48.1053 66.6231ZM46.7446 63.3498L45.9946 64.6489L45.9968 64.6501L46.7446 63.3498ZM46.5888 63.2599H45.0888C45.0888 63.7958 45.3747 64.2909 45.8388 64.5589L46.5888 63.2599ZM46.5888 63.0972L46.8087 61.6135C46.3772 61.5495 45.9392 61.6765 45.609 61.9615C45.2787 62.2464 45.0888 62.661 45.0888 63.0972H46.5888ZM63.807 48.2601H62.307C62.307 55.716 56.2629 61.7601 48.807 61.7601V63.2601V64.7601C57.9197 64.7601 65.307 57.3728 65.307 48.2601H63.807ZM48.807 33.2601V34.7601C56.2629 34.7601 62.307 40.8043 62.307 48.2601H63.807H65.307C65.307 39.1474 57.9197 31.7601 48.807 31.7601V33.2601ZM33.807 48.2601H35.307C35.307 40.8043 41.3512 34.7601 48.807 34.7601V33.2601V31.7601C39.6943 31.7601 32.307 39.1474 32.307 48.2601H33.807ZM38.807 59.4407L39.8074 58.323C37.0431 55.8489 35.307 52.2582 35.307 48.2601H33.807H32.307C32.307 53.147 34.4334 57.5392 37.8066 60.5584L38.807 59.4407ZM39.8071 60.2613L40.708 59.062C40.3971 58.8285 40.0967 58.5819 39.8074 58.323L38.807 59.4407L37.8066 60.5584C38.1598 60.8744 38.5267 61.1755 38.9063 61.4607L39.8071 60.2613ZM39.8072 62.0799L41.3072 62.0799L41.3071 60.2613L39.8071 60.2613L38.3071 60.2614L38.3072 62.0799L39.8072 62.0799ZM39.8227 65.553L41.3227 65.5463L41.3072 62.0732L39.8072 62.0799L38.3072 62.0866L38.3227 65.5597L39.8227 65.553ZM40.2518 67.1652L41.5506 66.4149C41.4003 66.1546 41.3216 65.859 41.3227 65.5584L39.8227 65.553L38.3227 65.5475C38.3197 66.3787 38.5372 67.1957 38.9529 67.9154L40.2518 67.1652ZM41.4339 68.3423L42.1787 67.0402C41.9177 66.891 41.701 66.6752 41.5506 66.4149L40.2518 67.1652L38.9529 67.9154C39.3686 68.6351 39.9677 69.2317 40.6892 69.6444L41.4339 68.3423ZM43.0296 68.7785L43.039 67.2786C42.7402 67.2767 42.4471 67.1966 42.189 67.0462L41.4339 68.3423L40.6789 69.6384C41.39 70.0527 42.1972 70.2733 43.0201 70.2785L43.0296 68.7785ZM45.2941 68.7824L45.2966 67.2824L43.0321 67.2785L43.0296 68.7785L43.027 70.2785L45.2915 70.2824L45.2941 68.7824ZM47.0664 68.1802L46.1527 66.9906C45.9064 67.1798 45.6045 67.2823 45.2939 67.2824L45.2941 68.7824L45.2942 70.2824C46.2655 70.2823 47.2097 69.9615 47.9801 69.3698L47.0664 68.1802ZM48.1053 66.6231L46.6561 66.2361C46.5759 66.5362 46.399 66.8014 46.1527 66.9906L47.0664 68.1802L47.9801 69.3698C48.7505 68.7781 49.3039 67.9486 49.5545 67.0101L48.1053 66.6231ZM47.9809 64.7554L46.5958 65.3312C46.715 65.6179 46.7362 65.9361 46.6561 66.2361L48.1053 66.6231L49.5545 67.0101C49.8051 66.0716 49.7388 65.0766 49.366 64.1796L47.9809 64.7554ZM46.7446 63.3498L45.9968 64.6501C46.266 64.805 46.4766 65.0444 46.5958 65.3312L47.9809 64.7554L49.366 64.1796C48.9931 63.2827 48.3345 62.5339 47.4925 62.0496L46.7446 63.3498ZM46.5888 63.2599L45.8388 64.5589L45.9946 64.6489L46.7446 63.3498L47.4946 62.0508L47.3388 61.9608L46.5888 63.2599ZM46.5888 63.0972H45.0888V63.2599H46.5888H48.0888V63.0972H46.5888ZM48.807 63.2601V61.7601C48.1272 61.7601 47.46 61.71 46.8087 61.6135L46.5888 63.0972L46.3688 64.581C47.1653 64.6991 47.9795 64.7601 48.807 64.7601V63.2601Z" fill="#EAEAEF"/>
<path d="M55.807 47.2601C55.2548 47.2601 54.807 46.8124 54.807 46.2601C54.807 45.7078 55.2548 45.2601 55.807 45.2601C56.3593 45.2601 56.807 45.7078 56.807 46.2601C56.807 46.8124 56.3593 47.2601 55.807 47.2601Z" fill="#D0D0D9" stroke="#EAEAEF" stroke-width="2" stroke-linecap="round" stroke-linejoin="round"/>
<path d="M49.807 47.2601C49.2548 47.2601 48.807 46.8124 48.807 46.2601C48.807 45.7078 49.2548 45.2601 49.807 45.2601C50.3593 45.2601 50.807 45.7078 50.807 46.2601C50.807 46.8124 50.3593 47.2601 49.807 47.2601Z" fill="#D0D0D9" stroke="#EAEAEF" stroke-width="2" stroke-linecap="round" stroke-linejoin="round"/>
</svg>
