<svg width="103" height="102" viewBox="0 0 103 102" fill="none" xmlns="http://www.w3.org/2000/svg">
<rect width="102.333" height="102" transform="translate(0.664062)" fill="#EAEAEF"/>
<path d="M63.3599 56.3988V58.4177L65.2928 57.835C66.0404 57.6096 66.9831 58.0793 67.1965 59.2484L68.2984 66.7829C68.5165 68.3745 69.9731 69.5911 71.6701 69.2336C73.3465 68.9451 74.2559 67.3188 73.9742 65.7907L72.8724 58.2574L72.8701 58.2415L72.8674 58.2256C72.1878 54.1854 68.6248 51.2031 64.6222 51.8453L63.3599 52.0479V53.3264V56.3988Z" fill="white" stroke="#D0D0D9" stroke-width="3" stroke-miterlimit="10"/>
<path d="M56.0329 56.9948L57.2629 58.2248C57.6809 58.6436 58.1774 58.9758 58.7239 59.2025C59.2704 59.4292 59.8563 59.5459 60.4479 59.5459C61.0396 59.5459 61.6255 59.4292 62.172 59.2025C62.7185 58.9758 63.215 58.6436 63.6329 58.2248C64.0514 57.8077 64.3834 57.3121 64.61 56.7664C64.8365 56.2207 64.9531 55.6357 64.9531 55.0448C64.9531 54.454 64.8365 53.8689 64.61 53.3232C64.3834 52.7776 64.0514 52.2819 63.6329 51.8648L60.4429 48.6748" fill="white"/>
<path d="M56.0329 56.9948L57.2629 58.2248C57.6809 58.6436 58.1774 58.9758 58.7239 59.2025C59.2704 59.4292 59.8563 59.5459 60.4479 59.5459C61.0396 59.5459 61.6255 59.4292 62.172 59.2025C62.7185 58.9758 63.215 58.6436 63.6329 58.2248C64.0514 57.8077 64.3834 57.3121 64.61 56.7664C64.8365 56.2207 64.9531 55.6357 64.9531 55.0448C64.9531 54.454 64.8365 53.8689 64.61 53.3232C64.3834 52.7776 64.0514 52.2819 63.6329 51.8648L60.4429 48.6748" stroke="#D0D0D9" stroke-width="3" stroke-linecap="round" stroke-linejoin="round"/>
<path d="M47.6227 68.7788C47.0619 68.7753 46.5117 68.6249 46.0271 68.3426C45.5359 68.0616 45.128 67.6554 44.8449 67.1654C44.5619 66.6754 44.4138 66.1191 44.4159 65.5532L44.4003 62.0802L44.4002 55.2604L50.9243 60.2603L50.9243 63.2603L51.0802 63.3503C51.6358 63.6699 52.0704 64.1639 52.3165 64.7558C52.5625 65.3477 52.6062 66.0043 52.4408 66.6235C52.2755 67.2428 51.9103 67.7902 51.402 68.1806C50.8936 68.5711 50.2706 68.7827 49.6296 68.7828L47.6227 68.7788Z" fill="white" stroke="#D0D0D9" stroke-width="3" stroke-linecap="round" stroke-linejoin="round"/>
<path fill-rule="evenodd" clip-rule="evenodd" d="M46.1406 63.2598C54.4249 63.2598 61.1406 56.544 61.1406 48.2598C61.1406 39.9755 54.4249 33.2598 46.1406 33.2598C37.8564 33.2598 31.1406 39.9755 31.1406 48.2598C31.1406 52.7023 33.0719 56.6937 36.1406 59.4403C36.4618 59.7278 36.7955 60.0016 37.1407 60.261L37.1408 62.0795L37.1563 65.5526C37.1543 66.1185 37.3023 66.6748 37.5854 67.1648C37.8684 67.6548 38.2763 68.061 38.7675 68.3419C39.2522 68.6242 39.8023 68.7747 40.3632 68.7782L42.6277 68.782C43.2686 68.7819 43.8917 68.5703 44.4 68.1798C44.9083 67.7894 45.2735 67.242 45.4389 66.6228C45.6043 66.0035 45.5605 65.3469 45.3145 64.755C45.0685 64.1631 44.6339 63.6691 44.0783 63.3495L43.9224 63.2595V63.0969C44.6462 63.2042 45.3869 63.2598 46.1406 63.2598Z" fill="white"/>
<path d="M36.1406 59.4403L35.1403 60.558H35.1403L36.1406 59.4403ZM37.1407 60.261L38.6407 60.2609C38.6407 59.7892 38.4188 59.3449 38.0416 59.0616L37.1407 60.261ZM37.1408 62.0795L35.6408 62.0796L35.6408 62.0862L37.1408 62.0795ZM37.1563 65.5526L38.6564 65.558L38.6563 65.5459L37.1563 65.5526ZM37.5854 67.1648L38.8842 66.4145H38.8842L37.5854 67.1648ZM38.7675 68.3419L39.5226 67.0458L39.5123 67.0399L38.7675 68.3419ZM40.3632 68.7782L40.3538 70.2782L40.3606 70.2782L40.3632 68.7782ZM42.6277 68.782L42.6251 70.282H42.6278L42.6277 68.782ZM45.4389 66.6228L46.8881 67.0097L46.8881 67.0097L45.4389 66.6228ZM44.0783 63.3495L43.3283 64.6485L43.3304 64.6498L44.0783 63.3495ZM43.9224 63.2595H42.4224C42.4224 63.7954 42.7083 64.2906 43.1724 64.5585L43.9224 63.2595ZM43.9224 63.0969L44.1423 61.6131C43.7108 61.5491 43.2729 61.6762 42.9426 61.9611C42.6123 62.2461 42.4224 62.6607 42.4224 63.0969H43.9224ZM59.6406 48.2598C59.6406 55.7156 53.5965 61.7598 46.1406 61.7598V64.7598C55.2533 64.7598 62.6406 57.3725 62.6406 48.2598H59.6406ZM46.1406 34.7598C53.5965 34.7598 59.6406 40.8039 59.6406 48.2598H62.6406C62.6406 39.1471 55.2533 31.7598 46.1406 31.7598V34.7598ZM32.6406 48.2598C32.6406 40.8039 38.6848 34.7598 46.1406 34.7598V31.7598C37.0279 31.7598 29.6406 39.1471 29.6406 48.2598H32.6406ZM37.141 58.3226C34.3767 55.8485 32.6406 52.2579 32.6406 48.2598H29.6406C29.6406 53.1467 31.767 57.5389 35.1403 60.558L37.141 58.3226ZM38.0416 59.0616C37.7308 58.8281 37.4303 58.5815 37.141 58.3226L35.1403 60.558C35.4934 60.8741 35.8603 61.1752 36.2399 61.4603L38.0416 59.0616ZM38.6408 62.0795L38.6407 60.2609L35.6407 60.261L35.6408 62.0796L38.6408 62.0795ZM38.6563 65.5459L38.6408 62.0728L35.6408 62.0862L35.6563 65.5593L38.6563 65.5459ZM38.8842 66.4145C38.7339 66.1542 38.6552 65.8587 38.6563 65.558L35.6563 65.5472C35.6533 66.3783 35.8708 67.1954 36.2865 67.9151L38.8842 66.4145ZM39.5123 67.0399C39.2513 66.8906 39.0346 66.6748 38.8842 66.4145L36.2865 67.9151C36.7022 68.6348 37.3013 69.2313 38.0228 69.644L39.5123 67.0399ZM40.3726 67.2782C40.0738 67.2763 39.7807 67.1962 39.5226 67.0458L38.0125 69.638C38.7236 70.0523 39.5308 70.273 40.3538 70.2781L40.3726 67.2782ZM42.6302 67.282L40.3657 67.2782L40.3606 70.2782L42.6251 70.282L42.6302 67.282ZM43.4863 66.9902C43.24 67.1794 42.9381 67.282 42.6275 67.282L42.6278 70.282C43.5992 70.2819 44.5433 69.9612 45.3137 69.3694L43.4863 66.9902ZM43.9897 66.2358C43.9095 66.5358 43.7326 66.8011 43.4863 66.9902L45.3137 69.3694C46.0841 68.7777 46.6375 67.9482 46.8881 67.0097L43.9897 66.2358ZM43.9294 65.3308C44.0486 65.6176 44.0698 65.9357 43.9897 66.2358L46.8881 67.0097C47.1387 66.0712 47.0725 65.0762 46.6996 64.1793L43.9294 65.3308ZM43.3304 64.6498C43.5996 64.8046 43.8102 65.044 43.9294 65.3308L46.6996 64.1793C46.3267 63.2823 45.6682 62.5335 44.8261 62.0492L43.3304 64.6498ZM43.1724 64.5585L43.3283 64.6485L44.8283 62.0504L44.6724 61.9604L43.1724 64.5585ZM42.4224 63.0969V63.2595H45.4224V63.0969H42.4224ZM46.1406 61.7598C45.4608 61.7598 44.7936 61.7096 44.1423 61.6131L43.7024 64.5807C44.4989 64.6987 45.3131 64.7598 46.1406 64.7598V61.7598Z" fill="#D0D0D9"/>
<path d="M53.1406 47.2598C52.5884 47.2598 52.1406 46.8121 52.1406 46.2598C52.1406 45.7075 52.5884 45.2598 53.1406 45.2598C53.6929 45.2598 54.1406 45.7075 54.1406 46.2598C54.1406 46.8121 53.6929 47.2598 53.1406 47.2598Z" fill="#D0D0D9" stroke="#D0D0D9" stroke-width="2" stroke-linecap="round" stroke-linejoin="round"/>
<path d="M47.1406 47.2598C46.5884 47.2598 46.1406 46.8121 46.1406 46.2598C46.1406 45.7075 46.5884 45.2598 47.1406 45.2598C47.6929 45.2598 48.1406 45.7075 48.1406 46.2598C48.1406 46.8121 47.6929 47.2598 47.1406 47.2598Z" fill="#D0D0D9" stroke="#D0D0D9" stroke-width="2" stroke-linecap="round" stroke-linejoin="round"/>
</svg>
