<svg width="122" height="33" viewBox="0 0 122 33" fill="none" xmlns="http://www.w3.org/2000/svg">
<mask id="mask0_2222_8574" style="mask-type:alpha" maskUnits="userSpaceOnUse" x="0" y="0" width="122" height="33">
<rect width="121.44" height="33" fill="#D9D9D9"/>
</mask>
<g mask="url(#mask0_2222_8574)">
<path d="M78.7138 7.01375C91.6024 7.01375 102.051 17.462 102.051 30.3506C102.051 43.2392 91.6024 53.6875 78.7138 53.6875C65.8252 53.6875 55.3769 43.2392 55.3769 30.3506C55.3769 17.462 65.8252 7.01375 78.7138 7.01375Z" fill="#FFD770" stroke="#16181C" stroke-width="2.64" stroke-linecap="round" stroke-linejoin="round"/>
<path d="M81.8832 21.1308C80.5275 21.0102 79.3306 22.0115 79.21 23.3673C79.0894 24.7232 80.0908 25.9199 81.4465 26.0405C82.8023 26.1611 83.9991 25.1598 84.1197 23.804C84.2403 22.4482 83.239 21.2514 81.8832 21.1308Z" fill="#16181C"/>
<path fill-rule="evenodd" clip-rule="evenodd" d="M75.7379 21.7309C75.8585 20.3751 74.8572 19.1783 73.5014 19.0577C72.1457 18.9371 70.9487 19.9384 70.8282 21.2942C70.7076 22.65 71.709 23.8468 73.0647 23.9674C74.4205 24.088 75.6173 23.0867 75.7379 21.7309Z" fill="#16181C"/>
<path d="M34.3193 17.4393L58.4144 8.65727L64.2003 24.5317L40.1051 33.3138L34.3193 17.4393Z" fill="white"/>
<path d="M34.3193 17.4393L58.4144 8.65727M34.3193 17.4393L40.1051 33.3138L64.2003 24.5317L58.4144 8.65727M34.3193 17.4393L46.592 20.8037C48.3231 21.2783 50.1651 20.607 51.1849 19.1297L58.4144 8.65727" stroke="#16181C" stroke-width="2.64" stroke-linejoin="round"/>
<path d="M48.5449 17.352C49.0303 16.7854 49.8223 16.3033 50.819 16.4733C51.858 16.6507 52.5187 17.3593 52.8764 18.0857C53.2266 18.7969 53.3416 19.6177 53.2692 20.2955C53.1847 21.0869 52.761 21.9096 52.3603 22.5552C51.9401 23.2321 51.4543 23.8561 51.1104 24.2748C50.8929 24.5395 50.5537 24.6733 50.2142 24.628C49.6081 24.5473 48.6627 24.4085 47.748 24.0853C46.8512 23.7683 45.8225 23.2177 45.2345 22.2046C44.7869 21.4333 44.6121 20.541 44.7811 19.7227C44.9547 18.8822 45.4999 18.1227 46.4221 17.7869C47.0929 17.5427 47.719 17.5725 48.2517 17.757C48.3392 17.6143 48.4369 17.478 48.5449 17.352Z" fill="#FF4000" stroke="black" stroke-width="1.98" stroke-linecap="round" stroke-linejoin="round"/>
</g>
</svg>
