<svg width="77" height="26" viewBox="0 0 77 26" fill="none" xmlns="http://www.w3.org/2000/svg">
<g clip-path="url(#clip0_2222_8695)">
<mask id="path-1-outside-1_2222_8695" maskUnits="userSpaceOnUse" x="1" y="0" width="76" height="26" fill="black">
<rect fill="white" x="1" width="76" height="26"/>
<path d="M72.7979 3.67871L74.9736 3.49219L74.7832 5.85449L74.6064 8.04102L74.4717 9.70508L74.4297 10.2275L73.9014 16.7881L73.7646 18.4795L72.0742 18.625L65.7256 19.1709L65.2988 19.207V19.208L63.6084 19.3535L61.4922 19.5352L57.2617 19.8984L56.835 19.9346V19.9355L55.1445 20.0811L48.7969 20.627L46.4355 20.8301L46.626 18.4678L46.6279 18.4336L46.4492 18.4492L46.3926 19.1553L46.2559 20.8467L44.5654 20.9922L42.4492 21.1738L40.0889 21.376L40.2783 19.0146L40.2803 18.9805L40.0996 18.9961L40.043 19.7012L39.9062 21.3926L38.2158 21.5381L31.8682 22.084L31.4443 22.1201L29.7539 22.2666L23.4053 22.8125L22.9795 22.8486L21.2891 22.9951L14.9414 23.541L14.5146 23.5771L12.8242 23.7236L6.47656 24.2695L4.11523 24.4727L4.30566 22.1104L4.30762 22.0762L3 22.1895L4.15039 7.91895L13.6846 7.09863L13.9434 7.07715L21.0771 6.46289L21.0781 6.46191L29.541 5.73535L29.542 5.7334L38.0049 5.00586L38.0068 5.00488L46.4678 4.27637L46.8223 4.24609L47.5391 4.18457L47.7979 4.16309L54.1465 3.61719L54.9336 3.5498L54.9346 3.54785L64.4688 2.72754L64.4668 2.72949L64.7285 2.70605L72.9336 2L72.7979 3.67871Z"/>
</mask>
<path d="M72.7979 3.67871L74.9736 3.49219L74.7832 5.85449L74.6064 8.04102L74.4717 9.70508L74.4297 10.2275L73.9014 16.7881L73.7646 18.4795L72.0742 18.625L65.7256 19.1709L65.2988 19.207V19.208L63.6084 19.3535L61.4922 19.5352L57.2617 19.8984L56.835 19.9346V19.9355L55.1445 20.0811L48.7969 20.627L46.4355 20.8301L46.626 18.4678L46.6279 18.4336L46.4492 18.4492L46.3926 19.1553L46.2559 20.8467L44.5654 20.9922L42.4492 21.1738L40.0889 21.376L40.2783 19.0146L40.2803 18.9805L40.0996 18.9961L40.043 19.7012L39.9062 21.3926L38.2158 21.5381L31.8682 22.084L31.4443 22.1201L29.7539 22.2666L23.4053 22.8125L22.9795 22.8486L21.2891 22.9951L14.9414 23.541L14.5146 23.5771L12.8242 23.7236L6.47656 24.2695L4.11523 24.4727L4.30566 22.1104L4.30762 22.0762L3 22.1895L4.15039 7.91895L13.6846 7.09863L13.9434 7.07715L21.0771 6.46289L21.0781 6.46191L29.541 5.73535L29.542 5.7334L38.0049 5.00586L38.0068 5.00488L46.4678 4.27637L46.8223 4.24609L47.5391 4.18457L47.7979 4.16309L54.1465 3.61719L54.9336 3.5498L54.9346 3.54785L64.4688 2.72754L64.4668 2.72949L64.7285 2.70605L72.9336 2L72.7979 3.67871Z" fill="white"/>
<path d="M72.7979 3.67871L71.8011 3.59811L71.7059 4.77599L72.8833 4.67506L72.7979 3.67871ZM74.9736 3.49219L75.9704 3.57254L76.0653 2.39493L74.8882 2.49584L74.9736 3.49219ZM74.7832 5.85449L75.78 5.93507L75.78 5.93484L74.7832 5.85449ZM74.6064 8.04102L75.6032 8.12174L75.6032 8.12159L74.6064 8.04102ZM74.4717 9.70508L73.4749 9.62436L73.4749 9.62496L74.4717 9.70508ZM74.4297 10.2275L75.4265 10.3078L75.4265 10.3077L74.4297 10.2275ZM73.9014 16.7881L74.8981 16.8687L74.8981 16.8684L73.9014 16.7881ZM73.7646 18.4795L73.8504 19.4758L74.6932 19.4033L74.7614 18.5601L73.7646 18.4795ZM72.0742 18.625L72.1599 19.6213L72.16 19.6213L72.0742 18.625ZM65.7256 19.1709L65.81 20.1673L65.8113 20.1672L65.7256 19.1709ZM65.2988 19.207L65.2145 18.2106L64.2988 18.2881V19.207H65.2988ZM65.2988 19.208L65.3846 20.2043L66.2988 20.1256V19.208H65.2988ZM63.6084 19.3535L63.6939 20.3499L63.6942 20.3498L63.6084 19.3535ZM61.4922 19.5352L61.4067 18.5388L61.4066 18.5388L61.4922 19.5352ZM57.2617 19.8984L57.3461 20.8949L57.3473 20.8948L57.2617 19.8984ZM56.835 19.9346L56.7506 18.9381L55.835 19.0157V19.9346H56.835ZM56.835 19.9355L56.9207 20.9319L57.835 20.8532V19.9355H56.835ZM55.1445 20.0811L55.2302 21.0774L55.2303 21.0774L55.1445 20.0811ZM48.7969 20.627L48.7112 19.6306L48.7112 19.6306L48.7969 20.627ZM46.4355 20.8301L45.4388 20.7497L45.3438 21.9277L46.5213 21.8264L46.4355 20.8301ZM46.626 18.4678L47.6227 18.5481L47.6237 18.5365L47.6243 18.5248L46.626 18.4678ZM46.6279 18.4336L47.6263 18.4906L47.6922 17.3367L46.5408 17.4374L46.6279 18.4336ZM46.4492 18.4492L46.3621 17.453L45.52 17.5266L45.4524 18.3693L46.4492 18.4492ZM46.3926 19.1553L47.3893 19.2358L47.3894 19.2352L46.3926 19.1553ZM46.2559 20.8467L46.3416 21.843L47.1845 21.7704L47.2526 20.9272L46.2559 20.8467ZM44.5654 20.9922L44.6509 21.9885L44.6512 21.9885L44.5654 20.9922ZM42.4492 21.1738L42.5345 22.1702L42.5347 22.1702L42.4492 21.1738ZM40.0889 21.376L39.0921 21.296L38.9976 22.4731L40.1742 22.3723L40.0889 21.376ZM40.2783 19.0146L41.2751 19.0946L41.276 19.0832L41.2767 19.0717L40.2783 19.0146ZM40.2803 18.9805L41.2786 19.0375L41.3445 17.8847L40.1941 17.9842L40.2803 18.9805ZM40.0996 18.9961L40.0134 17.9998L39.1706 18.0727L39.1028 18.916L40.0996 18.9961ZM40.043 19.7012L41.0397 19.7817L41.0398 19.7812L40.043 19.7012ZM39.9062 21.3926L39.992 22.3889L40.8348 22.3163L40.903 21.4731L39.9062 21.3926ZM38.2158 21.5381L38.3015 22.5344L38.3016 22.5344L38.2158 21.5381ZM31.8682 22.084L31.9531 23.0804L31.9538 23.0803L31.8682 22.084ZM31.4443 22.1201L31.3594 21.1237L31.358 21.1238L31.4443 22.1201ZM29.7539 22.2666L29.8396 23.2629L29.8402 23.2629L29.7539 22.2666ZM23.4053 22.8125L23.4898 23.8089L23.4909 23.8088L23.4053 22.8125ZM22.9795 22.8486L22.8949 21.8522L22.8932 21.8524L22.9795 22.8486ZM21.2891 22.9951L21.3747 23.9914L21.3754 23.9914L21.2891 22.9951ZM14.9414 23.541L15.0258 24.5375L15.0271 24.5373L14.9414 23.541ZM14.5146 23.5771L14.4303 22.5807L14.4283 22.5809L14.5146 23.5771ZM12.8242 23.7236L12.9099 24.72L12.9106 24.7199L12.8242 23.7236ZM6.47656 24.2695L6.39088 23.2732L6.39086 23.2732L6.47656 24.2695ZM4.11523 24.4727L3.11847 24.3923L3.02351 25.5703L4.20094 25.469L4.11523 24.4727ZM4.30566 22.1104L5.30243 22.1907L5.30337 22.1791L5.30404 22.1674L4.30566 22.1104ZM4.30762 22.0762L5.30599 22.1332L5.37187 20.9802L4.22131 21.0799L4.30762 22.0762ZM3 22.1895L2.00323 22.1091L1.90822 23.2878L3.08631 23.1857L3 22.1895ZM4.15039 7.91895L4.06467 6.92263L3.22162 6.99516L3.15362 7.83859L4.15039 7.91895ZM13.6846 7.09863L13.6018 6.10206L13.5988 6.10231L13.6846 7.09863ZM13.9434 7.07715L14.0261 8.07372L14.0291 8.07346L13.9434 7.07715ZM21.0771 6.46289L21.1629 7.4592L21.5263 7.42791L21.7843 7.17L21.0771 6.46289ZM21.0781 6.46191L20.9926 5.46558L20.629 5.49679L20.371 5.75481L21.0781 6.46191ZM29.541 5.73535L29.6266 6.73169L30.1848 6.68376L30.4354 6.18257L29.541 5.73535ZM29.542 5.7334L29.4563 4.73707L28.8981 4.78506L28.6476 5.28618L29.542 5.7334ZM38.0049 5.00586L38.0905 6.00218L38.2811 5.98581L38.4521 5.90029L38.0049 5.00586ZM38.0068 5.00488L37.9211 4.00857L37.7306 4.02497L37.5596 4.11046L38.0068 5.00488ZM46.4678 4.27637L46.3827 3.27999L46.382 3.28005L46.4678 4.27637ZM46.8223 4.24609L46.9074 5.24247L46.9078 5.24243L46.8223 4.24609ZM47.5391 4.18457L47.4563 3.18799L47.4535 3.18823L47.5391 4.18457ZM47.7979 4.16309L47.8806 5.15966L47.8835 5.15941L47.7979 4.16309ZM54.1465 3.61719L54.0612 2.62083L54.0608 2.62086L54.1465 3.61719ZM54.9336 3.5498L55.0189 4.54616L55.5774 4.49835L55.828 3.99702L54.9336 3.5498ZM54.9346 3.54785L54.8488 2.55153L54.2907 2.59956L54.0401 3.10064L54.9346 3.54785ZM64.4688 2.72754L65.1759 3.43465L67.1143 1.49623L64.383 1.73122L64.4688 2.72754ZM64.4668 2.72949L63.7597 2.02239L61.8107 3.97135L64.556 3.72551L64.4668 2.72949ZM64.7285 2.70605L64.6428 1.70973L64.6393 1.71004L64.7285 2.70605ZM72.9336 2L73.9303 2.0806L74.0256 0.902335L72.8479 1.00368L72.9336 2ZM72.7979 3.67871L72.8833 4.67506L75.059 4.48853L74.9736 3.49219L74.8882 2.49584L72.7124 2.68237L72.7979 3.67871ZM74.9736 3.49219L73.9769 3.41184L73.7864 5.77414L74.7832 5.85449L75.78 5.93484L75.9704 3.57254L74.9736 3.49219ZM74.7832 5.85449L73.7865 5.77392L73.6097 7.96044L74.6064 8.04102L75.6032 8.12159L75.78 5.93507L74.7832 5.85449ZM74.6064 8.04102L73.6097 7.96029L73.4749 9.62436L74.4717 9.70508L75.4684 9.7858L75.6032 8.12174L74.6064 8.04102ZM74.4717 9.70508L73.4749 9.62496L73.4329 10.1474L74.4297 10.2275L75.4265 10.3077L75.4685 9.78519L74.4717 9.70508ZM74.4297 10.2275L73.4329 10.1473L72.9046 16.7078L73.9014 16.7881L74.8981 16.8684L75.4265 10.3078L74.4297 10.2275ZM73.9014 16.7881L72.9046 16.7075L72.7679 18.3989L73.7646 18.4795L74.7614 18.5601L74.8981 16.8687L73.9014 16.7881ZM73.7646 18.4795L73.6789 17.4832L71.9885 17.6287L72.0742 18.625L72.16 19.6213L73.8504 19.4758L73.7646 18.4795ZM72.0742 18.625L71.9885 17.6287L65.6399 18.1746L65.7256 19.1709L65.8113 20.1672L72.1599 19.6213L72.0742 18.625ZM65.7256 19.1709L65.6412 18.1745L65.2145 18.2106L65.2988 19.207L65.3832 20.2035L65.81 20.1673L65.7256 19.1709ZM65.2988 19.207H64.2988V19.208H65.2988H66.2988V19.207H65.2988ZM65.2988 19.208L65.2131 18.2117L63.5226 18.3572L63.6084 19.3535L63.6942 20.3498L65.3846 20.2043L65.2988 19.208ZM63.6084 19.3535L63.5229 18.3572L61.4067 18.5388L61.4922 19.5352L61.5777 20.5315L63.6939 20.3499L63.6084 19.3535ZM61.4922 19.5352L61.4066 18.5388L57.1762 18.9021L57.2617 19.8984L57.3473 20.8948L61.5777 20.5315L61.4922 19.5352ZM57.2617 19.8984L57.1774 18.902L56.7506 18.9381L56.835 19.9346L56.9193 20.931L57.3461 20.8949L57.2617 19.8984ZM56.835 19.9346H55.835V19.9355H56.835H57.835V19.9346H56.835ZM56.835 19.9355L56.7492 18.9392L55.0588 19.0847L55.1445 20.0811L55.2303 21.0774L56.9207 20.9319L56.835 19.9355ZM55.1445 20.0811L55.0588 19.0847L48.7112 19.6306L48.7969 20.627L48.8826 21.6233L55.2302 21.0774L55.1445 20.0811ZM48.7969 20.627L48.7112 19.6306L46.3498 19.8338L46.4355 20.8301L46.5213 21.8264L48.8826 21.6233L48.7969 20.627ZM46.4355 20.8301L47.4323 20.9104L47.6227 18.5481L46.626 18.4678L45.6292 18.3874L45.4388 20.7497L46.4355 20.8301ZM46.626 18.4678L47.6243 18.5248L47.6263 18.4906L46.6279 18.4336L45.6296 18.3765L45.6276 18.4107L46.626 18.4678ZM46.6279 18.4336L46.5408 17.4374L46.3621 17.453L46.4492 18.4492L46.5363 19.4454L46.715 19.4298L46.6279 18.4336ZM46.4492 18.4492L45.4524 18.3693L45.3958 19.0753L46.3926 19.1553L47.3894 19.2352L47.446 18.5292L46.4492 18.4492ZM46.3926 19.1553L45.3958 19.0747L45.2591 20.7661L46.2559 20.8467L47.2526 20.9272L47.3893 19.2358L46.3926 19.1553ZM46.2559 20.8467L46.1701 19.8504L44.4797 19.9959L44.5654 20.9922L44.6512 21.9885L46.3416 21.843L46.2559 20.8467ZM44.5654 20.9922L44.4799 19.9959L42.3637 20.1775L42.4492 21.1738L42.5347 22.1702L44.6509 21.9885L44.5654 20.9922ZM42.4492 21.1738L42.3639 20.1775L40.0035 20.3796L40.0889 21.376L40.1742 22.3723L42.5345 22.1702L42.4492 21.1738ZM40.0889 21.376L41.0857 21.456L41.2751 19.0946L40.2783 19.0146L39.2815 18.9347L39.0921 21.296L40.0889 21.376ZM40.2783 19.0146L41.2767 19.0717L41.2786 19.0375L40.2803 18.9805L39.2819 18.9234L39.2799 18.9576L40.2783 19.0146ZM40.2803 18.9805L40.1941 17.9842L40.0134 17.9998L40.0996 18.9961L40.1858 19.9924L40.3664 19.9767L40.2803 18.9805ZM40.0996 18.9961L39.1028 18.916L39.0462 19.6211L40.043 19.7012L41.0398 19.7812L41.0964 19.0762L40.0996 18.9961ZM40.043 19.7012L39.0462 19.6206L38.9095 21.312L39.9062 21.3926L40.903 21.4731L41.0397 19.7817L40.043 19.7012ZM39.9062 21.3926L39.8205 20.3963L38.1301 20.5418L38.2158 21.5381L38.3016 22.5344L39.992 22.3889L39.9062 21.3926ZM38.2158 21.5381L38.1301 20.5418L31.7825 21.0877L31.8682 22.084L31.9538 23.0803L38.3015 22.5344L38.2158 21.5381ZM31.8682 22.084L31.7832 21.0876L31.3594 21.1237L31.4443 22.1201L31.5293 23.1165L31.9531 23.0804L31.8682 22.084ZM31.4443 22.1201L31.358 21.1238L29.6676 21.2703L29.7539 22.2666L29.8402 23.2629L31.5307 23.1164L31.4443 22.1201ZM29.7539 22.2666L29.6682 21.2703L23.3196 21.8162L23.4053 22.8125L23.4909 23.8088L29.8396 23.2629L29.7539 22.2666ZM23.4053 22.8125L23.3207 21.8161L22.8949 21.8522L22.9795 22.8486L23.0641 23.8451L23.4898 23.8089L23.4053 22.8125ZM22.9795 22.8486L22.8932 21.8524L21.2027 21.9988L21.2891 22.9951L21.3754 23.9914L23.0658 23.8449L22.9795 22.8486ZM21.2891 22.9951L21.2034 21.9988L14.8557 22.5447L14.9414 23.541L15.0271 24.5373L21.3747 23.9914L21.2891 22.9951ZM14.9414 23.541L14.857 22.5446L14.4303 22.5807L14.5146 23.5771L14.599 24.5736L15.0258 24.5375L14.9414 23.541ZM14.5146 23.5771L14.4283 22.5809L12.7379 22.7274L12.8242 23.7236L12.9106 24.7199L14.601 24.5734L14.5146 23.5771ZM12.8242 23.7236L12.7385 22.7273L6.39088 23.2732L6.47656 24.2695L6.56225 25.2659L12.9099 24.72L12.8242 23.7236ZM6.47656 24.2695L6.39086 23.2732L4.02953 23.4763L4.11523 24.4727L4.20094 25.469L6.56227 25.2659L6.47656 24.2695ZM4.11523 24.4727L5.112 24.553L5.30243 22.1907L4.30566 22.1104L3.3089 22.03L3.11847 24.3923L4.11523 24.4727ZM4.30566 22.1104L5.30404 22.1674L5.30599 22.1332L4.30762 22.0762L3.30925 22.0191L3.30729 22.0533L4.30566 22.1104ZM4.30762 22.0762L4.22131 21.0799L2.91369 21.1932L3 22.1895L3.08631 23.1857L4.39393 23.0724L4.30762 22.0762ZM3 22.1895L3.99677 22.2698L5.14716 7.9993L4.15039 7.91895L3.15362 7.83859L2.00323 22.1091L3 22.1895ZM4.15039 7.91895L4.23611 8.91526L13.7703 8.09495L13.6846 7.09863L13.5988 6.10231L4.06467 6.92263L4.15039 7.91895ZM13.6846 7.09863L13.7673 8.0952L14.0261 8.07372L13.9434 7.07715L13.8606 6.08058L13.6018 6.10206L13.6846 7.09863ZM13.9434 7.07715L14.0291 8.07346L21.1629 7.4592L21.0771 6.46289L20.9914 5.46658L13.8576 6.08083L13.9434 7.07715ZM21.0771 6.46289L21.7843 7.17L21.7852 7.16902L21.0781 6.46191L20.371 5.75481L20.37 5.75578L21.0771 6.46289ZM21.0781 6.46191L21.1637 7.45825L29.6266 6.73169L29.541 5.73535L29.4555 4.73902L20.9926 5.46558L21.0781 6.46191ZM29.541 5.73535L30.4354 6.18257L30.4364 6.18061L29.542 5.7334L28.6476 5.28618L28.6466 5.28814L29.541 5.73535ZM29.542 5.7334L29.6276 6.72972L38.0905 6.00218L38.0049 5.00586L37.9192 4.00953L29.4563 4.73707L29.542 5.7334ZM38.0049 5.00586L38.4521 5.90029L38.454 5.89931L38.0068 5.00488L37.5596 4.11046L37.5577 4.11143L38.0049 5.00586ZM38.0068 5.00488L38.0926 6.0012L46.5536 5.27268L46.4678 4.27637L46.382 3.28005L37.9211 4.00857L38.0068 5.00488ZM46.4678 4.27637L46.5529 5.27274L46.9074 5.24247L46.8223 4.24609L46.7372 3.24972L46.3827 3.27999L46.4678 4.27637ZM46.8223 4.24609L46.9078 5.24243L47.6246 5.18091L47.5391 4.18457L47.4535 3.18823L46.7367 3.24976L46.8223 4.24609ZM47.5391 4.18457L47.6218 5.18114L47.8806 5.15966L47.7979 4.16309L47.7151 3.16651L47.4563 3.188L47.5391 4.18457ZM47.7979 4.16309L47.8835 5.15941L54.2322 4.61351L54.1465 3.61719L54.0608 2.62086L47.7122 3.16676L47.7979 4.16309ZM54.1465 3.61719L54.2318 4.61354L55.0189 4.54616L54.9336 3.5498L54.8483 2.55345L54.0612 2.62083L54.1465 3.61719ZM54.9336 3.5498L55.828 3.99702L55.829 3.99507L54.9346 3.54785L54.0401 3.10064L54.0392 3.10259L54.9336 3.5498ZM54.9346 3.54785L55.0203 4.54417L64.5545 3.72386L64.4688 2.72754L64.383 1.73122L54.8488 2.55153L54.9346 3.54785ZM64.4688 2.72754L63.7616 2.02043L63.7597 2.02239L64.4668 2.72949L65.1739 3.4366L65.1759 3.43465L64.4688 2.72754ZM64.4668 2.72949L64.556 3.72551L64.8177 3.70207L64.7285 2.70605L64.6393 1.71004L64.3776 1.73348L64.4668 2.72949ZM64.7285 2.70605L64.8143 3.70237L73.0193 2.99632L72.9336 2L72.8479 1.00368L64.6428 1.70974L64.7285 2.70605ZM72.9336 2L71.9368 1.9194L71.8011 3.59811L72.7979 3.67871L73.7946 3.75931L73.9303 2.0806L72.9336 2Z" fill="black" mask="url(#path-1-outside-1_2222_8695)"/>
<mask id="path-3-outside-2_2222_8695" maskUnits="userSpaceOnUse" x="3.32063" y="2.69336" width="72" height="22" fill="black">
<rect fill="white" x="3.32063" y="2.69336" width="72" height="22"/>
<path d="M13.1976 15.165L11.0824 15.3467L11.2581 13.1602L9.1429 13.3418L8.96614 15.5283L11.0824 15.3467L10.9056 17.5332L8.78938 17.7148L8.6136 19.9023V19.9033L10.7288 19.7217L10.9056 17.5342L13.0208 17.3525L12.6693 21.7256L6.32063 22.2715L7.20149 11.3379L13.5501 10.792L13.1976 15.165ZM21.1341 20.9971L14.7865 21.543L15.6673 10.6094L22.015 10.0635L21.1341 20.9971ZM29.598 20.2686L23.2503 20.8145L24.1312 9.88086L30.4788 9.33496L29.598 20.2686ZM38.7669 10.793L34.5345 11.1572L34.3577 13.3438L38.5902 12.9795L38.0618 19.54L31.7132 20.0859L31.89 17.8994L36.1224 17.5352L36.2982 15.3477L32.0658 15.7119L32.595 9.15234L38.9427 8.60645L38.7669 10.793ZM47.2308 10.0654L45.1146 10.2471L44.4095 18.9941L42.2943 19.1758L42.9993 10.4287L42.9984 10.4297L40.8822 10.6113L41.0589 8.4248L47.4075 7.87891L47.2308 10.0654ZM17.6068 12.6133L17.0775 19.1738L19.1937 18.9922L19.722 12.4316L17.6068 12.6133ZM55.6937 9.33594L51.4622 9.7002L51.2855 11.8867L53.4017 11.7051L53.2249 13.8916L51.1087 14.0732L50.9329 16.2607H50.9339L55.1654 15.8965L54.9896 18.083L48.6409 18.6289L49.5218 7.69531L55.8704 7.14941L55.6937 9.33594ZM26.0706 11.8848L25.5413 18.4453L27.6575 18.2637L28.1859 11.7031L26.0706 11.8848ZM63.9837 10.7939L61.8665 10.9756L62.0433 8.78906L59.9271 8.9707L59.7513 11.1572L61.8665 10.9756L61.6908 13.1621V13.1631L63.806 12.9814L63.4544 17.3555L61.3372 17.5371L61.6888 13.1631L59.5745 13.3447L59.222 17.7188L57.1068 17.9004L57.9876 6.9668L64.3353 6.4209L63.9837 10.7939ZM72.6234 7.87988L68.3909 8.24414L68.2152 10.4307L72.4476 10.0664L71.9183 16.627L65.5706 17.1729L65.7474 14.9863L69.9788 14.6221L70.1546 12.4346L65.9232 12.7988L66.4515 6.23926L72.8001 5.69336L72.6234 7.87988Z"/>
</mask>
<path d="M13.1976 15.165L11.0824 15.3467L11.2581 13.1602L9.1429 13.3418L8.96614 15.5283L11.0824 15.3467L10.9056 17.5332L8.78938 17.7148L8.6136 19.9023V19.9033L10.7288 19.7217L10.9056 17.5342L13.0208 17.3525L12.6693 21.7256L6.32063 22.2715L7.20149 11.3379L13.5501 10.792L13.1976 15.165ZM21.1341 20.9971L14.7865 21.543L15.6673 10.6094L22.015 10.0635L21.1341 20.9971ZM29.598 20.2686L23.2503 20.8145L24.1312 9.88086L30.4788 9.33496L29.598 20.2686ZM38.7669 10.793L34.5345 11.1572L34.3577 13.3438L38.5902 12.9795L38.0618 19.54L31.7132 20.0859L31.89 17.8994L36.1224 17.5352L36.2982 15.3477L32.0658 15.7119L32.595 9.15234L38.9427 8.60645L38.7669 10.793ZM47.2308 10.0654L45.1146 10.2471L44.4095 18.9941L42.2943 19.1758L42.9993 10.4287L42.9984 10.4297L40.8822 10.6113L41.0589 8.4248L47.4075 7.87891L47.2308 10.0654ZM17.6068 12.6133L17.0775 19.1738L19.1937 18.9922L19.722 12.4316L17.6068 12.6133ZM55.6937 9.33594L51.4622 9.7002L51.2855 11.8867L53.4017 11.7051L53.2249 13.8916L51.1087 14.0732L50.9329 16.2607H50.9339L55.1654 15.8965L54.9896 18.083L48.6409 18.6289L49.5218 7.69531L55.8704 7.14941L55.6937 9.33594ZM26.0706 11.8848L25.5413 18.4453L27.6575 18.2637L28.1859 11.7031L26.0706 11.8848ZM63.9837 10.7939L61.8665 10.9756L62.0433 8.78906L59.9271 8.9707L59.7513 11.1572L61.8665 10.9756L61.6908 13.1621V13.1631L63.806 12.9814L63.4544 17.3555L61.3372 17.5371L61.6888 13.1631L59.5745 13.3447L59.222 17.7188L57.1068 17.9004L57.9876 6.9668L64.3353 6.4209L63.9837 10.7939ZM72.6234 7.87988L68.3909 8.24414L68.2152 10.4307L72.4476 10.0664L71.9183 16.627L65.5706 17.1729L65.7474 14.9863L69.9788 14.6221L70.1546 12.4346L65.9232 12.7988L66.4515 6.23926L72.8001 5.69336L72.6234 7.87988Z" fill="#10256E"/>
<path d="M13.1976 15.165L13.3691 17.1629L15.06 17.0177L15.1963 15.3262L13.1976 15.165ZM11.2581 13.1602L13.2569 13.3208L13.4467 10.9596L11.0866 11.1623L11.2581 13.1602ZM9.1429 13.3418L8.97134 11.3439L7.28091 11.4891L7.1442 13.1802L9.1429 13.3418ZM8.96614 15.5283L6.96744 15.3667L6.77649 17.7289L9.13762 17.5262L8.96614 15.5283ZM10.9056 17.5332L11.0771 19.5311L12.7676 19.386L12.9043 17.6948L10.9056 17.5332ZM8.78938 17.7148L8.6179 15.717L6.92658 15.8621L6.79061 17.5542L8.78938 17.7148ZM8.6136 19.9023L6.61482 19.7417L6.60838 19.8219V19.9023H8.6136ZM8.6136 19.9033H6.60838V22.0881L8.78516 21.9012L8.6136 19.9033ZM10.7288 19.7217L10.9004 21.7195L12.5909 21.5744L12.7275 19.8832L10.7288 19.7217ZM10.9056 17.5342L10.734 15.5363L9.04354 15.6815L8.90689 17.3727L10.9056 17.5342ZM13.0208 17.3525L15.0196 17.5132L15.2094 15.152L12.8493 15.3547L13.0208 17.3525ZM12.6693 21.7256L12.8411 23.7234L14.532 23.578L14.668 21.8863L12.6693 21.7256ZM6.32063 22.2715L4.32189 22.1105L4.13161 24.4723L6.49242 24.2693L6.32063 22.2715ZM7.20149 11.3379L7.0297 9.34004L5.33902 9.48542L5.20275 11.1769L7.20149 11.3379ZM13.5501 10.792L15.5489 10.9531L15.7393 8.59114L13.3783 8.79414L13.5501 10.792ZM21.1341 20.9971L21.3059 22.9949L22.9966 22.8495L23.1329 21.1581L21.1341 20.9971ZM14.7865 21.543L12.7877 21.3819L12.5974 23.7438L14.9583 23.5408L14.7865 21.543ZM15.6673 10.6094L15.4955 8.61153L13.8048 8.75693L13.6686 10.4483L15.6673 10.6094ZM22.015 10.0635L24.0137 10.2245L24.204 7.8626L21.8432 8.06563L22.015 10.0635ZM29.598 20.2686L29.7698 22.2664L31.4605 22.121L31.5967 20.4296L29.598 20.2686ZM23.2503 20.8145L21.2516 20.6534L21.0613 23.0153L23.4221 22.8123L23.2503 20.8145ZM24.1312 9.88086L23.9594 7.88301L22.2687 8.02841L22.1324 9.71983L24.1312 9.88086ZM30.4788 9.33496L32.4776 9.49599L32.6679 7.13408L30.307 7.33712L30.4788 9.33496ZM38.7669 10.793L38.9389 12.7908L40.6297 12.6453L40.7657 10.9537L38.7669 10.793ZM34.5345 11.1572L34.3626 9.15939L32.6725 9.30485L32.5358 10.9957L34.5345 11.1572ZM34.3577 13.3438L32.359 13.1822L32.168 15.5448L34.5297 15.3416L34.3577 13.3438ZM38.5902 12.9795L40.5889 13.1405L40.7791 10.7785L38.4182 10.9817L38.5902 12.9795ZM38.0618 19.54L38.2336 21.5379L39.9244 21.3925L40.0606 19.701L38.0618 19.54ZM31.7132 20.0859L29.7145 19.9244L29.5235 22.2868L31.885 22.0838L31.7132 20.0859ZM31.89 17.8994L31.718 15.9016L30.028 16.047L29.8913 17.7378L31.89 17.8994ZM36.1224 17.5352L36.2943 19.533L37.9852 19.3875L38.1212 17.6958L36.1224 17.5352ZM36.2982 15.3477L38.2969 15.5083L38.4867 13.1467L36.1262 13.3498L36.2982 15.3477ZM32.0658 15.7119L30.067 15.5506L29.8764 17.913L32.2377 17.7097L32.0658 15.7119ZM32.595 9.15234L32.4232 7.1545L30.7328 7.29988L30.5963 8.99107L32.595 9.15234ZM38.9427 8.60645L40.9415 8.76713L41.1313 6.4056L38.7709 6.6086L38.9427 8.60645ZM47.2308 10.0654L47.4023 12.0633L49.0928 11.9182L49.2295 10.227L47.2308 10.0654ZM45.1146 10.2471L44.9431 8.2492L43.2522 8.39433L43.1158 10.086L45.1146 10.2471ZM44.4095 18.9941L44.5811 20.992L46.2719 20.8468L46.4082 19.1553L44.4095 18.9941ZM42.2943 19.1758L40.2955 19.0147L40.1052 21.3764L42.4658 21.1736L42.2943 19.1758ZM42.9993 10.4287L44.9981 10.5898L45.4361 5.15617L41.5814 9.01081L42.9993 10.4287ZM42.9984 10.4297L43.1698 12.4276L43.8989 12.365L44.4163 11.8476L42.9984 10.4297ZM40.8822 10.6113L38.8835 10.4498L38.6925 12.8119L41.0536 12.6092L40.8822 10.6113ZM41.0589 8.4248L40.8871 6.42696L39.1969 6.57229L39.0602 8.26323L41.0589 8.4248ZM47.4075 7.87891L49.4062 8.04048L49.5972 5.678L47.2358 5.88106L47.4075 7.87891ZM17.6068 12.6133L17.4352 10.6154L15.7445 10.7606L15.608 12.452L17.6068 12.6133ZM17.0775 19.1738L15.0787 19.0126L14.8882 21.3743L17.249 21.1717L17.0775 19.1738ZM19.1937 18.9922L19.3652 20.9901L21.0562 20.8449L21.1924 19.1531L19.1937 18.9922ZM19.722 12.4316L21.7207 12.5926L21.9109 10.2311L19.5504 10.4338L19.722 12.4316ZM55.6937 9.33594L55.8657 11.3338L57.5557 11.1883L57.6924 9.49751L55.6937 9.33594ZM51.4622 9.7002L51.2903 7.70236L49.6002 7.84785L49.4635 9.53862L51.4622 9.7002ZM51.2855 11.8867L49.2868 11.7251L49.0958 14.0873L51.457 13.8846L51.2855 11.8867ZM53.4017 11.7051L55.4004 11.8667L55.5913 9.50454L53.2302 9.7072L53.4017 11.7051ZM53.2249 13.8916L53.3964 15.8895L55.0869 15.7444L55.2236 14.0532L53.2249 13.8916ZM51.1087 14.0732L50.9372 12.0754L49.2459 12.2205L49.1099 13.9126L51.1087 14.0732ZM50.9329 16.2607L48.9342 16.1001L48.7601 18.266H50.9329V16.2607ZM50.9339 16.2607V18.266H51.0201L51.1059 18.2586L50.9339 16.2607ZM55.1654 15.8965L57.1641 16.0572L57.354 13.6954L54.9934 13.8987L55.1654 15.8965ZM54.9896 18.083L55.1614 20.0809L56.8523 19.9355L56.9883 18.2437L54.9896 18.083ZM48.6409 18.6289L46.6422 18.4679L46.4519 20.8298L48.8127 20.6268L48.6409 18.6289ZM49.5218 7.69531L49.35 5.69746L47.6593 5.84284L47.5231 7.53428L49.5218 7.69531ZM55.8704 7.14941L57.8691 7.31099L58.0601 4.94851L55.6987 5.15157L55.8704 7.14941ZM26.0706 11.8848L25.8991 9.8869L24.2084 10.0321L24.0719 11.7235L26.0706 11.8848ZM25.5413 18.4453L23.5426 18.2841L23.3521 20.6458L25.7128 20.4432L25.5413 18.4453ZM27.6575 18.2637L27.829 20.2615L29.5201 20.1164L29.6563 18.4246L27.6575 18.2637ZM28.1859 11.7031L30.1846 11.8641L30.3748 9.50256L28.0143 9.70526L28.1859 11.7031ZM63.9837 10.7939L64.1551 12.7918L65.8465 12.6467L65.9825 10.9546L63.9837 10.7939ZM62.0433 8.78906L64.042 8.95064L64.2329 6.58853L61.8718 6.79119L62.0433 8.78906ZM59.9271 8.9707L59.7556 6.97283L58.0643 7.118L57.9283 8.81002L59.9271 8.9707ZM59.7513 11.1572L57.7525 10.9965L57.5627 13.3578L59.9229 13.1551L59.7513 11.1572ZM61.6908 13.1621L59.692 13.0014L59.6855 13.0816V13.1621H61.6908ZM61.6908 13.1631H59.6855V15.3479L61.8623 15.161L61.6908 13.1631ZM63.806 12.9814L65.8048 13.1421L65.9945 10.7809L63.6344 10.9836L63.806 12.9814ZM63.4544 17.3555L63.6258 19.3533L65.3172 19.2082L65.4532 17.5161L63.4544 17.3555ZM61.3372 17.5371L59.3385 17.3765L59.1487 19.7375L61.5086 19.535L61.3372 17.5371ZM61.6888 13.1631L63.6876 13.3237L63.8774 10.9625L61.5172 11.1652L61.6888 13.1631ZM59.5745 13.3447L59.4029 11.3469L57.7121 11.4921L57.5758 13.1836L59.5745 13.3447ZM59.222 17.7188L59.3936 19.7166L61.0844 19.5714L61.2207 17.8798L59.222 17.7188ZM57.1068 17.9004L55.108 17.7394L54.9178 20.101L57.2783 19.8983L57.1068 17.9004ZM57.9876 6.9668L57.8158 4.96895L56.1251 5.11435L55.9889 6.80577L57.9876 6.9668ZM64.3353 6.4209L66.3341 6.58159L66.5239 4.22006L64.1635 4.42305L64.3353 6.4209ZM72.6234 7.87988L72.7953 9.87772L74.4854 9.73226L74.6221 8.04146L72.6234 7.87988ZM68.3909 8.24414L68.219 6.24631L66.5282 6.39183L66.3922 8.08345L68.3909 8.24414ZM68.2152 10.4307L66.2164 10.27L66.0265 12.6317L68.3871 12.4285L68.2152 10.4307ZM72.4476 10.0664L74.4463 10.2277L74.6369 7.86535L72.2756 8.06857L72.4476 10.0664ZM71.9183 16.627L72.0901 18.6248L73.7806 18.4794L73.917 16.7882L71.9183 16.627ZM65.5706 17.1729L63.5719 17.0113L63.381 19.3738L65.7424 19.1707L65.5706 17.1729ZM65.7474 14.9863L65.5754 12.9885L63.8854 13.134L63.7487 14.8248L65.7474 14.9863ZM69.9788 14.6221L70.1508 16.6199L71.8417 16.4743L71.9776 14.7827L69.9788 14.6221ZM70.1546 12.4346L72.1534 12.5952L72.3432 10.2335L69.9826 10.4367L70.1546 12.4346ZM65.9232 12.7988L63.9244 12.6378L63.7342 14.9999L66.0952 14.7967L65.9232 12.7988ZM66.4515 6.23926L66.2797 4.24141L64.589 4.38679L64.4527 6.07827L66.4515 6.23926ZM72.8001 5.69336L74.7988 5.85493L74.9898 3.49246L72.6283 3.69551L72.8001 5.69336ZM13.1976 15.165L13.026 13.1672L10.9108 13.3488L11.0824 15.3467L11.2539 17.3445L13.3691 17.1629L13.1976 15.165ZM11.0824 15.3467L13.0811 15.5074L13.2569 13.3208L11.2581 13.1602L9.25936 12.9995L9.08358 15.186L11.0824 15.3467ZM11.2581 13.1602L11.0866 11.1623L8.97134 11.3439L9.1429 13.3418L9.31446 15.3397L11.4297 15.158L11.2581 13.1602ZM9.1429 13.3418L7.1442 13.1802L6.96744 15.3667L8.96614 15.5283L10.9648 15.6899L11.1416 13.5034L9.1429 13.3418ZM8.96614 15.5283L9.13762 17.5262L11.2538 17.3446L11.0824 15.3467L10.9109 13.3488L8.79466 13.5304L8.96614 15.5283ZM11.0824 15.3467L9.08365 15.1851L8.90689 17.3716L10.9056 17.5332L12.9043 17.6948L13.0811 15.5083L11.0824 15.3467ZM10.9056 17.5332L10.7341 15.5353L8.6179 15.717L8.78938 17.7148L8.96087 19.7127L11.0771 19.5311L10.9056 17.5332ZM8.78938 17.7148L6.79061 17.5542L6.61482 19.7417L8.6136 19.9023L10.6124 20.063L10.7882 17.8755L8.78938 17.7148ZM8.6136 19.9023H6.60838V19.9033H8.6136H10.6188V19.9023H8.6136ZM8.6136 19.9033L8.78516 21.9012L10.9004 21.7195L10.7288 19.7217L10.5573 17.7238L8.44204 17.9055L8.6136 19.9033ZM10.7288 19.7217L12.7275 19.8832L12.9043 17.6957L10.9056 17.5342L8.90689 17.3727L8.73013 19.5602L10.7288 19.7217ZM10.9056 17.5342L11.0772 19.532L13.1924 19.3504L13.0208 17.3525L12.8493 15.3547L10.734 15.5363L10.9056 17.5342ZM13.0208 17.3525L11.0221 17.1919L10.6705 21.5649L12.6693 21.7256L14.668 21.8863L15.0196 17.5132L13.0208 17.3525ZM12.6693 21.7256L12.4975 19.7277L6.14884 20.2736L6.32063 22.2715L6.49242 24.2693L12.8411 23.7234L12.6693 21.7256ZM6.32063 22.2715L8.31938 22.4325L9.20024 11.4989L7.20149 11.3379L5.20275 11.1769L4.32189 22.1105L6.32063 22.2715ZM7.20149 11.3379L7.37328 13.3357L13.7219 12.7898L13.5501 10.792L13.3783 8.79414L7.0297 9.34004L7.20149 11.3379ZM13.5501 10.792L11.5514 10.6309L11.1989 15.0039L13.1976 15.165L15.1963 15.3262L15.5489 10.9531L13.5501 10.792ZM21.1341 20.9971L20.9623 18.9992L14.6146 19.5451L14.7865 21.543L14.9583 23.5408L21.3059 22.9949L21.1341 20.9971ZM14.7865 21.543L16.7852 21.704L17.6661 10.7704L15.6673 10.6094L13.6686 10.4483L12.7877 21.3819L14.7865 21.543ZM15.6673 10.6094L15.8391 12.6072L22.1868 12.0613L22.015 10.0635L21.8432 8.06563L15.4955 8.61153L15.6673 10.6094ZM22.015 10.0635L20.0162 9.90245L19.1354 20.836L21.1341 20.9971L23.1329 21.1581L24.0137 10.2245L22.015 10.0635ZM29.598 20.2686L29.4262 18.2707L23.0785 18.8166L23.2503 20.8145L23.4221 22.8123L29.7698 22.2664L29.598 20.2686ZM23.2503 20.8145L25.2491 20.9755L26.1299 10.0419L24.1312 9.88086L22.1324 9.71983L21.2516 20.6534L23.2503 20.8145ZM24.1312 9.88086L24.303 11.8787L30.6507 11.3328L30.4788 9.33496L30.307 7.33712L23.9594 7.88301L24.1312 9.88086ZM30.4788 9.33496L28.4801 9.17393L27.5992 20.1075L29.598 20.2686L31.5967 20.4296L32.4776 9.49599L30.4788 9.33496ZM38.7669 10.793L38.595 8.79513L34.3626 9.15939L34.5345 11.1572L34.7064 13.1551L38.9389 12.7908L38.7669 10.793ZM34.5345 11.1572L32.5358 10.9957L32.359 13.1822L34.3577 13.3438L36.3564 13.5053L36.5332 11.3188L34.5345 11.1572ZM34.3577 13.3438L34.5297 15.3416L38.7621 14.9773L38.5902 12.9795L38.4182 10.9817L34.1858 11.3459L34.3577 13.3438ZM38.5902 12.9795L36.5914 12.8185L36.0631 19.3791L38.0618 19.54L40.0606 19.701L40.5889 13.1405L38.5902 12.9795ZM38.0618 19.54L37.8901 17.5422L31.5414 18.0881L31.7132 20.0859L31.885 22.0838L38.2336 21.5379L38.0618 19.54ZM31.7132 20.0859L33.7119 20.2475L33.8887 18.061L31.89 17.8994L29.8913 17.7378L29.7145 19.9244L31.7132 20.0859ZM31.89 17.8994L32.0619 19.8972L36.2943 19.533L36.1224 17.5352L35.9504 15.5373L31.718 15.9016L31.89 17.8994ZM36.1224 17.5352L38.1212 17.6958L38.2969 15.5083L36.2982 15.3477L34.2994 15.187L34.1236 17.3745L36.1224 17.5352ZM36.2982 15.3477L36.1262 13.3498L31.8938 13.7141L32.0658 15.7119L32.2377 17.7097L36.4701 17.3455L36.2982 15.3477ZM32.0658 15.7119L34.0645 15.8732L34.5938 9.31362L32.595 9.15234L30.5963 8.99107L30.067 15.5506L32.0658 15.7119ZM32.595 9.15234L32.7669 11.1502L39.1145 10.6043L38.9427 8.60645L38.7709 6.6086L32.4232 7.1545L32.595 9.15234ZM38.9427 8.60645L36.9439 8.44576L36.7682 10.6323L38.7669 10.793L40.7657 10.9537L40.9415 8.76713L38.9427 8.60645ZM47.2308 10.0654L47.0593 8.06756L44.9431 8.2492L45.1146 10.2471L45.2861 12.2449L47.4023 12.0633L47.2308 10.0654ZM45.1146 10.2471L43.1158 10.086L42.4108 18.833L44.4095 18.9941L46.4082 19.1553L47.1133 10.4082L45.1146 10.2471ZM44.4095 18.9941L44.2379 16.9963L42.1227 17.1779L42.2943 19.1758L42.4658 21.1736L44.5811 20.992L44.4095 18.9941ZM42.2943 19.1758L44.293 19.3369L44.9981 10.5898L42.9993 10.4287L41.0006 10.2676L40.2955 19.0147L42.2943 19.1758ZM42.9993 10.4287L41.5814 9.01081L41.5805 9.01178L42.9984 10.4297L44.4163 11.8476L44.4172 11.8466L42.9993 10.4287ZM42.9984 10.4297L42.8269 8.43181L40.7107 8.61345L40.8822 10.6113L41.0536 12.6092L43.1698 12.4276L42.9984 10.4297ZM40.8822 10.6113L42.8809 10.7729L43.0576 8.58638L41.0589 8.4248L39.0602 8.26323L38.8835 10.4498L40.8822 10.6113ZM41.0589 8.4248L41.2307 10.4227L47.5793 9.87675L47.4075 7.87891L47.2358 5.88106L40.8871 6.42696L41.0589 8.4248ZM47.4075 7.87891L45.4088 7.71733L45.2321 9.90386L47.2308 10.0654L49.2295 10.227L49.4062 8.04048L47.4075 7.87891ZM17.6068 12.6133L15.608 12.452L15.0787 19.0126L17.0775 19.1738L19.0762 19.3351L19.6055 12.7745L17.6068 12.6133ZM17.0775 19.1738L17.249 21.1717L19.3652 20.9901L19.1937 18.9922L19.0222 16.9943L16.906 17.176L17.0775 19.1738ZM19.1937 18.9922L21.1924 19.1531L21.7207 12.5926L19.722 12.4316L17.7233 12.2707L17.1949 18.8312L19.1937 18.9922ZM19.722 12.4316L19.5504 10.4338L17.4352 10.6154L17.6068 12.6133L17.7783 14.6111L19.8936 14.4295L19.722 12.4316ZM55.6937 9.33594L55.5217 7.33811L51.2903 7.70236L51.4622 9.7002L51.6342 11.698L55.8657 11.3338L55.6937 9.33594ZM51.4622 9.7002L49.4635 9.53862L49.2868 11.7251L51.2855 11.8867L53.2842 12.0483L53.4609 9.86177L51.4622 9.7002ZM51.2855 11.8867L51.457 13.8846L53.5732 13.703L53.4017 11.7051L53.2302 9.7072L51.114 9.88884L51.2855 11.8867ZM53.4017 11.7051L51.403 11.5435L51.2262 13.73L53.2249 13.8916L55.2236 14.0532L55.4004 11.8667L53.4017 11.7051ZM53.2249 13.8916L53.0534 11.8937L50.9372 12.0754L51.1087 14.0732L51.2802 16.0711L53.3964 15.8895L53.2249 13.8916ZM51.1087 14.0732L49.1099 13.9126L48.9342 16.1001L50.9329 16.2607L52.9317 16.4214L53.1075 14.2339L51.1087 14.0732ZM50.9329 16.2607V18.266H50.9339V16.2607V14.2555H50.9329V16.2607ZM50.9339 16.2607L51.1059 18.2586L55.3373 17.8943L55.1654 15.8965L54.9934 13.8987L50.7619 14.2629L50.9339 16.2607ZM55.1654 15.8965L53.1666 15.7358L52.9908 17.9223L54.9896 18.083L56.9883 18.2437L57.1641 16.0572L55.1654 15.8965ZM54.9896 18.083L54.8178 16.0852L48.4692 16.6311L48.6409 18.6289L48.8127 20.6268L55.1614 20.0809L54.9896 18.083ZM48.6409 18.6289L50.6397 18.7899L51.5205 7.85634L49.5218 7.69531L47.5231 7.53428L46.6422 18.4679L48.6409 18.6289ZM49.5218 7.69531L49.6936 9.69316L56.0422 9.14726L55.8704 7.14941L55.6987 5.15157L49.35 5.69746L49.5218 7.69531ZM55.8704 7.14941L53.8717 6.98784L53.695 9.17436L55.6937 9.33594L57.6924 9.49751L57.8691 7.31099L55.8704 7.14941ZM26.0706 11.8848L24.0719 11.7235L23.5426 18.2841L25.5413 18.4453L27.5401 18.6066L28.0694 12.046L26.0706 11.8848ZM25.5413 18.4453L25.7128 20.4432L27.829 20.2615L27.6575 18.2637L27.4861 16.2658L25.3699 16.4474L25.5413 18.4453ZM27.6575 18.2637L29.6563 18.4246L30.1846 11.8641L28.1859 11.7031L26.1871 11.5422L25.6588 18.1027L27.6575 18.2637ZM28.1859 11.7031L28.0143 9.70526L25.8991 9.8869L26.0706 11.8848L26.2422 13.8826L28.3574 13.701L28.1859 11.7031ZM63.9837 10.7939L63.8123 8.79606L61.6951 8.97771L61.8665 10.9756L62.0379 12.9735L64.1551 12.7918L63.9837 10.7939ZM61.8665 10.9756L63.8652 11.1372L64.042 8.95064L62.0433 8.78906L60.0446 8.62749L59.8678 10.814L61.8665 10.9756ZM62.0433 8.78906L61.8718 6.79119L59.7556 6.97283L59.9271 8.9707L60.0986 10.9686L62.2148 10.7869L62.0433 8.78906ZM59.9271 8.9707L57.9283 8.81002L57.7525 10.9965L59.7513 11.1572L61.7501 11.3179L61.9258 9.13139L59.9271 8.9707ZM59.7513 11.1572L59.9229 13.1551L62.0381 12.9735L61.8665 10.9756L61.695 8.97772L59.5797 9.15936L59.7513 11.1572ZM61.8665 10.9756L59.8678 10.8149L59.692 13.0014L61.6908 13.1621L63.6895 13.3228L63.8653 11.1363L61.8665 10.9756ZM61.6908 13.1621H59.6855V13.1631H61.6908H63.696V13.1621H61.6908ZM61.6908 13.1631L61.8623 15.161L63.9775 14.9793L63.806 12.9814L63.6344 10.9836L61.5192 11.1652L61.6908 13.1631ZM63.806 12.9814L61.8072 12.8208L61.4556 17.1948L63.4544 17.3555L65.4532 17.5161L65.8048 13.1421L63.806 12.9814ZM63.4544 17.3555L63.283 15.3576L61.1658 15.5392L61.3372 17.5371L61.5086 19.535L63.6258 19.3533L63.4544 17.3555ZM61.3372 17.5371L63.336 17.6978L63.6876 13.3237L61.6888 13.1631L59.69 13.0024L59.3385 17.3765L61.3372 17.5371ZM61.6888 13.1631L61.5172 11.1652L59.4029 11.3469L59.5745 13.3447L59.7462 15.3426L61.8604 15.1609L61.6888 13.1631ZM59.5745 13.3447L57.5758 13.1836L57.2233 17.5577L59.222 17.7188L61.2207 17.8798L61.5733 13.5058L59.5745 13.3447ZM59.222 17.7188L59.0504 15.7209L56.9352 15.9025L57.1068 17.9004L57.2783 19.8983L59.3936 19.7166L59.222 17.7188ZM57.1068 17.9004L59.1055 18.0614L59.9864 7.12782L57.9876 6.9668L55.9889 6.80577L55.108 17.7394L57.1068 17.9004ZM57.9876 6.9668L58.1594 8.96464L64.5071 8.41874L64.3353 6.4209L64.1635 4.42305L57.8158 4.96895L57.9876 6.9668ZM64.3353 6.4209L62.3365 6.26021L61.9849 10.6333L63.9837 10.7939L65.9825 10.9546L66.3341 6.58159L64.3353 6.4209ZM72.6234 7.87988L72.4514 5.88205L68.219 6.24631L68.3909 8.24414L68.5629 10.242L72.7953 9.87772L72.6234 7.87988ZM68.3909 8.24414L66.3922 8.08345L66.2164 10.27L68.2152 10.4307L70.2139 10.5914L70.3897 8.40483L68.3909 8.24414ZM68.2152 10.4307L68.3871 12.4285L72.6195 12.0642L72.4476 10.0664L72.2756 8.06857L68.0432 8.43283L68.2152 10.4307ZM72.4476 10.0664L70.4489 9.90515L69.9196 16.4657L71.9183 16.627L73.917 16.7882L74.4463 10.2277L72.4476 10.0664ZM71.9183 16.627L71.7465 14.6291L65.3988 15.175L65.5706 17.1729L65.7424 19.1707L72.0901 18.6248L71.9183 16.627ZM65.5706 17.1729L67.5693 17.3344L67.7461 15.1479L65.7474 14.9863L63.7487 14.8248L63.5719 17.0113L65.5706 17.1729ZM65.7474 14.9863L65.9194 16.9842L70.1508 16.6199L69.9788 14.6221L69.8069 12.6242L65.5754 12.9885L65.7474 14.9863ZM69.9788 14.6221L71.9776 14.7827L72.1534 12.5952L70.1546 12.4346L68.1558 12.274L67.9801 14.4615L69.9788 14.6221ZM70.1546 12.4346L69.9826 10.4367L65.7512 10.801L65.9232 12.7988L66.0952 14.7967L70.3266 14.4324L70.1546 12.4346ZM65.9232 12.7988L67.9219 12.9598L68.4502 6.40024L66.4515 6.23926L64.4527 6.07827L63.9244 12.6378L65.9232 12.7988ZM66.4515 6.23926L66.6233 8.23711L72.9719 7.69121L72.8001 5.69336L72.6283 3.69551L66.2797 4.24141L66.4515 6.23926ZM72.8001 5.69336L70.8014 5.53179L70.6247 7.71831L72.6234 7.87988L74.6221 8.04146L74.7988 5.85493L72.8001 5.69336Z" fill="#10256E" mask="url(#path-3-outside-2_2222_8695)"/>
<path d="M11.6225 13.2767L9.50674 13.4584L9.68231 11.2724L7.56659 11.4541L7.38991 13.6401L9.50674 13.4584L9.33006 15.6456L7.21433 15.8272L7.03766 18.0144L9.15338 17.8338L9.33006 15.6456L11.4458 15.4639L11.0935 19.8381L4.74525 20.3832L5.62644 9.44984L11.9747 8.90363L11.6225 13.2767ZM19.5586 19.1102L13.2104 19.6553L14.0904 8.72195L20.4387 8.17574L19.5586 19.1102ZM28.0226 18.3812L21.6744 18.9274L22.5544 7.9929L28.9027 7.44785L28.0226 18.3812ZM37.19 8.90478L32.9575 9.2693L32.7808 11.4564L37.0134 11.0919L36.4844 17.6522L30.1373 18.1984L30.3128 16.0124L34.5454 15.6479L34.7221 13.4607L30.4895 13.8241L31.0184 7.26501L37.3667 6.7188L37.19 8.90478ZM45.6551 8.17689L43.5394 8.35858L42.8338 17.1059L40.7181 17.2876L41.4215 8.54141L39.3069 8.7231L39.4825 6.53597L45.8307 5.98976L45.6551 8.17689ZM16.0306 10.7262L15.5017 17.2865L17.6174 17.1048L18.1463 10.5446L16.0306 10.7262ZM54.117 7.44785L49.8855 7.81237L49.7088 9.9995L51.8246 9.81781L51.649 12.0038L49.5332 12.1855L49.3566 14.3726H49.3577L53.5891 14.0092L53.4135 16.1952L47.0653 16.7414L47.9454 5.80808L54.2936 5.26187L54.117 7.44785ZM24.4946 9.9972L23.9657 16.5574L26.0814 16.3757L26.6103 9.81551L24.4946 9.9972ZM62.4065 8.90593L60.2897 9.08762L60.4663 6.90164L58.3506 7.08333L58.1739 9.2693L60.2897 9.08762L60.113 11.2747L57.9973 11.4564L57.645 15.8307L55.5293 16.0124L56.4105 5.07903L62.7587 4.53282L62.4065 8.90593ZM61.8775 15.4673L59.7607 15.649L60.113 11.2747L62.2298 11.0931L61.8775 15.4673ZM71.0472 5.99206L66.8146 6.35658L66.6379 8.54256L70.8705 8.17804L70.3416 14.7383L63.9933 15.2845L64.1699 13.0985L68.4014 12.734L68.577 10.5469L64.3466 10.9114L64.8756 4.35114L71.2238 3.80493L71.0472 5.99206Z" fill="url(#paint0_linear_2222_8695)"/>
<path d="M72.5055 7.52417L71.7999 16.2704L64.1227 16.9304L63.3359 16.9971V16.9994L59.1033 17.3616L58.0334 17.4548L57.7733 17.4766L54.8719 17.725V17.7273L45.338 18.5472L46.0414 9.79984L45.7835 9.82284L44.9967 9.88953L44.2922 18.6381L38.9908 19.0934L39.6942 10.346L39.4352 10.369L38.6473 10.4369L37.9428 19.1843L30.2667 19.8443L29.481 19.911V19.9133L21.8038 20.5733L21.017 20.64V20.6423L13.3387 21.3012L12.5519 21.3679V21.3702L3.01794 22.189L4.16799 7.91859L13.7019 7.0987L13.9609 7.07685L21.0949 6.4628L21.096 6.46165L29.5589 5.73491L29.56 5.73376L38.0229 5.00587L38.024 5.00472L46.4858 4.27682L46.8403 4.24577L47.5568 4.18483L47.8158 4.16298L54.1641 3.61677L54.9509 3.55008L54.952 3.54778L64.4859 2.72789L64.4848 2.72904L64.746 2.70604L72.951 2L72.5055 7.52417ZM5.62639 9.45027L4.7452 20.3836L11.0935 19.8386L11.4457 15.4643L9.33001 15.646L9.15333 17.8343L7.0376 18.0148L7.21428 15.8277L9.33001 15.646L9.50668 13.4589L7.38986 13.6405L7.56654 11.4546L9.68226 11.2729L9.50668 13.4589L11.6224 13.2772L11.9747 8.90406L5.62639 9.45027ZM14.0904 8.72237L13.2103 19.6557L19.5586 19.1107L20.4387 8.17617L14.0904 8.72237ZM22.5544 7.99333L21.6743 18.9278L28.0226 18.3816L28.9027 7.44827L22.5544 7.99333ZM31.0184 7.26544L30.4895 13.8245L34.722 13.4612L34.5453 15.6483L30.3128 16.0128L30.1372 18.1988L36.4844 17.6526L37.0133 11.0923L32.7808 11.4569L32.9574 9.26973L37.19 8.90521L37.3667 6.71923L31.0184 7.26544ZM39.4824 6.5364L39.3068 8.72352L41.4214 8.54184L40.718 17.2881L42.8338 17.1064L43.5394 8.359L45.6551 8.17732L45.8307 5.99019L39.4824 6.5364ZM17.6173 17.1052L15.5016 17.2869L16.0305 10.7267L18.1463 10.545L17.6173 17.1052ZM47.9453 5.8085L47.0652 16.7418L53.4135 16.1956L53.5891 14.0097L49.3576 14.373L49.5332 12.1859L51.6489 12.0042L51.8245 9.81824L49.7088 9.99993L49.8854 7.8128L54.1169 7.44827L54.2936 5.2623L47.9453 5.8085ZM26.0813 16.3762L23.9656 16.5579L24.4945 9.99763L26.6103 9.81594L26.0813 16.3762ZM56.4104 5.07946L55.5292 16.0128L57.6449 15.8311L57.9972 11.4569L60.1129 11.2752L60.2896 9.08805L58.1739 9.26973L58.3505 7.08375L60.4663 6.90207L60.2896 9.08805L62.4064 8.90636L62.7587 4.53325L56.4104 5.07946ZM60.1129 11.2752L59.7607 15.6494L61.8775 15.4677L62.2297 11.0935L60.1129 11.2752ZM64.8755 4.35157L64.3466 10.9118L68.5769 10.5473L68.4013 12.7344L64.1699 13.0989L63.9932 15.2849L70.3415 14.7387L70.8704 8.17847L66.6379 8.54299L66.8145 6.35701L71.0471 5.99249L71.2238 3.80536L64.8755 4.35157ZM54.2464 9.0938L53.4585 9.16164L53.1995 12.386L53.4607 12.3641L54.2464 12.2963L54.5065 9.0708L54.2464 9.0938Z" fill="white"/>
</g>
<defs>
<linearGradient id="paint0_linear_2222_8695" x1="4.74525" y1="12.0941" x2="71.2238" y2="12.0941" gradientUnits="userSpaceOnUse">
<stop stop-color="#FFD43A"/>
<stop offset="0.52" stop-color="#FF9D0A"/>
<stop offset="1" stop-color="#EE1400"/>
</linearGradient>
<clipPath id="clip0_2222_8695">
<rect width="77" height="26" fill="white"/>
</clipPath>
</defs>
</svg>
