<svg width="121" height="71" viewBox="0 0 121 71" fill="none" xmlns="http://www.w3.org/2000/svg">
<path d="M64.3681 52.7012C63.615 52.7726 62.8477 52.6935 62.2023 52.2989C61.5713 52.0548 60.926 51.6602 60.2663 51.1149L51.6198 43.2735C51.4549 43.1372 51.2757 42.8502 51.0965 42.5633C50.9173 42.2764 50.8887 41.9752 50.8601 41.6739C50.8315 41.3727 50.9535 41.0572 50.9249 40.756C51.0469 40.4405 51.1833 40.2756 51.3053 39.9601L55.8466 34.97C56.2555 34.4753 56.8437 34.2675 57.2955 34.2246C57.5967 34.196 57.9122 34.3181 58.2135 34.2895C58.529 34.4115 58.6939 34.5478 59.0094 34.6698L64.4942 39.62C65.2043 39.0967 66.0937 38.8604 66.9974 38.7746C68.0516 38.6745 68.9982 39.0406 69.8084 39.5716C70.6187 40.1025 71.2926 40.7984 71.8445 41.8098C72.2315 42.6849 72.4822 43.7248 72.2667 44.6571C72.0513 45.5893 71.6852 46.5358 71.0036 47.3604L68.2487 50.3573C67.6892 50.8663 67.1296 51.3753 66.4051 51.748C65.7093 52.4219 65.1211 52.6297 64.3681 52.7012Z" fill="#FFD770"/>
<path d="M64.3681 52.7012C63.615 52.7726 62.8477 52.6935 62.2023 52.2989C61.5713 52.0548 60.926 51.6602 60.2663 51.1149L51.6198 43.2735C51.4549 43.1372 51.2757 42.8502 51.0965 42.5633C50.9173 42.2764 50.8887 41.9752 50.8601 41.6739C50.8315 41.3727 50.9535 41.0572 50.9249 40.756C51.0469 40.4405 51.1833 40.2756 51.3053 39.9601L55.8466 34.97C56.2555 34.4753 56.8437 34.2675 57.2955 34.2246C57.5967 34.196 57.9122 34.3181 58.2135 34.2895C58.529 34.4115 58.6939 34.5478 59.0094 34.6698L64.4942 39.62C65.2043 39.0967 66.0937 38.8604 66.9974 38.7746C68.0516 38.6745 68.9982 39.0406 69.8084 39.5716C70.6187 40.1025 71.2926 40.7984 71.8445 41.8098C72.2315 42.6849 72.4822 43.7248 72.2667 44.6571C72.0513 45.5893 71.6852 46.5358 71.0036 47.3604L68.2487 50.3573C67.6892 50.8663 67.1296 51.3753 66.4051 51.748C65.7093 52.4219 65.1211 52.6297 64.3681 52.7012Z" stroke="#0950BA" stroke-width="2.69027" stroke-linecap="round" stroke-linejoin="round"/>
<path d="M45.1314 2.10191C40.5845 2.22955 36.03 3.87759 32.3428 6.65903C28.6557 9.44046 25.8216 13.2047 24.4145 17.5933C22.3203 17.944 20.4481 19.0335 19.2213 20.5177C17.8581 22.1667 17.2909 24.1961 17.3261 26.1684C17.3757 28.2912 18.3145 30.1776 19.6767 31.72C21.1894 33.248 23.0968 34.1308 25.0833 34.2462C26.8105 38.0334 29.3985 41.283 32.8186 43.6938C36.2387 46.1046 40.1755 47.5545 44.4498 47.7567C48.5735 47.9731 52.7477 47.121 56.5206 45.2433C60.2936 43.3655 63.364 40.4906 65.6099 36.9342C67.8558 33.3778 68.9902 29.319 69.0561 25.2096C69.1219 21.1002 67.9686 16.9546 65.9545 13.3466C63.7898 9.75293 60.7786 6.84741 57.0858 4.76644C53.4074 2.83608 49.3771 2.00287 45.1314 2.10191Z" fill="#FFD770"/>
<path d="M45.1314 2.10191C40.5845 2.22955 36.03 3.87759 32.3428 6.65903C28.6557 9.44046 25.8216 13.2047 24.4145 17.5933C22.3203 17.944 20.4481 19.0335 19.2213 20.5177C17.8581 22.1667 17.2909 24.1961 17.3261 26.1684C17.3757 28.2912 18.3145 30.1776 19.6767 31.72C21.1894 33.248 23.0968 34.1308 25.0833 34.2462C26.8105 38.0334 29.3985 41.283 32.8186 43.6938C36.2387 46.1046 40.1755 47.5545 44.4498 47.7567C48.5735 47.9731 52.7477 47.121 56.5206 45.2433C60.2936 43.3655 63.364 40.4906 65.6099 36.9342C67.8558 33.3778 68.9902 29.319 69.0561 25.2096C69.1219 21.1002 67.9686 16.9546 65.9545 13.3466C63.7898 9.75293 60.7786 6.84741 57.0858 4.76644C53.4074 2.83608 49.3771 2.00287 45.1314 2.10191Z" stroke="#0950BA" stroke-width="2.69027" stroke-linecap="round" stroke-linejoin="round"/>
<path d="M49.5646 21.5943C50.3177 21.5228 51.0135 20.8489 50.9421 20.0958C50.8706 19.3428 50.1967 18.6469 49.4436 18.7184C48.6906 18.7899 47.9947 19.4638 48.0662 20.2168C48.1376 20.9699 48.8116 21.6657 49.5646 21.5943Z" fill="#0950BA" stroke="#0950BA" stroke-width="1.79351"/>
<path d="M58.338 21.2232C59.0911 21.1517 59.787 20.4778 59.7155 19.7247C59.644 18.9717 58.9701 18.2758 58.217 18.3473C57.464 18.4188 56.7681 19.0927 56.8396 19.8457C56.9111 20.5988 57.585 21.2946 58.338 21.2232Z" fill="#0950BA" stroke="#0950BA" stroke-width="1.79351"/>
<path d="M61.9681 64.1753C61.6668 64.2038 61.2007 64.0962 60.8852 63.9741C60.5697 63.8521 60.2399 63.5795 60.0607 63.2926L52.2616 51.5715L35.3074 52.2689C35.0062 52.2975 34.5401 52.1898 34.2246 52.0678L31.3563 50.6684C31.0408 50.5463 30.6967 50.1231 30.3669 49.8505L21.4431 34.285C21.2496 33.8475 20.7549 33.4386 20.4394 33.3165C19.9589 33.0582 19.4928 32.9505 19.041 32.9934L14.3435 33.1353C13.741 33.1925 13.2606 32.9341 12.7659 32.5252C12.2712 32.1162 12.0634 31.5281 12.0205 31.0763L11.8566 27.7486C11.7994 27.1461 12.0578 26.6657 12.4667 26.171C12.8757 25.6763 13.4638 25.4685 13.9156 25.4256L18.7638 25.2694C20.5854 25.2484 22.4499 25.6794 24.0561 26.5907C25.6622 27.502 27.0101 28.8937 27.9204 30.4789L31.5616 36.8199L50.3231 35.951C51.2267 35.8652 52.3096 36.0663 53.2562 36.4324C54.2027 36.7985 55.0129 37.3294 55.6726 37.8747C56.3465 38.5706 57.0204 39.2664 57.4074 40.1415C57.7944 41.0166 58.0451 42.0565 58.1308 42.9602L58.3376 46.7397L66.4951 59.0346C66.8392 59.4579 66.8964 60.0603 66.8029 60.677C66.7095 61.2938 66.3005 61.7885 65.863 61.982L63.1444 63.7597C62.8574 63.9389 62.4199 64.1324 61.9681 64.1753ZM50.6289 43.9762L50.5717 43.3737L35.891 44.0073L36.2494 44.5811L50.6289 43.9762Z" fill="#B3D7FF"/>
<path d="M61.9681 64.1753C61.6668 64.2038 61.2007 64.0962 60.8852 63.9741C60.5697 63.8521 60.2399 63.5795 60.0607 63.2926L52.2616 51.5715L35.3074 52.2689C35.0062 52.2975 34.5401 52.1898 34.2246 52.0678L31.3563 50.6684C31.0408 50.5463 30.6967 50.1231 30.3669 49.8505L21.4431 34.285C21.2496 33.8475 20.7549 33.4386 20.4394 33.3165C19.9589 33.0582 19.4928 32.9505 19.041 32.9934L14.3435 33.1353C13.741 33.1925 13.2606 32.9341 12.7659 32.5252C12.2712 32.1162 12.0634 31.5281 12.0205 31.0763L11.8566 27.7486C11.7994 27.1461 12.0578 26.6657 12.4667 26.171C12.8757 25.6763 13.4638 25.4685 13.9156 25.4256L18.7638 25.2694C20.5854 25.2484 22.4499 25.6794 24.0561 26.5907C25.6622 27.502 27.0101 28.8937 27.9204 30.4789L31.5616 36.8199L50.3231 35.951C51.2267 35.8652 52.3096 36.0663 53.2562 36.4324C54.2027 36.7985 55.0129 37.3294 55.6726 37.8747C56.3465 38.5706 57.0204 39.2664 57.4074 40.1415C57.7944 41.0166 58.0451 42.0565 58.1308 42.9602L58.3376 46.7397L66.4951 59.0346C66.8392 59.4579 66.8964 60.0603 66.8029 60.677C66.7095 61.2938 66.3006 61.7885 65.863 61.982L63.1444 63.7597C62.8574 63.9389 62.4199 64.1324 61.9681 64.1753ZM50.6289 43.9762L50.5717 43.3737L35.891 44.0073L36.2494 44.5811L50.6289 43.9762Z" stroke="#0950BA" stroke-width="2.69027" stroke-linecap="round" stroke-linejoin="round"/>
<path d="M63.0317 67.4284C66.6607 67.2359 69.5519 64.0741 69.3594 60.4452C69.1669 56.8162 66.0051 53.9251 62.3762 54.1175C58.7472 54.31 55.856 57.4718 56.0485 61.1007C56.0903 64.7439 59.2379 67.4845 63.0317 67.4284Z" fill="#FBFBEB"/>
<path d="M63.0317 67.4284C66.6607 67.2359 69.5519 64.0741 69.3594 60.4452C69.1669 56.8162 66.0051 53.9251 62.3762 54.1175C58.7472 54.31 55.856 57.4718 56.0485 61.1007C56.0903 64.7439 59.2379 67.4845 63.0317 67.4284Z" stroke="#0950BA" stroke-width="2.69027" stroke-linecap="round" stroke-linejoin="round"/>
<path d="M62.7194 62.5878C63.7737 62.4878 64.6059 61.649 64.5058 60.5947C64.4057 59.5405 63.5669 58.7082 62.5126 58.8083C61.4584 58.9084 60.6262 59.7472 60.7262 60.8015C60.8263 61.8557 61.6651 62.6879 62.7194 62.5878Z" fill="#0950BA"/>
<path d="M39.5329 34.3912L34.9916 39.3812C34.4464 40.0408 33.7362 40.5642 32.8611 40.9512C32.1367 41.3239 31.2473 41.5602 30.3293 41.4954C29.4257 41.5812 28.644 41.3514 27.7118 41.136C26.9301 40.9062 26.1199 40.3753 25.4603 39.83C24.8006 39.2847 24.2773 38.5746 23.8903 37.6995C23.5176 36.9751 23.2813 36.0857 23.3461 35.1677C23.2603 34.2641 23.4901 33.4825 23.7198 32.7008C23.9496 31.9192 24.4805 31.1089 25.0258 30.4493L28.0533 27.1226" fill="#FFD770"/>
<path d="M39.5329 34.3912L34.9916 39.3812C34.4464 40.0408 33.7362 40.5642 32.8611 40.9512C32.1367 41.3239 31.2473 41.5602 30.3293 41.4954C29.4257 41.5812 28.644 41.3514 27.7118 41.136C26.9301 40.9062 26.1199 40.3753 25.4603 39.83C24.8006 39.2847 24.2773 38.5746 23.8903 37.6995C23.5176 36.9751 23.2813 36.0857 23.3461 35.1677C23.2603 34.2641 23.4901 33.4825 23.7198 32.7008C23.9496 31.9192 24.4805 31.1089 25.0258 30.4493L28.0533 27.1226" stroke="#0950BA" stroke-width="2.69027" stroke-linecap="round" stroke-linejoin="round"/>
<path d="M29.6613 42.479C22.8552 42.8211 17.4817 48.6499 17.8238 55.456C18.1658 62.262 23.9947 67.6355 30.8008 67.2934C37.6069 66.9513 42.9804 61.1225 42.6383 54.3165C42.4469 47.4961 36.618 42.1227 29.6613 42.479Z" fill="#FBFBEB"/>
<path d="M29.5403 39.6067C26.5138 39.742 23.573 40.7809 21.1556 42.53C18.7382 44.2792 16.8583 46.889 15.7601 49.7287C14.662 52.5683 14.5103 55.774 15.2338 58.5927C15.9715 61.5621 17.5843 64.1444 19.7567 66.2177C22.0796 68.2767 24.7973 69.6904 27.8667 70.0069C30.9504 70.4741 33.9483 70.0376 36.7098 68.7117C39.4714 67.3858 41.7096 65.3498 43.2882 62.7685C44.8668 60.1872 45.6495 57.2255 45.4999 54.0484C45.4646 52.0762 44.9633 49.9962 44.0387 48.2604C43.0998 46.3739 42.0389 44.803 40.5405 43.4255C39.042 42.0481 37.2709 41.0005 35.3778 40.2683C33.6496 39.6725 31.6488 39.4066 29.5403 39.6067Z" fill="#FBFBEB"/>
<path d="M29.5403 39.6067C26.5138 39.742 23.573 40.7809 21.1556 42.53C18.7381 44.2792 16.8583 46.889 15.7601 49.7287C14.662 52.5683 14.5103 55.774 15.2338 58.5927C15.9715 61.5621 17.5843 64.1444 19.7567 66.2177C22.0796 68.2767 24.7973 69.6904 27.8667 70.0069C30.9504 70.4741 33.9483 70.0376 36.7098 68.7117C39.4714 67.3858 41.7096 65.3498 43.2882 62.7685C44.8668 60.1872 45.6495 57.2255 45.4999 54.0484C45.4646 52.0762 44.9633 49.9962 44.0387 48.2604C43.0998 46.3739 42.0389 44.803 40.5405 43.4255C39.042 42.0481 37.2709 41.0005 35.3778 40.2683C33.6496 39.6725 31.6488 39.4066 29.5403 39.6067Z" stroke="#0950BA" stroke-width="2.69027" stroke-linecap="round" stroke-linejoin="round"/>
<path d="M30.0845 54.8985L29.4366 40.0672" stroke="#0950BA" stroke-width="2.69027"/>
<path d="M30.0829 54.9007L18.5385 63.1744" stroke="#0950BA" stroke-width="2.69027"/>
<path d="M30.084 54.8926L43.2489 62.3051" stroke="#0950BA" stroke-width="2.69027"/>
<path d="M30.524 59.5632C33.0987 59.4708 35.172 57.2984 34.929 54.7381C34.8366 52.1634 32.6642 50.0901 30.1038 50.3331C27.5292 50.4255 25.4558 52.5979 25.6989 55.1582C25.7913 57.7329 27.9493 59.6556 30.524 59.5632Z" fill="#0950BA"/>
<path d="M30.524 59.5632C33.0987 59.4708 35.172 57.2984 34.929 54.7381C34.8366 52.1634 32.6642 50.0901 30.1038 50.3331C27.5292 50.4255 25.4558 52.5979 25.6989 55.1582C25.7913 57.7329 27.9493 59.6556 30.524 59.5632Z" stroke="#0950BA" stroke-width="2.69027" stroke-linecap="round" stroke-linejoin="round"/>
<path d="M10.741 24.0562L4.23613 24.3697C2.56512 24.3763 1.33828 25.8605 1.34491 27.5315L1.60886 31.9135C1.61549 33.5845 3.09965 34.8113 4.77066 34.8047L11.2755 34.4912C12.9465 34.4846 14.1734 33.0004 14.1667 31.3294L13.9028 26.9474C13.7455 25.2907 12.3977 23.899 10.741 24.0562Z" fill="#B3D7FF"/>
<path d="M10.741 24.0562L4.23613 24.3697C2.56512 24.3763 1.33828 25.8605 1.34491 27.5315L1.60886 31.9135C1.61549 33.5845 3.09965 34.8113 4.77066 34.8047L11.2755 34.4912C12.9465 34.4846 14.1734 33.0004 14.1667 31.3294L13.9028 26.9474C13.7455 25.2907 12.3977 23.899 10.741 24.0562Z" stroke="#0950BA" stroke-width="2.69027" stroke-linecap="round" stroke-linejoin="round"/>
<path d="M83.9828 69.9742C84.7728 69.979 85.5513 69.7858 86.2474 69.4124C86.9435 69.0389 87.535 68.4972 87.9679 67.8364C88.4008 67.1757 88.6613 66.417 88.7257 65.6297C88.7901 64.8424 88.6563 64.0515 88.3364 63.3292L92.1336 59.532C92.5933 59.0717 92.8516 58.4477 92.8516 57.7971C92.8516 57.1465 92.5933 56.5226 92.1336 56.0622L88.3364 52.2651C87.8755 51.806 87.2521 51.5473 86.6016 51.5449C86.2791 51.5443 85.9598 51.6077 85.662 51.7313C85.3642 51.8549 85.0939 52.0363 84.8667 52.2651L78.3199 58.8119C77.8325 59.2984 77.4457 59.8762 77.1819 60.5123C76.918 61.1484 76.7822 61.8304 76.7822 62.519C76.7822 63.2077 76.918 63.8896 77.1819 64.5257C77.4457 65.1618 77.8325 65.7397 78.3199 66.2261L80.644 68.5503C81.0794 68.9958 81.5984 69.3509 82.1714 69.5952C82.7444 69.8396 83.36 69.9684 83.9828 69.9742Z" fill="#FFD770" stroke="#0950BA" stroke-width="2.62995" stroke-linecap="round" stroke-linejoin="round"/>
<path d="M105 69.9752C105.918 69.9788 106.821 69.7418 107.618 69.2878L110.466 67.6511C111.375 67.1265 112.085 66.3166 112.486 65.3472C112.887 64.3778 112.956 63.3031 112.684 62.29C112.412 61.2769 111.812 60.382 110.979 59.7444C110.146 59.1068 109.126 58.7621 108.077 58.7638L107.782 58.7638C112.68 55.6218 116.28 50.8198 117.924 45.2382C119.569 39.6566 119.146 33.6694 116.733 28.3743C114.321 23.0792 110.081 18.8311 104.79 16.4087C99.4998 13.9864 93.5134 13.5522 87.9287 15.1857C82.344 16.8193 77.5353 20.411 74.384 25.3026C71.2328 30.1941 69.9504 36.0576 70.7718 41.8181C71.5931 47.5785 74.4633 52.8499 78.8561 56.6658C83.2489 60.4816 88.8699 62.5862 94.6886 62.5937C95.6512 62.5968 96.6131 62.5421 97.5692 62.43L100.433 67.3401C100.894 68.1439 101.559 68.8113 102.361 69.2742C103.163 69.7371 104.074 69.979 105 69.9752Z" fill="#FFD770" stroke="#0950BA" stroke-width="2.62995" stroke-linecap="round" stroke-linejoin="round"/>
<path d="M108.053 37.4071C107.296 37.4071 106.683 36.7935 106.683 36.0365C106.683 35.2796 107.296 34.666 108.053 34.666C108.81 34.666 109.424 35.2796 109.424 36.0365C109.424 36.7935 108.81 37.4071 108.053 37.4071Z" fill="#0950BA" stroke="#0950BA" stroke-width="1.74304"/>
<path d="M98.0026 37.4071C97.2457 37.4071 96.632 36.7935 96.632 36.0365C96.632 35.2796 97.2457 34.666 98.0026 34.666C98.7595 34.666 99.373 35.2796 99.373 36.0365C99.373 36.7935 98.7595 37.4071 98.0026 37.4071Z" fill="#0950BA" stroke="#0950BA" stroke-width="1.74304"/>
</svg>
