<svg width="89" height="86" viewBox="0 0 89 86" fill="none" xmlns="http://www.w3.org/2000/svg">
<path d="M77.3165 63.3079C76.4119 63.3937 75.4902 63.2987 74.715 62.8246C73.9571 62.5315 73.1819 62.0575 72.3896 61.4025L62.0036 51.9836C61.8055 51.8199 61.5902 51.4752 61.375 51.1306C61.1597 50.7859 61.1254 50.4241 61.091 50.0623C61.0567 49.7005 61.2033 49.3215 61.1689 48.9597C61.3155 48.5807 61.4792 48.3826 61.6258 48.0036L67.0807 42.0097C67.5719 41.4155 68.2784 41.1659 68.8211 41.1144C69.1829 41.08 69.5619 41.2266 69.9237 41.1922C70.3027 41.3388 70.5008 41.5026 70.8798 41.6492L77.468 47.5952C78.321 46.9666 79.3893 46.6827 80.4747 46.5796C81.7411 46.4595 82.8781 46.8992 83.8513 47.537C84.8245 48.1747 85.634 49.0106 86.2969 50.2255C86.7618 51.2766 87.0629 52.5257 86.8041 53.6455C86.5453 54.7653 86.1056 55.9023 85.2869 56.8927L81.9778 60.4925C81.3057 61.1039 80.6335 61.7153 79.7633 62.1629C78.9275 62.9724 78.221 63.222 77.3165 63.3079Z" fill="#FFD770"/>
<path d="M77.3165 63.3079C76.4119 63.3937 75.4902 63.2987 74.715 62.8246C73.9571 62.5315 73.1819 62.0575 72.3896 61.4025L62.0036 51.9836C61.8055 51.8199 61.5902 51.4752 61.375 51.1306C61.1597 50.7859 61.1254 50.4241 61.091 50.0623C61.0567 49.7005 61.2033 49.3215 61.1689 48.9597C61.3155 48.5807 61.4792 48.3826 61.6258 48.0036L67.0807 42.0097C67.5719 41.4155 68.2784 41.1659 68.8211 41.1144C69.1829 41.08 69.5619 41.2266 69.9237 41.1922C70.3027 41.3388 70.5008 41.5026 70.8798 41.6492L77.468 47.5952C78.321 46.9666 79.3893 46.6827 80.4747 46.5796C81.7411 46.4595 82.8781 46.8992 83.8513 47.537C84.8245 48.1747 85.634 49.0106 86.2969 50.2255C86.7618 51.2766 87.0629 52.5257 86.8041 53.6455C86.5453 54.7653 86.1056 55.9023 85.2869 56.8927L81.9778 60.4925C81.3057 61.1039 80.6335 61.7153 79.7633 62.1629C78.9275 62.9724 78.221 63.222 77.3165 63.3079Z" stroke="#0950BA" stroke-width="3.23147" stroke-linecap="round" stroke-linejoin="round"/>
<path d="M54.2115 2.52469C48.7498 2.678 43.279 4.65759 38.8501 7.99857C34.4212 11.3396 31.017 15.861 29.3269 21.1325C26.8113 21.5538 24.5625 22.8625 23.0889 24.6452C21.4515 26.626 20.7702 29.0637 20.8125 31.4327C20.872 33.9825 21.9997 36.2485 23.6359 38.1011C25.453 39.9366 27.7441 40.9969 30.1302 41.1355C32.2049 45.6846 35.3134 49.5879 39.4216 52.4837C43.5298 55.3794 48.2586 57.1211 53.3927 57.3639C58.346 57.6239 63.3599 56.6004 67.8918 54.3449C72.4238 52.0894 76.1119 48.6362 78.8096 44.3643C81.5073 40.0924 82.8699 35.2171 82.9491 30.281C83.0282 25.345 81.6428 20.3654 79.2236 16.0315C76.6234 11.7149 73.0064 8.22485 68.5708 5.72525C64.1523 3.40655 59.3113 2.40572 54.2115 2.52469Z" fill="#FFD770"/>
<path d="M54.2115 2.52469C48.7498 2.678 43.279 4.65759 38.8501 7.99857C34.4212 11.3396 31.017 15.861 29.3269 21.1325C26.8113 21.5538 24.5625 22.8625 23.0889 24.6452C21.4515 26.626 20.7702 29.0637 20.8125 31.4327C20.872 33.9825 21.9997 36.2485 23.6359 38.1011C25.453 39.9366 27.7441 40.9969 30.1302 41.1355C32.2049 45.6846 35.3134 49.5879 39.4216 52.4837C43.5298 55.3794 48.2586 57.1211 53.3927 57.3639C58.346 57.6239 63.3599 56.6004 67.8918 54.3449C72.4238 52.0894 76.1119 48.6362 78.8096 44.3643C81.5073 40.0924 82.8699 35.2171 82.9491 30.281C83.0282 25.345 81.6428 20.3654 79.2236 16.0315C76.6234 11.7149 73.0064 8.22485 68.5708 5.72525C64.1523 3.40655 59.3113 2.40572 54.2115 2.52469Z" stroke="#0950BA" stroke-width="3.23147" stroke-linecap="round" stroke-linejoin="round"/>
<path d="M59.5345 25.9321C60.4391 25.8463 61.2749 25.0368 61.1891 24.1323C61.1032 23.2277 60.2937 22.3919 59.3892 22.4777C58.4846 22.5636 57.6488 23.373 57.7346 24.2776C57.8205 25.1821 58.63 26.018 59.5345 25.9321Z" fill="#0950BA" stroke="#0950BA" stroke-width="2.15431"/>
<path d="M70.0775 25.4858C70.982 25.4 71.8179 24.5905 71.732 23.686C71.6462 22.7814 70.8367 21.9456 69.9321 22.0314C69.0276 22.1173 68.1917 22.9267 68.2776 23.8313C68.3634 24.7358 69.1729 25.5717 70.0775 25.4858Z" fill="#0950BA" stroke="#0950BA" stroke-width="2.15431"/>
<path d="M74.4302 77.0887C74.0684 77.123 73.5085 76.9936 73.1295 76.8471C72.7505 76.7005 72.3544 76.373 72.1391 76.0284L62.7711 61.9494L42.4062 62.7871C42.0444 62.8214 41.4845 62.692 41.1055 62.5455L37.6602 60.8645C37.2812 60.718 36.8679 60.2096 36.4718 59.8821L25.7527 41.1854C25.5203 40.6598 24.9261 40.1686 24.5471 40.022C23.97 39.7117 23.4101 39.5823 22.8674 39.6339L17.2249 39.8043C16.5012 39.873 15.9241 39.5627 15.3299 39.0715C14.7357 38.5803 14.4861 37.8738 14.4346 37.3311L14.2377 33.334C14.169 32.6103 14.4793 32.0333 14.9705 31.439C15.4618 30.8448 16.1682 30.5951 16.711 30.5436L22.5344 30.356C24.7225 30.3309 26.9621 30.8485 28.8914 31.9431C30.8207 33.0378 32.4396 34.7095 33.5331 36.6136L37.9068 44.2301L60.4426 43.1864C61.528 43.0834 62.8288 43.325 63.9657 43.7647C65.1027 44.2044 66.0759 44.8422 66.8682 45.4972C67.6777 46.333 68.4872 47.1689 68.9521 48.22C69.4169 49.2711 69.718 50.5203 69.821 51.6057L70.0694 56.1456L79.8679 70.9139C80.2813 71.4223 80.3499 72.1459 80.2377 72.8867C80.1255 73.6275 79.6343 74.2218 79.1087 74.4542L75.8431 76.5895C75.4985 76.8048 74.9729 77.0372 74.4302 77.0887ZM60.8099 52.8261L60.7412 52.1024L43.1072 52.8635L43.5377 53.5528L60.8099 52.8261Z" fill="#B3D7FF"/>
<path d="M74.4302 77.0887C74.0684 77.123 73.5085 76.9936 73.1295 76.8471C72.7505 76.7005 72.3544 76.373 72.1391 76.0284L62.7711 61.9494L42.4062 62.7871C42.0444 62.8214 41.4845 62.692 41.1055 62.5455L37.6602 60.8645C37.2812 60.718 36.8679 60.2096 36.4718 59.8821L25.7527 41.1854C25.5203 40.6598 24.9261 40.1686 24.5471 40.022C23.97 39.7117 23.4101 39.5823 22.8674 39.6339L17.2249 39.8043C16.5012 39.873 15.9241 39.5627 15.3299 39.0715C14.7357 38.5803 14.4861 37.8738 14.4346 37.3311L14.2377 33.334C14.169 32.6103 14.4793 32.0333 14.9705 31.439C15.4618 30.8448 16.1682 30.5951 16.711 30.5436L22.5344 30.356C24.7225 30.3309 26.9621 30.8485 28.8914 31.9431C30.8207 33.0378 32.4396 34.7095 33.5331 36.6136L37.9068 44.2301L60.4426 43.1864C61.528 43.0834 62.8287 43.325 63.9657 43.7647C65.1027 44.2044 66.0759 44.8422 66.8682 45.4972C67.6777 46.333 68.4872 47.1689 68.9521 48.22C69.4169 49.2711 69.718 50.5203 69.821 51.6057L70.0694 56.1456L79.8679 70.9139C80.2813 71.4223 80.3499 72.1459 80.2377 72.8867C80.1255 73.6275 79.6343 74.2218 79.1087 74.4542L75.8431 76.5895C75.4985 76.8048 74.9729 77.0372 74.4302 77.0887ZM60.8099 52.8261L60.7412 52.1024L43.1072 52.8635L43.5377 53.5528L60.8099 52.8261Z" stroke="#0950BA" stroke-width="3.23147" stroke-linecap="round" stroke-linejoin="round"/>
<path d="M75.7142 80.9863C80.0732 80.7551 83.546 76.9572 83.3148 72.5983C83.0836 68.2393 79.2857 64.7665 74.9267 64.9977C70.5678 65.2289 67.0949 69.0267 67.3261 73.3857C67.3764 77.7618 71.1571 81.0538 75.7142 80.9863Z" fill="#FBFBEB"/>
<path d="M75.7142 80.9863C80.0732 80.7551 83.546 76.9572 83.3148 72.5983C83.0836 68.2393 79.2857 64.7665 74.9267 64.9977C70.5678 65.2289 67.0949 69.0267 67.3261 73.3857C67.3764 77.7618 71.1571 81.0538 75.7142 80.9863Z" stroke="#0950BA" stroke-width="3.23147" stroke-linecap="round" stroke-linejoin="round"/>
<path d="M75.3424 75.1809C76.6087 75.0607 77.6083 74.0532 77.4881 72.7868C77.368 71.5205 76.3604 70.5208 75.094 70.641C73.8276 70.7612 72.828 71.7688 72.9482 73.0352C73.0684 74.3015 74.076 75.3011 75.3424 75.1809Z" fill="#0950BA"/>
<path d="M47.4899 41.3154L42.035 47.3093C41.38 48.1016 40.527 48.7303 39.4759 49.1951C38.6057 49.6428 37.5374 49.9267 36.4348 49.8488C35.3493 49.9518 34.4104 49.6759 33.2906 49.4171C32.3517 49.1411 31.3785 48.5033 30.5862 47.8484C29.7939 47.1934 29.1653 46.3404 28.7004 45.2893C28.2528 44.4191 27.9688 43.3508 28.0467 42.2482C27.9437 41.1627 28.2196 40.2239 28.4956 39.285C28.7716 38.3461 29.4094 37.3728 30.0643 36.5805L33.7009 32.5846" fill="#FFD770"/>
<path d="M47.4899 41.3154L42.035 47.3093C41.38 48.1016 40.527 48.7303 39.4759 49.1951C38.6057 49.6428 37.5374 49.9267 36.4348 49.8488C35.3493 49.9518 34.4104 49.6759 33.2906 49.4171C32.3517 49.1411 31.3785 48.5033 30.5862 47.8484C29.7939 47.1934 29.1653 46.3404 28.7004 45.2893C28.2528 44.4191 27.9688 43.3508 28.0467 42.2482C27.9437 41.1627 28.2196 40.2239 28.4956 39.285C28.7716 38.3461 29.4094 37.3728 30.0643 36.5805L33.7009 32.5846" stroke="#0950BA" stroke-width="3.23147" stroke-linecap="round" stroke-linejoin="round"/>
<path d="M35.6271 51.0186C27.4519 51.4295 20.9974 58.4309 21.4082 66.6061C21.8191 74.7814 28.8206 81.2358 36.9959 80.825C45.1711 80.4141 51.6256 73.4126 51.2147 65.2374C50.9848 57.045 43.9833 50.5906 35.6271 51.0186Z" fill="#FBFBEB"/>
<path d="M35.4856 47.5676C31.8502 47.7301 28.3179 48.978 25.4141 51.079C22.5104 53.18 20.2524 56.3149 18.9333 59.7258C17.6142 63.1367 17.432 66.9873 18.301 70.3731C19.1872 73.9398 21.1244 77.0415 23.7338 79.5319C26.5241 82.0052 29.7884 83.7033 33.4753 84.0835C37.1794 84.6446 40.7804 84.1203 44.0975 82.5277C47.4145 80.9351 50.103 78.4895 51.9992 75.3889C53.8954 72.2883 54.8355 68.7308 54.6558 64.9146C54.6135 62.5456 54.0113 60.0472 52.9007 57.9622C51.773 55.6962 50.4986 53.8092 48.6987 52.1546C46.8988 50.5001 44.7715 49.2417 42.4975 48.3623C40.4217 47.6467 38.0183 47.3272 35.4856 47.5676Z" fill="#FBFBEB"/>
<path d="M35.4856 47.5676C31.8502 47.7301 28.3179 48.978 25.4141 51.079C22.5104 53.18 20.2524 56.3149 18.9333 59.7258C17.6142 63.1367 17.432 66.9873 18.301 70.3731C19.1872 73.9397 21.1244 77.0415 23.7338 79.5319C26.5241 82.0052 29.7884 83.7033 33.4753 84.0835C37.1794 84.6446 40.7804 84.1203 44.0975 82.5277C47.4145 80.9351 50.103 78.4895 51.9992 75.3889C53.8954 72.2883 54.8355 68.7308 54.6558 64.9146C54.6135 62.5456 54.0113 60.0472 52.9007 57.9622C51.773 55.6962 50.4986 53.8092 48.6987 52.1546C46.8988 50.5001 44.7715 49.2417 42.4975 48.3623C40.4217 47.6467 38.0183 47.3272 35.4856 47.5676Z" stroke="#0950BA" stroke-width="3.23147" stroke-linecap="round" stroke-linejoin="round"/>
<path d="M36.1339 65.9341L35.3557 48.1192" stroke="#0950BA" stroke-width="3.23147"/>
<path d="M36.1349 65.9408L22.2681 75.8789" stroke="#0950BA" stroke-width="3.23147"/>
<path d="M36.1328 65.9399L51.9461 74.8437" stroke="#0950BA" stroke-width="3.23147"/>
<path d="M36.6678 71.5419C39.7604 71.4309 42.2508 68.8215 41.9589 65.7461C41.8479 62.6535 39.2385 60.1631 36.1631 60.455C33.0705 60.566 30.58 63.1753 30.8719 66.2508C30.9829 69.3434 33.5751 71.6529 36.6678 71.5419Z" fill="#0950BA"/>
<path d="M36.6678 71.5419C39.7604 71.4309 42.2508 68.8215 41.9589 65.7461C41.8479 62.6535 39.2385 60.1631 36.1631 60.455C33.0705 60.566 30.58 63.1753 30.8719 66.2508C30.9829 69.3434 33.5751 71.6529 36.6678 71.5419Z" stroke="#0950BA" stroke-width="3.23147" stroke-linecap="round" stroke-linejoin="round"/>
<path d="M12.9023 28.8988L5.08882 29.2753C3.08164 29.2833 1.608 31.066 1.61597 33.0732L1.93301 38.3367C1.94098 40.3438 3.72371 41.8175 5.73088 41.8095L13.5443 41.433C15.5515 41.425 17.0252 39.6423 17.0172 37.6352L16.7001 32.3716C16.5113 30.3816 14.8923 28.7099 12.9023 28.8988Z" fill="#B3D7FF"/>
<path d="M12.9023 28.8988L5.08882 29.2753C3.08164 29.2833 1.608 31.066 1.61597 33.0732L1.93301 38.3367C1.94098 40.3438 3.72371 41.8175 5.73088 41.8095L13.5443 41.433C15.5515 41.425 17.0252 39.6423 17.0172 37.6352L16.7001 32.3716C16.5113 30.3816 14.8923 28.7099 12.9023 28.8988Z" stroke="#0950BA" stroke-width="3.23147" stroke-linecap="round" stroke-linejoin="round"/>
</svg>
