<svg width="45" height="35" viewBox="0 0 45 35" fill="none" xmlns="http://www.w3.org/2000/svg">
<path d="M43.9228 6.84369C44.2302 6.38489 44.1076 5.76373 43.6487 5.45629L36.1722 0.446209C35.7134 0.138767 35.0922 0.261464 34.7848 0.720265C34.4773 1.17906 34.6 1.80023 35.0588 2.10767L41.7047 6.56107L37.2513 13.2069C36.9438 13.6657 37.0665 14.2869 37.5253 14.5943C37.9841 14.9018 38.6053 14.7791 38.9127 14.3203L43.9228 6.84369ZM2.49022 33.44C2.7204 32.938 2.50002 32.3444 1.99799 32.1142C1.49596 31.884 0.902384 32.1044 0.672204 32.6065L2.49022 33.44ZM2.43634 29.0503C2.17446 29.5365 2.35636 30.143 2.84261 30.4049C3.32886 30.6668 3.93533 30.4849 4.19721 29.9986L2.43634 29.0503ZM5.13894 28.3274C5.41961 27.8517 5.26155 27.2386 4.7859 26.9579C4.31025 26.6773 3.69713 26.8353 3.41646 27.311L5.13894 28.3274ZM5.60004 23.9615C5.27672 24.4093 5.3776 25.0344 5.82536 25.3577C6.27311 25.681 6.89819 25.5801 7.22151 25.1324L5.60004 23.9615ZM8.37551 23.6188C8.72197 23.1887 8.65417 22.5592 8.22407 22.2127C7.79397 21.8663 7.16445 21.9341 6.81799 22.3642L8.37551 23.6188ZM9.51245 19.3801C9.11931 19.768 9.11507 20.4011 9.50297 20.7943C9.89087 21.1874 10.524 21.1916 10.9172 20.8037L9.51245 19.3801ZM12.305 19.5125C12.7202 19.1483 12.7616 18.5165 12.3974 18.1013C12.0332 17.6861 11.4014 17.6447 10.9862 18.0089L12.305 19.5125ZM14.1549 15.5358C13.7012 15.8508 13.5888 16.4739 13.9037 16.9276C14.2187 17.3812 14.8418 17.4937 15.2955 17.1787L14.1549 15.5358ZM16.8871 16.1349C17.3566 15.8441 17.5014 15.2277 17.2106 14.7582C16.9197 14.2887 16.3033 14.1439 15.8338 14.4348L16.8871 16.1349ZM19.3285 12.4923C18.8343 12.7389 18.6336 13.3394 18.8802 13.8336C19.1268 14.3278 19.7273 14.5285 20.2215 14.2819L19.3285 12.4923ZM21.9519 13.4614C22.4554 13.2345 22.6795 12.6423 22.4526 12.1388C22.2256 11.6353 21.6335 11.4111 21.13 11.6381L21.9519 13.4614ZM24.8124 10.1285C24.295 10.3216 24.0321 10.8976 24.2253 11.415C24.4184 11.9325 24.9944 12.1954 25.5118 12.0022L24.8124 10.1285ZM27.3275 11.3534C27.85 11.1746 28.1287 10.606 27.9498 10.0835C27.771 9.56093 27.2024 9.28232 26.6799 9.46115L27.3275 11.3534ZM30.4491 8.27022C29.919 8.42508 29.6148 8.98038 29.7696 9.5105C29.9245 10.0406 30.4798 10.3448 31.0099 10.19L30.4491 8.27022ZM32.8738 9.66487C33.4067 9.52 33.7213 8.97053 33.5765 8.43758C33.4316 7.90463 32.8821 7.59003 32.3492 7.7349L32.8738 9.66487ZM36.1722 6.76222C35.635 6.89037 35.3034 7.42975 35.4315 7.96696C35.5597 8.50417 36.099 8.83579 36.6363 8.70764L36.1722 6.76222ZM38.5247 8.27031C39.0635 8.14911 39.402 7.61406 39.2808 7.07523C39.1596 6.53641 38.6246 6.19786 38.0857 6.31906L38.5247 8.27031ZM41.9249 5.50059C41.3836 5.61016 41.0336 6.13779 41.1431 6.6791C41.2527 7.22041 41.7803 7.57041 42.3216 7.46085L41.9249 5.50059ZM1.17767 33.9194L2.09221 34.3239C2.22406 34.0258 2.3567 33.7312 2.49022 33.44L1.58121 33.0232L0.672204 32.6065C0.534841 32.9061 0.398515 33.2089 0.263138 33.5149L1.17767 33.9194ZM3.31677 29.5245L4.19721 29.9986C4.5052 29.4267 4.81884 28.8699 5.13894 28.3274L4.2777 27.8192L3.41646 27.311C3.08249 27.877 2.75609 28.4566 2.43634 29.0503L3.31677 29.5245ZM6.41077 24.547L7.22151 25.1324C7.59639 24.6132 7.98072 24.1089 8.37551 23.6188L7.59675 22.9915L6.81799 22.3642C6.40053 22.8824 5.99491 23.4147 5.60004 23.9615L6.41077 24.547ZM10.2148 20.0919L10.9172 20.8037C11.3661 20.3608 11.8283 19.9306 12.305 19.5125L11.6456 18.7607L10.9862 18.0089C10.4801 18.4529 9.98918 18.9097 9.51245 19.3801L10.2148 20.0919ZM14.7252 16.3573L15.2955 17.1787C15.8101 16.8215 16.3403 16.4737 16.8871 16.1349L16.3605 15.2849L15.8338 14.4348C15.2581 14.7915 14.6988 15.1583 14.1549 15.5358L14.7252 16.3573ZM19.775 13.3871L20.2215 14.2819C20.7824 14.002 21.3589 13.7287 21.9519 13.4614L21.5409 12.5497L21.13 11.6381C20.5141 11.9157 19.9138 12.2003 19.3285 12.4923L19.775 13.3871ZM25.1621 11.0654L25.5118 12.0022C26.1025 11.7818 26.7075 11.5656 27.3275 11.3534L27.0037 10.4073L26.6799 9.46115C26.0434 9.67901 25.421 9.90134 24.8124 10.1285L25.1621 11.0654ZM30.7295 9.2301L31.0099 10.19C31.6183 10.0123 32.2394 9.8373 32.8738 9.66487L32.6115 8.69988L32.3492 7.7349C31.7033 7.91047 31.07 8.08882 30.4491 8.27022L30.7295 9.2301ZM36.4042 7.73493L36.6363 8.70764C37.2544 8.5602 37.8837 8.41448 38.5247 8.27031L38.3052 7.29469L38.0857 6.31906C37.4368 6.46504 36.799 6.6127 36.1722 6.76222L36.4042 7.73493ZM42.1232 6.48072L42.3216 7.46085C42.6404 7.39632 42.9618 7.33207 43.2859 7.26806L43.0921 6.28701L42.8983 5.30597C42.5713 5.37057 42.2468 5.43544 41.9249 5.50059L42.1232 6.48072Z" fill="white"/>
</svg>
