<svg width="34" height="16" viewBox="0 0 34 16" fill="none" xmlns="http://www.w3.org/2000/svg">
<path d="M32.7733 8.52359C33.1638 8.13307 33.1638 7.4999 32.7733 7.10938L26.4093 0.745415C26.0188 0.354891 25.3857 0.354891 24.9951 0.745415C24.6046 1.13594 24.6046 1.7691 24.9951 2.15963L30.652 7.81648L24.9951 13.4733C24.6046 13.8639 24.6046 14.497 24.9951 14.8876C25.3857 15.2781 26.0188 15.2781 26.4093 14.8876L32.7733 8.52359ZM30.9776 6.822C30.4254 6.82762 29.9822 7.27987 29.9878 7.83213C29.9935 8.38439 30.4457 8.82752 30.998 8.82189L30.9776 6.822ZM26.7606 8.95612C27.3121 8.92624 27.7349 8.45496 27.7051 7.90348C27.6752 7.35201 27.2039 6.92917 26.6524 6.95905L26.7606 8.95612ZM24.4885 7.10242C23.9379 7.14572 23.5267 7.62715 23.57 8.17774C23.6133 8.72832 24.0947 9.13956 24.6453 9.09627L24.4885 7.10242ZM20.438 9.53919C20.9854 9.46615 21.37 8.96316 21.297 8.41573C21.2239 7.8683 20.7209 7.48372 20.1735 7.55675L20.438 9.53919ZM18.0246 7.87613C17.4796 7.96567 17.1104 8.48005 17.2 9.02503C17.2895 9.57001 17.8039 9.93921 18.3489 9.84968L18.0246 7.87613ZM14.2158 10.6695C14.7535 10.5433 15.0871 10.0051 14.9609 9.46745C14.8347 8.92978 14.2965 8.5962 13.7589 8.72239L14.2158 10.6695ZM11.6463 9.26008C11.1138 9.40654 10.8008 9.95696 10.9473 10.4895C11.0938 11.022 11.6442 11.3349 12.1767 11.1885L11.6463 9.26008ZM8.17202 12.4692C8.69037 12.2786 8.95605 11.7038 8.76543 11.1855C8.57481 10.6671 8.00008 10.4015 7.48174 10.5921L8.17202 12.4692ZM5.44575 11.3929C4.93646 11.6066 4.6968 12.1926 4.91045 12.7019C5.12409 13.2112 5.71014 13.4509 6.21943 13.2372L5.44575 11.3929ZM2.40465 15.0245C2.8973 14.7749 3.09432 14.1731 2.84469 13.6805C2.59507 13.1878 1.99334 12.9908 1.50069 13.2404L2.40465 15.0245ZM32.0662 7.81648L32.0662 6.81648C31.6995 6.81648 31.3367 6.81834 30.9776 6.822L30.9878 7.82195L30.998 8.82189C31.3502 8.81831 31.7063 8.81648 32.0662 8.81648L32.0662 7.81648ZM26.7065 7.95758L26.6524 6.95905C25.9129 6.99912 25.1917 7.04713 24.4885 7.10242L24.5669 8.09935L24.6453 9.09627C25.3322 9.04226 26.0371 8.99532 26.7606 8.95612L26.7065 7.95758ZM20.3057 8.54797L20.1735 7.55675C19.4339 7.65542 18.7178 7.76224 18.0246 7.87613L18.1867 8.86291L18.3489 9.84968C19.0221 9.73907 19.7182 9.63521 20.438 9.53919L20.3057 8.54797ZM13.9874 9.69594L13.7589 8.72239C13.0227 8.89516 12.319 9.07507 11.6463 9.26008L11.9115 10.2243L12.1767 11.1885C12.8251 11.0101 13.5044 10.8365 14.2158 10.6695L13.9874 9.69594ZM7.82688 11.5306L7.48174 10.5921C6.75231 10.8603 6.07483 11.129 5.44575 11.3929L5.83259 12.3151L6.21943 13.2372C6.8226 12.9842 7.47225 12.7265 8.17202 12.4692L7.82688 11.5306ZM1.95267 14.1325L1.50069 13.2404C1.15086 13.4177 0.839802 13.5765 0.553754 13.7191L1.00002 14.614L1.44629 15.5089C1.73997 15.3625 2.06241 15.1979 2.40465 15.0245L1.95267 14.1325Z" fill="white"/>
</svg>
