<svg width="31" height="22" viewBox="0 0 31 22" fill="none" xmlns="http://www.w3.org/2000/svg">
<path d="M30.2082 8.2912C30.554 8.72183 30.4852 9.35125 30.0546 9.69705L23.0372 15.3323C22.6065 15.6781 21.9771 15.6093 21.6313 15.1787C21.2855 14.7481 21.3543 14.1186 21.7849 13.7728L28.0226 8.76376L23.0135 2.52604C22.6677 2.09541 22.7365 1.46599 23.1671 1.12019C23.5977 0.774383 24.2271 0.843145 24.573 1.27377L30.2082 8.2912ZM0.140874 19.5048C0.421292 19.029 1.03433 18.8706 1.51012 19.151C1.98592 19.4314 2.14431 20.0444 1.86389 20.5202L0.140874 19.5048ZM4.84312 17.8817C4.41057 18.225 3.78154 18.1527 3.43816 17.7202C3.09478 17.2876 3.16707 16.6586 3.59963 16.3152L4.84312 17.8817ZM5.38043 14.9752C5.83006 14.6545 6.45454 14.759 6.77524 15.2087C7.09594 15.6583 6.99142 16.2828 6.54179 16.6035L5.38043 14.9752ZM10.1171 14.3177C9.63706 14.5909 9.0265 14.4232 8.75333 13.9432C8.48017 13.4632 8.64784 12.8527 9.12784 12.5795L10.1171 14.3177ZM11.0959 11.528C11.5899 11.281 12.1906 11.4812 12.4375 11.9752C12.6845 12.4692 12.4843 13.0699 11.9903 13.3169L11.0959 11.528ZM15.8743 11.6434C15.3551 11.8317 14.7816 11.5635 14.5933 11.0443C14.405 10.5251 14.6733 9.95153 15.1925 9.76325L15.8743 11.6434ZM17.3164 9.06689C17.8464 8.91151 18.402 9.21517 18.5574 9.74514C18.7128 10.2751 18.4091 10.8307 17.8791 10.9861L17.3164 9.06689ZM21.9882 10.073C21.4421 10.1555 20.9325 9.7797 20.85 9.23361C20.7675 8.68753 21.1433 8.17794 21.6893 8.09542L21.9882 10.073ZM23.9212 7.83943C24.4718 7.79637 24.9531 8.20782 24.9961 8.75843C25.0392 9.30903 24.6277 9.79029 24.0771 9.83334L23.9212 7.83943ZM28.2702 9.81681C27.7193 9.77766 27.3044 9.29932 27.3436 8.74843C27.3827 8.19753 27.8611 7.78269 28.412 7.82185L28.2702 9.81681ZM1.74193 19.2412L2.48649 19.9088C2.21623 20.2102 2.01415 20.426 1.87845 20.5646C1.81378 20.6307 1.75219 20.6916 1.70118 20.7375C1.6988 20.7397 1.62067 20.8132 1.52033 20.8736C1.49915 20.8863 1.40071 20.9465 1.26056 20.9841C1.19337 21.0021 1.02811 21.04 0.819948 21.0017C0.56693 20.9552 0.284771 20.7977 0.120227 20.4925C-0.0159767 20.2399 -0.00434177 20.0064 0.00612377 19.9096C0.0180617 19.7993 0.04591 19.7152 0.061135 19.6734C0.0921691 19.5883 0.128113 19.5264 0.140874 19.5048L1.00238 20.0125L1.86389 20.5202C1.87496 20.5015 1.90973 20.4419 1.94011 20.3586C1.95501 20.3177 1.98266 20.2344 1.99453 20.1247C2.00493 20.0285 2.01662 19.7955 1.88061 19.5433C1.71626 19.2385 1.43442 19.0812 1.18186 19.0347C0.974145 18.9965 0.809468 19.0344 0.742999 19.0522C0.604274 19.0894 0.507783 19.1487 0.48908 19.1599C0.42811 19.1966 0.386666 19.2312 0.383058 19.2341C0.370793 19.2441 0.363455 19.2508 0.363154 19.251C0.36213 19.252 0.368772 19.246 0.385465 19.2296C0.401141 19.2143 0.422192 19.1932 0.44903 19.1658C0.557701 19.0547 0.738926 18.8619 0.997365 18.5737L1.74193 19.2412ZM4.22138 17.0984L3.59963 16.3152C4.13485 15.8904 4.72968 15.4393 5.38043 14.9752L5.96111 15.7893L6.54179 16.6035C5.92052 17.0466 5.35305 17.4769 4.84312 17.8817L4.22138 17.0984ZM9.62245 13.4486L9.12784 12.5795C9.75557 12.2223 10.4121 11.8699 11.0959 11.528L11.5431 12.4224L11.9903 13.3169C11.3402 13.6419 10.7152 13.9773 10.1171 14.3177L9.62245 13.4486ZM15.5334 10.7033L15.1925 9.76325C15.8817 9.51332 16.5901 9.27986 17.3164 9.06689L17.5978 10.0265L17.8791 10.9861C17.1945 11.1868 16.5259 11.4071 15.8743 11.6434L15.5334 10.7033ZM21.8388 9.0842L21.6893 8.09542C22.4201 7.985 23.1644 7.89861 23.9212 7.83943L23.9992 8.83638L24.0771 9.83334C23.3695 9.88867 22.6729 9.9695 21.9882 10.073L21.8388 9.0842ZM28.3411 8.81933L28.412 7.82185C28.7848 7.84834 29.1598 7.88204 29.537 7.92325L29.4285 8.91734L29.3199 9.91142C28.9679 9.87297 28.618 9.84153 28.2702 9.81681L28.3411 8.81933Z" fill="white"/>
</svg>
