<svg xmlns="http://www.w3.org/2000/svg" viewbox="0 0 32 32" >
  <rect width="24" height="24" x="4" y="4" fill="#fff" rx="4"/>
  <rect width="24" height="24" x="4" y="4" fill="#fff" stroke="#000" stroke-width="2.67" rx="4"/>
  <path fill="#000" d="M17.4 20.97a1.6 1.6 0 1 1-3.21 0 1.6 1.6 0 0 1 3.2 0Z"/>
  <path fill="#000" fill-rule="evenodd" d="M15.77 11.81c-.54 0-1 .16-1.32.4-.31.21-.47.47-.51.69a1.16 1.16 0 0 1-2.28-.46c.18-.9.74-1.64 1.45-2.14a4.61 4.61 0 0 1 2.66-.8c2.04 0 4.16 1.36 4.16 3.56 0 1.27-.75 2.3-1.73 2.9a1.16 1.16 0 0 1-1.21-1.98c.45-.28.62-.64.62-.92 0-.46-.57-1.25-1.84-1.25Z" clip-rule="evenodd"/>
  <path fill="#000" fill-rule="evenodd" d="M15.77 14.9c.64 0 1.16.52 1.16 1.16v1.2a1.16 1.16 0 0 1-2.32 0v-1.2c0-.64.52-1.16 1.16-1.16Z" clip-rule="evenodd"/>
</svg>