<svg xmlns="http://www.w3.org/2000/svg" viewbox="0 0 32 32" >
  <rect width="13.66" height="23.82" x="11.75" y="4.09" stroke="#000" stroke-width="2.67" fill="#f00" rx="2"/>
  <path stroke="#000" stroke-linecap="round" stroke-width="2.67" d="M4.29 27.91H28.3"/>
  <rect width="13.93" height="23.82" x="5.95" y="4.09" fill="#fff" stroke="#000" stroke-width="2.67" rx="2"/>
  <path fill="#000" fill-rule="evenodd" d="M23.87 6.7c-.37-.36-.96-.08-.96.47v1.85h-3.33a1 1 0 0 0-1 1v1.76a1 1 0 0 0 1 1h3.33v2.1c0 .54.6.82.96.46l3.42-3.4c.5-.5.5-1.34 0-1.84l-3.42-3.4Z" clip-rule="evenodd"/>
  <path fill="#fff" fill-rule="evenodd" d="M22.9 12.78h-3.32a1 1 0 0 1-1-1v-1.76a1 1 0 0 1 1-1h3.33V7.17c0-.55.6-.83.96-.46l3.42 3.4c.5.49.5 1.34 0 1.83l-3.42 3.4c-.37.36-.96.08-.96-.46v-2.1Zm-1.5 1.5v.6c0 .85.5 1.58 1.2 1.92.74.35 1.67.26 2.33-.4l3.42-3.4a2.82 2.82 0 0 0 0-3.96l-3.42-3.4a2.03 2.03 0 0 0-2.32-.4 2.12 2.12 0 0 0-1.2 1.93v.35h-1.83a2.5 2.5 0 0 0-2.5 2.5v1.76a2.5 2.5 0 0 0 2.5 2.5h1.83Z" clip-rule="evenodd"/>
  <circle cx="16.06" cy="16" r="1.5" fill="#000"/>
</svg>