<svg xmlns="http://www.w3.org/2000/svg" viewbox="0 0 32 32" >
  <path fill="#fff" stroke="#000" stroke-width="2.67" d="M16.3 18.63a2 2 0 0 1-2.98 1.74l-4.96-2.8a2 2 0 0 1-1.02-1.73V6.45a2 2 0 0 1 2.99-1.74l4.95 2.8a2 2 0 0 1 1.02 1.74v9.38Z"/>
  <path fill="#fff" stroke="#000" stroke-width="2.67" d="M16.3 8.08c-.21.11-.13.43.1.43l1.79.02c.09 0 .18.02.26.06l6.37 2.7c.2.09.44-.07.43-.29V6.45a2 2 0 0 0-2.98-1.74L16.3 8.08Z"/>
  <path fill="#f00" stroke="#000" stroke-width="2.67" d="M16.3 10.7a2 2 0 0 1 2.78-1.84l6.32 2.67a2 2 0 0 1 1.22 1.84v13a2 2 0 0 1-2.78 1.84l-6.32-2.67a2 2 0 0 1-1.22-1.84v-13Z"/>
  <path fill="#fff" stroke="#000" stroke-width="2.67" d="M16.3 10.7a2 2 0 0 0-2.78-1.84l-6.31 2.67a2 2 0 0 0-1.22 1.84v13a2 2 0 0 0 2.78 1.84l6.31-2.67a2 2 0 0 0 1.22-1.84v-13Z"/>
  <path fill="#000" fill-rule="evenodd" d="M18.6 14.5c-.39-.22-.85.08-.85.55v1.55c-.78.3-1.71.59-2.47.59-.87 0-1.92-.33-2.76-.67-.7-.29-1.53.22-1.53.98v1.47c0 .3.14.6.4.76a7.66 7.66 0 0 0 3.96 1.16c.94 0 1.76-.2 2.4-.45v1.58c0 .64.77.87 1.07.32l2.63-4.73a1.3 1.3 0 0 0-.45-1.74l-2.4-1.37Z" clip-rule="evenodd"/>
  <path fill="#fff" fill-rule="evenodd" d="M16.25 20.83a6.7 6.7 0 0 0 1.5-.39v1.58c0 .64.77.87 1.07.32l2.63-4.73 1.31.73-2.63 4.73a2.04 2.04 0 0 1-2.39 1 2.1 2.1 0 0 1-1.46-1.73A9.16 9.16 0 0 1 10.59 21a2.37 2.37 0 0 1-1.1-2.03V17.5c0-1.95 2.01-3 3.59-2.37a6.7 6.7 0 0 0 2.2.56c.26 0 .6-.06.97-.17v-.47c0-1.41 1.53-2.75 3.1-1.86l2.4 1.38a2.8 2.8 0 0 1 1.01 3.77l-1.31-.73a1.3 1.3 0 0 0-.45-1.74l-2.4-1.37c-.39-.22-.85.08-.85.55v1.55c-.78.3-1.71.59-2.47.59-.87 0-1.92-.33-2.76-.67-.7-.29-1.53.22-1.53.98v1.47c0 .3.14.6.4.76a7.66 7.66 0 0 0 4.86 1.1Z" clip-rule="evenodd"/>
</svg>