<svg xmlns="http://www.w3.org/2000/svg" width="32" height="33" fill="none">
  <rect width="18.67" height="24" x="10" y="4.5" fill="#DB0B24" stroke="#000" stroke-width="2.67" rx="4"/>
  <rect width="3.47" height="3.47" x="20.67" y="8.5" fill="#000" rx="1.33"/>
  <rect width="3.47" height="3.47" x="15.33" y="8.5" fill="#000" rx="1.33"/>
  <rect width="3.47" height="3.47" x="20.67" y="13.83" fill="#000" rx="1.33"/>
  <path fill="#000" d="m5.45 19.55 1.74 2.02-1.74-2.02ZM3.07 21.6l1.74 2.02-1.74-2.02Zm-.02.28 2-1.76-2 1.76Zm.68.78-2 1.76 2-1.76Zm.29.02-1.8-1.98 1.8 1.98Zm.94-.87 1.8 1.98-1.8-1.98Zm.34.16-2.67-.16 2.67.16Zm-.02.29-2.66-.16v.16h2.66Zm-1.03 4.68a2.87 2.87 0 0 0 2.87 2.87v-5.34c1.37 0 2.47 1.11 2.47 2.47H4.25Zm0-7.24v7.24H9.6V19.7H4.25Zm2.47 2.47a2.47 2.47 0 0 1-2.47-2.47H9.6a2.87 2.87 0 0 0-2.87-2.87v5.34Zm-1.14 0h1.14v-5.34H5.58v5.34Zm1.61-.6c-.44.39-1.02.6-1.6.6v-5.34c-.7 0-1.36.25-1.88.7l3.48 4.04Zm-2.38 2.05 2.38-2.05-3.48-4.04-2.38 2.05 3.48 4.04Zm.25-3.5c.9 1.03.8 2.6-.25 3.5l-3.48-4.04a2.87 2.87 0 0 0-.29 4.07l4.02-3.53Zm.68.78-.68-.78-4.02 3.53.68.77 4.02-3.52Zm-3.52-.2a2.47 2.47 0 0 1 3.52.2l-4.02 3.52a2.87 2.87 0 0 0 4.1.23l-3.6-3.95Zm.95-.86-.95.86 3.6 3.95.94-.86-3.6-3.95Zm4.8 2.3a2.87 2.87 0 0 0-4.8-2.3l3.6 3.95a2.47 2.47 0 0 1-4.14-1.98l5.33.33Zm-.02.28.01-.28-5.33-.33-.01.29 5.33.32Zm0 4.52v-4.68H2.61v4.68h5.34Zm-2.87 2.87a2.87 2.87 0 0 0 2.87-2.87H2.61c0-1.36 1.1-2.47 2.47-2.47v5.34Zm-1.35 0h1.35v-5.34H3.73v5.34Zm2.47-2.47c0 1.37-1.1 2.47-2.47 2.47v-5.34a2.87 2.87 0 0 0-2.87 2.87H6.2Zm0 .94v-.94H.86v.94H6.2ZM3.73 25.8c1.36 0 2.47 1.1 2.47 2.47H.86a2.87 2.87 0 0 0 2.87 2.87V25.8Zm4.54 0H3.73v5.34h4.54V25.8ZM5.8 28.28c0-1.37 1.1-2.47 2.47-2.47v5.34a2.87 2.87 0 0 0 2.87-2.87H5.8Zm0-.94v.94h5.34v-.94H5.8Zm2.47 2.47a2.47 2.47 0 0 1-2.47-2.47h5.34a2.87 2.87 0 0 0-2.87-2.87v5.34Zm-1.15 0h1.15v-5.34H7.12v5.34ZM18.35 19.8a2.87 2.87 0 0 0-2.87-2.87v5.34a2.47 2.47 0 0 1-2.47-2.47h5.34Zm0 1.07V19.8h-5.34v1.07h5.34Zm-2.87 2.87a2.87 2.87 0 0 0 2.87-2.87h-5.34c0-1.36 1.1-2.47 2.47-2.47v5.34Zm-3.3 0h3.3V18.4h-3.3v5.34Zm2.48-2.47c0 1.37-1.11 2.47-2.47 2.47V18.4a2.87 2.87 0 0 0-2.87 2.87h5.34Zm0 1.92v-1.92H9.32v1.92h5.34Zm-2.47-2.47c1.36 0 2.47 1.1 2.47 2.47H9.32a2.87 2.87 0 0 0 2.87 2.87v-5.34Zm2.75 0H12.2v5.34h2.75v-5.34Zm2.87 2.87a2.87 2.87 0 0 0-2.87-2.87v5.34a2.47 2.47 0 0 1-2.47-2.47h5.34Zm0 1.09v-1.1h-5.34v1.1h5.34Zm-2.87 2.87a2.87 2.87 0 0 0 2.87-2.87h-5.34c0-1.37 1.1-2.47 2.47-2.47v5.34Zm-2.75 0h2.75V22.2H12.2v5.34Zm2.47-2.47c0 1.36-1.11 2.47-2.47 2.47V22.2a2.87 2.87 0 0 0-2.87 2.87h5.34Zm0 3.2v-3.2H9.32v3.2h5.34Zm-2.87 2.87a2.87 2.87 0 0 0 2.87-2.87H9.32c0-1.37 1.1-2.47 2.47-2.47v5.34Zm-1.38 0h1.38V25.8H10.4v5.34Zm-2.87-2.87a2.87 2.87 0 0 0 2.87 2.87V25.8c1.36 0 2.47 1.1 2.47 2.47H7.54Zm0-8.48v8.48h5.34V19.8H7.54Zm2.87-2.87a2.87 2.87 0 0 0-2.87 2.87h5.34c0 1.36-1.1 2.47-2.47 2.47v-5.34Zm5.07 0h-5.07v5.34h5.07v-5.34Zm-1.62 7.48a2.87 2.87 0 0 0 2.87 2.87v-5.34c1.37 0 2.47 1.1 2.47 2.47h-5.34Zm0-.85v.85h5.34v-.85h-5.34Zm2.87-2.87a2.87 2.87 0 0 0-2.87 2.87h5.34c0 1.37-1.1 2.47-2.47 2.47V20.7Zm2.03 0h-2.03v5.34h2.03V20.7Zm-2.47 2.47c0-1.36 1.1-2.47 2.47-2.47v5.34a2.87 2.87 0 0 0 2.87-2.87h-5.34Zm0-2.15v2.15h5.34v-2.15h-5.34Zm2.87-2.87A2.87 2.87 0 0 0 16.29 21h5.34c0 1.36-1.1 2.47-2.47 2.47v-5.34Zm.9 0h-.9v5.34h.9v-5.34ZM22.95 21a2.87 2.87 0 0 0-2.87-2.87v5.34A2.47 2.47 0 0 1 17.6 21h5.34Zm0 2.15v-2.15H17.6v2.15h5.34Zm-2.47-2.47c1.36 0 2.47 1.1 2.47 2.47H17.6a2.87 2.87 0 0 0 2.87 2.87V20.7Zm2.02 0h-2.02v5.34h2.02V20.7Zm2.87 2.87a2.87 2.87 0 0 0-2.87-2.87v5.34a2.47 2.47 0 0 1-2.47-2.47h5.34Zm0 .85v-.85h-5.34v.85h5.34Zm-2.87 2.87a2.87 2.87 0 0 0 2.87-2.87h-5.34c0-1.36 1.1-2.47 2.47-2.47v5.34Zm-2.02 0h2.02v-5.34h-2.02v5.34Zm2.47-2.47c0 1.37-1.11 2.47-2.47 2.47v-5.34a2.87 2.87 0 0 0-2.87 2.87h5.34Zm0 2.16V24.8H17.6v2.16h5.34Zm-2.87 2.87a2.87 2.87 0 0 0 2.87-2.87H17.6c0-1.37 1.1-2.47 2.47-2.47v5.34Zm-.91 0h.9V24.5h-.9v5.34Zm-2.87-2.87a2.87 2.87 0 0 0 2.87 2.87V24.5c1.36 0 2.47 1.1 2.47 2.47h-5.34Zm0-2.16v2.16h5.34V24.8h-5.34Zm2.47 2.47a2.47 2.47 0 0 1-2.47-2.47h5.34a2.87 2.87 0 0 0-2.87-2.87v5.34Zm-2.03 0h2.03v-5.34h-2.03v5.34Z" />
  <path fill="#fff" fill-rule="evenodd" d="M7.12 27.14a.2.2 0 0 1-.2-.2V19.7a.2.2 0 0 0-.2-.2H5.58a.2.2 0 0 0-.13.05L3.07 21.6a.2.2 0 0 0-.02.28l.68.78c.07.08.2.09.29.02l.94-.87a.2.2 0 0 1 .34.16l-.02.29v4.68a.2.2 0 0 1-.2.2H3.73a.2.2 0 0 0-.2.2v.94c0 .1.09.2.2.2h4.54a.2.2 0 0 0 .2-.2v-.94a.2.2 0 0 0-.2-.2H7.12Zm8.36-7.54c.11 0 .2.09.2.2v1.07a.2.2 0 0 1-.2.2h-3.3a.2.2 0 0 0-.2.2v1.92c0 .1.1.2.2.2h2.76c.11 0 .2.09.2.2v1.09a.2.2 0 0 1-.2.2H12.2a.2.2 0 0 0-.2.2v3.2a.2.2 0 0 1-.2.2H10.4a.2.2 0 0 1-.2-.2V19.8c0-.11.09-.2.2-.2h5.07Zm1.25 5.01a.2.2 0 0 1-.2-.2v-.85c0-.1.1-.2.2-.2h2.03a.2.2 0 0 0 .2-.2v-2.15c0-.11.09-.2.2-.2h.9c.12 0 .2.09.2.2v2.15c0 .11.1.2.2.2h2.03c.11 0 .2.1.2.2v.85a.2.2 0 0 1-.2.2h-2.02a.2.2 0 0 0-.2.2v2.16a.2.2 0 0 1-.2.2h-.91a.2.2 0 0 1-.2-.2V24.8a.2.2 0 0 0-.2-.2h-2.03Z" clip-rule="evenodd"/>
</svg>