<svg xmlns="http://www.w3.org/2000/svg" width="32" height="33" fill="none">
  <path fill="#fff" stroke="#000" stroke-width="2.67" d="M8.17 8.5a4 4 0 0 1 4-4h11.66a4 4 0 0 1 4 4v16a4 4 0 0 1-4 4H12.17a4 4 0 0 1-4-4v-16Z"/>
  <rect width="3.47" height="3.47" x="19.97" y="8.5" fill="#000" rx="1.33"/>
  <rect width="3.47" height="3.47" x="19.97" y="21" fill="#000" rx="1.33"/>
  <rect width="3.47" height="3.47" x="14.5" y="8.5" fill="#000" rx="1.33"/>
  <rect width="3.47" height="3.47" x="19.84" y="13.83" fill="#000" rx="1.33"/>
  <path fill="#000" d="m4.17 19.49-1.9-1.88a2.67 2.67 0 0 0 1.9 4.55v-2.67Zm6.13-6.17 1.89-1.88a2.67 2.67 0 0 0-3.79 0l1.9 1.88Zm-2.55 6.17h2.67c0-1.47-1.2-2.67-2.67-2.67v2.67Zm0 4.98H5.1c0 1.47 1.19 2.66 2.66 2.66v-2.66Zm4.78 0v2.66c1.48 0 2.67-1.19 2.67-2.66h-2.67Zm0-4.98v-2.67a2.67 2.67 0 0 0-2.66 2.67h2.66Zm3.9 0v2.67a2.67 2.67 0 0 0 1.89-4.55l-1.9 1.88ZM6.06 21.37l6.13-6.17-3.79-3.76-6.12 6.17 3.78 3.76Zm1.7-4.55h-3.6v5.34h3.6v-5.34Zm2.66 7.65v-4.98H5.09v4.98h5.33Zm2.11-2.67H7.75v5.33h4.78V21.8Zm-2.66-2.31v4.98h5.33v-4.98H9.87Zm6.56-2.67h-3.9v5.34h3.9v-5.34ZM8.4 15.2l6.13 6.17 3.79-3.76-6.13-6.17L8.4 15.2Z" />
  <path fill="#DB0B24" fill-rule="evenodd" d="m10.3 13.32-6.13 6.17h3.58v4.98h4.78v-4.98h3.9l-6.13-6.17Z" clip-rule="evenodd"/>
</svg>