<svg xmlns="http://www.w3.org/2000/svg" width="32" height="32" fill="none">
  <rect width="18.67" height="24" x="10" y="4" fill="#fff" stroke="#000000" stroke-width="2.67" rx="4"/>
  <rect width="3.47" height="3.47" x="20.8" y="20.5" fill="#000000" rx="1.33"/>
  <rect width="3.47" height="3.47" x="20.67" y="8" fill="#000000" rx="1.33"/>
  <rect width="3.47" height="3.47" x="15.33" y="8" fill="#000000" rx="1.33"/>
  <rect width="3.47" height="3.47" x="20.67" y="13.33" fill="#000000" rx="1.33"/>
  <path fill="#000000" fill-rule="evenodd" d="M2.72 21.92c.16.18.34.34.53.47a2.87 2.87 0 0 0-1.4 2.45v.94a2.87 2.87 0 0 0 2.88 2.87h4.54c.4 0 .76-.08 1.1-.22.34.14.71.22 1.1.22h1.38a2.87 2.87 0 0 0 2.87-2.87v-.73H16a2.87 2.87 0 0 0 2.87-2.87v-1.1c0-.3-.04-.59-.13-.86.42-.5.67-1.14.67-1.85V17.3a2.87 2.87 0 0 0-2.87-2.87h-5.07c-.69 0-1.32.24-1.82.65a2.86 2.86 0 0 0-1.93-.75H6.58c-.68 0-1.35.25-1.87.7l-2.38 2.05a2.87 2.87 0 0 0-.29 4.07l.68.77Z" clip-rule="evenodd"/>
  <path fill="#67AEFF" d="M8.12 24.64a.2.2 0 0 1-.2-.2V17.2a.2.2 0 0 0-.2-.2H6.58a.2.2 0 0 0-.13.05L4.07 19.1a.2.2 0 0 0-.02.28l.68.78c.07.08.2.09.29.02l.94-.87a.2.2 0 0 1 .34.16l-.02.29v4.68a.2.2 0 0 1-.2.2H4.73a.2.2 0 0 0-.2.2v.94c0 .1.09.2.2.2h4.54a.2.2 0 0 0 .2-.2v-.94a.2.2 0 0 0-.2-.2H8.12ZM16.74 17.3a.2.2 0 0 0-.2-.2h-5.07a.2.2 0 0 0-.2.2v8.48c0 .1.1.2.2.2h1.38a.2.2 0 0 0 .2-.2v-3.2c0-.11.09-.2.2-.2H16a.2.2 0 0 0 .2-.2v-1.1a.2.2 0 0 0-.2-.2h-2.75a.2.2 0 0 1-.2-.2v-1.9c0-.12.09-.2.2-.2h3.3a.2.2 0 0 0 .2-.2V17.3Z"/>
</svg>