<svg xmlns="http://www.w3.org/2000/svg" width="32" height="32" fill="none">
  <path fill="#000" fill-rule="evenodd" d="M16.4 19.3v1.4c0 1.4-1.2 2.6-2.6 2.6h-2l-1-.1-1 .1H4.5a2.7 2.7 0 0 1-2.7-2.6v-1.5c0-1.2.7-2.1 1.7-2.5l-.7-.6-1-1.2a2.7 2.7 0 0 1 .2-3.8l3-2.5c.4-.4 1-.6 1.7-.6H8c.8 0 1.4.3 2 .8.4-.4 1-.7 1.7-.7h6c.9 0 1.6.3 2 .9a7.6 7.6 0 1 1-3 10.3h-.4Z" clip-rule="evenodd"/>
  <path fill="#fff" fill-rule="evenodd" d="M8.1 19.2H10v1.5H4.4v-1.5h2v-6.3l-1.7 1.5-1-1.2 2.9-2.5H8v8.5Zm9.8-8.4v1.6h-4.1V15h3.5v1.7h-3.5v4h-2v-10h6Zm10.7 4.8a5 5 0 1 1-10 0 5 5 0 0 1 10 0Zm-6.8 2.9h-.3l-.7-.7v-.3l1.6-1.6v-.3l-1.7-1.7v-.3l.8-.7h.3l1.7 1.7h.3l1.6-1.6h.3l.7.6v.3l-1.6 1.6c-.1.1-.1.3 0 .4l1.7 1.7v.3l-.7.7h-.4l-1.7-1.7h-.3l-1.6 1.6Z" clip-rule="evenodd"/>
  <ellipse cx="23.6" cy="15.6" fill="#DB0B24" rx="5.1" ry="5"/>
  <path fill="#fff" d="M21.7 18.5h-.3l-.7-.7v-.3l1.6-1.6v-.3l-1.7-1.7v-.3l.7-.8h.4l1.7 1.7h.3l1.6-1.6h.4l.6.7v.3l-1.6 1.6v.4l1.7 1.7v.3l-.7.7h-.3L23.7 17h-.4l-1.6 1.6Z"/>
</svg>