<svg xmlns="http://www.w3.org/2000/svg" width="32" height="33" fill="none">
  <path fill="#fff" stroke="#000" stroke-width="2.67" d="M8.26 8.5a4 4 0 0 1 4-4h11.67a4 4 0 0 1 4 4v16a4 4 0 0 1-4 4H12.26a4 4 0 0 1-4-4v-16Z"/>
  <rect width="3.47" height="3.47" x="20.06" y="8.5" fill="#000" rx="1.33"/>
  <rect width="3.47" height="3.47" x="20.06" y="21.51" fill="#000" rx="1.33"/>
  <rect width="3.47" height="3.47" x="14.59" y="8.5" fill="#000" rx="1.33"/>
  <rect width="3.47" height="3.47" x="19.93" y="13.83" fill="#000" rx="1.33"/>
  <path fill="#000" d="m16.33 18.81 1.9 1.88a2.67 2.67 0 0 0-1.9-4.55v2.67Zm-6.13 6.17-1.9 1.88a2.67 2.67 0 0 0 3.8 0l-1.9-1.88Zm2.54-6.17h-2.66c0 1.47 1.19 2.67 2.66 2.67V18.8Zm0-4.98h2.67c0-1.47-1.2-2.66-2.67-2.66v2.66Zm-4.78 0v-2.66a2.67 2.67 0 0 0-2.66 2.66h2.66Zm0 4.98v2.67a2.67 2.67 0 0 0 2.67-2.67H7.96Zm-3.89 0v-2.67a2.67 2.67 0 0 0-1.9 4.55l1.9-1.88Zm10.37-1.88L8.3 23.1l3.78 3.76 6.13-6.17-3.78-3.76Zm-1.7 4.55h3.59v-5.34h-3.59v5.34Zm-2.66-7.65v4.98h5.33v-4.98h-5.33ZM7.96 16.5h4.78v-5.33H7.96v5.33Zm2.67 2.31v-4.98H5.3v4.98h5.33Zm-6.56 2.67h3.9v-5.34h-3.9v5.34Zm8.02 1.62-6.13-6.17-3.78 3.76 6.13 6.17 3.78-3.76Z" />
  <path fill="#DB0B24" fill-rule="evenodd" d="m10.2 24.98 6.13-6.17h-3.59v-4.98H7.96v4.98H4.07l6.13 6.17Z" clip-rule="evenodd"/>
</svg>