<svg width="77" height="33" viewBox="0 0 77 33" fill="none" xmlns="http://www.w3.org/2000/svg">
<mask id="mask0_2337_3995" style="mask-type:alpha" maskUnits="userSpaceOnUse" x="0" y="0" width="77" height="33">
<rect width="77" height="33" fill="#D9D9D9"/>
</mask>
<g mask="url(#mask0_2337_3995)">
<path d="M48.7138 8.51374C61.6024 8.51374 72.0507 18.962 72.0507 31.8506C72.0507 44.7392 61.6024 55.1875 48.7138 55.1875C35.8252 55.1875 25.3769 44.7392 25.3769 31.8506C25.3769 18.962 35.8252 8.51374 48.7138 8.51374Z" fill="#FFD770"/>
<path d="M70.7304 31.8506C70.7304 44.0101 60.8734 53.8672 48.7138 53.8672C36.5542 53.8672 26.6972 44.0102 26.6972 31.8506C26.6972 19.691 36.5542 9.83399 48.7138 9.83399C60.8734 9.83401 70.7304 19.691 70.7304 31.8506ZM73.371 31.8506C73.371 18.233 62.3314 7.19339 48.7138 7.19336C35.0962 7.19336 24.0566 18.233 24.0566 31.8506C24.0566 45.4682 35.0962 56.5078 48.7138 56.5078C62.3314 56.5078 73.371 45.4682 73.371 31.8506Z" fill="#16181C"/>
<path d="M51.8832 22.6308C50.5275 22.5102 49.3306 23.5115 49.21 24.8673C49.0894 26.2232 50.0908 27.4199 51.4465 27.5405C52.8023 27.6611 53.9991 26.6598 54.1197 25.304C54.2403 23.9482 53.239 22.7514 51.8832 22.6308Z" fill="#16181C"/>
<path fill-rule="evenodd" clip-rule="evenodd" d="M45.7379 23.2309C45.8585 21.8751 44.8572 20.6783 43.5014 20.5577C42.1457 20.4371 40.9487 21.4384 40.8282 22.7942C40.7076 24.15 41.709 25.3468 43.0647 25.4674C44.4205 25.588 45.6173 24.5867 45.7379 23.2309Z" fill="#16181C"/>
<path d="M4.31929 18.9393L28.4144 10.1573L34.2003 26.0317L10.1051 34.8138L4.31929 18.9393Z" fill="white"/>
<path d="M22.2716 21.3798C20.9333 23.3185 18.5155 24.1995 16.2435 23.5769L6.4346 20.8875L10.8937 33.1217L32.5077 25.2439L28.0486 13.0097L22.2716 21.3798ZM16.9411 21.0307C18.1312 21.3569 19.3972 20.8954 20.0983 19.88L24.9752 12.8161L8.66262 18.7616L16.9411 21.0307ZM35.4408 25.5801C35.6901 26.265 35.3369 27.0223 34.6521 27.2718L10.5571 36.0539C9.87231 36.3034 9.11463 35.9511 8.86482 35.2664L3.0788 19.3915C2.82916 18.7065 3.18223 17.9485 3.86716 17.6989L27.9621 8.91686C28.6471 8.66722 29.4051 9.02028 29.6548 9.70522L35.4408 25.5801Z" fill="#16181C"/>
<path d="M16.0904 23.2075C16.9184 24.6344 19.1451 24.9864 20.3452 25.1462C21.0081 24.3392 22.1662 22.8035 22.285 21.6904C22.3928 20.6811 21.9303 19.1677 20.6529 18.9496C19.5358 18.7588 18.7819 19.975 18.7681 20.8133C18.4087 20.3063 17.6549 19.8915 16.761 20.2168C15.6437 20.6235 15.4064 22.0286 16.0904 23.2075Z" fill="#FF4000"/>
<path d="M17.8445 18.1497C18.4929 17.4235 19.5877 16.7594 20.9858 16.9981C22.4252 17.2438 23.3115 18.2277 23.765 19.1489C24.2035 20.0396 24.345 21.0496 24.2542 21.9005C24.1446 22.9266 23.616 23.9098 23.2019 24.5771C22.7489 25.3069 22.2316 25.9686 21.8751 26.4027C21.4403 26.932 20.7628 27.1991 20.0838 27.1087C19.4715 27.0271 18.4378 26.8791 17.4186 26.5189C16.4347 26.1711 15.1402 25.5146 14.3781 24.2012C13.8249 23.2479 13.5865 22.1091 13.8111 21.0217C14.0449 19.8903 14.7975 18.8245 16.0834 18.3563L16.2591 18.2965C16.8162 18.1212 17.35 18.0869 17.8445 18.1497ZM20.6526 18.9494C19.5359 18.7589 18.7822 19.9746 18.7681 20.8128C18.4086 20.3059 17.6544 19.8921 16.7608 20.2173C15.644 20.6241 15.4068 22.0283 16.0905 23.2069C16.815 24.4555 18.6104 24.8812 19.8518 25.0752L20.3453 25.146C20.9667 24.3895 22.023 22.9929 22.2508 21.9042L22.2852 21.6901C22.3928 20.6809 21.93 19.1675 20.6526 18.9494Z" fill="black"/>
</g>
</svg>
