<svg width="24" height="25" viewBox="0 0 24 25" fill="none" xmlns="http://www.w3.org/2000/svg">
<path fill-rule="evenodd" clip-rule="evenodd" d="M10.998 3.5C9.34119 3.5 7.99805 4.84315 7.99805 6.5V18.5C7.99805 20.1569 9.34119 21.5 10.998 21.5H17.998C19.6549 21.5 20.998 20.1569 20.998 18.5V6.5C20.998 4.84315 19.6549 3.5 17.998 3.5H10.998ZM16.4254 6.5C15.8731 6.5 15.4254 6.94772 15.4254 7.5V8.1C15.4254 8.65228 15.8731 9.1 16.4254 9.1H16.8397C17.392 9.1 17.8397 8.65228 17.8397 8.1V7.5C17.8397 6.94772 17.392 6.5 16.8397 6.5H16.4254ZM11.7129 7.5C11.7129 6.94772 12.1606 6.5 12.7129 6.5H13.1272C13.6795 6.5 14.1272 6.94772 14.1272 7.5V8.1C14.1272 8.65228 13.6795 9.1 13.1272 9.1H12.7129C12.1606 9.1 11.7129 8.65228 11.7129 8.1V7.5ZM16.4254 10.5008C15.8731 10.5008 15.4254 10.9485 15.4254 11.5008V12.1008C15.4254 12.6531 15.8731 13.1008 16.4254 13.1008H16.8397C17.392 13.1008 17.8397 12.6531 17.8397 12.1008V11.5008C17.8397 10.9485 17.392 10.5008 16.8397 10.5008H16.4254Z" fill="#1D85FF" fill-opacity="0.6"/>
<path d="M2.00195 14.8299C2.00195 14.2195 2.28071 13.6425 2.75889 13.2631L6.25889 10.4862C6.98694 9.9086 8.01696 9.9086 8.74502 10.4862L12.245 13.2631C12.7232 13.6425 13.002 14.2195 13.002 14.8299V19.5C13.002 20.6046 12.1065 21.5 11.002 21.5H4.00195C2.89738 21.5 2.00195 20.6046 2.00195 19.5V14.8299Z" fill="#1D85FF"/>
<circle cx="7.49805" cy="16.499" r="2" fill="white"/>
</svg>
