<svg width="16" height="16" viewBox="0 0 16 16" fill="none" xmlns="http://www.w3.org/2000/svg">
<path d="M14.0027 5.31659V3.99992C14.0027 2.52925 12.8067 1.33325 11.336 1.33325H4.66934C3.19868 1.33325 2.00268 2.52925 2.00268 3.99992V5.33192L1.95201 5.33458C1.78388 5.34672 1.62658 5.4221 1.51179 5.54555C1.39701 5.669 1.33324 5.83135 1.33334 5.99992V7.33325C1.33334 7.51006 1.40358 7.67963 1.52861 7.80466C1.65363 7.92968 1.8232 7.99992 2.00001 7.99992H2.00268V11.9999C2.00268 12.4899 2.27134 12.9146 2.66668 13.1466V13.9999C2.66668 14.1767 2.73692 14.3463 2.86194 14.4713C2.98696 14.5963 3.15653 14.6666 3.33334 14.6666H4.00001C4.17682 14.6666 4.34639 14.5963 4.47141 14.4713C4.59644 14.3463 4.66668 14.1767 4.66668 13.9999V13.3333H11.3333V13.9999C11.3333 14.1767 11.4036 14.3463 11.5286 14.4713C11.6536 14.5963 11.8232 14.6666 12 14.6666H12.6667C12.8435 14.6666 13.0131 14.5963 13.1381 14.4713C13.2631 14.3463 13.3333 14.1767 13.3333 13.9999V13.1493C13.5357 13.033 13.7041 12.8657 13.8216 12.664C13.939 12.4623 14.0015 12.2333 14.0027 11.9999V7.99992C14.1795 7.99992 14.3491 7.92968 14.4741 7.80466C14.5991 7.67963 14.6693 7.51006 14.6693 7.33325V6.04125C14.6772 5.93778 14.6607 5.83392 14.6213 5.73792C14.486 5.41325 14.198 5.33525 14.0027 5.31659ZM12.6707 11.9999H3.33601V8.66658H12.67L12.6707 11.9999ZM7.33601 4.66658V7.33325H3.33601V4.66658H7.33601ZM12.6693 4.66658V7.33325H8.66934V4.66658H12.6693ZM4.66934 2.66659H11.336C11.8267 2.66659 12.2527 2.93659 12.484 3.33325H3.52134C3.75268 2.93659 4.17868 2.66659 4.66934 2.66659Z" fill="white"/>
<path d="M5 11.3333C5.55228 11.3333 6 10.8855 6 10.3333C6 9.78097 5.55228 9.33325 5 9.33325C4.44772 9.33325 4 9.78097 4 10.3333C4 10.8855 4.44772 11.3333 5 11.3333Z" fill="white"/>
<path d="M11 11.3333C11.5523 11.3333 12 10.8855 12 10.3333C12 9.78097 11.5523 9.33325 11 9.33325C10.4477 9.33325 10 9.78097 10 10.3333C10 10.8855 10.4477 11.3333 11 11.3333Z" fill="white"/>
</svg>
