<svg preserveAspectRatio="none" width="100%" height="100%" overflow="visible" style="display: block;" viewBox="0 0 24.5712 17.4104" fill="none" xmlns="http://www.w3.org/2000/svg">
<g id="Group">
<path id="Vector" d="M13.1927 8.94059C14.1266 6.35377 16.8922 4.98497 19.3825 5.89751C21.9244 6.82912 23.287 9.62533 22.3688 12.1691L22.3629 12.1837L22.358 12.1994C21.5575 14.7321 18.6931 16.1335 16.179 15.2122C13.6371 14.2805 12.2745 11.4844 13.1927 8.94059Z" fill="var(--fill-0, #FCDA50)" stroke="var(--stroke-0, #0950BA)" stroke-width="1.59497"/>
<path id="Vector_2" d="M15.9022 15.961C12.9666 14.8851 11.3699 11.6459 12.4432 8.67248C13.5165 5.6991 16.7237 4.07306 19.6593 5.14897C22.5949 6.22489 24.1916 9.46414 23.1183 12.4375C22.1786 15.4107 18.8378 17.0369 15.9022 15.961Z" stroke="var(--stroke-0, #0950BA)" stroke-width="2.23295" stroke-linecap="round" stroke-linejoin="round"/>
<path id="Vector_3" d="M2.20242 5.24277C3.13629 2.65596 5.90187 1.28717 8.39219 2.19969C10.934 3.13129 12.2966 5.9275 11.3785 8.47125L11.3726 8.48591L11.3677 8.50154C10.5671 11.0344 7.83327 12.4384 5.18186 11.5114C2.64432 10.5773 1.28504 7.78427 2.20242 5.24277Z" fill="var(--fill-0, #FCDA50)" stroke="var(--stroke-0, #0950BA)" stroke-width="1.59497"/>
<path id="Vector_4" d="M4.91188 12.2632C1.97628 11.1873 0.379599 7.94804 1.45287 4.97466C2.52614 2.00128 5.73345 0.375239 8.66904 1.45115C11.6046 2.52707 13.2013 5.76636 12.128 8.73974C11.1883 11.7129 7.98099 13.3389 4.91188 12.2632Z" stroke="var(--stroke-0, #0950BA)" stroke-width="2.23295" stroke-linecap="round" stroke-linejoin="round"/>
</g>
</svg>
