<svg preserveAspectRatio="none" width="100%" height="100%" overflow="visible" style="display: block;" viewBox="0 0 74.1571 24.6679" fill="none" xmlns="http://www.w3.org/2000/svg">
<g id="Group 1437258186">
<g id="Union">
<mask id="path-1-outside-1_2236_149" maskUnits="userSpaceOnUse" x="-0.908216" y="-0.902335" width="76" height="26" fill="black">
<rect fill="white" x="-0.908216" y="-0.902335" width="76" height="26"/>
<path d="M70.8896 2.77638L73.0654 2.58985L72.875 4.95216L72.6982 7.13868L72.5635 8.80274L72.5215 9.3252L71.9932 15.8858L71.8564 17.5772L70.166 17.7227L63.8174 18.2686L63.3906 18.3047V18.3057L61.7002 18.4512L59.584 18.6328L55.3535 18.9961L54.9267 19.0322V19.0332L53.2363 19.1787L46.8887 19.7246L44.5273 19.9277L44.7178 17.5654L44.7197 17.5313L44.541 17.5469L44.4844 18.2529L44.3476 19.9443L42.6572 20.0899L40.541 20.2715L38.1807 20.4736L38.3701 18.1123L38.3721 18.0781L38.1914 18.0938L38.1348 18.7988L37.998 20.4902L36.3076 20.6358L29.9599 21.1816L29.5361 21.2178L27.8457 21.3643L21.4971 21.9102L21.0713 21.9463L19.3808 22.0928L13.0332 22.6387L12.6064 22.6748L10.916 22.8213L4.56835 23.3672L2.20702 23.5703L2.39745 21.208L2.3994 21.1738L1.09178 21.2871L2.24217 7.01661L11.7764 6.1963L12.0351 6.17481L19.1689 5.56056L19.1699 5.55958L27.6328 4.83302L27.6338 4.83106L36.0967 4.10352L36.0986 4.10255L44.5596 3.37403L44.914 3.34376L45.6308 3.28224L45.8896 3.26075L52.2383 2.71485L53.0254 2.64747L53.0264 2.64552L62.5605 1.8252L62.5586 1.82716L62.8203 1.80372L71.0254 1.09767L70.8896 2.77638Z"/>
</mask>
<path d="M70.8896 2.77638L73.0654 2.58985L72.875 4.95216L72.6982 7.13868L72.5635 8.80274L72.5215 9.3252L71.9932 15.8858L71.8564 17.5772L70.166 17.7227L63.8174 18.2686L63.3906 18.3047V18.3057L61.7002 18.4512L59.584 18.6328L55.3535 18.9961L54.9267 19.0322V19.0332L53.2363 19.1787L46.8887 19.7246L44.5273 19.9277L44.7178 17.5654L44.7197 17.5313L44.541 17.5469L44.4844 18.2529L44.3476 19.9443L42.6572 20.0899L40.541 20.2715L38.1807 20.4736L38.3701 18.1123L38.3721 18.0781L38.1914 18.0938L38.1348 18.7988L37.998 20.4902L36.3076 20.6358L29.9599 21.1816L29.5361 21.2178L27.8457 21.3643L21.4971 21.9102L21.0713 21.9463L19.3808 22.0928L13.0332 22.6387L12.6064 22.6748L10.916 22.8213L4.56835 23.3672L2.20702 23.5703L2.39745 21.208L2.3994 21.1738L1.09178 21.2871L2.24217 7.01661L11.7764 6.1963L12.0351 6.17481L19.1689 5.56056L19.1699 5.55958L27.6328 4.83302L27.6338 4.83106L36.0967 4.10352L36.0986 4.10255L44.5596 3.37403L44.914 3.34376L45.6308 3.28224L45.8896 3.26075L52.2383 2.71485L53.0254 2.64747L53.0264 2.64552L62.5605 1.8252L62.5586 1.82716L62.8203 1.80372L71.0254 1.09767L70.8896 2.77638Z" fill="var(--fill-0, white)"/>
<path d="M70.8896 2.77638L69.8929 2.69578L69.7976 3.87366L70.975 3.77272L70.8896 2.77638ZM73.0654 2.58985L74.0622 2.6702L74.1571 1.4926L72.98 1.59351L73.0654 2.58985ZM72.875 4.95216L73.8717 5.03273L73.8718 5.03251L72.875 4.95216ZM72.6982 7.13868L73.695 7.2194L73.695 7.21926L72.6982 7.13868ZM72.5635 8.80274L71.5667 8.72202L71.5667 8.72263L72.5635 8.80274ZM72.5215 9.3252L73.5182 9.40547L73.5183 9.40532L72.5215 9.3252ZM71.9932 15.8858L72.9899 15.9663L72.9899 15.966L71.9932 15.8858ZM71.8564 17.5772L71.9422 18.5735L72.785 18.5009L72.8532 17.6577L71.8564 17.5772ZM70.166 17.7227L70.2517 18.719L70.2518 18.719L70.166 17.7227ZM63.8174 18.2686L63.9017 19.265L63.903 19.2649L63.8174 18.2686ZM63.3906 18.3047L63.3062 17.3083L62.3906 17.3858V18.3047H63.3906ZM63.3906 18.3057L63.4764 19.302L64.3906 19.2233V18.3057H63.3906ZM61.7002 18.4512L61.7857 19.4475L61.7859 19.4475L61.7002 18.4512ZM59.584 18.6328L59.4985 17.6365L59.4984 17.6365L59.584 18.6328ZM55.3535 18.9961L55.4379 19.9925L55.4391 19.9924L55.3535 18.9961ZM54.9267 19.0322L54.8424 18.0358L53.9267 18.1133V19.0322H54.9267ZM54.9267 19.0332L55.0125 20.0295L55.9267 19.9508V19.0332H54.9267ZM53.2363 19.1787L53.322 20.175L53.3221 20.175L53.2363 19.1787ZM46.8887 19.7246L46.803 18.7283L46.803 18.7283L46.8887 19.7246ZM44.5273 19.9277L43.5306 19.8474L43.4356 21.0253L44.613 20.9241L44.5273 19.9277ZM44.7178 17.5654L45.7145 17.6458L45.7155 17.6341L45.7161 17.6225L44.7178 17.5654ZM44.7197 17.5313L45.7181 17.5883L45.784 16.4344L44.6326 16.5351L44.7197 17.5313ZM44.541 17.5469L44.4539 16.5507L43.6118 16.6243L43.5442 17.4669L44.541 17.5469ZM44.4844 18.2529L45.4811 18.3335L45.4812 18.3329L44.4844 18.2529ZM44.3476 19.9443L44.4334 20.9407L45.2762 20.8681L45.3444 20.0249L44.3476 19.9443ZM42.6572 20.0899L42.7427 21.0862L42.743 21.0862L42.6572 20.0899ZM40.541 20.2715L40.6263 21.2678L40.6265 21.2678L40.541 20.2715ZM38.1807 20.4736L37.1839 20.3937L37.0894 21.5708L38.266 21.47L38.1807 20.4736ZM38.3701 18.1123L39.3669 18.1923L39.3678 18.1808L39.3685 18.1694L38.3701 18.1123ZM38.3721 18.0781L39.3704 18.1352L39.4363 16.9824L38.2859 17.0819L38.3721 18.0781ZM38.1914 18.0938L38.1052 17.0975L37.2624 17.1704L37.1946 18.0137L38.1914 18.0938ZM38.1348 18.7988L39.1315 18.8794L39.1315 18.8789L38.1348 18.7988ZM37.998 20.4902L38.0838 21.4866L38.9266 21.414L38.9948 20.5708L37.998 20.4902ZM36.3076 20.6358L36.3933 21.6321L36.3934 21.6321L36.3076 20.6358ZM29.9599 21.1816L30.0449 22.178L30.0456 22.178L29.9599 21.1816ZM29.5361 21.2178L29.4512 20.2214L29.4498 20.2215L29.5361 21.2178ZM27.8457 21.3643L27.9314 22.3606L27.932 22.3605L27.8457 21.3643ZM21.4971 21.9102L21.5816 22.9066L21.5827 22.9065L21.4971 21.9102ZM21.0713 21.9463L20.9867 20.9499L20.9849 20.95L21.0713 21.9463ZM19.3808 22.0928L19.4665 23.0891L19.4672 23.089L19.3808 22.0928ZM13.0332 22.6387L13.1176 23.6351L13.1189 23.635L13.0332 22.6387ZM12.6064 22.6748L12.5221 21.6784L12.5201 21.6785L12.6064 22.6748ZM10.916 22.8213L11.0017 23.8176L11.0023 23.8176L10.916 22.8213ZM4.56835 23.3672L4.48266 22.3709L4.48264 22.3709L4.56835 23.3672ZM2.20702 23.5703L1.21025 23.49L1.11529 24.6679L2.29272 24.5666L2.20702 23.5703ZM2.39745 21.208L3.39421 21.2884L3.39515 21.2767L3.39582 21.2651L2.39745 21.208ZM2.3994 21.1738L3.39777 21.2309L3.46366 20.0779L2.31309 20.1776L2.3994 21.1738ZM1.09178 21.2871L0.0950173 21.2068L0 22.3854L1.17809 22.2834L1.09178 21.2871ZM2.24217 7.01661L2.15645 6.02029L1.3134 6.09283L1.24541 6.93626L2.24217 7.01661ZM11.7764 6.1963L11.6936 5.19972L11.6906 5.19998L11.7764 6.1963ZM12.0351 6.17481L12.1179 7.17139L12.1209 7.17113L12.0351 6.17481ZM19.1689 5.56056L19.2547 6.55687L19.6181 6.52558L19.876 6.26766L19.1689 5.56056ZM19.1699 5.55958L19.0844 4.56324L18.7208 4.59446L18.4628 4.85247L19.1699 5.55958ZM27.6328 4.83302L27.7183 5.82935L28.2766 5.78142L28.5272 5.28023L27.6328 4.83302ZM27.6338 4.83106L27.5481 3.83474L26.9899 3.88273L26.7393 4.38385L27.6338 4.83106ZM36.0967 4.10352L36.1823 5.09985L36.3728 5.08347L36.5439 4.99795L36.0967 4.10352ZM36.0986 4.10255L36.0128 3.10623L35.8224 3.12263L35.6514 3.20812L36.0986 4.10255ZM44.5596 3.37403L44.4745 2.37766L44.4738 2.37772L44.5596 3.37403ZM44.914 3.34376L44.9991 4.34013L44.9996 4.3401L44.914 3.34376ZM45.6308 3.28224L45.5481 2.28566L45.5453 2.2859L45.6308 3.28224ZM45.8896 3.26075L45.9724 4.25733L45.9753 4.25707L45.8896 3.26075ZM52.2383 2.71485L52.153 1.7185L52.1526 1.71853L52.2383 2.71485ZM53.0254 2.64747L53.1107 3.64383L53.6691 3.59602L53.9198 3.09468L53.0254 2.64747ZM53.0264 2.64552L52.9406 1.6492L52.3825 1.69722L52.1319 2.1983L53.0264 2.64552ZM62.5605 1.8252L63.2676 2.53231L65.2061 0.593891L62.4748 0.828885L62.5605 1.8252ZM62.5586 1.82716L61.8515 1.12005L59.9025 3.06902L62.6478 2.82317L62.5586 1.82716ZM62.8203 1.80372L62.7346 0.807396L62.7311 0.807706L62.8203 1.80372ZM71.0254 1.09767L72.0221 1.17826L72.1174 0L70.9396 0.101347L71.0254 1.09767ZM70.8896 2.77638L70.975 3.77272L73.1508 3.5862L73.0654 2.58985L72.98 1.59351L70.8042 1.78003L70.8896 2.77638ZM73.0654 2.58985L72.0687 2.5095L71.8782 4.87181L72.875 4.95216L73.8718 5.03251L74.0622 2.6702L73.0654 2.58985ZM72.875 4.95216L71.8782 4.87158L71.7015 7.0581L72.6982 7.13868L73.695 7.21926L73.8717 5.03273L72.875 4.95216ZM72.6982 7.13868L71.7015 7.05796L71.5667 8.72202L72.5635 8.80274L73.5602 8.88347L73.695 7.2194L72.6982 7.13868ZM72.5635 8.80274L71.5667 8.72263L71.5247 9.24509L72.5215 9.3252L73.5183 9.40532L73.5603 8.88286L72.5635 8.80274ZM72.5215 9.3252L71.5247 9.24493L70.9964 15.8055L71.9932 15.8858L72.9899 15.966L73.5182 9.40547L72.5215 9.3252ZM71.9932 15.8858L70.9964 15.8052L70.8597 17.4966L71.8564 17.5772L72.8532 17.6577L72.9899 15.9663L71.9932 15.8858ZM71.8564 17.5772L71.7707 16.5808L70.0802 16.7263L70.166 17.7227L70.2518 18.719L71.9422 18.5735L71.8564 17.5772ZM70.166 17.7227L70.0803 16.7263L63.7317 17.2722L63.8174 18.2686L63.903 19.2649L70.2517 18.719L70.166 17.7227ZM63.8174 18.2686L63.733 17.2721L63.3062 17.3083L63.3906 18.3047L63.475 19.3011L63.9017 19.265L63.8174 18.2686ZM63.3906 18.3047H62.3906V18.3057H63.3906H64.3906V18.3047H63.3906ZM63.3906 18.3057L63.3048 17.3094L61.6144 17.4549L61.7002 18.4512L61.7859 19.4475L63.4764 19.302L63.3906 18.3057ZM61.7002 18.4512L61.6147 17.4548L59.4985 17.6365L59.584 18.6328L59.6695 19.6292L61.7857 19.4475L61.7002 18.4512ZM59.584 18.6328L59.4984 17.6365L55.2679 17.9998L55.3535 18.9961L55.4391 19.9924L59.6695 19.6292L59.584 18.6328ZM55.3535 18.9961L55.2691 17.9997L54.8424 18.0358L54.9267 19.0322L55.0111 20.0287L55.4379 19.9925L55.3535 18.9961ZM54.9267 19.0322H53.9267V19.0332H54.9267H55.9267V19.0322H54.9267ZM54.9267 19.0332L54.841 18.0369L53.1506 18.1824L53.2363 19.1787L53.3221 20.175L55.0125 20.0295L54.9267 19.0332ZM53.2363 19.1787L53.1506 18.1824L46.803 18.7283L46.8887 19.7246L46.9743 20.7209L53.322 20.175L53.2363 19.1787ZM46.8887 19.7246L46.803 18.7283L44.4416 18.9314L44.5273 19.9277L44.613 20.9241L46.9744 20.7209L46.8887 19.7246ZM44.5273 19.9277L45.5241 20.0081L45.7145 17.6458L44.7178 17.5654L43.721 17.4851L43.5306 19.8474L44.5273 19.9277ZM44.7178 17.5654L45.7161 17.6225L45.7181 17.5883L44.7197 17.5313L43.7213 17.4742L43.7194 17.5084L44.7178 17.5654ZM44.7197 17.5313L44.6326 16.5351L44.4539 16.5507L44.541 17.5469L44.6281 18.5431L44.8068 18.5275L44.7197 17.5313ZM44.541 17.5469L43.5442 17.4669L43.4876 18.173L44.4844 18.2529L45.4812 18.3329L45.5378 17.6268L44.541 17.5469ZM44.4844 18.2529L43.4876 18.1724L43.3509 19.8638L44.3476 19.9443L45.3444 20.0249L45.4811 18.3335L44.4844 18.2529ZM44.3476 19.9443L44.2619 18.948L42.5715 19.0935L42.6572 20.0899L42.743 21.0862L44.4334 20.9407L44.3476 19.9443ZM42.6572 20.0899L42.5717 19.0935L40.4555 19.2752L40.541 20.2715L40.6265 21.2678L42.7427 21.0862L42.6572 20.0899ZM40.541 20.2715L40.4557 19.2751L38.0953 19.4773L38.1807 20.4736L38.266 21.47L40.6263 21.2678L40.541 20.2715ZM38.1807 20.4736L39.1774 20.5536L39.3669 18.1923L38.3701 18.1123L37.3733 18.0323L37.1839 20.3937L38.1807 20.4736ZM38.3701 18.1123L39.3685 18.1694L39.3704 18.1352L38.3721 18.0781L37.3737 18.0211L37.3717 18.0553L38.3701 18.1123ZM38.3721 18.0781L38.2859 17.0819L38.1052 17.0975L38.1914 18.0938L38.2776 19.09L38.4582 19.0744L38.3721 18.0781ZM38.1914 18.0938L37.1946 18.0137L37.138 18.7188L38.1348 18.7988L39.1315 18.8789L39.1882 18.1738L38.1914 18.0938ZM38.1348 18.7988L37.138 18.7183L37.0013 20.4097L37.998 20.4902L38.9948 20.5708L39.1315 18.8794L38.1348 18.7988ZM37.998 20.4902L37.9123 19.4939L36.2218 19.6394L36.3076 20.6358L36.3934 21.6321L38.0838 21.4866L37.998 20.4902ZM36.3076 20.6358L36.2219 19.6394L29.8743 20.1853L29.9599 21.1816L30.0456 22.178L36.3933 21.6321L36.3076 20.6358ZM29.9599 21.1816L29.875 20.1853L29.4512 20.2214L29.5361 21.2178L29.6211 22.2142L30.0449 22.178L29.9599 21.1816ZM29.5361 21.2178L29.4498 20.2215L27.7594 20.368L27.8457 21.3643L27.932 22.3605L29.6225 22.214L29.5361 21.2178ZM27.8457 21.3643L27.76 20.3679L21.4114 20.9138L21.4971 21.9102L21.5827 22.9065L27.9314 22.3606L27.8457 21.3643ZM21.4971 21.9102L21.4125 20.9137L20.9867 20.9499L21.0713 21.9463L21.1558 22.9427L21.5816 22.9066L21.4971 21.9102ZM21.0713 21.9463L20.9849 20.95L19.2945 21.0965L19.3808 22.0928L19.4672 23.089L21.1576 22.9426L21.0713 21.9463ZM19.3808 22.0928L19.2952 21.0965L12.9475 21.6424L13.0332 22.6387L13.1189 23.635L19.4665 23.0891L19.3808 22.0928ZM13.0332 22.6387L12.9488 21.6422L12.5221 21.6784L12.6064 22.6748L12.6908 23.6712L13.1176 23.6351L13.0332 22.6387ZM12.6064 22.6748L12.5201 21.6785L10.8297 21.825L10.916 22.8213L11.0023 23.8176L12.6928 23.6711L12.6064 22.6748ZM10.916 22.8213L10.8303 21.825L4.48266 22.3709L4.56835 23.3672L4.65403 24.3635L11.0017 23.8176L10.916 22.8213ZM4.56835 23.3672L4.48264 22.3709L2.12131 22.574L2.20702 23.5703L2.29272 24.5666L4.65405 24.3635L4.56835 23.3672ZM2.20702 23.5703L3.20378 23.6507L3.39421 21.2884L2.39745 21.208L1.40068 21.1277L1.21025 23.49L2.20702 23.5703ZM2.39745 21.208L3.39582 21.2651L3.39777 21.2309L2.3994 21.1738L1.40103 21.1168L1.39908 21.151L2.39745 21.208ZM2.3994 21.1738L2.31309 20.1776L1.00548 20.2908L1.09178 21.2871L1.17809 22.2834L2.48571 22.1701L2.3994 21.1738ZM1.09178 21.2871L2.08855 21.3675L3.23894 7.09696L2.24217 7.01661L1.24541 6.93626L0.0950173 21.2068L1.09178 21.2871ZM2.24217 7.01661L2.3279 8.01293L11.8621 7.19262L11.7764 6.1963L11.6906 5.19998L2.15645 6.02029L2.24217 7.01661ZM11.7764 6.1963L11.8591 7.19287L12.1179 7.17139L12.0351 6.17481L11.9524 5.17824L11.6936 5.19973L11.7764 6.1963ZM12.0351 6.17481L12.1209 7.17113L19.2547 6.55687L19.1689 5.56056L19.0831 4.56424L11.9494 5.1785L12.0351 6.17481ZM19.1689 5.56056L19.876 6.26766L19.877 6.26669L19.1699 5.55958L18.4628 4.85247L18.4618 4.85345L19.1689 5.56056ZM19.1699 5.55958L19.2554 6.55591L27.7183 5.82935L27.6328 4.83302L27.5473 3.83668L19.0844 4.56324L19.1699 5.55958ZM27.6328 4.83302L28.5272 5.28023L28.5282 5.27828L27.6338 4.83106L26.7393 4.38385L26.7384 4.3858L27.6328 4.83302ZM27.6338 4.83106L27.7194 5.82739L36.1823 5.09985L36.0967 4.10352L36.011 3.1072L27.5481 3.83474L27.6338 4.83106ZM36.0967 4.10352L36.5439 4.99795L36.5458 4.99698L36.0986 4.10255L35.6514 3.20812L35.6495 3.2091L36.0967 4.10352ZM36.0986 4.10255L36.1844 5.09886L44.6453 4.37035L44.5596 3.37403L44.4738 2.37772L36.0128 3.10623L36.0986 4.10255ZM44.5596 3.37403L44.6446 4.37041L44.9991 4.34013L44.914 3.34376L44.829 2.34739L44.4745 2.37766L44.5596 3.37403ZM44.914 3.34376L44.9996 4.3401L45.7164 4.27857L45.6308 3.28224L45.5453 2.2859L44.8285 2.34742L44.914 3.34376ZM45.6308 3.28224L45.7136 4.27881L45.9724 4.25732L45.8896 3.26075L45.8069 2.26418L45.5481 2.28566L45.6308 3.28224ZM45.8896 3.26075L45.9753 4.25707L52.3239 3.71118L52.2383 2.71485L52.1526 1.71853L45.804 2.26443L45.8896 3.26075ZM52.2383 2.71485L52.3236 3.71121L53.1107 3.64383L53.0254 2.64747L52.9401 1.65111L52.153 1.7185L52.2383 2.71485ZM53.0254 2.64747L53.9198 3.09468L53.9208 3.09273L53.0264 2.64552L52.1319 2.1983L52.1309 2.20026L53.0254 2.64747ZM53.0264 2.64552L53.1121 3.64184L62.6463 2.82152L62.5605 1.8252L62.4748 0.828885L52.9406 1.6492L53.0264 2.64552ZM62.5605 1.8252L61.8534 1.1181L61.8515 1.12005L62.5586 1.82716L63.2657 2.53426L63.2676 2.53231L62.5605 1.8252ZM62.5586 1.82716L62.6478 2.82317L62.9095 2.79973L62.8203 1.80372L62.7311 0.807706L62.4694 0.831143L62.5586 1.82716ZM62.8203 1.80372L62.906 2.80004L71.1111 2.09398L71.0254 1.09767L70.9396 0.101347L62.7346 0.807402L62.8203 1.80372ZM71.0254 1.09767L70.0286 1.01707L69.8929 2.69578L70.8896 2.77638L71.8864 2.85697L72.0221 1.17826L71.0254 1.09767Z" fill="var(--stroke-0, black)" mask="url(#path-1-outside-1_2236_149)"/>
</g>
<g id="Group 1032">
<g id="Union_2">
<mask id="path-3-outside-2_2236_149" maskUnits="userSpaceOnUse" x="1.41242" y="1.79093" width="72" height="22" fill="black">
<rect fill="white" x="1.41242" y="1.79093" width="72" height="22"/>
<path d="M11.2894 14.2626L9.17413 14.4443L9.34992 12.2577L7.23468 12.4394L7.05792 14.6259L9.17413 14.4443L8.99738 16.6308L6.88117 16.8124L6.70538 18.9999V19.0009L8.82062 18.8193L8.99738 16.6318L11.1126 16.4501L10.761 20.8232L4.41242 21.3691L5.29328 10.4355L11.6419 9.88957L11.2894 14.2626ZM19.2259 20.0946L12.8782 20.6405L13.7591 9.70695L20.1068 9.16105L19.2259 20.0946ZM27.6898 19.3661L21.3421 19.912L22.223 8.97843L28.5706 8.43253L27.6898 19.3661ZM36.8587 9.89054L32.6263 10.2548L32.4495 12.4413L36.6819 12.0771L36.1536 18.6376L29.805 19.1835L29.9818 16.997L34.2142 16.6327L34.39 14.4452L30.1575 14.8095L30.6868 8.24992L37.0345 7.70402L36.8587 9.89054ZM45.3226 9.163L43.2064 9.34464L42.5013 18.0917L40.386 18.2734L41.0911 9.52628L41.0902 9.52726L38.9739 9.7089L39.1507 7.52238L45.4993 6.97648L45.3226 9.163ZM15.6985 11.7109L15.1693 18.2714L17.2855 18.0898L17.8138 11.5292L15.6985 11.7109ZM53.7855 8.43351L49.554 8.79777L49.3773 10.9843L51.4935 10.8027L51.3167 12.9892L49.2005 13.1708L49.0247 15.3583H49.0257L53.2571 14.9941L53.0814 17.1806L46.7327 17.7265L47.6136 6.79289L53.9622 6.24699L53.7855 8.43351ZM24.1624 10.9823L23.6331 17.5429L25.7493 17.3612L26.2777 10.8007L24.1624 10.9823ZM62.0755 9.89152L59.9583 10.0732L60.1351 7.88664L58.0189 8.06828L57.8431 10.2548L59.9583 10.0732L59.7825 12.2597V12.2607L61.8978 12.079L61.5462 16.453L59.429 16.6347L59.7806 12.2607L57.6663 12.4423L57.3138 16.8163L55.1985 16.998L56.0794 6.06437L62.4271 5.51847L62.0755 9.89152ZM70.7152 6.97746L66.4827 7.34171L66.3069 9.52824L70.5394 9.16398L70.0101 15.7245L63.6624 16.2704L63.8392 14.0839L68.0706 13.7196L68.2464 11.5321L64.015 11.8964L64.5433 5.33683L70.8919 4.79093L70.7152 6.97746Z"/>
</mask>
<path d="M11.2894 14.2626L9.17413 14.4443L9.34992 12.2577L7.23468 12.4394L7.05792 14.6259L9.17413 14.4443L8.99738 16.6308L6.88117 16.8124L6.70538 18.9999V19.0009L8.82062 18.8193L8.99738 16.6318L11.1126 16.4501L10.761 20.8232L4.41242 21.3691L5.29328 10.4355L11.6419 9.88957L11.2894 14.2626ZM19.2259 20.0946L12.8782 20.6405L13.7591 9.70695L20.1068 9.16105L19.2259 20.0946ZM27.6898 19.3661L21.3421 19.912L22.223 8.97843L28.5706 8.43253L27.6898 19.3661ZM36.8587 9.89054L32.6263 10.2548L32.4495 12.4413L36.6819 12.0771L36.1536 18.6376L29.805 19.1835L29.9818 16.997L34.2142 16.6327L34.39 14.4452L30.1575 14.8095L30.6868 8.24992L37.0345 7.70402L36.8587 9.89054ZM45.3226 9.163L43.2064 9.34464L42.5013 18.0917L40.386 18.2734L41.0911 9.52628L41.0902 9.52726L38.9739 9.7089L39.1507 7.52238L45.4993 6.97648L45.3226 9.163ZM15.6985 11.7109L15.1693 18.2714L17.2855 18.0898L17.8138 11.5292L15.6985 11.7109ZM53.7855 8.43351L49.554 8.79777L49.3773 10.9843L51.4935 10.8027L51.3167 12.9892L49.2005 13.1708L49.0247 15.3583H49.0257L53.2571 14.9941L53.0814 17.1806L46.7327 17.7265L47.6136 6.79289L53.9622 6.24699L53.7855 8.43351ZM24.1624 10.9823L23.6331 17.5429L25.7493 17.3612L26.2777 10.8007L24.1624 10.9823ZM62.0755 9.89152L59.9583 10.0732L60.1351 7.88664L58.0189 8.06828L57.8431 10.2548L59.9583 10.0732L59.7825 12.2597V12.2607L61.8978 12.079L61.5462 16.453L59.429 16.6347L59.7806 12.2607L57.6663 12.4423L57.3138 16.8163L55.1985 16.998L56.0794 6.06437L62.4271 5.51847L62.0755 9.89152ZM70.7152 6.97746L66.4827 7.34171L66.3069 9.52824L70.5394 9.16398L70.0101 15.7245L63.6624 16.2704L63.8392 14.0839L68.0706 13.7196L68.2464 11.5321L64.015 11.8964L64.5433 5.33683L70.8919 4.79093L70.7152 6.97746Z" fill="var(--fill-0, #10256E)"/>
<path d="M11.2894 14.2626L11.4609 16.2605L13.1517 16.1153L13.2881 14.4237L11.2894 14.2626ZM9.34992 12.2577L11.3487 12.4184L11.5385 10.0572L9.17835 10.2599L9.34992 12.2577ZM7.23468 12.4394L7.06312 10.4415L5.37269 10.5867L5.23598 12.2778L7.23468 12.4394ZM7.05792 14.6259L5.05922 14.4643L4.86827 16.8264L7.22941 16.6238L7.05792 14.6259ZM8.99738 16.6308L9.16886 18.6287L10.8594 18.4835L10.9961 16.7924L8.99738 16.6308ZM6.88117 16.8124L6.70968 14.8145L5.01836 14.9597L4.88239 16.6518L6.88117 16.8124ZM6.70538 18.9999L4.70661 18.8393L4.70017 18.9195V18.9999H6.70538ZM6.70538 19.0009H4.70017V21.1857L6.87695 20.9988L6.70538 19.0009ZM8.82062 18.8193L8.99218 20.8171L10.6827 20.672L10.8193 18.9808L8.82062 18.8193ZM8.99738 16.6318L8.82581 14.6339L7.13533 14.7791L6.99867 16.4703L8.99738 16.6318ZM11.1126 16.4501L13.1114 16.6108L13.3012 14.2496L10.941 14.4522L11.1126 16.4501ZM10.761 20.8232L10.9328 22.821L12.6238 22.6756L12.7598 20.9838L10.761 20.8232ZM4.41242 21.3691L2.41367 21.208L2.22339 23.5699L4.5842 23.3669L4.41242 21.3691ZM5.29328 10.4355L5.12149 8.43762L3.4308 8.58299L3.29453 10.2744L5.29328 10.4355ZM11.6419 9.88957L13.6406 10.0507L13.8311 7.68871L11.4701 7.89172L11.6419 9.88957ZM19.2259 20.0946L19.3977 22.0925L21.0884 21.9471L21.2246 20.2557L19.2259 20.0946ZM12.8782 20.6405L10.8795 20.4795L10.6892 22.8414L13.0501 22.6384L12.8782 20.6405ZM13.7591 9.70695L13.5873 7.7091L11.8966 7.8545L11.7604 9.54592L13.7591 9.70695ZM20.1068 9.16105L22.1055 9.32208L22.2958 6.96017L19.9349 7.16321L20.1068 9.16105ZM27.6898 19.3661L27.8616 21.364L29.5522 21.2186L29.6885 19.5272L27.6898 19.3661ZM21.3421 19.912L19.3434 19.751L19.1531 22.1129L21.5139 21.9099L21.3421 19.912ZM22.223 8.97843L22.0511 6.98059L20.3605 7.12598L20.2242 8.81741L22.223 8.97843ZM28.5706 8.43253L30.5694 8.59356L30.7596 6.23166L28.3988 6.43469L28.5706 8.43253ZM36.8587 9.89054L37.0306 11.8884L38.7215 11.7429L38.8575 10.0512L36.8587 9.89054ZM32.6263 10.2548L32.4543 8.25697L30.7643 8.40242L30.6276 10.0932L32.6263 10.2548ZM32.4495 12.4413L30.4508 12.2797L30.2598 14.6424L32.6215 14.4392L32.4495 12.4413ZM36.6819 12.0771L38.6807 12.238L38.8709 9.87604L36.51 10.0792L36.6819 12.0771ZM36.1536 18.6376L36.3254 20.6355L38.0162 20.4901L38.1524 18.7986L36.1536 18.6376ZM29.805 19.1835L27.8063 19.0219L27.6153 21.3844L29.9768 21.1814L29.805 19.1835ZM29.9818 16.997L29.8098 14.9992L28.1197 15.1446L27.9831 16.8354L29.9818 16.997ZM34.2142 16.6327L34.3861 18.6306L36.077 18.485L36.213 16.7933L34.2142 16.6327ZM34.39 14.4452L36.3887 14.6058L36.5785 12.2442L34.218 12.4474L34.39 14.4452ZM30.1575 14.8095L28.1588 14.6482L27.9682 17.0105L30.3295 16.8073L30.1575 14.8095ZM30.6868 8.24992L30.515 6.25207L28.8246 6.39745L28.6881 8.08864L30.6868 8.24992ZM37.0345 7.70402L39.0333 7.86471L39.2231 5.50318L36.8627 5.70617L37.0345 7.70402ZM45.3226 9.163L45.4941 11.1609L47.1846 11.0158L47.3213 9.32458L45.3226 9.163ZM43.2064 9.34464L43.0349 7.34677L41.344 7.49191L41.2076 9.18353L43.2064 9.34464ZM42.5013 18.0917L42.6728 20.0896L44.3637 19.9444L44.5 18.2528L42.5013 18.0917ZM40.386 18.2734L38.3873 18.1122L38.1969 20.4739L40.5576 20.2712L40.386 18.2734ZM41.0911 9.52628L43.0899 9.6874L43.5279 4.25375L39.6732 8.10838L41.0911 9.52628ZM41.0902 9.52726L41.2616 11.5251L41.9907 11.4626L42.5081 10.9452L41.0902 9.52726ZM38.9739 9.7089L36.9752 9.54733L36.7843 11.9094L39.1454 11.7068L38.9739 9.7089ZM39.1507 7.52238L38.9789 5.52453L37.2887 5.66987L37.152 7.3608L39.1507 7.52238ZM45.4993 6.97648L47.498 7.13805L47.689 4.77558L45.3275 4.97863L45.4993 6.97648ZM15.6985 11.7109L15.527 9.71299L13.8363 9.85817L13.6998 11.5496L15.6985 11.7109ZM15.1693 18.2714L13.1705 18.1101L12.98 20.4719L15.3407 20.2693L15.1693 18.2714ZM17.2855 18.0898L17.4569 20.0876L19.148 19.9425L19.2842 18.2507L17.2855 18.0898ZM17.8138 11.5292L19.8125 11.6902L20.0027 9.32865L17.6422 9.53135L17.8138 11.5292ZM53.7855 8.43351L53.9574 10.4313L55.6475 10.2859L55.7842 8.59509L53.7855 8.43351ZM49.554 8.79777L49.382 6.79994L47.692 6.94542L47.5553 8.6362L49.554 8.79777ZM49.3773 10.9843L47.3786 10.8227L47.1876 13.1848L49.5487 12.9822L49.3773 10.9843ZM51.4935 10.8027L53.4922 10.9642L53.6831 8.60212L51.322 8.80478L51.4935 10.8027ZM51.3167 12.9892L51.4882 14.987L53.1787 14.8419L53.3154 13.1507L51.3167 12.9892ZM49.2005 13.1708L49.029 11.1729L47.3377 11.3181L47.2017 13.0102L49.2005 13.1708ZM49.0247 15.3583L47.0259 15.1977L46.8519 17.3635H49.0247V15.3583ZM49.0257 15.3583V17.3635H49.1118L49.1977 17.3561L49.0257 15.3583ZM53.2571 14.9941L55.2559 15.1547L55.4458 12.793L53.0852 12.9962L53.2571 14.9941ZM53.0814 17.1806L53.2531 19.1784L54.9441 19.033L55.0801 17.3413L53.0814 17.1806ZM46.7327 17.7265L44.734 17.5655L44.5437 19.9273L46.9045 19.7243L46.7327 17.7265ZM47.6136 6.79289L47.4418 4.79504L45.7511 4.94042L45.6148 6.63186L47.6136 6.79289ZM53.9622 6.24699L55.9609 6.40856L56.1519 4.04609L53.7904 4.24914L53.9622 6.24699ZM24.1624 10.9823L23.9909 8.98447L22.3002 9.12966L22.1637 10.8211L24.1624 10.9823ZM23.6331 17.5429L21.6344 17.3816L21.4438 19.7434L23.8046 19.5408L23.6331 17.5429ZM25.7493 17.3612L25.9208 19.3591L27.6118 19.214L27.7481 17.5222L25.7493 17.3612ZM26.2777 10.8007L28.2764 10.9617L28.4666 8.60013L26.1061 8.80283L26.2777 10.8007ZM62.0755 9.89152L62.2469 11.8894L63.9382 11.7443L64.0743 10.0522L62.0755 9.89152ZM60.1351 7.88664L62.1338 8.04821L62.3247 5.6861L59.9636 5.88876L60.1351 7.88664ZM58.0189 8.06828L57.8474 6.0704L56.1561 6.21557L56.0201 7.90759L58.0189 8.06828ZM57.8431 10.2548L55.8443 10.0941L55.6545 12.4553L58.0146 12.2527L57.8431 10.2548ZM59.7825 12.2597L57.7838 12.099L57.7773 12.1792V12.2597H59.7825ZM59.7825 12.2607H57.7773V14.4455L59.9541 14.2585L59.7825 12.2607ZM61.8978 12.079L63.8965 12.2397L64.0863 9.87848L61.7262 10.0812L61.8978 12.079ZM61.5462 16.453L61.7176 18.4509L63.409 18.3058L63.545 16.6137L61.5462 16.453ZM59.429 16.6347L57.4302 16.474L57.2405 18.835L59.6004 18.6326L59.429 16.6347ZM59.7806 12.2607L61.7794 12.4213L61.9691 10.06L59.6089 10.2628L59.7806 12.2607ZM57.6663 12.4423L57.4947 10.4444L55.8039 10.5897L55.6676 12.2812L57.6663 12.4423ZM57.3138 16.8163L57.4853 18.8142L59.1762 18.669L59.3125 16.9774L57.3138 16.8163ZM55.1985 16.998L53.1998 16.8369L53.0095 19.1985L55.3701 18.9958L55.1985 16.998ZM56.0794 6.06437L55.9076 4.06653L54.2169 4.21192L54.0807 5.90334L56.0794 6.06437ZM62.4271 5.51847L64.4258 5.67916L64.6157 3.31763L62.2553 3.52063L62.4271 5.51847ZM70.7152 6.97746L70.8871 8.97529L72.5772 8.82984L72.7139 7.13903L70.7152 6.97746ZM66.4827 7.34171L66.3108 5.34388L64.62 5.4894L64.484 7.18103L66.4827 7.34171ZM66.3069 9.52824L64.3082 9.36755L64.1183 11.7292L66.4789 11.5261L66.3069 9.52824ZM70.5394 9.16398L72.5381 9.32524L72.7287 6.96293L70.3674 7.16615L70.5394 9.16398ZM70.0101 15.7245L70.1819 17.7224L71.8724 17.577L72.0088 15.8858L70.0101 15.7245ZM63.6624 16.2704L61.6637 16.1089L61.4727 18.4714L63.8342 18.2683L63.6624 16.2704ZM63.8392 14.0839L63.6672 12.0861L61.9772 12.2316L61.8405 13.9223L63.8392 14.0839ZM68.0706 13.7196L68.2426 15.7175L69.9335 15.5719L70.0694 13.8803L68.0706 13.7196ZM68.2464 11.5321L70.2452 11.6928L70.435 9.33111L68.0744 9.53431L68.2464 11.5321ZM64.015 11.8964L62.0162 11.7354L61.826 14.0975L64.1869 13.8942L64.015 11.8964ZM64.5433 5.33683L64.3715 3.33898L62.6808 3.48436L62.5445 5.17585L64.5433 5.33683ZM70.8919 4.79093L72.8906 4.95251L73.0816 2.59003L70.7201 2.79309L70.8919 4.79093ZM11.2894 14.2626L11.1178 12.2647L9.00257 12.4464L9.17413 14.4443L9.3457 16.4421L11.4609 16.2605L11.2894 14.2626ZM9.17413 14.4443L11.1729 14.6049L11.3487 12.4184L9.34992 12.2577L7.35115 12.097L7.17536 14.2836L9.17413 14.4443ZM9.34992 12.2577L9.17835 10.2599L7.06312 10.4415L7.23468 12.4394L7.40624 14.4372L9.52148 14.2556L9.34992 12.2577ZM7.23468 12.4394L5.23598 12.2778L5.05922 14.4643L7.05792 14.6259L9.05662 14.7875L9.23338 12.6009L7.23468 12.4394ZM7.05792 14.6259L7.22941 16.6238L9.34562 16.4421L9.17413 14.4443L9.00265 12.4464L6.88644 12.628L7.05792 14.6259ZM9.17413 14.4443L7.17544 14.2827L6.99868 16.4692L8.99738 16.6308L10.9961 16.7924L11.1728 14.6058L9.17413 14.4443ZM8.99738 16.6308L8.82589 14.6329L6.70968 14.8145L6.88117 16.8124L7.05265 18.8103L9.16886 18.6287L8.99738 16.6308ZM6.88117 16.8124L4.88239 16.6518L4.70661 18.8393L6.70538 18.9999L8.70416 19.1605L8.87994 16.973L6.88117 16.8124ZM6.70538 18.9999H4.70017V19.0009H6.70538H8.7106V18.9999H6.70538ZM6.70538 19.0009L6.87695 20.9988L8.99218 20.8171L8.82062 18.8193L8.64906 16.8214L6.53382 17.003L6.70538 19.0009ZM8.82062 18.8193L10.8193 18.9808L10.9961 16.7933L8.99738 16.6318L6.99867 16.4703L6.82191 18.6578L8.82062 18.8193ZM8.99738 16.6318L9.16894 18.6296L11.2842 18.448L11.1126 16.4501L10.941 14.4522L8.82581 14.6339L8.99738 16.6318ZM11.1126 16.4501L9.11384 16.2894L8.76228 20.6625L10.761 20.8232L12.7598 20.9838L13.1114 16.6108L11.1126 16.4501ZM10.761 20.8232L10.5893 18.8253L4.24063 19.3712L4.41242 21.3691L4.5842 23.3669L10.9328 22.821L10.761 20.8232ZM4.41242 21.3691L6.41116 21.5301L7.29202 10.5965L5.29328 10.4355L3.29453 10.2744L2.41367 21.208L4.41242 21.3691ZM5.29328 10.4355L5.46506 12.4333L11.8137 11.8874L11.6419 9.88957L11.4701 7.89172L5.12149 8.43762L5.29328 10.4355ZM11.6419 9.88957L9.64317 9.72844L9.29063 14.1015L11.2894 14.2626L13.2881 14.4237L13.6406 10.0507L11.6419 9.88957ZM19.2259 20.0946L19.0541 18.0968L12.7064 18.6427L12.8782 20.6405L13.0501 22.6384L19.3977 22.0925L19.2259 20.0946ZM12.8782 20.6405L14.877 20.8016L15.7578 9.86798L13.7591 9.70695L11.7604 9.54592L10.8795 20.4795L12.8782 20.6405ZM13.7591 9.70695L13.9309 11.7048L20.2786 11.1589L20.1068 9.16105L19.9349 7.16321L13.5873 7.7091L13.7591 9.70695ZM20.1068 9.16105L18.108 9.00002L17.2271 19.9336L19.2259 20.0946L21.2246 20.2557L22.1055 9.32208L20.1068 9.16105ZM27.6898 19.3661L27.5179 17.3683L21.1703 17.9142L21.3421 19.912L21.5139 21.9099L27.8616 21.364L27.6898 19.3661ZM21.3421 19.912L23.3408 20.0731L24.2217 9.13946L22.223 8.97843L20.2242 8.81741L19.3434 19.751L21.3421 19.912ZM22.223 8.97843L22.3948 10.9763L28.7424 10.4304L28.5706 8.43253L28.3988 6.43469L22.0511 6.98059L22.223 8.97843ZM28.5706 8.43253L26.5719 8.27151L25.691 19.2051L27.6898 19.3661L29.6885 19.5272L30.5694 8.59356L28.5706 8.43253ZM36.8587 9.89054L36.6868 7.89271L32.4543 8.25697L32.6263 10.2548L32.7982 12.2526L37.0306 11.8884L36.8587 9.89054ZM32.6263 10.2548L30.6276 10.0932L30.4508 12.2797L32.4495 12.4413L34.4482 12.6029L34.625 10.4164L32.6263 10.2548ZM32.4495 12.4413L32.6215 14.4392L36.8539 14.0749L36.6819 12.0771L36.51 10.0792L32.2776 10.4435L32.4495 12.4413ZM36.6819 12.0771L34.6832 11.9161L34.1549 18.4767L36.1536 18.6376L38.1524 18.7986L38.6807 12.238L36.6819 12.0771ZM36.1536 18.6376L35.9818 16.6398L29.6332 17.1857L29.805 19.1835L29.9768 21.1814L36.3254 20.6355L36.1536 18.6376ZM29.805 19.1835L31.8037 19.3451L31.9805 17.1586L29.9818 16.997L27.9831 16.8354L27.8063 19.0219L29.805 19.1835ZM29.9818 16.997L30.1537 18.9948L34.3861 18.6306L34.2142 16.6327L34.0422 14.6349L29.8098 14.9992L29.9818 16.997ZM34.2142 16.6327L36.213 16.7933L36.3887 14.6058L34.39 14.4452L32.3912 14.2846L32.2154 16.4721L34.2142 16.6327ZM34.39 14.4452L34.218 12.4474L29.9856 12.8117L30.1575 14.8095L30.3295 16.8073L34.5619 16.4431L34.39 14.4452ZM30.1575 14.8095L32.1563 14.9708L32.6856 8.4112L30.6868 8.24992L28.6881 8.08864L28.1588 14.6482L30.1575 14.8095ZM30.6868 8.24992L30.8586 10.2478L37.2063 9.70186L37.0345 7.70402L36.8627 5.70617L30.515 6.25207L30.6868 8.24992ZM37.0345 7.70402L35.0357 7.54333L34.8599 9.72986L36.8587 9.89054L38.8575 10.0512L39.0333 7.86471L37.0345 7.70402ZM45.3226 9.163L45.1511 7.16513L43.0349 7.34677L43.2064 9.34464L43.3778 11.3425L45.4941 11.1609L45.3226 9.163ZM43.2064 9.34464L41.2076 9.18353L40.5025 17.9306L42.5013 18.0917L44.5 18.2528L45.2051 9.50576L43.2064 9.34464ZM42.5013 18.0917L42.3297 16.0938L40.2145 16.2755L40.386 18.2734L40.5576 20.2712L42.6728 20.0896L42.5013 18.0917ZM40.386 18.2734L42.3848 18.4345L43.0899 9.6874L41.0911 9.52628L39.0924 9.36517L38.3873 18.1122L40.386 18.2734ZM41.0911 9.52628L39.6732 8.10838L39.6722 8.10936L41.0902 9.52726L42.5081 10.9452L42.509 10.9442L41.0911 9.52628ZM41.0902 9.52726L40.9187 7.52939L38.8025 7.71103L38.9739 9.7089L39.1454 11.7068L41.2616 11.5251L41.0902 9.52726ZM38.9739 9.7089L40.9726 9.87048L41.1494 7.68395L39.1507 7.52238L37.152 7.3608L36.9752 9.54733L38.9739 9.7089ZM39.1507 7.52238L39.3225 9.52023L45.6711 8.97433L45.4993 6.97648L45.3275 4.97863L38.9789 5.52453L39.1507 7.52238ZM45.4993 6.97648L43.5006 6.81491L43.3239 9.00143L45.3226 9.163L47.3213 9.32458L47.498 7.13805L45.4993 6.97648ZM15.6985 11.7109L13.6998 11.5496L13.1705 18.1101L15.1693 18.2714L17.168 18.4327L17.6973 11.8721L15.6985 11.7109ZM15.1693 18.2714L15.3407 20.2693L17.4569 20.0876L17.2855 18.0898L17.114 16.0919L14.9978 16.2735L15.1693 18.2714ZM17.2855 18.0898L19.2842 18.2507L19.8125 11.6902L17.8138 11.5292L15.815 11.3683L15.2867 17.9288L17.2855 18.0898ZM17.8138 11.5292L17.6422 9.53135L15.527 9.71299L15.6985 11.7109L15.8701 13.7087L17.9853 13.5271L17.8138 11.5292ZM53.7855 8.43351L53.6135 6.43568L49.382 6.79994L49.554 8.79777L49.726 10.7956L53.9574 10.4313L53.7855 8.43351ZM49.554 8.79777L47.5553 8.6362L47.3786 10.8227L49.3773 10.9843L51.376 11.1459L51.5527 8.95934L49.554 8.79777ZM49.3773 10.9843L49.5487 12.9822L51.665 12.8005L51.4935 10.8027L51.322 8.80478L49.2058 8.98642L49.3773 10.9843ZM51.4935 10.8027L49.4948 10.6411L49.318 12.8276L51.3167 12.9892L53.3154 13.1507L53.4922 10.9642L51.4935 10.8027ZM51.3167 12.9892L51.1452 10.9913L49.029 11.1729L49.2005 13.1708L49.372 15.1687L51.4882 14.987L51.3167 12.9892ZM49.2005 13.1708L47.2017 13.0102L47.0259 15.1977L49.0247 15.3583L51.0235 15.5189L51.1993 13.3314L49.2005 13.1708ZM49.0247 15.3583V17.3635H49.0257V15.3583V13.3531H49.0247V15.3583ZM49.0257 15.3583L49.1977 17.3561L53.4291 16.9919L53.2571 14.9941L53.0852 12.9962L48.8537 13.3605L49.0257 15.3583ZM53.2571 14.9941L51.2584 14.8334L51.0826 17.0199L53.0814 17.1806L55.0801 17.3413L55.2559 15.1547L53.2571 14.9941ZM53.0814 17.1806L52.9096 15.1827L46.5609 15.7286L46.7327 17.7265L46.9045 19.7243L53.2531 19.1784L53.0814 17.1806ZM46.7327 17.7265L48.7315 17.8875L49.6123 6.95391L47.6136 6.79289L45.6148 6.63186L44.734 17.5655L46.7327 17.7265ZM47.6136 6.79289L47.7854 8.79073L54.134 8.24484L53.9622 6.24699L53.7904 4.24914L47.4418 4.79504L47.6136 6.79289ZM53.9622 6.24699L51.9635 6.08541L51.7868 8.27194L53.7855 8.43351L55.7842 8.59509L55.9609 6.40856L53.9622 6.24699ZM24.1624 10.9823L22.1637 10.8211L21.6344 17.3816L23.6331 17.5429L25.6318 17.7041L26.1611 11.1436L24.1624 10.9823ZM23.6331 17.5429L23.8046 19.5408L25.9208 19.3591L25.7493 17.3612L25.5778 15.3634L23.4616 15.545L23.6331 17.5429ZM25.7493 17.3612L27.7481 17.5222L28.2764 10.9617L26.2777 10.8007L24.2789 10.6397L23.7506 17.2003L25.7493 17.3612ZM26.2777 10.8007L26.1061 8.80283L23.9909 8.98447L24.1624 10.9823L24.334 12.9802L26.4492 12.7986L26.2777 10.8007ZM62.0755 9.89152L61.9041 7.89364L59.7869 8.07528L59.9583 10.0732L60.1297 12.071L62.2469 11.8894L62.0755 9.89152ZM59.9583 10.0732L61.957 10.2347L62.1338 8.04821L60.1351 7.88664L58.1364 7.72506L57.9596 9.91159L59.9583 10.0732ZM60.1351 7.88664L59.9636 5.88876L57.8474 6.0704L58.0189 8.06828L58.1903 10.0662L60.3066 9.88451L60.1351 7.88664ZM58.0189 8.06828L56.0201 7.90759L55.8443 10.0941L57.8431 10.2548L59.8419 10.4155L60.0176 8.22896L58.0189 8.06828ZM57.8431 10.2548L58.0146 12.2527L60.1299 12.071L59.9583 10.0732L59.7868 8.07529L57.6715 8.25693L57.8431 10.2548ZM59.9583 10.0732L57.9595 9.91247L57.7838 12.099L59.7825 12.2597L61.7813 12.4204L61.9571 10.2338L59.9583 10.0732ZM59.7825 12.2597H57.7773V12.2607H59.7825H61.7878V12.2597H59.7825ZM59.7825 12.2607L59.9541 14.2585L62.0693 14.0769L61.8978 12.079L61.7262 10.0812L59.611 10.2628L59.7825 12.2607ZM61.8978 12.079L59.899 11.9184L59.5474 16.2924L61.5462 16.453L63.545 16.6137L63.8965 12.2397L61.8978 12.079ZM61.5462 16.453L61.3748 14.4552L59.2576 14.6368L59.429 16.6347L59.6004 18.6326L61.7176 18.4509L61.5462 16.453ZM59.429 16.6347L61.4278 16.7953L61.7794 12.4213L59.7806 12.2607L57.7818 12.1L57.4302 16.474L59.429 16.6347ZM59.7806 12.2607L59.6089 10.2628L57.4947 10.4444L57.6663 12.4423L57.838 14.4402L59.9522 14.2585L59.7806 12.2607ZM57.6663 12.4423L55.6676 12.2812L55.315 16.6552L57.3138 16.8163L59.3125 16.9774L59.6651 12.6034L57.6663 12.4423ZM57.3138 16.8163L57.1422 14.8185L55.027 15.0001L55.1985 16.998L55.3701 18.9958L57.4853 18.8142L57.3138 16.8163ZM55.1985 16.998L57.1973 17.159L58.0782 6.2254L56.0794 6.06437L54.0807 5.90334L53.1998 16.8369L55.1985 16.998ZM56.0794 6.06437L56.2512 8.06222L62.5989 7.51632L62.4271 5.51847L62.2553 3.52063L55.9076 4.06653L56.0794 6.06437ZM62.4271 5.51847L60.4283 5.35779L60.0767 9.73083L62.0755 9.89152L64.0743 10.0522L64.4258 5.67916L62.4271 5.51847ZM70.7152 6.97746L70.5432 4.97962L66.3108 5.34388L66.4827 7.34171L66.6547 9.33955L70.8871 8.97529L70.7152 6.97746ZM66.4827 7.34171L64.484 7.18103L64.3082 9.36755L66.3069 9.52824L68.3057 9.68893L68.4815 7.5024L66.4827 7.34171ZM66.3069 9.52824L66.4789 11.5261L70.7113 11.1618L70.5394 9.16398L70.3674 7.16615L66.135 7.5304L66.3069 9.52824ZM70.5394 9.16398L68.5406 9.00273L68.0113 15.5633L70.0101 15.7245L72.0088 15.8858L72.5381 9.32524L70.5394 9.16398ZM70.0101 15.7245L69.8383 13.7267L63.4906 14.2726L63.6624 16.2704L63.8342 18.2683L70.1819 17.7224L70.0101 15.7245ZM63.6624 16.2704L65.6611 16.432L65.8379 14.2455L63.8392 14.0839L61.8405 13.9223L61.6637 16.1089L63.6624 16.2704ZM63.8392 14.0839L64.0112 16.0817L68.2426 15.7175L68.0706 13.7196L67.8986 11.7218L63.6672 12.0861L63.8392 14.0839ZM68.0706 13.7196L70.0694 13.8803L70.2452 11.6928L68.2464 11.5321L66.2476 11.3715L66.0718 13.559L68.0706 13.7196ZM68.2464 11.5321L68.0744 9.53431L63.843 9.89857L64.015 11.8964L64.1869 13.8942L68.4184 13.53L68.2464 11.5321ZM64.015 11.8964L66.0137 12.0574L66.542 5.49781L64.5433 5.33683L62.5445 5.17585L62.0162 11.7354L64.015 11.8964ZM64.5433 5.33683L64.7151 7.33468L71.0637 6.78878L70.8919 4.79093L70.7201 2.79309L64.3715 3.33898L64.5433 5.33683ZM70.8919 4.79093L68.8932 4.62936L68.7164 6.81588L70.7152 6.97746L72.7139 7.13903L72.8906 4.95251L70.8919 4.79093Z" fill="var(--stroke-0, #10256E)" mask="url(#path-3-outside-2_2236_149)"/>
</g>
<path id="Union_3" d="M9.71425 12.3743L7.59852 12.556L7.7741 10.37L5.65838 10.5517L5.4817 12.7377L7.59852 12.556L7.42185 14.7431L5.30612 14.9248L5.12944 17.1119L7.24517 16.9314L7.42185 14.7431L9.53757 14.5614L9.18532 18.9357L2.83704 19.4807L3.71823 8.54739L10.0665 8.00118L9.71425 12.3743ZM17.6504 18.2078L11.3021 18.7528L12.1822 7.81949L18.5305 7.27329L17.6504 18.2078ZM26.1144 17.4787L19.7661 18.0249L20.6462 7.09045L26.9945 6.54539L26.1144 17.4787ZM35.2818 8.00233L31.0493 8.36685L30.8726 10.554L35.1052 10.1895L34.5762 16.7497L28.229 17.2959L28.4046 15.1099L32.6372 14.7454L32.8139 12.5583L28.5813 12.9216L29.1102 6.36256L35.4585 5.81635L35.2818 8.00233ZM43.7469 7.27444L41.6312 7.45612L40.9256 16.2035L38.8099 16.3852L39.5133 7.63896L37.3987 7.82064L37.5742 5.63352L43.9225 5.08731L43.7469 7.27444ZM14.1224 9.82379L13.5934 16.384L15.7092 16.2023L16.2381 9.6421L14.1224 9.82379ZM52.2087 6.54539L47.9773 6.90992L47.8006 9.09704L49.9163 8.91536L49.7408 11.1013L47.625 11.283L47.4484 13.4702H47.4495L51.6809 13.1068L51.5053 15.2928L45.1571 15.839L46.0371 4.90562L52.3854 4.35941L52.2087 6.54539ZM22.5864 9.09474L22.0574 15.655L24.1732 15.4733L24.7021 8.91306L22.5864 9.09474ZM60.4983 8.00348L58.3814 8.18517L58.5581 5.99919L56.4424 6.18087L56.2657 8.36685L58.3814 8.18517L58.2048 10.3723L56.089 10.554L55.7368 14.9282L53.6211 15.1099L54.5022 4.17658L60.8505 3.63037L60.4983 8.00348ZM59.9693 14.5649L57.8525 14.7466L58.2048 10.3723L60.3216 10.1906L59.9693 14.5649ZM69.1389 5.08961L64.9064 5.45413L64.7297 7.64011L68.9623 7.27559L68.4333 13.8358L62.0851 14.382L62.2617 12.1961L66.4932 11.8315L66.6688 9.6444L62.4384 10.0089L62.9673 3.44869L69.3156 2.90248L69.1389 5.08961Z" fill="url(#paint0_linear_2236_149)"/>
<path id="Union (Stroke)" d="M70.5973 6.62183L69.8917 15.3681L62.2145 16.0281L61.4277 16.0948V16.0971L57.1951 16.4593L56.1252 16.5525L55.8651 16.5743L52.9637 16.8227V16.825L43.4297 17.6449L44.1332 8.89751L43.8753 8.9205L43.0885 8.9872L42.3839 17.7357L37.0826 18.1911L37.786 9.44371L37.527 9.46671L36.7391 9.53456L36.0346 18.2819L28.3585 18.942L27.5728 19.0087V19.011L19.8956 19.671L19.1088 19.7377V19.74L11.4305 20.3989L10.6437 20.4656V20.4679L1.10973 21.2866L2.25977 7.01625L11.7937 6.19637L12.0527 6.17452L19.1867 5.56047L19.1878 5.55932L27.6507 4.83257L27.6518 4.83142L36.1147 4.10353L36.1158 4.10238L44.5776 3.37449L44.932 3.34344L45.6486 3.28249L45.9076 3.26065L52.2559 2.71444L53.0427 2.64774L53.0438 2.64544L62.5777 1.82556L62.5766 1.82671L62.8378 1.80371L71.0428 1.09767L70.5973 6.62183ZM3.71817 8.54793L2.83699 19.4813L9.18526 18.9362L9.53752 14.562L7.42179 14.7436L7.24512 16.9319L5.12939 17.1125L5.30607 14.9253L7.42179 14.7436L7.59847 12.5565L5.48165 12.7382L5.65832 10.5522L7.77405 10.3705L7.59847 12.5565L9.7142 12.3748L10.0665 8.00173L3.71817 8.54793ZM12.1822 7.82004L11.3021 18.7534L17.6504 18.2083L18.5305 7.27383L12.1822 7.82004ZM20.6462 7.091L19.7661 18.0255L26.1144 17.4793L26.9945 6.54594L20.6462 7.091ZM29.1102 6.3631L28.5812 12.9222L32.8138 12.5588L32.6371 14.7459L28.4046 15.1105L28.229 17.2964L34.5762 16.7502L35.1051 10.19L30.8726 10.5545L31.0492 8.3674L35.2818 8.00288L35.4585 5.8169L29.1102 6.3631ZM37.5742 5.63406L37.3986 7.82119L39.5132 7.6395L38.8098 16.3857L40.9255 16.204L41.6312 7.45667L43.7469 7.27498L43.9225 5.08785L37.5742 5.63406ZM15.7091 16.2029L13.5934 16.3846L14.1223 9.82433L16.238 9.64265L15.7091 16.2029ZM46.0371 4.90617L45.157 15.8395L51.5053 15.2933L51.6809 13.1073L47.4494 13.4707L47.625 11.2836L49.7407 11.1019L49.9163 8.9159L47.8006 9.09759L47.9772 6.91046L52.2087 6.54594L52.3854 4.35996L46.0371 4.90617ZM24.1731 15.4738L22.0574 15.6555L22.5863 9.09529L24.7021 8.9136L24.1731 15.4738ZM54.5022 4.17712L53.621 15.1105L55.7367 14.9288L56.089 10.5545L58.2047 10.3728L58.3814 8.18571L56.2657 8.3674L56.4423 6.18142L58.5581 5.99973L58.3814 8.18571L60.4982 8.00403L60.8505 3.63092L54.5022 4.17712ZM58.2047 10.3728L57.8525 14.7471L59.9693 14.5654L60.3215 10.1912L58.2047 10.3728ZM62.9673 3.44923L62.4384 10.0095L66.6687 9.64495L66.4931 11.8321L62.2617 12.1966L62.085 14.3826L68.4333 13.8364L68.9622 7.27613L64.7297 7.64065L64.9063 5.45467L69.1389 5.09015L69.3156 2.90302L62.9673 3.44923ZM52.3382 8.19146L51.5503 8.25931L51.2913 11.4837L51.5525 11.4618L52.3382 11.394L52.5983 8.16846L52.3382 8.19146Z" fill="var(--fill-0, white)"/>
</g>
</g>
<defs>
<linearGradient id="paint0_linear_2236_149" x1="2.83704" y1="11.1916" x2="69.3156" y2="11.1916" gradientUnits="userSpaceOnUse">
<stop stop-color="#FFD43A"/>
<stop offset="0.52" stop-color="#FF9D0A"/>
<stop offset="1" stop-color="#EE1400"/>
</linearGradient>
</defs>
</svg>
