<svg width="16" height="16" viewBox="0 0 16 16" fill="none" xmlns="http://www.w3.org/2000/svg">
<path fill-rule="evenodd" clip-rule="evenodd" d="M8 14.3333C11.4978 14.3333 14.3333 11.4978 14.3333 8C14.3333 4.5022 11.4978 1.66667 8 1.66667C4.5022 1.66667 1.66667 4.5022 1.66667 8C1.66667 11.4978 4.5022 14.3333 8 14.3333ZM8.66699 7.21118C8.66691 6.86244 8.36814 6.57935 8 6.57935C7.63186 6.57935 7.33309 6.86244 7.33301 7.21118V11.9485C7.33319 12.2972 7.63192 12.5793 8 12.5793C8.36808 12.5793 8.66681 12.2972 8.66699 11.9485V7.21118ZM9 5.00024C9 4.44796 8.55229 4.00024 8 4.00024C7.44772 4.00024 7 4.44796 7 5.00024C7 5.55253 7.44772 6.00024 8 6.00024C8.55229 6.00024 9 5.55253 9 5.00024Z" fill="url(#paint0_linear_circle_info)"/>
<defs>
<linearGradient id="paint0_linear_circle_info" x1="-0.762556" y1="4.48147" x2="22.6692" y2="10.3747" gradientUnits="userSpaceOnUse">
<stop stop-color="#0089FA"/>
<stop offset="1" stop-color="#2F28B7"/>
</linearGradient>
</defs>
</svg>
