<svg width="30" height="30" viewBox="0 0 30 30" fill="none" xmlns="http://www.w3.org/2000/svg">
<path d="M26.6055 8.09473H21.0703L20.3555 5.9502C20.3555 4.7666 19.3945 3.80566 18.2109 3.80566H11.7832C10.5996 3.80566 9.63868 4.7666 9.63868 5.9502L8.92383 8.09473H3.39454C2.21094 8.09473 1.25 9.05566 1.25 10.2393L1.25 23.1206C1.25 24.3042 2.21094 25.2651 3.39453 25.2651H26.6113C27.7949 25.2651 28.7559 24.3042 28.7559 23.1206L28.7559 10.2393C28.75 9.05566 27.7891 8.09473 26.6055 8.09473ZM15 22.8325C11.4492 22.8325 8.57227 19.9556 8.57227 16.4048C8.57227 12.854 11.4492 9.97704 15 9.97704C18.5508 9.97704 21.4277 12.854 21.4277 16.4048C21.4277 19.9497 18.5508 22.8325 15 22.8325ZM26.6055 12.3779C26.6055 12.9697 26.125 13.4502 25.5332 13.4502H24.4609C23.8691 13.4502 23.3887 12.9697 23.3887 12.3779V11.3057C23.3887 10.7139 23.8691 10.2334 24.4609 10.2334H25.5332C26.125 10.2334 26.6055 10.7139 26.6055 11.3057V12.3779ZM15 12.1157C12.6328 12.1157 10.7168 14.0317 10.7168 16.3989C10.7168 18.7661 12.6328 20.6821 15 20.6821C17.3672 20.6821 19.2832 18.7661 19.2832 16.3989C19.2832 14.0317 17.3672 12.1157 15 12.1157Z" fill="#B4B4C0"/>
</svg>
