<svg width="16" height="16" viewBox="0 0 16 16" fill="none" xmlns="http://www.w3.org/2000/svg">
<path d="M12.6 3.99992C12.4667 3.59992 12.0667 3.33325 11.6667 3.33325H4.33333C3.86667 3.33325 3.53333 3.59992 3.4 3.99992L2 7.99992V13.3333C2 13.6666 2.33333 13.9999 2.66667 13.9999H3.33333C3.73333 13.9999 4 13.6666 4 13.3333V12.6666H12V13.3333C12 13.6666 12.3333 13.9999 12.6667 13.9999H13.3333C13.6667 13.9999 14 13.6666 14 13.3333V7.99992L12.6 3.99992ZM4.53333 4.66659H11.4L12.1333 6.66659H3.86667L4.53333 4.66659ZM12.6667 11.3333H3.33333V7.99992H12.6667V11.3333ZM5 8.66659C5.53333 8.66659 6 9.13325 6 9.66659C6 10.1999 5.53333 10.6666 5 10.6666C4.46667 10.6666 4 10.1999 4 9.66659C4 9.13325 4.46667 8.66659 5 8.66659ZM11 8.66659C11.5333 8.66659 12 9.13325 12 9.66659C12 10.1999 11.5333 10.6666 11 10.6666C10.4667 10.6666 10 10.1999 10 9.66659C10 9.13325 10.4667 8.66659 11 8.66659Z" fill="white"/>
</svg>
