<svg width="24" height="24" viewBox="0 0 24 24" fill="none" xmlns="http://www.w3.org/2000/svg">
<path fill-rule="evenodd" clip-rule="evenodd" d="M7.81932 2.79125C8.48653 2.96852 8.8837 3.65311 8.70643 4.32031L4.10097 21.654C3.9237 22.3212 3.23911 22.7184 2.57191 22.5411C1.9047 22.3638 1.50753 21.6792 1.6848 21.012L6.29026 3.67835C6.46753 3.01114 7.15212 2.61397 7.81932 2.79125Z" fill="currentColor"/>
<path d="M9.43534 5.47761L11.1694 7.58404C11.811 8.36343 12.7283 8.86567 13.7305 8.98642C14.9572 9.13421 16.0428 9.85094 16.6606 10.921L17.3256 12.0729C17.8561 12.9917 18.7297 13.6621 19.7545 13.9366L21.5348 14.4137L18.4512 17.0019C17.5242 17.78 16.1785 17.8012 15.2274 17.0528C14.406 16.4065 13.2739 16.3253 12.3688 16.8479L11.7241 17.2201C10.4297 17.9675 8.81058 17.8514 7.63591 16.9271L6.58833 16.1028L9.43534 5.47761Z" fill="currentColor"/>
</svg>
