<svg width="26" height="26" viewBox="0 0 26 26" fill="none" xmlns="http://www.w3.org/2000/svg">
<path d="M21.8388 4.16116C19.4786 1.80091 16.3379 0.5 13 0.5C9.66213 0.5 6.52141 1.80091 4.16116 4.16116C1.80091 6.52141 0.5 9.66213 0.5 13C0.5 16.3381 1.80091 19.4786 4.16116 21.8388C6.52141 24.1991 9.66213 25.5 13 25.5C16.3379 25.5 19.4786 24.1991 21.8388 21.8388C24.1991 19.4786 25.5 16.3381 25.5 13C25.5 9.66213 24.1991 6.52141 21.8388 4.16116Z" fill="black" stroke="white"/>
<path d="M18.1926 16.5331C18.6501 16.9908 18.6501 17.7328 18.1926 18.1904C17.9637 18.4193 17.6637 18.5337 17.3638 18.5337C17.0639 18.5337 16.764 18.4193 16.5351 18.1904L13.0022 14.6575L9.46941 18.1906C9.24052 18.4193 8.9406 18.5337 8.64067 18.5337C8.34074 18.5337 8.04082 18.4193 7.81194 18.1906C7.35435 17.7328 7.35435 16.9908 7.81194 16.5333L11.345 13.0002L7.81194 9.46741C7.35435 9.00964 7.35435 8.2677 7.81194 7.81012C8.2697 7.35236 9.01164 7.35236 9.46922 7.81012L13.0022 11.343L16.5351 7.81012C16.9928 7.35254 17.7348 7.35236 18.1924 7.81012C18.6501 8.2677 18.6501 9.00964 18.1924 9.46741L14.6595 13.0002L18.1926 16.5331Z" fill="white"/>
</svg>
