<svg width="30" height="25" viewBox="0 0 30 25" fill="none" xmlns="http://www.w3.org/2000/svg">
<path fill-rule="evenodd" clip-rule="evenodd" d="M9.37408 13.5C9.37408 10.3934 11.8925 7.875 14.9991 7.875C18.1057 7.875 20.6241 10.3934 20.6241 13.5C20.6241 16.6066 18.1057 19.125 14.9991 19.125C11.8925 19.125 9.37408 16.6066 9.37408 13.5ZM14.9991 10.125C13.1351 10.125 11.6241 11.636 11.6241 13.5C11.6241 15.364 13.1351 16.875 14.9991 16.875C16.863 16.875 18.3741 15.364 18.3741 13.5C18.3741 11.636 16.863 10.125 14.9991 10.125Z" fill="#1D85FF"/>
<path fill-rule="evenodd" clip-rule="evenodd" d="M12.9233 2.625C11.3555 2.625 10.0846 3.89592 10.0846 5.46367C10.0846 6.46262 9.31777 7.29425 8.3221 7.37511L4.9777 7.64672C4.32105 7.70005 3.781 8.18564 3.65844 8.83295C2.98533 12.388 2.93514 16.0329 3.51011 19.6051L3.65598 20.5114C3.79375 21.3673 4.4982 22.0185 5.36228 22.0887L8.27578 22.3253C12.7506 22.6887 17.2475 22.6887 21.7224 22.3253L24.6359 22.0887C25.4999 22.0185 26.2044 21.3673 26.3422 20.5114L26.488 19.6051C27.063 16.0329 27.0128 12.388 26.3397 8.83295C26.2171 8.18564 25.6771 7.70005 25.0204 7.64672L21.6761 7.37511C20.6804 7.29425 19.9135 6.46262 19.9135 5.46367C19.9135 3.89592 18.6426 2.625 17.0749 2.625H12.9233ZM7.84372 5.15656C8.0025 2.48916 10.216 0.375 12.9233 0.375H17.0749C19.7822 0.375 21.9956 2.48916 22.1544 5.15656L25.2026 5.40411C26.869 5.53944 28.2394 6.7717 28.5504 8.41437C29.272 12.2255 29.3259 16.1331 28.7095 19.9627L28.5636 20.8689C28.2612 22.7478 26.7148 24.1772 24.818 24.3313L21.9045 24.5679C17.3084 24.9412 12.6897 24.9412 8.09365 24.5679L5.18015 24.3313C3.28336 24.1772 1.73699 22.7478 1.43458 20.8689L1.2887 19.9627C0.6723 16.1331 0.726106 12.2255 1.44772 8.41437C1.75875 6.7717 3.1292 5.53944 4.79557 5.40411L7.84372 5.15656Z" fill="#1D85FF"/>
</svg>
