<svg width="24" height="24" viewBox="0 0 24 24" fill="none" xmlns="http://www.w3.org/2000/svg">
<path d="M20.4853 3.51471C18.2188 1.24823 15.2053 0 12 0C8.79474 0 5.78119 1.24823 3.51471 3.51471C1.24823 5.78119 0 8.79474 0 12C0 15.2054 1.24823 18.2188 3.51471 20.4853C5.78119 22.7518 8.79474 24 12 24C15.2053 24 18.2188 22.7518 20.4853 20.4853C22.7518 18.2188 24 15.2054 24 12C24 8.79474 22.7518 5.78119 20.4853 3.51471Z" fill="#D0D0D9"/>
<path d="M17.1901 15.5328C17.6477 15.9906 17.6477 16.7325 17.1901 17.1901C16.9612 17.419 16.6613 17.5334 16.3614 17.5334C16.0614 17.5334 15.7615 17.419 15.5326 17.1901L11.9998 13.6573L8.46696 17.1903C8.23808 17.419 7.93816 17.5334 7.63823 17.5334C7.3383 17.5334 7.03838 17.419 6.80949 17.1903C6.35191 16.7325 6.35191 15.9906 6.80949 15.533L10.3425 12L6.80949 8.46716C6.35191 8.0094 6.35191 7.26746 6.80949 6.80988C7.26726 6.35211 8.0092 6.35211 8.46678 6.80988L11.9998 10.3427L15.5326 6.80988C15.9904 6.35229 16.7323 6.35211 17.1899 6.80988C17.6477 7.26746 17.6477 8.0094 17.1899 8.46716L13.6571 12L17.1901 15.5328Z" fill="#9797A6"/>
</svg>
