<svg preserveAspectRatio="none"  viewBox="0 0 28.8675 115.5" fill="none" xmlns="http://www.w3.org/2000/svg">
<path id="Vector 2116" d="M11.9338 113C11.9338 114.381 13.053 115.5 14.4338 115.5C15.8145 115.5 16.9338 114.381 16.9338 113H14.4338H11.9338ZM14.4338 0L0 25H28.8675L14.4338 0ZM11.9338 5.13636C11.9338 6.51708 13.053 7.63636 14.4338 7.63636C15.8145 7.63636 16.9338 6.51708 16.9338 5.13636H14.4338H11.9338ZM16.9338 17.4636C16.9338 16.0829 15.8145 14.9636 14.4338 14.9636C13.053 14.9636 11.9338 16.0829 11.9338 17.4636H14.4338H16.9338ZM11.9338 27.7364C11.9338 29.1171 13.053 30.2364 14.4338 30.2364C15.8145 30.2364 16.9338 29.1171 16.9338 27.7364H14.4338H11.9338ZM16.9338 40.0636C16.9338 38.6829 15.8145 37.5636 14.4338 37.5636C13.053 37.5636 11.9338 38.6829 11.9338 40.0636H14.4338H16.9338ZM11.9338 50.3364C11.9338 51.7171 13.053 52.8364 14.4338 52.8364C15.8145 52.8364 16.9338 51.7171 16.9338 50.3364H14.4338H11.9338ZM16.9338 62.6636C16.9338 61.2829 15.8145 60.1636 14.4338 60.1636C13.053 60.1636 11.9338 61.2829 11.9338 62.6636H14.4338H16.9338ZM11.9338 72.9364C11.9338 74.3171 13.053 75.4364 14.4338 75.4364C15.8145 75.4364 16.9338 74.3171 16.9338 72.9364H14.4338H11.9338ZM16.9338 85.2636C16.9338 83.8829 15.8145 82.7636 14.4338 82.7636C13.053 82.7636 11.9338 83.8829 11.9338 85.2636H14.4338H16.9338ZM11.9338 95.5364C11.9338 96.9171 13.053 98.0364 14.4338 98.0364C15.8145 98.0364 16.9338 96.9171 16.9338 95.5364H14.4338H11.9338ZM16.9338 107.864C16.9338 106.483 15.8145 105.364 14.4338 105.364C13.053 105.364 11.9338 106.483 11.9338 107.864H14.4338H16.9338ZM14.4338 17.4636H11.9338V27.7364H14.4338H16.9338V17.4636H14.4338ZM14.4338 40.0636H11.9338V50.3364H14.4338H16.9338V40.0636H14.4338ZM14.4338 62.6636H11.9338V72.9364H14.4338H16.9338V62.6636H14.4338ZM14.4338 85.2636H11.9338V95.5364H14.4338H16.9338V85.2636H14.4338ZM14.4338 107.864H11.9338V113H14.4338H16.9338V107.864H14.4338Z" fill="currentColor"/>
</svg>
