<svg width="16" height="16" viewBox="0 0 16 16" fill="none" xmlns="http://www.w3.org/2000/svg">
<path d="M2.31867 1.60267C2.23202 1.5775 2.14018 1.57624 2.05289 1.59903C1.96559 1.62182 1.88608 1.66781 1.8228 1.73211C1.75951 1.79642 1.71481 1.87666 1.69343 1.96431C1.67204 2.05197 1.67477 2.14377 1.70133 2.23L3.32267 7.5H9C9.13261 7.5 9.25978 7.55268 9.35355 7.64645C9.44732 7.74022 9.5 7.86739 9.5 8C9.5 8.13261 9.44732 8.25978 9.35355 8.35355C9.25978 8.44732 9.13261 8.5 9 8.5H3.32267L1.70133 13.77C1.67493 13.8562 1.67232 13.9479 1.69377 14.0355C1.71523 14.123 1.75995 14.2031 1.82321 14.2673C1.88647 14.3316 1.96591 14.3775 2.05313 14.4002C2.14034 14.423 2.23209 14.4218 2.31867 14.3967C6.72873 13.1144 10.8874 11.0884 14.6153 8.406C14.6798 8.3597 14.7322 8.29873 14.7684 8.22813C14.8046 8.15753 14.8235 8.07934 14.8235 8C14.8235 7.92066 14.8046 7.84247 14.7684 7.77187C14.7322 7.70127 14.6798 7.6403 14.6153 7.594C10.8875 4.91134 6.72878 2.8851 2.31867 1.60267Z" fill="#585A64"/>
</svg>
