<svg xmlns="http://www.w3.org/2000/svg" width="14" height="14" viewBox="0 0 14 14" fill="none">
  <path d="M8 0C7.64638 0 7.30724 0.140476 7.05719 0.390524C6.80714 0.640573 6.66667 0.979711 6.66667 1.33333V5.33333C6.66667 5.68696 6.80714 6.02609 7.05719 6.27614C7.30724 6.52619 7.64638 6.66667 8 6.66667H12.6667C13.0203 6.66667 13.3594 6.52619 13.6095 6.27614C13.8595 6.02609 14 5.68696 14 5.33333V1.33333C14 0.979711 13.8595 0.640573 13.6095 0.390524C13.3594 0.140476 13.0203 0 12.6667 0H8ZM8 2.33333C8 2.24493 8.03512 2.16014 8.09763 2.09763C8.16014 2.03512 8.24493 2 8.33333 2H12.3333C12.4217 2 12.5065 2.03512 12.569 2.09763C12.6315 2.16014 12.6667 2.24493 12.6667 2.33333C12.6667 2.42174 12.6315 2.50652 12.569 2.56904C12.5065 2.63155 12.4217 2.66667 12.3333 2.66667H8.33333C8.24493 2.66667 8.16014 2.63155 8.09763 2.56904C8.03512 2.50652 8 2.42174 8 2.33333ZM8 4.33333C8 4.24493 8.03512 4.16014 8.09763 4.09763C8.16014 4.03512 8.24493 4 8.33333 4H12.3333C12.4217 4 12.5065 4.03512 12.569 4.09763C12.6315 4.16014 12.6667 4.24493 12.6667 4.33333C12.6667 4.42174 12.6315 4.50652 12.569 4.56904C12.5065 4.63155 12.4217 4.66667 12.3333 4.66667H8.33333C8.24493 4.66667 8.16014 4.63155 8.09763 4.56904C8.03512 4.50652 8 4.42174 8 4.33333ZM2.16667 1.33333H6V5.33333C6 5.86377 6.21071 6.37247 6.58579 6.74755C6.96086 7.12262 7.46957 7.33333 8 7.33333H12.6667C12.9 7.33333 13.1247 7.29333 13.3333 7.22V9.16667C13.3333 9.4512 13.2773 9.73294 13.1684 9.99581C13.0595 10.2587 12.8999 10.4975 12.6987 10.6987C12.4975 10.8999 12.2587 11.0595 11.9958 11.1684C11.7329 11.2773 11.4512 11.3333 11.1667 11.3333H7.33333L4 13.8333C3.45067 14.2453 2.66667 13.8533 2.66667 13.1667V11.3333H2.16667C1.59203 11.3333 1.04093 11.1051 0.634602 10.6987C0.228273 10.2924 0 9.7413 0 9.16667V3.5C0 2.92536 0.228273 2.37426 0.634602 1.96794C1.04093 1.56161 1.59203 1.33333 2.16667 1.33333Z" fill="#585A64"/>
</svg>
