<svg width="16" height="16" viewBox="0 0 16 16" fill="none" xmlns="http://www.w3.org/2000/svg">
<path fill-rule="evenodd" clip-rule="evenodd" d="M8 15C9.85652 15 11.637 14.2625 12.9497 12.9497C14.2625 11.637 15 9.85652 15 8C15 6.14348 14.2625 4.36301 12.9497 3.05025C11.637 1.7375 9.85652 1 8 1C6.14348 1 4.36301 1.7375 3.05025 3.05025C1.7375 4.36301 1 6.14348 1 8C1 9.85652 1.7375 11.637 3.05025 12.9497C4.36301 14.2625 6.14348 15 8 15ZM8.875 5.375C8.875 5.60706 8.78281 5.82962 8.61872 5.99372C8.45462 6.15781 8.23206 6.25 8 6.25C7.76794 6.25 7.54538 6.15781 7.38128 5.99372C7.21719 5.82962 7.125 5.60706 7.125 5.375C7.125 5.14294 7.21719 4.92038 7.38128 4.75628C7.54538 4.59219 7.76794 4.5 8 4.5C8.23206 4.5 8.45462 4.59219 8.61872 4.75628C8.78281 4.92038 8.875 5.14294 8.875 5.375ZM7.125 7.125C6.95095 7.125 6.78403 7.19414 6.66096 7.31721C6.53789 7.44028 6.46875 7.6072 6.46875 7.78125C6.46875 7.9553 6.53789 8.12222 6.66096 8.24529C6.78403 8.36836 6.95095 8.4375 7.125 8.4375H7.34375V10.1875H6.46875C6.2947 10.1875 6.12778 10.2566 6.00471 10.3797C5.88164 10.5028 5.8125 10.6697 5.8125 10.8438C5.8125 11.0178 5.88164 11.1847 6.00471 11.3078C6.12778 11.4309 6.2947 11.5 6.46875 11.5H9.53125C9.7053 11.5 9.87222 11.4309 9.99529 11.3078C10.1184 11.1847 10.1875 11.0178 10.1875 10.8438C10.1875 10.6697 10.1184 10.5028 9.99529 10.3797C9.87222 10.2566 9.7053 10.1875 9.53125 10.1875H8.65625V7.125H7.125Z" fill="#585A64"/>
</svg>
