<svg width="16" height="16" viewBox="0 0 16 16" fill="none" xmlns="http://www.w3.org/2000/svg">
<g clip-path="url(#clip0_2236_175)">
<path d="M2.7614 8.28978C3.40052 8.12618 4.31841 8.08434 5.49029 8.23684C7.74932 8.53085 8.79921 9.01115 10.5973 8.89598C12.0358 8.80384 12.8258 7.91358 13.0408 7.48L13.1796 7.49828C13.3854 7.89576 13.5421 8.3256 13.6397 8.78204C14.259 11.6806 12.279 14.5612 9.21762 15.2155C6.15617 15.8698 3.17176 14.0501 2.55215 11.1516C2.34168 10.1668 2.43135 9.18376 2.7614 8.28978Z" fill="#585A64"/>
<path d="M10.815 0.853912C11.0368 0.854689 11.2163 1.03501 11.2158 1.2567L11.2084 3.37794C11.2076 3.59981 11.0265 3.77947 10.8046 3.7787L10.2308 3.77596L10.227 4.91771C12.3317 5.72586 13.8131 7.68248 13.8051 9.96409C13.7945 12.9591 11.2221 15.3784 8.05886 15.3674C4.89559 15.3564 2.33999 12.9191 2.35035 9.92408C2.35834 7.643 3.85256 5.69665 5.96205 4.90292L5.96581 3.76117L5.39299 3.75937C5.17124 3.75845 4.99247 3.57833 4.99324 3.35654L5.00062 1.2353C5.00141 1.01347 5.18158 0.833854 5.4034 0.834581L10.815 0.853912Z" stroke="#585A64"/>
</g>
<defs>
<clipPath id="clip0_2236_175">
<rect width="16" height="16" fill="white"/>
</clipPath>
</defs>
</svg>
