<svg xmlns="http://www.w3.org/2000/svg" width="16" height="16" viewBox="0 0 16 16" fill="none">
    <path d="M14 7.99972H5.98595M3.15719 7.99972H2M3.15719 7.99972C3.15719 7.62469 3.30617 7.26502 3.57136 6.99984C3.83654 6.73465 4.19621 6.58567 4.57124 6.58567C4.94627 6.58567 5.30594 6.73465 5.57113 6.99984C5.83632 7.26502 5.9853 7.62469 5.9853 7.99972C5.9853 8.37476 5.83632 8.73443 5.57113 8.99961C5.30594 9.2648 4.94627 9.41378 4.57124 9.41378C4.19621 9.41378 3.83654 9.2648 3.57136 8.99961C3.30617 8.73443 3.15719 8.37476 3.15719 7.99972ZM14 12.2853H10.2716M10.2716 12.2853C10.2716 12.6605 10.1222 13.0205 9.85698 13.2858C9.59173 13.551 9.23198 13.7 8.85686 13.7C8.48183 13.7 8.12216 13.5504 7.85698 13.2852C7.59179 13.02 7.44281 12.6604 7.44281 12.2853M10.2716 12.2853C10.2716 11.9102 10.1222 11.5508 9.85698 11.2856C9.59173 11.0203 9.23198 10.8713 8.85686 10.8713C8.48183 10.8713 8.12216 11.0203 7.85698 11.2855C7.59179 11.5506 7.44281 11.9103 7.44281 12.2853M7.44281 12.2853H2M14 3.7141H11.9859M9.15719 3.7141H2M9.15719 3.7141C9.15719 3.33907 9.30617 2.9794 9.57136 2.71422C9.83654 2.44903 10.1962 2.30005 10.5712 2.30005C10.7569 2.30005 10.9408 2.33662 11.1124 2.40769C11.2839 2.47875 11.4398 2.58291 11.5711 2.71422C11.7024 2.84552 11.8066 3.00141 11.8777 3.17297C11.9487 3.34453 11.9853 3.52841 11.9853 3.7141C11.9853 3.8998 11.9487 4.08368 11.8777 4.25524C11.8066 4.4268 11.7024 4.58268 11.5711 4.71399C11.4398 4.8453 11.2839 4.94946 11.1124 5.02052C10.9408 5.09158 10.7569 5.12816 10.5712 5.12816C10.1962 5.12816 9.83654 4.97918 9.57136 4.71399C9.30617 4.4488 9.15719 4.08913 9.15719 3.7141Z" stroke="#24262B" stroke-miterlimit="10" stroke-linecap="round"/>
</svg>