<svg width="41" height="60" viewBox="0 0 41 60" fill="none" xmlns="http://www.w3.org/2000/svg">
<path fill-rule="evenodd" clip-rule="evenodd" d="M18.0121 41.7127C16.1613 39.9613 14.4126 38.1037 12.7749 36.1491C9.22065 31.904 5 25.582 5 19.5575C4.99846 16.4808 5.90968 13.4728 7.61834 10.9142C9.327 8.35552 11.7563 6.36127 14.5988 5.1838C17.4413 4.00632 20.5692 3.69856 23.5867 4.29945C26.6041 4.90034 29.3755 6.38287 31.5501 8.55943C32.9979 10.0008 34.1454 11.715 34.9264 13.6028C35.7073 15.4906 36.106 17.5146 36.0995 19.5575C36.0995 25.582 31.8789 31.904 28.3246 36.1491C26.6869 38.1037 24.9382 39.9613 23.0874 41.7127C21.6596 43.0637 19.4399 43.0637 18.0121 41.7127ZM20.5547 26C23.8684 26 26.5547 23.3137 26.5547 20C26.5547 16.6863 23.8684 14 20.5547 14C17.241 14 14.5547 16.6863 14.5547 20C14.5547 23.3137 17.241 26 20.5547 26Z" fill="#67AEFF"/>
<ellipse cx="21" cy="55" rx="11" ry="4" fill="#D0D0D9"/>
</svg>
