<svg width="18" height="18" viewBox="0 0 18 18" fill="none" xmlns="http://www.w3.org/2000/svg">
<rect x="3.1875" y="3.1875" width="11.625" height="11.625" stroke="currentColor" stroke-width="1.125" stroke-linecap="round" stroke-linejoin="round"/>
<path d="M9.90039 5.25C10.0243 5.25021 10.1248 5.35065 10.125 5.47461V7.875H12.5254C12.6493 7.87525 12.7498 7.97568 12.75 8.09961V9.90039C12.7498 10.0243 12.6493 10.1247 12.5254 10.125H10.125V12.5254C10.1248 12.6493 10.0243 12.7498 9.90039 12.75H8.09961C7.97566 12.7498 7.87521 12.6493 7.875 12.5254V10.125H5.47461C5.35062 10.1248 5.25021 10.0244 5.25 9.90039V8.09961C5.25021 7.97563 5.35062 7.87517 5.47461 7.875H7.875V5.47461C7.87521 5.35065 7.97565 5.25021 8.09961 5.25H9.90039Z" fill="currentColor"/>
</svg>
