<svg width="24" height="24" viewBox="0 0 24 24" fill="none" xmlns="http://www.w3.org/2000/svg">
<path d="M3 11.3574C3 11.091 3.10626 10.8357 3.29522 10.648L11.2952 2.70025C11.6852 2.31281 12.3148 2.31281 12.7048 2.70025L20.7048 10.648C20.8937 10.8357 21 11.091 21 11.3574V20.0001C21 20.5524 20.5523 21.0001 20 21.0001H15.8125C15.2602 21.0001 14.8125 20.5524 14.8125 20.0001V16.4118C14.8125 15.8595 14.3648 15.4118 13.8125 15.4118H10.1875C9.63522 15.4118 9.1875 15.8595 9.1875 16.4118V20.0001C9.1875 20.5524 8.73978 21.0001 8.1875 21.0001H4C3.44772 21.0001 3 20.5524 3 20.0001V11.3574Z" fill="currentColor"/>
</svg>
