<svg width="17" height="16" viewBox="0 0 17 16" fill="none" xmlns="http://www.w3.org/2000/svg">
<path fill-rule="evenodd" clip-rule="evenodd" d="M8.5013 14.3334C11.9991 14.3334 14.8346 11.4979 14.8346 8.00008C14.8346 4.50228 11.9991 1.66675 8.5013 1.66675C5.0035 1.66675 2.16797 4.50228 2.16797 8.00008C2.16797 11.4979 5.0035 14.3334 8.5013 14.3334ZM9.5013 4.53361C9.5013 5.08589 9.05359 5.53361 8.5013 5.53361C7.94902 5.53361 7.5013 5.08589 7.5013 4.53361C7.5013 3.98133 7.94902 3.53361 8.5013 3.53361C9.05359 3.53361 9.5013 3.98133 9.5013 4.53361ZM8.5013 6.2465C8.86949 6.2465 9.16797 6.54498 9.16797 6.91317V11.9132C9.16797 12.2814 8.86949 12.5798 8.5013 12.5798C8.13311 12.5798 7.83464 12.2814 7.83464 11.9132V6.91317C7.83464 6.54498 8.13311 6.2465 8.5013 6.2465Z" fill="currentColor"/>
</svg>
