<svg width="24" height="24" viewBox="0 0 24 24" fill="none" xmlns="http://www.w3.org/2000/svg">
<path d="M12.4365 6.42308C13.2039 6.42308 14.1657 5.90432 14.7385 5.21265C15.2573 4.58582 15.6355 3.71043 15.6355 2.83503C15.6355 2.71615 15.6247 2.59727 15.6031 2.5C14.7493 2.53242 13.7226 3.07279 13.1066 3.79689C12.6203 4.34806 12.1772 5.21265 12.1772 6.09886C12.1772 6.22854 12.1988 6.35823 12.2096 6.40146C12.2636 6.41227 12.3501 6.42308 12.4365 6.42308ZM9.73468 19.5C10.783 19.5 11.2477 18.7975 12.5554 18.7975C13.8847 18.7975 14.1765 19.4784 15.3437 19.4784C16.4893 19.4784 17.2566 18.4193 17.9807 17.3818C18.7913 16.1929 19.1263 15.0257 19.1479 14.9717C19.0723 14.9501 16.8784 14.0531 16.8784 11.535C16.8784 9.35188 18.6076 8.3684 18.7048 8.29275C17.5592 6.65003 15.8193 6.6068 15.3437 6.6068C14.0576 6.6068 13.0093 7.38493 12.3501 7.38493C11.6368 7.38493 10.6965 6.65003 9.58338 6.65003C7.46513 6.65003 5.31445 8.40083 5.31445 11.7079C5.31445 13.7613 6.1142 15.9336 7.09768 17.3385C7.94065 18.5273 8.67556 19.5 9.73468 19.5Z" 
  fill="black"
/>
</svg>
