<svg width="90" height="90" viewBox="0 0 90 90" fill="none" xmlns="http://www.w3.org/2000/svg">
<path d="M67.6325 36.0684H72.9725C74.3112 36.0684 75.3965 37.1536 75.3965 38.4923V42.1044C75.3965 43.4431 74.3112 44.5283 72.9725 44.5283H67.6325C66.2937 44.5283 65.2085 43.4431 65.2085 42.1044V38.4923C65.2085 37.1536 66.2937 36.0684 67.6325 36.0684Z" fill="#1067CD" stroke="black" stroke-width="2.4" stroke-linecap="round" stroke-linejoin="round"/>
<path d="M24.9106 61.3886C25.5212 61.3916 26.1263 61.2733 26.6907 61.0406C27.2552 60.8078 27.7677 60.4651 28.1986 60.0326L34.9666 53.2645C35.135 53.0982 35.2686 52.9002 35.3598 52.6818C35.4511 52.4635 35.498 52.2292 35.498 51.9925C35.498 51.7559 35.4511 51.5216 35.3598 51.3033C35.2686 51.0849 35.135 50.8869 34.9666 50.7205L31.0666 46.8086C30.7306 46.4676 30.2733 46.2735 29.7946 46.2686C29.5582 46.2681 29.3241 46.3145 29.1057 46.4052C28.8874 46.4958 28.6892 46.6288 28.5226 46.7966L24.2626 51.0686C23.6108 50.7126 22.8813 50.523 22.1386 50.5166C21.3159 50.5207 20.5128 50.7684 19.8308 51.2284C19.1487 51.6885 18.6182 52.3403 18.3063 53.1016C17.9943 53.8629 17.9149 54.6995 18.078 55.5059C18.241 56.3123 18.6394 57.0523 19.2226 57.6326L21.6226 60.0326C22.0535 60.4651 22.5661 60.8078 23.1305 61.0406C23.695 61.2733 24.3001 61.3916 24.9106 61.3886Z" fill="#FF9D0A"/>
<path d="M29.7981 48.0795L24.3741 53.4675L23.9301 53.0235C23.6963 52.7872 23.4177 52.5997 23.1108 52.4719C22.8038 52.3442 22.4746 52.2788 22.1421 52.2795C21.5501 52.277 20.9794 52.5001 20.5461 52.9035C20.3193 53.1268 20.1392 53.393 20.0163 53.6865C19.8934 53.9801 19.8301 54.2952 19.8301 54.6135C19.8301 54.9317 19.8934 55.2468 20.0163 55.5404C20.1392 55.834 20.3193 56.1002 20.5461 56.3235L21.0621 56.8395L22.9461 58.7235C23.4829 59.254 24.2073 59.5516 24.9621 59.5516C25.7169 59.5516 26.4412 59.254 26.9781 58.7235L33.7461 51.9555L29.7981 48.0795ZM29.7981 44.4795C30.7525 44.4803 31.6676 44.8602 32.3421 45.5355L36.2421 49.4475C36.9163 50.1225 37.2949 51.0375 37.2949 51.9915C37.2949 52.9455 36.9163 53.8605 36.2421 54.5355L29.4861 61.3035C28.2722 62.5089 26.6308 63.1854 24.9201 63.1854C23.2093 63.1854 21.568 62.5089 20.3541 61.3035L18.4701 59.4675L17.9541 58.9515C17.3886 58.3847 16.9423 57.7105 16.6414 56.9686C16.3405 56.2267 16.1911 55.432 16.2021 54.6315C16.2366 53.0632 16.8839 51.5708 18.0054 50.4739C19.1269 49.3771 20.6334 48.7631 22.2021 48.7635C22.7745 48.7649 23.3439 48.8457 23.8941 49.0035L27.3141 45.5835C27.9886 44.9081 28.9036 44.5283 29.8581 44.5275L29.7981 44.4795Z" fill="black"/>
<path d="M38.7257 19.3994C42.4976 19.3953 46.183 20.5292 49.3001 22.653C52.4173 24.7768 54.8212 27.7916 56.1977 31.3034C57.8826 31.4904 59.4395 32.2921 60.5702 33.5552C61.701 34.8183 62.3262 36.4541 62.3262 38.1494C62.3262 39.8447 61.701 41.4805 60.5702 42.7436C59.4395 44.0067 57.8826 44.8085 56.1977 44.9954C54.9517 48.168 52.8642 50.9407 50.1599 53.0153C47.4555 55.09 44.2367 56.3879 40.8497 56.7696C37.4627 57.1512 34.0357 56.6021 30.9375 55.1813C27.8393 53.7604 25.1872 51.5217 23.2665 48.706C21.3457 45.8903 20.2291 42.6041 20.0368 39.2011C19.8445 35.798 20.5837 32.407 22.1749 29.3928C23.7662 26.3786 26.1492 23.8553 29.0676 22.0944C31.9859 20.3336 35.3292 19.4018 38.7377 19.3994H38.7257Z" fill="#FF9D0A" stroke="black" stroke-width="3.6" stroke-linecap="round" stroke-linejoin="round"/>
<path d="M35.7961 35.4684C35.1334 35.4684 34.5961 34.9311 34.5961 34.2684C34.5961 33.6056 35.1334 33.0684 35.7961 33.0684C36.4589 33.0684 36.9961 33.6056 36.9961 34.2684C36.9961 34.9311 36.4589 35.4684 35.7961 35.4684Z" fill="#1067CD" stroke="black" stroke-width="2.4" stroke-linecap="round" stroke-linejoin="round"/>
<path d="M28.5969 35.4684C27.9342 35.4684 27.3969 34.9311 27.3969 34.2684C27.3969 33.6056 27.9342 33.0684 28.5969 33.0684C29.2596 33.0684 29.7969 33.6056 29.7969 34.2684C29.7969 34.9311 29.2596 35.4684 28.5969 35.4684Z" fill="#1067CD" stroke="black" stroke-width="2.4" stroke-linecap="round" stroke-linejoin="round"/>
<path d="M27.2167 70.7005C27.5255 70.6945 27.8279 70.6112 28.0962 70.4582C28.3646 70.3051 28.5903 70.0873 28.7527 69.8246L34.6807 60.0205H48.6127C48.9142 60.0215 49.2111 59.9473 49.4767 59.8046L51.7807 58.5205C52.0919 58.3491 52.3464 58.0906 52.5127 57.7766L59.2327 44.7686C59.4274 44.4038 59.7181 44.0991 60.0735 43.8876C60.4288 43.6761 60.8352 43.5658 61.2487 43.5686H65.0887C65.5661 43.5686 66.0239 43.3789 66.3615 43.0414C66.699 42.7038 66.8887 42.2459 66.8887 41.7686V39.0686C66.8887 38.5912 66.699 38.1333 66.3615 37.7958C66.0239 37.4582 65.5661 37.2686 65.0887 37.2686H61.1047C59.5905 37.274 58.1072 37.6969 56.8178 38.4908C55.5285 39.2847 54.4831 40.4189 53.7967 41.7686L51.0487 47.0966H35.7007C34.9007 47.0966 34.1086 47.2543 33.3697 47.5608C32.6307 47.8673 31.9595 48.3165 31.3944 48.8828C30.8293 49.449 30.3814 50.1211 30.0763 50.8606C29.7713 51.6002 29.6151 52.3926 29.6167 53.1925V56.3485L23.4247 66.6686C23.2001 67.0709 23.1384 67.5441 23.2523 67.9905C23.3661 68.437 23.6469 68.8229 24.0367 69.0686L26.2807 70.4246C26.5628 70.5977 26.8858 70.6929 27.2167 70.7005ZM35.7967 53.7806V53.3366H47.7967L47.5687 53.7925L35.7967 53.7806Z" fill="#67AEFF"/>
<path d="M65.0895 39.0678H61.1055C59.9177 39.0666 58.7527 39.3931 57.7386 40.0113C56.7245 40.6295 55.9005 41.5155 55.3575 42.5718L52.1054 48.8718H35.7015C35.1379 48.8718 34.5798 48.983 34.0593 49.199C33.5387 49.4151 33.0659 49.7317 32.668 50.1307C32.27 50.5298 31.9547 51.0035 31.7401 51.5247C31.5255 52.0458 31.4159 52.6042 31.4175 53.1678V56.8278L24.9615 67.5078L27.2175 68.8758L33.6735 58.2678H48.6015L50.9175 56.9958L57.6375 43.9878C57.9774 43.326 58.4934 42.7709 59.1286 42.3834C59.7637 41.996 60.4935 41.7912 61.2375 41.7918H65.0775V39.0678H65.0895ZM34.0335 55.5558V53.1558C34.0312 52.933 34.0735 52.7121 34.158 52.506C34.2425 52.2999 34.3675 52.1128 34.5255 51.9558C34.6818 51.7977 34.8691 51.6735 35.0755 51.5909C35.282 51.5083 35.5032 51.4691 35.7255 51.4758H50.7495L48.6495 55.5318H34.0455L34.0335 55.5558ZM65.0895 35.4678C66.0442 35.4678 66.9599 35.8471 67.635 36.5222C68.3102 37.1973 68.6895 38.113 68.6895 39.0678V41.6958C68.6895 42.6506 68.3102 43.5662 67.635 44.2413C66.9599 44.9165 66.0442 45.2958 65.0895 45.2958H61.2495C61.1624 45.292 61.0762 45.3138 61.0016 45.3586C60.9269 45.4034 60.867 45.4692 60.8295 45.5478L54.1095 58.5558C53.7722 59.2057 53.2447 59.7374 52.5975 60.0798L50.2935 61.3638C49.7586 61.6521 49.1611 61.8046 48.5535 61.8078H35.7015L30.3015 70.7478C30.0567 71.1522 29.7347 71.5046 29.3538 71.7846C28.9729 72.0646 28.5405 72.2668 28.0815 72.3798C27.7989 72.4506 27.5088 72.4869 27.2175 72.4878C26.562 72.4883 25.9189 72.3099 25.3575 71.9718L23.1015 70.6038C22.2872 70.1068 21.7035 69.307 21.4786 68.3801C21.2536 67.4531 21.4057 66.4747 21.9015 65.6598L27.8175 55.8678V53.2038C27.8159 52.1674 28.0186 51.1409 28.4141 50.183C28.8096 49.2251 29.3901 48.3545 30.1224 47.6212C30.8546 46.8878 31.7243 46.306 32.6816 45.9091C33.6389 45.5121 34.6651 45.3078 35.7015 45.3078H49.9095L52.1655 40.9518C53.0046 39.3019 54.2839 37.9164 55.8617 36.9485C57.4396 35.9806 59.2544 35.4681 61.1055 35.4678H65.0895Z" fill="black"/>
<circle cx="52.7996" cy="61.9998" r="10.2" fill="#F7F6EC"/>
<path d="M52.8008 64.999C51.1439 64.999 49.8008 63.6559 49.8008 61.999C49.8008 60.3422 51.1439 58.999 52.8008 58.999C54.4576 58.999 55.8008 60.3422 55.8008 61.999C55.8008 63.6559 54.4576 64.999 52.8008 64.999Z" fill="black" stroke="black" stroke-width="3.6" stroke-linecap="round" stroke-linejoin="round"/>
<path d="M26.5316 73.3752C23.5029 73.3752 21.0476 70.9199 21.0476 67.8912C21.0476 64.8625 23.5029 62.4072 26.5316 62.4072C29.5604 62.4072 32.0156 64.8625 32.0156 67.8912C32.0156 70.9199 29.5604 73.3752 26.5316 73.3752Z" fill="black" stroke="black" stroke-width="3.6" stroke-linecap="round" stroke-linejoin="round"/>
<path d="M26.5319 70.3629C25.1667 70.3629 24.0599 69.2562 24.0599 67.8909C24.0599 66.5257 25.1667 65.4189 26.5319 65.4189C27.8972 65.4189 29.0039 66.5257 29.0039 67.8909C29.0039 69.2562 27.8972 70.3629 26.5319 70.3629Z" fill="#F7F6EC"/>
<path d="M52.8262 49.3994C55.3172 49.4046 57.7507 50.1479 59.8194 51.5355C61.888 52.9231 63.499 54.8927 64.4487 57.1955C65.3984 59.4983 65.6442 62.0309 65.1551 64.4734C64.666 66.9159 63.464 69.1585 61.7008 70.9181C59.9376 72.6777 57.6925 73.8751 55.249 74.3592C52.8056 74.8433 50.2735 74.5922 47.9726 73.6378C45.6718 72.6834 43.7055 71.0684 42.3221 68.9969C40.9387 66.9254 40.2004 64.4904 40.2004 61.9994C40.2004 60.3426 40.5271 58.7021 41.162 57.1717C41.7968 55.6413 42.7272 54.2511 43.9 53.0808C45.0727 51.9104 46.4648 50.9828 47.9965 50.3511C49.5282 49.7194 51.1694 49.396 52.8262 49.3994ZM52.8262 72.2862C54.871 72.2862 56.8698 71.6799 58.57 70.5439C60.2701 69.4079 61.5952 67.7932 62.3777 65.9041C63.1602 64.015 63.365 61.9363 62.966 59.9308C62.5671 57.9254 61.5825 56.0832 60.1366 54.6374C58.6908 53.1915 56.8486 52.2068 54.8432 51.8079C52.8377 51.409 50.759 51.6138 48.8699 52.3963C46.9808 53.1788 45.3661 54.5039 44.2301 56.204C43.0941 57.9042 42.4878 59.903 42.4878 61.9477C42.4878 64.6897 43.577 67.3193 45.5158 69.2581C47.4547 71.197 50.0843 72.2862 52.8262 72.2862Z" fill="#F7F6EC" stroke="black" stroke-width="3.6" stroke-linecap="round" stroke-linejoin="round"/>
<path d="M44.4837 45.5481L48.3597 49.4241C48.8612 49.9266 49.457 50.3253 50.1128 50.5973C50.7686 50.8693 51.4717 51.0093 52.1817 51.0093C52.8917 51.0093 53.5947 50.8693 54.2505 50.5973C54.9063 50.3253 55.5021 49.9266 56.0037 49.4241C56.5058 48.9235 56.9042 48.3288 57.1761 47.674C57.448 47.0191 57.5879 46.3171 57.5879 45.6081C57.5879 44.8991 57.448 44.197 57.1761 43.5422C56.9042 42.8874 56.5058 42.2926 56.0037 41.7921L53.3757 39.1641" fill="#FF9D0A"/>
<path d="M44.4837 45.5481L48.3597 49.4241C48.8612 49.9266 49.457 50.3253 50.1128 50.5973C50.7686 50.8693 51.4717 51.0093 52.1817 51.0093C52.8917 51.0093 53.5947 50.8693 54.2505 50.5973C54.9063 50.3253 55.5021 49.9266 56.0037 49.4241V49.4241C56.5058 48.9235 56.9042 48.3288 57.1761 47.674C57.448 47.0191 57.5879 46.3171 57.5879 45.6081C57.5879 44.8991 57.448 44.197 57.1761 43.5422C56.9042 42.8874 56.5058 42.2926 56.0037 41.7921L53.3757 39.1641" stroke="black" stroke-width="3.6" stroke-linecap="round" stroke-linejoin="round"/>
<path d="M69 24H83.5" stroke="black" stroke-width="3.6" stroke-linecap="round" stroke-linejoin="round"/>
<path d="M59 17H73" stroke="black" stroke-width="3.6" stroke-linecap="round" stroke-linejoin="round"/>
<path d="M66 31H74" stroke="black" stroke-width="3.6" stroke-linecap="round" stroke-linejoin="round"/>
</svg>
