<svg width="24" height="24" viewBox="0 0 24 24" fill="none" xmlns="http://www.w3.org/2000/svg">
<circle cx="12" cy="12" r="3" fill="#9499A5"/>
<circle cx="12" cy="12" r="10" stroke="#9499A5" stroke-width="1.5"/>
<path d="M11.25 5C11.25 5.41421 11.5858 5.75 12 5.75C12.4142 5.75 12.75 5.41421 12.75 5L11.25 5ZM11.25 2L11.25 5L12.75 5L12.75 2L11.25 2Z" fill="#9499A5"/>
<path d="M12.75 19C12.75 18.5858 12.4142 18.25 12 18.25C11.5858 18.25 11.25 18.5858 11.25 19L12.75 19ZM11.25 19L11.25 22L12.75 22L12.75 19L11.25 19Z" fill="#9499A5"/>
<path d="M5 12.75C5.41421 12.75 5.75 12.4142 5.75 12C5.75 11.5858 5.41421 11.25 5 11.25L5 12.75ZM2 12.75L5 12.75L5 11.25L2 11.25L2 12.75Z" fill="#9499A5"/>
<path d="M19 11.25C18.5858 11.25 18.25 11.5858 18.25 12C18.25 12.4142 18.5858 12.75 19 12.75L19 11.25ZM19 12.75L22 12.75L22 11.25L19 11.25L19 12.75Z" fill="#9499A5"/>
</svg>
