<svg width="24" height="24" viewBox="0 0 24 24" fill="none" xmlns="http://www.w3.org/2000/svg">
<path d="M21 3V2H22V3H21ZM11.707 13.707C11.5184 13.8892 11.2658 13.99 11.0036 13.9877C10.7414 13.9854 10.4906 13.8802 10.3052 13.6948C10.1198 13.5094 10.0146 13.2586 10.0123 12.9964C10.01 12.7342 10.1108 12.4816 10.293 12.293L11.707 13.707ZM20 11V3H22V11H20ZM21 4H13V2H21V4ZM21.707 3.707L11.707 13.707L10.293 12.293L20.293 2.293L21.707 3.707Z" fill="white"/>
<path d="M20 15C20 16.87 20 17.804 19.598 18.5C19.3347 18.956 18.956 19.3347 18.5 19.598C17.804 20 16.87 20 15 20H10C7.172 20 5.757 20 4.879 19.121C4 18.243 4 16.828 4 14V9C4 7.13 4 6.196 4.402 5.5C4.66529 5.04398 5.04398 4.66529 5.5 4.402C6.196 4 7.13 4 9 4" stroke="white" stroke-width="2" stroke-linecap="round"/>
</svg>
