<svg width="24" height="25" viewBox="0 0 24 25" fill="none" xmlns="http://www.w3.org/2000/svg">
<path fill-rule="evenodd" clip-rule="evenodd" d="M10.1187 21.7621C9.41774 21.0636 8.74814 20.3337 8.11205 19.5746C6.33493 17.452 4.22461 14.291 4.22461 11.2788C4.22384 9.74041 4.67945 8.2364 5.53378 6.95708C6.38811 5.67776 7.60276 4.68063 9.02401 4.0919C10.4452 3.50316 12.0092 3.34928 13.5179 3.64972C15.0267 3.95017 16.4124 4.69144 17.4997 5.77971C18.2236 6.5004 18.7973 7.3575 19.1878 8.30141C19.5782 9.24532 19.7776 10.2573 19.7744 11.2788C19.7744 14.291 17.664 17.452 15.8869 19.5746C15.2508 20.3337 14.5812 21.0636 13.8802 21.7621C12.8359 22.8027 11.1631 22.8027 10.1187 21.7621ZM12 14.501C13.6569 14.501 15 13.1578 15 11.501C15 9.84412 13.6569 8.50098 12 8.50098C10.3431 8.50098 9 9.84412 9 11.501C9 13.1578 10.3431 14.501 12 14.501Z" fill="#555555"/>
</svg>
