<svg width="18" height="21" viewBox="0 0 18.9373 21.6837" fill="none" xmlns="http://www.w3.org/2000/svg">
<g transform="translate(18.9373, 0) scale(-1, 1)">
<path d="M13.4667 21.2147C13.1729 21.2164 12.8832 21.1446 12.6242 21.0056C12.3652 20.8667 12.1452 20.6651 11.9841 20.4193C11.823 20.1735 11.7261 19.8912 11.7022 19.5983C11.6782 19.3054 11.728 19.0111 11.847 18.7424L10.4343 17.3297C10.2632 17.1584 10.1671 16.9262 10.1671 16.6842C10.1671 16.4421 10.2632 16.21 10.4343 16.0387L11.847 14.626C12.0185 14.4552 12.2504 14.3589 12.4925 14.3581C12.6124 14.3578 12.7312 14.3814 12.842 14.4274C12.9528 14.4734 13.0534 14.5409 13.1379 14.626L15.5736 17.0617C15.755 17.2427 15.8989 17.4577 15.997 17.6944C16.0952 17.931 16.1457 18.1848 16.1457 18.441C16.1457 18.6972 16.0952 18.9509 15.997 19.1876C15.8989 19.4242 15.755 19.6392 15.5736 19.8202L14.709 20.6849C14.547 20.8506 14.3539 20.9828 14.1407 21.0737C13.9275 21.1646 13.6985 21.2125 13.4667 21.2147V21.2147Z" fill="#FFFFFF" stroke="#DEDEE3" stroke-width="0.937317" stroke-linecap="round" stroke-linejoin="round"/>
<path d="M5.64401 21.215C5.30248 21.2163 4.96657 21.1282 4.66973 20.9592L3.61018 20.3503C3.27218 20.1551 3.00808 19.8538 2.85889 19.4931C2.7097 19.1325 2.68376 18.7326 2.7851 18.3557C2.88645 17.9788 3.10941 17.6459 3.41936 17.4086C3.72931 17.1714 4.10892 17.0432 4.49923 17.0438H4.60883C2.78673 15.8748 1.44704 14.0882 0.835378 12.0116C0.223712 9.93496 0.381062 7.70744 1.27857 5.7374C2.17609 3.76737 3.75362 2.18685 5.72195 1.28562C7.69028 0.384394 9.91751 0.222851 11.9953 0.830604C14.0731 1.43836 15.8622 2.77468 17.0346 4.59458C18.207 6.41448 18.6841 8.59598 18.3785 10.7392C18.0729 12.8823 17.0051 14.8435 15.3707 16.2632C13.7364 17.6829 11.6451 18.4659 9.48027 18.4687C9.12213 18.4698 8.76426 18.4495 8.40856 18.4078L7.34293 20.2346C7.17172 20.5337 6.92427 20.7819 6.62582 20.9542C6.32737 21.1264 5.98858 21.2164 5.64401 21.215Z" fill="#FFFFFF" stroke="#DEDEE3" stroke-width="0.937317" stroke-linecap="round" stroke-linejoin="round"/>
<path d="M4.51362 9.09857C4.79522 9.09857 5.02353 8.87028 5.02353 8.58867C5.02353 8.30705 4.79522 8.07877 4.51362 8.07877C4.23202 8.07877 4.00373 8.30705 4.00373 8.58867C4.00373 8.87028 4.23202 9.09857 4.51362 9.09857Z" fill="#DEDEE3" stroke="#DEDEE3" stroke-width="0.62122"/>
<path d="M8.24181 9.09857C8.52341 9.09857 8.75172 8.87028 8.75172 8.58867C8.75172 8.30705 8.52341 8.07877 8.24181 8.07877C7.96021 8.07877 7.73192 8.30705 7.73192 8.58867C7.73192 8.87028 7.96021 9.09857 8.24181 9.09857Z" fill="#DEDEE3" stroke="#DEDEE3" stroke-width="0.62122"/>
</g>
</svg>
