<svg width="20" height="20" viewBox="0 0 20 20" fill="none" xmlns="http://www.w3.org/2000/svg">
<g transform="translate(1.667, 2.5)">
<path fill-rule="evenodd" clip-rule="evenodd" d="M0 7.08333C0 3.03583 3.88 0 8.33333 0C12.7867 0 16.6667 3.03583 16.6667 7.08333C16.6667 11.1308 12.7867 14.1667 8.33333 14.1667C7.895 14.1667 7.46556 14.1389 7.045 14.0833L4.62833 15.6933C4.49121 15.7847 4.33009 15.8333 4.16533 15.8331C4.00057 15.8329 3.83957 15.7838 3.70268 15.6922C3.56578 15.6005 3.45914 15.4703 3.39622 15.318C3.3333 15.1657 3.31692 14.9982 3.34917 14.8367L3.72 12.9858C1.52333 11.7417 0 9.5975 0 7.08333ZM6.66667 3.33333C6.88768 3.33333 7.09964 3.42113 7.25592 3.57741C7.4122 3.73369 7.5 3.94565 7.5 4.16667V10C7.5 10.221 7.4122 10.433 7.25592 10.5893C7.09964 10.7455 6.88768 10.8333 6.66667 10.8333C6.44565 10.8333 6.23369 10.7455 6.07741 10.5893C5.92113 10.433 5.83333 10.221 5.83333 10V4.16667C5.83333 3.94565 5.92113 3.73369 6.07741 3.57741C6.23369 3.42113 6.44565 3.33333 6.66667 3.33333ZM7.5 7.91667C7.5 7.7325 7.56083 7.54833 7.68333 7.39583L9.35 5.3125C9.49059 5.14785 9.68975 5.04438 9.90529 5.02401C10.1208 5.00363 10.3359 5.06794 10.5048 5.20332C10.6738 5.33871 10.7834 5.53453 10.8105 5.74934C10.8376 5.96414 10.78 6.18106 10.65 6.35417L9.4 7.91667L10.65 9.47917C10.7225 9.56405 10.7772 9.66264 10.8108 9.76907C10.8445 9.8755 10.8564 9.98761 10.8459 10.0987C10.8354 10.2099 10.8027 10.3178 10.7497 10.416C10.6967 10.5142 10.6245 10.6008 10.5374 10.6706C10.4502 10.7404 10.35 10.792 10.2426 10.8223C10.1351 10.8526 10.0227 10.8611 9.91197 10.8471C9.80122 10.8331 9.69441 10.797 9.59787 10.741C9.50134 10.6849 9.41705 10.6101 9.35 10.5208L7.68333 8.4375C7.56481 8.28977 7.50015 8.10607 7.5 7.91667Z" fill="currentColor"/>
</g>
</svg>
