<svg width="17" height="16" viewBox="0 0 17 16" fill="none" xmlns="http://www.w3.org/2000/svg">
<path d="M12.7426 12.2427C12.0449 12.9404 11.1859 13.4552 10.2417 13.7416C9.29747 14.0281 8.29719 14.0772 7.32945 13.8847C6.3617 13.6922 5.45637 13.264 4.69364 12.6381C3.93091 12.0121 3.33432 11.2077 2.95673 10.2961C2.57913 9.38451 2.43218 8.39387 2.52889 7.41192C2.6256 6.42996 2.96299 5.48702 3.51117 4.6666C4.05935 3.84619 4.80139 3.17363 5.67159 2.70849C6.54178 2.24336 7.51325 2.00001 8.49995 2C11.2053 2 12.8453 3.80333 14.4999 5.66667" stroke="#1D85FF" stroke-width="1.5" stroke-linecap="round" stroke-linejoin="round"/>
<path d="M14.4987 3V5.66667H11.832" stroke="#1D85FF" stroke-width="1.5" stroke-linecap="round" stroke-linejoin="round"/>
</svg>
