<svg width="20" height="20" viewBox="0 0 20 20" fill="none" xmlns="http://www.w3.org/2000/svg">
<path fill-rule="evenodd" clip-rule="evenodd" d="M1.667 8.411C1.667 4.364 5.547 1.328 10 1.328C14.454 1.328 18.334 4.364 18.334 8.411C18.334 12.459 14.454 15.495 10 15.495C9.562 15.495 9.132 15.467 8.712 15.411L6.295 17.021C6.158 17.113 5.997 17.161 5.832 17.161C5.666 17.161 5.506 17.112 5.369 17.02C5.232 16.929 5.126 16.798 5.063 16.646C5 16.494 4.984 16.326 5.016 16.165L5.387 14.314C3.19 13.07 1.667 10.926 1.667 8.411ZM8.334 4.661C8.555 4.661 8.766 4.749 8.923 4.905C9.079 5.062 9.167 5.273 9.167 5.495V11.328C9.167 11.549 9.079 11.761 8.923 11.917C8.766 12.074 8.555 12.161 8.334 12.161C8.112 12.161 7.901 12.074 7.744 11.917C7.588 11.761 7.5 11.549 7.5 11.328V5.495C7.5 5.273 7.588 5.062 7.744 4.905C7.901 4.749 8.112 4.661 8.334 4.661ZM9.167 9.245C9.167 9.06 9.228 8.876 9.35 8.724L11.017 6.64C11.157 6.476 11.357 6.372 11.572 6.352C11.788 6.331 12.003 6.396 12.172 6.531C12.341 6.667 12.45 6.862 12.478 7.077C12.505 7.292 12.447 7.509 12.317 7.682L11.067 9.245L12.317 10.807C12.39 10.892 12.444 10.991 12.478 11.097C12.512 11.203 12.523 11.316 12.513 11.427C12.502 11.538 12.47 11.646 12.417 11.744C12.364 11.842 12.291 11.929 12.204 11.999C12.117 12.068 12.017 12.12 11.91 12.15C11.802 12.181 11.69 12.189 11.579 12.175C11.468 12.161 11.361 12.125 11.265 12.069C11.168 12.013 11.084 11.938 11.017 11.849L9.35 9.765C9.232 9.618 9.167 9.434 9.167 9.245Z" fill="currentColor"/>
</svg>
