<svg width="14" height="14" viewBox="0 0 14 14" fill="none" xmlns="http://www.w3.org/2000/svg">
<path d="M5.2513 12.8337C5.09659 12.8337 4.94822 12.7722 4.83882 12.6628C4.72943 12.5534 4.66797 12.405 4.66797 12.2503V10.5003H2.33464C2.02522 10.5003 1.72847 10.3774 1.50968 10.1586C1.29089 9.93982 1.16797 9.64308 1.16797 9.33366V2.33366C1.16797 2.02424 1.29089 1.72749 1.50968 1.5087C1.72847 1.28991 2.02522 1.16699 2.33464 1.16699H11.668C11.9774 1.16699 12.2741 1.28991 12.4929 1.5087C12.7117 1.72749 12.8346 2.02424 12.8346 2.33366V9.33366C12.8346 9.64308 12.7117 9.93982 12.4929 10.1586C12.2741 10.3774 11.9774 10.5003 11.668 10.5003H8.10963L5.9513 12.6645C5.83464 12.7753 5.6888 12.8337 5.54297 12.8337H5.2513Z" fill="white"/>
<path d="M6.65762 3.38675C6.76539 3.05507 7.23461 3.05507 7.34238 3.38675L7.70497 4.50269C7.75317 4.65102 7.89139 4.75145 8.04735 4.75145H9.22073C9.56947 4.75145 9.71447 5.19771 9.43233 5.40269L8.48305 6.09239C8.35688 6.18406 8.30408 6.34655 8.35227 6.49488L8.71487 7.61083C8.82263 7.9425 8.44302 8.21831 8.16088 8.01332L7.2116 7.32363C7.08543 7.23196 6.91457 7.23196 6.7884 7.32363L5.83911 8.01332C5.55698 8.21831 5.17737 7.9425 5.28513 7.61083L5.64773 6.49488C5.69592 6.34655 5.64312 6.18406 5.51695 6.09239L4.56767 5.40269C4.28553 5.19771 4.43053 4.75145 4.77927 4.75145H5.95265C6.10861 4.75145 6.24683 4.65102 6.29503 4.50269L6.65762 3.38675Z" fill="#0C76F7"/>
</svg>
