<svg width="20" height="20" viewBox="0 0 20 20" fill="none" xmlns="http://www.w3.org/2000/svg">
<g transform="translate(1.667, 1.667)">
<path fill-rule="evenodd" clip-rule="evenodd" d="M3.45167 3.45167C5.75333 1.15083 6.90333 0 8.33333 0C9.76333 0 10.9133 1.15 13.215 3.45167C15.5167 5.75333 16.6667 6.90333 16.6667 8.33333C16.6667 9.76333 15.5167 10.9133 13.215 13.215C10.9133 15.5167 9.76333 16.6667 8.33333 16.6667C6.90333 16.6667 5.75333 15.5167 3.45167 13.215C1.15 10.9133 0 9.76333 0 8.33333C0 6.90333 1.15 5.75333 3.45167 3.45167ZM9.87167 5.37667C9.81175 5.32053 9.74136 5.27674 9.66453 5.2478C9.58769 5.21886 9.5059 5.20534 9.42384 5.20801C9.34177 5.21068 9.26104 5.22949 9.18624 5.26336C9.11145 5.29723 9.04406 5.3455 8.98792 5.40542C8.93178 5.46533 8.88799 5.53572 8.85905 5.61256C8.83011 5.6894 8.81659 5.77118 8.81926 5.85325C8.82193 5.93531 8.84074 6.01604 8.87461 6.09084C8.90848 6.16563 8.95675 6.23303 9.01667 6.28917L10.0858 7.29167H7.2225C6.76 7.29167 6.07417 7.41667 5.48333 7.815C4.86 8.23583 4.375 8.94583 4.375 10C4.375 10.1658 4.44085 10.3247 4.55806 10.4419C4.67527 10.5592 4.83424 10.625 5 10.625C5.16576 10.625 5.32473 10.5592 5.44194 10.4419C5.55915 10.3247 5.625 10.1658 5.625 10C5.625 9.3875 5.88083 9.05583 6.18333 8.85167C6.49401 8.6534 6.85397 8.54602 7.2225 8.54167H10.0858L9.01667 9.54417C8.89859 9.65822 8.83013 9.81415 8.82607 9.97827C8.82202 10.1424 8.8827 10.3015 8.995 10.4212C9.1073 10.541 9.26221 10.6117 9.42624 10.6182C9.59028 10.6247 9.75028 10.5664 9.87167 10.4558L12.0942 8.3725C12.1565 8.31405 12.2061 8.24344 12.2401 8.16504C12.2741 8.08663 12.2916 8.0021 12.2916 7.91667C12.2916 7.83123 12.2741 7.7467 12.2401 7.6683C12.2061 7.58989 12.1565 7.51929 12.0942 7.46083L9.87167 5.37667Z" fill="currentColor"/>
</g>
</svg>
