<svg width="24" height="24" viewBox="0 0 24 24" fill="none" xmlns="http://www.w3.org/2000/svg">
<path d="M20.4853 3.51471C18.2188 1.24823 15.2053 0 12 0C8.79474 0 5.78119 1.24823 3.51471 3.51471C1.24823 5.78119 0 8.79474 0 12C0 15.2054 1.24823 18.2188 3.51471 20.4853C5.78119 22.7518 8.79474 24 12 24C15.2053 24 18.2188 22.7518 20.4853 20.4853C22.7518 18.2188 24 15.2054 24 12C24 8.79474 22.7518 5.78119 20.4853 3.51471Z" fill="#D0D0D9"/>
<path d="M17.1906 15.5331C17.6482 15.9908 17.6482 16.7328 17.1906 17.1904C16.9617 17.4193 16.6618 17.5337 16.3619 17.5337C16.0619 17.5337 15.762 17.4193 15.5331 17.1904L12.0003 13.6575L8.46745 17.1906C8.23857 17.4193 7.93864 17.5337 7.63872 17.5337C7.33879 17.5337 7.03886 17.4193 6.80998 17.1906C6.3524 16.7328 6.3524 15.9908 6.80998 15.5333L10.343 12.0002L6.80998 8.46741C6.3524 8.00964 6.3524 7.2677 6.80998 6.81012C7.26775 6.35236 8.00969 6.35236 8.46727 6.81012L12.0003 10.343L15.5331 6.81012C15.9909 6.35254 16.7328 6.35236 17.1904 6.81012C17.6482 7.2677 17.6482 8.00964 17.1904 8.46741L13.6576 12.0002L17.1906 15.5331Z" fill="#B5B5C0"/>
</svg>
