<svg width="20" height="20" viewBox="0 0 20 20" fill="none" xmlns="http://www.w3.org/2000/svg">
<path d="M7.7041 2.741C8.80084 2.28684 10.0076 2.16747 11.1719 2.39931C12.3362 2.63117 13.4051 3.20401 14.2441 4.04384C14.8027 4.5999 15.2456 5.26088 15.5469 5.98915C15.8482 6.71756 16.0025 7.49874 16 8.287C16 10.6116 14.3714 13.0513 13 14.6893C12.0862 15.78 11.0826 16.7923 10 17.7157C8.91745 16.7923 7.91383 15.78 7 14.6893C5.62858 13.0513 4 10.6116 4 8.287C3.99942 7.09985 4.35146 5.93929 5.01074 4.95204C5.67004 3.96484 6.60737 3.19542 7.7041 2.741ZM10.002 6.14247C8.72334 6.14247 7.68652 7.17928 7.68652 8.4579C7.68659 9.73647 8.72338 10.7733 10.002 10.7733C11.2805 10.7733 12.3173 9.73643 12.3174 8.4579C12.3174 7.17931 11.2805 6.14251 10.002 6.14247Z" fill="currentColor"/>
</svg>
