<svg width="33" height="32" viewBox="0 0 33 32" fill="none" xmlns="http://www.w3.org/2000/svg">
<path d="M4.82588 9.94299H1.951C1.23027 9.94299 0.645996 10.5273 0.645996 11.248V13.1926C0.645996 13.9133 1.23027 14.4976 1.951 14.4976H4.82588C5.54662 14.4976 6.13089 13.9133 6.13089 13.1926V11.248C6.13089 10.5273 5.54662 9.94299 4.82588 9.94299Z" fill="#1067CD" stroke="black" stroke-width="1.29208" stroke-linecap="round" stroke-linejoin="round"/>
<path d="M27.8259 23.5748C27.4972 23.5764 27.1714 23.5127 26.8676 23.3874C26.5637 23.2621 26.2877 23.0776 26.0558 22.8447L22.4121 19.201C22.3215 19.1115 22.2495 19.0049 22.2004 18.8873C22.1513 18.7698 22.126 18.6436 22.126 18.5162C22.126 18.3888 22.1513 18.2627 22.2004 18.1452C22.2495 18.0276 22.3215 17.921 22.4121 17.8314L24.5117 15.7254C24.6926 15.5418 24.9388 15.4373 25.1965 15.4346C25.3238 15.4344 25.4498 15.4594 25.5674 15.5082C25.6849 15.557 25.7916 15.6286 25.8813 15.7189L28.1748 18.0188C28.5257 17.8271 28.9185 17.7251 29.3183 17.7216C29.7612 17.7238 30.1935 17.8572 30.5607 18.1049C30.9279 18.3526 31.2135 18.7035 31.3815 19.1133C31.5494 19.5232 31.5922 19.9736 31.5044 20.4077C31.4166 20.8419 31.2022 21.2403 30.8881 21.5526L29.5961 22.8447C29.3641 23.0776 29.0881 23.2621 28.7843 23.3874C28.4804 23.5127 28.1546 23.5764 27.8259 23.5748V23.5748Z" fill="#FFD770"/>
<path d="M25.1947 16.4096L28.1149 19.3103L28.3539 19.0712C28.4798 18.944 28.6297 18.8431 28.795 18.7743C28.9602 18.7055 29.1375 18.6703 29.3165 18.6707C29.6352 18.6694 29.9424 18.7895 30.1757 19.0066C30.2978 19.1269 30.3948 19.2702 30.4609 19.4282C30.5271 19.5863 30.5612 19.7559 30.5612 19.9272C30.5612 20.0986 30.5271 20.2682 30.4609 20.4263C30.3948 20.5843 30.2978 20.7276 30.1757 20.8479L29.8979 21.1257L28.8836 22.1399C28.5946 22.4256 28.2046 22.5858 27.7983 22.5858C27.3919 22.5858 27.002 22.4256 26.7129 22.1399L23.0693 18.4963L25.1947 16.4096ZM25.1947 14.4714C24.6809 14.4719 24.1883 14.6764 23.8251 15.04L21.7255 17.146C21.3626 17.5094 21.1587 18.002 21.1587 18.5156C21.1587 19.0292 21.3626 19.5219 21.7255 19.8853L25.3627 23.5289C26.0162 24.1779 26.8999 24.5421 27.8209 24.5421C28.7419 24.5421 29.6256 24.1779 30.2791 23.5289L31.2934 22.5405L31.5712 22.2627C31.8756 21.9576 32.1159 21.5946 32.2779 21.1952C32.4399 20.7957 32.5203 20.3679 32.5144 19.9369C32.4958 19.0926 32.1473 18.2891 31.5435 17.6986C30.9397 17.1082 30.1287 16.7776 29.2842 16.7778C28.976 16.7785 28.6695 16.822 28.3733 16.907L26.5321 15.0658C26.1689 14.7022 25.6763 14.4977 25.1624 14.4973L25.1947 14.4714Z" fill="black"/>
<path d="M20.3884 0.969122C18.3577 0.966893 16.3736 1.57737 14.6954 2.72075C13.0172 3.86413 11.723 5.48722 10.982 7.37786C10.0749 7.47849 9.23672 7.91012 8.62796 8.59015C8.01921 9.27018 7.68262 10.1508 7.68262 11.0635C7.68262 11.9762 8.01921 12.8569 8.62796 13.5369C9.23672 14.2169 10.0749 14.6486 10.982 14.7492C11.6528 16.4572 12.7766 17.9499 14.2326 19.0669C15.6885 20.1838 17.4214 20.8825 19.2449 21.088C21.0683 21.2935 22.9133 20.9978 24.5813 20.2329C26.2492 19.468 27.6771 18.2627 28.7111 16.7468C29.7452 15.2309 30.3463 13.4618 30.4499 11.6297C30.5534 9.79761 30.1554 7.97199 29.2988 6.34923C28.4421 4.72647 27.1592 3.36802 25.588 2.42003C24.0168 1.47205 22.2169 0.970424 20.3819 0.969122H20.3884Z" fill="#FFD770" stroke="black" stroke-width="1.93813" stroke-linecap="round" stroke-linejoin="round"/>
<path d="M21.9644 9.62009C22.3212 9.62009 22.6104 9.33085 22.6104 8.97404C22.6104 8.61724 22.3212 8.328 21.9644 8.328C21.6076 8.328 21.3184 8.61724 21.3184 8.97404C21.3184 9.33085 21.6076 9.62009 21.9644 9.62009Z" fill="#1067CD" stroke="black" stroke-width="1.29208" stroke-linecap="round" stroke-linejoin="round"/>
<path d="M25.8423 9.62009C26.1991 9.62009 26.4884 9.33085 26.4884 8.97404C26.4884 8.61724 26.1991 8.328 25.8423 8.328C25.4855 8.328 25.1963 8.61724 25.1963 8.97404C25.1963 9.33085 25.4855 9.62009 25.8423 9.62009Z" fill="#1067CD" stroke="black" stroke-width="1.29208" stroke-linecap="round" stroke-linejoin="round"/>
<path d="M26.5847 28.588C26.4184 28.5848 26.2556 28.5399 26.1112 28.4575C25.9667 28.3751 25.8452 28.2579 25.7578 28.1164L22.5663 22.8382H15.0658C14.9035 22.8388 14.7436 22.7988 14.6006 22.722L13.3602 22.0307C13.1927 21.9384 13.0557 21.7992 12.9661 21.6301L9.34831 14.6271C9.24348 14.4307 9.08696 14.2667 8.89566 14.1528C8.70436 14.0389 8.48558 13.9795 8.26296 13.981H6.19563C5.93861 13.981 5.69213 13.8789 5.51039 13.6972C5.32866 13.5155 5.22656 13.269 5.22656 13.012V11.5584C5.22656 11.3013 5.32866 11.0549 5.51039 10.8731C5.69213 10.6914 5.93861 10.5893 6.19563 10.5893H8.34048C9.15566 10.5922 9.95424 10.8199 10.6484 11.2473C11.3425 11.6747 11.9053 12.2854 12.2749 13.012L13.7543 15.8804H22.0172C22.4479 15.8804 22.8743 15.9653 23.2721 16.1303C23.6699 16.2953 24.0313 16.5372 24.3356 16.842C24.6398 17.1468 24.8809 17.5087 25.0451 17.9068C25.2094 18.305 25.2935 18.7316 25.2926 19.1623V20.8614L28.6262 26.4173C28.7471 26.6339 28.7803 26.8887 28.719 27.129C28.6577 27.3694 28.5066 27.5771 28.2967 27.7094L27.0886 28.4394C26.9367 28.5326 26.7629 28.5839 26.5847 28.588V28.588ZM21.9655 19.4788V19.2398H15.5051L15.6278 19.4853L21.9655 19.4788Z" fill="#67AEFF"/>
<path d="M6.19496 11.5579H8.33982C8.97924 11.5572 9.60645 11.733 10.1524 12.0658C10.6984 12.3987 11.142 12.8757 11.4344 13.4443L13.1851 16.836H22.0165C22.3199 16.836 22.6204 16.8959 22.9006 17.0122C23.1809 17.1285 23.4354 17.299 23.6497 17.5138C23.8639 17.7287 24.0337 17.9837 24.1492 18.2643C24.2647 18.5448 24.3237 18.8454 24.3229 19.1489V21.1193L27.7986 26.8691L26.584 27.6056L23.1083 21.8945H15.0716L13.8247 21.2097L10.2069 14.2067C10.0238 13.8504 9.74606 13.5515 9.40411 13.3429C9.06216 13.1343 8.6693 13.0241 8.26875 13.0244H6.20142V11.5579H6.19496ZM22.9145 20.4345V19.1424C22.9157 19.0225 22.8929 18.9035 22.8474 18.7926C22.802 18.6816 22.7347 18.5809 22.6496 18.4964C22.5655 18.4113 22.4647 18.3444 22.3535 18.2999C22.2424 18.2555 22.1233 18.2344 22.0036 18.2379H13.9152L15.0457 20.4216H22.9081L22.9145 20.4345ZM6.19496 9.61975C5.68094 9.61975 5.18797 9.82395 4.8245 10.1874C4.46103 10.5509 4.25684 11.0439 4.25684 11.5579V12.9727C4.25684 13.4867 4.46103 13.9797 4.8245 14.3432C5.18797 14.7066 5.68094 14.9108 6.19496 14.9108H8.26229C8.30914 14.9088 8.35555 14.9205 8.39575 14.9447C8.43596 14.9688 8.46818 15.0042 8.48841 15.0465L12.1062 22.0496C12.2878 22.3995 12.5718 22.6857 12.9203 22.8701L14.1607 23.5613C14.4486 23.7166 14.7703 23.7987 15.0974 23.8004H22.0165L24.9237 28.6134C25.0555 28.8311 25.2288 29.0208 25.4339 29.1716C25.639 29.3223 25.8717 29.4312 26.1189 29.492C26.271 29.5301 26.4272 29.5497 26.584 29.5501C26.9369 29.5504 27.2831 29.4544 27.5854 29.2723L28.8 28.5359C29.2383 28.2683 29.5525 27.8377 29.6737 27.3387C29.7948 26.8396 29.7129 26.3129 29.446 25.8742L26.261 20.6025V19.1682C26.2619 18.6103 26.1527 18.0577 25.9398 17.542C25.7269 17.0263 25.4143 16.5576 25.0201 16.1628C24.6259 15.7679 24.1577 15.4547 23.6423 15.241C23.1269 15.0273 22.5745 14.9173 22.0165 14.9173H14.3674L13.1528 12.5722C12.7011 11.6839 12.0123 10.938 11.1629 10.4169C10.3134 9.89584 9.33636 9.61993 8.33982 9.61975H6.19496Z" fill="black"/>
<circle cx="5.49135" cy="5.49135" r="5.49135" transform="matrix(-1 0 0 1 18.3027 18.4125)" fill="#F7F6EC"/>
<path d="M12.8099 25.5185C13.7019 25.5185 14.425 24.7954 14.425 23.9034C14.425 23.0114 13.7019 22.2883 12.8099 22.2883C11.9179 22.2883 11.1948 23.0114 11.1948 23.9034C11.1948 24.7954 11.9179 25.5185 12.8099 25.5185Z" fill="black" stroke="black" stroke-width="1.93813" stroke-linecap="round" stroke-linejoin="round"/>
<path d="M26.9544 30.028C28.5849 30.028 29.9068 28.7061 29.9068 27.0756C29.9068 25.445 28.5849 24.1232 26.9544 24.1232C25.3238 24.1232 24.002 25.445 24.002 27.0756C24.002 28.7061 25.3238 30.028 26.9544 30.028Z" fill="black" stroke="black" stroke-width="1.93813" stroke-linecap="round" stroke-linejoin="round"/>
<path d="M26.9519 28.4063C27.6869 28.4063 28.2828 27.8104 28.2828 27.0754C28.2828 26.3404 27.6869 25.7446 26.9519 25.7446C26.2169 25.7446 25.6211 26.3404 25.6211 27.0754C25.6211 27.8104 26.2169 28.4063 26.9519 28.4063Z" fill="#F7F6EC"/>
<path d="M12.7969 17.1202C11.4558 17.1229 10.1457 17.5231 9.03199 18.2702C7.91829 19.0172 7.05101 20.0776 6.53972 21.3174C6.02843 22.5571 5.89608 23.9206 6.15939 25.2355C6.4227 26.5505 7.06986 27.7579 8.01909 28.7051C8.96832 29.6524 10.177 30.2971 11.4925 30.5577C12.808 30.8183 14.1712 30.6832 15.4099 30.1694C16.6486 29.6555 17.7072 28.7861 18.452 27.6709C19.1967 26.5556 19.5942 25.2447 19.5942 23.9036C19.5942 23.0116 19.4183 22.1284 19.0765 21.3045C18.7348 20.4806 18.2339 19.7322 17.6025 19.1021C16.9711 18.472 16.2217 17.9726 15.3971 17.6325C14.5724 17.2925 13.6889 17.1184 12.7969 17.1202V17.1202ZM12.7969 29.4417C11.696 29.4417 10.6199 29.1153 9.70462 28.5037C8.78932 27.8921 8.07592 27.0228 7.65465 26.0058C7.23338 24.9888 7.12316 23.8696 7.33792 22.79C7.55268 21.7103 8.08278 20.7185 8.86119 19.9401C9.63959 19.1617 10.6313 18.6316 11.711 18.4168C12.7907 18.2021 13.9098 18.3123 14.9268 18.7336C15.9439 19.1549 16.8132 19.8682 17.4247 20.7836C18.0363 21.6989 18.3628 22.775 18.3628 23.8758C18.3628 25.352 17.7764 26.7677 16.7326 27.8115C15.6887 28.8553 14.273 29.4417 12.7969 29.4417Z" fill="#F7F6EC" stroke="black" stroke-width="1.93813" stroke-linecap="round" stroke-linejoin="round"/>
<path d="M17.2883 15.0467L15.2016 17.1335C14.9316 17.404 14.6108 17.6187 14.2577 17.7651C13.9047 17.9115 13.5262 17.9869 13.1439 17.9869C12.7617 17.9869 12.3832 17.9115 12.0301 17.7651C11.6771 17.6187 11.3563 17.404 11.0863 17.1335V17.1335C10.816 16.864 10.6015 16.5438 10.4551 16.1913C10.3087 15.8387 10.2334 15.4608 10.2334 15.0791C10.2334 14.6974 10.3087 14.3194 10.4551 13.9668C10.6015 13.6143 10.816 13.2941 11.0863 13.0246L12.5011 11.6098" fill="#FFD770"/>
<path d="M17.2883 15.0467L15.2016 17.1335C14.9316 17.404 14.6108 17.6187 14.2577 17.7651C13.9047 17.9115 13.5262 17.9869 13.1439 17.9869C12.7617 17.9869 12.3832 17.9115 12.0301 17.7651C11.6771 17.6187 11.3563 17.404 11.0863 17.1335V17.1335C10.816 16.864 10.6015 16.5438 10.4551 16.1913C10.3087 15.8387 10.2334 15.4608 10.2334 15.0791C10.2334 14.6974 10.3087 14.3194 10.4551 13.9668C10.6015 13.6143 10.816 13.2941 11.0863 13.0246L12.5011 11.6098" stroke="black" stroke-width="1.93813" stroke-linecap="round" stroke-linejoin="round"/>
</svg>
