<svg width="20" height="20" viewBox="0 0 20 20" fill="none" xmlns="http://www.w3.org/2000/svg">
<g transform="translate(2.19, 4)">
<path d="M13.1627 0C13.3791 0 13.5712 0.13909 13.6383 0.344727L15.5973 6.34473C15.7028 6.66792 15.4617 7 15.1217 7H13.8112V12.5C13.8112 12.7761 13.5873 13 13.3112 13H10.3112C10.0351 12.9999 9.81118 12.7761 9.81118 12.5V7H5.81118V12.5C5.81118 12.7761 5.58732 13 5.31118 13H2.31118C2.03512 12.9999 1.81118 12.7761 1.81118 12.5V7H0.500632C0.160647 7 -0.0804772 6.66792 0.0250456 6.34473L1.98403 0.344727C2.05116 0.139126 2.24335 0 2.45962 0H13.1627Z" fill="currentColor"/>
</g>
</svg>
