<svg width="16" height="16" viewBox="0 0 16 16" fill="none" xmlns="http://www.w3.org/2000/svg">
<g clip-path="url(#clip0_442_1017)">
<path d="M11 1H5C4.17157 1 3.5 1.67157 3.5 2.5V10.5C3.5 11.3284 4.17157 12 5 12H11C11.8284 12 12.5 11.3284 12.5 10.5V2.5C12.5 1.67157 11.8284 1 11 1Z" stroke="currentColor" stroke-miterlimit="10"/>
<path d="M6.5 2.5H9.5" stroke="currentColor" stroke-linecap="round" stroke-linejoin="round"/>
<path d="M11.5 4H4.5C3.94772 4 3.5 4.44772 3.5 5V6C3.5 6.55228 3.94772 7 4.5 7H11.5C12.0523 7 12.5 6.55228 12.5 6V5C12.5 4.44772 12.0523 4 11.5 4Z" stroke="currentColor" stroke-linecap="round" stroke-linejoin="round"/>
<path d="M5.5 10.5C5.77614 10.5 6 10.2761 6 10C6 9.72386 5.77614 9.5 5.5 9.5C5.22386 9.5 5 9.72386 5 10C5 10.2761 5.22386 10.5 5.5 10.5Z" stroke="currentColor" stroke-linejoin="round"/>
<path d="M10.5 10.5C10.7761 10.5 11 10.2761 11 10C11 9.72386 10.7761 9.5 10.5 9.5C10.2239 9.5 10 9.72386 10 10C10 10.2761 10.2239 10.5 10.5 10.5Z" stroke="currentColor" stroke-linejoin="round"/>
<path d="M4.5 14.5H11.5M10.5 13.5L12 15M5.5 13.5L4 15" stroke="currentColor" stroke-linecap="round" stroke-linejoin="round"/>
</g>
<defs>
<clipPath id="clip0_442_1017">
<rect width="16" height="16" fill="white"/>
</clipPath>
</defs>
</svg>
