<svg width="20" height="20" viewBox="0 0 20 20" fill="none" xmlns="http://www.w3.org/2000/svg">
<g transform="translate(4, 2.8)">
<path d="M3.7041 0.457171C4.80084 0.00290938 6.00764 -0.116467 7.17188 0.115375C8.33617 0.347236 9.40508 0.920077 10.2441 1.75991C10.8027 2.31597 11.2456 2.97695 11.5469 3.70522C11.8482 4.43363 12.0025 5.21481 12 6.00307C12 8.32763 10.3714 10.7674 9 12.4054C8.08616 13.4961 7.08256 14.5084 6 15.4318C4.91745 14.5084 3.91383 13.4961 3 12.4054C1.62858 10.7674 0 8.32763 0 6.00307C-0.000581991 4.81592 0.351456 3.65536 1.01074 2.66811C1.67004 1.68091 2.60737 0.911484 3.7041 0.457171ZM6.00195 3.85854C4.72334 3.85854 3.68652 4.89535 3.68652 6.17397C3.68659 7.45253 4.72338 8.4894 6.00195 8.4894C7.28049 8.48935 8.31732 7.4525 8.31738 6.17397C8.31738 4.89538 7.28053 3.85858 6.00195 3.85854Z" fill="currentColor"/>
</g>
</svg>
