<svg width="49" height="49" viewBox="0 0 49 49" fill="none" xmlns="http://www.w3.org/2000/svg">
<path d="M12.0409 19.418H9.16597C8.44523 19.418 7.86096 20.0022 7.86096 20.723V22.6676C7.86096 23.3883 8.44523 23.9726 9.16597 23.9726H12.0409C12.7616 23.9726 13.3459 23.3883 13.3459 22.6676V20.723C13.3459 20.0022 12.7616 19.418 12.0409 19.418Z" fill="#1067CD" stroke="black" stroke-width="1.29208" stroke-linecap="round" stroke-linejoin="round"/>
<path d="M35.041 33.0496C34.7123 33.0513 34.3865 32.9876 34.0827 32.8623C33.7788 32.7369 33.5028 32.5525 33.2708 32.3196L29.6272 28.6759C29.5365 28.5864 29.4646 28.4797 29.4155 28.3622C29.3664 28.2446 29.3411 28.1185 29.3411 27.9911C29.3411 27.8637 29.3664 27.7376 29.4155 27.62C29.4646 27.5025 29.5365 27.3958 29.6272 27.3063L31.7268 25.2002C31.9077 25.0167 32.1539 24.9121 32.4116 24.9095C32.5389 24.9092 32.6649 24.9342 32.7825 24.983C32.9 25.0318 33.0067 25.1034 33.0964 25.1937L35.3899 27.4937C35.7408 27.302 36.1335 27.1999 36.5334 27.1965C36.9763 27.1987 37.4086 27.332 37.7758 27.5797C38.143 27.8274 38.4286 28.1783 38.5966 28.5882C38.7645 28.998 38.8073 29.4484 38.7195 29.8826C38.6317 30.3167 38.4172 30.7151 38.1032 31.0275L36.8112 32.3196C36.5792 32.5525 36.3032 32.7369 35.9993 32.8623C35.6955 32.9876 35.3697 33.0513 35.041 33.0496Z" fill="#FFD770"/>
<path d="M32.4097 25.8845L35.3298 28.7852L35.5689 28.5462C35.6947 28.4189 35.8447 28.318 36.0099 28.2492C36.1752 28.1805 36.3525 28.1453 36.5315 28.1456C36.8502 28.1443 37.1574 28.2644 37.3907 28.4816C37.5128 28.6018 37.6097 28.7451 37.6759 28.9031C37.7421 29.0612 37.7762 29.2308 37.7762 29.4022C37.7762 29.5735 37.7421 29.7432 37.6759 29.9012C37.6097 30.0592 37.5128 30.2026 37.3907 30.3228L37.1129 30.6006L36.0986 31.6149C35.8096 31.9005 35.4196 32.0607 35.0133 32.0607C34.6069 32.0607 34.2169 31.9005 33.9279 31.6149L30.2842 27.9712L32.4097 25.8845ZM32.4097 23.9464C31.8959 23.9468 31.4032 24.1513 31.0401 24.5149L28.9405 26.621C28.5775 26.9844 28.3737 27.477 28.3737 27.9906C28.3737 28.5042 28.5775 28.9968 28.9405 29.3602L32.5777 33.0038C33.2312 33.6528 34.1149 34.017 35.0359 34.017C35.9569 34.017 36.8405 33.6528 37.4941 33.0038L38.5083 32.0154L38.7861 31.7376C39.0906 31.4325 39.3309 31.0695 39.4929 30.6701C39.6549 30.2707 39.7353 29.8428 39.7294 29.4119C39.7108 28.5675 39.3623 27.7641 38.7585 27.1736C38.1547 26.5831 37.3437 26.2525 36.4992 26.2527C36.191 26.2535 35.8844 26.297 35.5882 26.3819L33.747 24.5407C33.3839 24.1771 32.8913 23.9726 32.3774 23.9722L32.4097 23.9464Z" fill="black"/>
<path d="M27.6035 10.444C25.5728 10.4418 23.5887 11.0523 21.9105 12.1957C20.2323 13.339 18.9381 14.9621 18.1971 16.8528C17.29 16.9534 16.4518 17.385 15.8431 18.0651C15.2343 18.7451 14.8977 19.6257 14.8977 20.5384C14.8977 21.4511 15.2343 22.3318 15.8431 23.0118C16.4518 23.6918 17.29 24.1235 18.1971 24.2241C18.8679 25.9321 19.9917 27.4249 21.4476 28.5418C22.9036 29.6587 24.6365 30.3575 26.46 30.5629C28.2834 30.7684 30.1284 30.4728 31.7964 29.7078C33.4643 28.9429 34.8922 27.7377 35.9262 26.2218C36.9603 24.7059 37.5614 22.9367 37.6649 21.1046C37.7685 19.2725 37.3705 17.4469 36.5138 15.8241C35.6572 14.2014 34.3742 12.8429 32.8031 11.8949C31.2319 10.947 29.432 10.4453 27.597 10.444H27.6035Z" fill="#FFD770" stroke="black" stroke-width="1.93813" stroke-linecap="round" stroke-linejoin="round"/>
<path d="M29.1795 19.0951C29.5363 19.0951 29.8255 18.8058 29.8255 18.449C29.8255 18.0922 29.5363 17.803 29.1795 17.803C28.8227 17.803 28.5334 18.0922 28.5334 18.449C28.5334 18.8058 28.8227 19.0951 29.1795 19.0951Z" fill="#1067CD" stroke="black" stroke-width="1.29208" stroke-linecap="round" stroke-linejoin="round"/>
<path d="M33.0574 19.0951C33.4142 19.0951 33.7035 18.8058 33.7035 18.449C33.7035 18.0922 33.4142 17.803 33.0574 17.803C32.7006 17.803 32.4114 18.0922 32.4114 18.449C32.4114 18.8058 32.7006 19.0951 33.0574 19.0951Z" fill="#1067CD" stroke="black" stroke-width="1.29208" stroke-linecap="round" stroke-linejoin="round"/>
<path d="M33.7995 38.0629C33.6333 38.0597 33.4705 38.0148 33.326 37.9324C33.1816 37.8501 33.0601 37.7328 32.9726 37.5913L29.7812 32.3132H22.2806C22.1183 32.3137 21.9584 32.2737 21.8155 32.1969L20.5751 31.5056C20.4075 31.4133 20.2705 31.2741 20.181 31.1051L16.5632 24.102C16.4583 23.9056 16.3018 23.7416 16.1105 23.6277C15.9192 23.5138 15.7004 23.4544 15.4778 23.4559H13.4105C13.1535 23.4559 12.907 23.3538 12.7252 23.1721C12.5435 22.9904 12.4414 22.7439 12.4414 22.4869V21.0333C12.4414 20.7763 12.5435 20.5298 12.7252 20.348C12.907 20.1663 13.1535 20.0642 13.4105 20.0642H15.5553C16.3705 20.0671 17.1691 20.2948 17.8632 20.7222C18.5574 21.1497 19.1202 21.7603 19.4897 22.4869L20.9692 25.3553H29.232C29.6627 25.3553 30.0892 25.4402 30.487 25.6052C30.8848 25.7702 31.2462 26.0121 31.5504 26.3169C31.8546 26.6218 32.0958 26.9836 32.26 27.3817C32.4242 27.7799 32.5083 28.2065 32.5075 28.6372V30.3363L35.841 35.8922C35.9619 36.1088 35.9952 36.3636 35.9339 36.6039C35.8726 36.8443 35.7214 37.052 35.5116 37.1843L34.3035 37.9143C34.1516 38.0076 33.9777 38.0588 33.7995 38.0629ZM29.1803 28.9537V28.7147H22.7199L22.8427 28.9602L29.1803 28.9537Z" fill="#67AEFF"/>
<path d="M13.41 21.0329H15.5549C16.1943 21.0322 16.8215 21.208 17.3675 21.5408C17.9135 21.8736 18.3571 22.3506 18.6494 22.9193L20.4002 26.311H29.2316C29.535 26.311 29.8355 26.3709 30.1157 26.4872C30.396 26.6035 30.6505 26.774 30.8647 26.9888C31.079 27.2037 31.2488 27.4587 31.3643 27.7392C31.4798 28.0198 31.5388 28.3204 31.538 28.6238V30.5943L35.0137 36.344L33.7991 37.0805L30.3234 31.3695H22.2867L21.0398 30.6847L17.422 23.6816C17.2389 23.3253 16.9611 23.0265 16.6192 22.8179C16.2773 22.6093 15.8844 22.4991 15.4838 22.4994H13.4165V21.0329H13.41ZM30.1296 29.9095V28.6174C30.1308 28.4975 30.108 28.3785 30.0625 28.2676C30.017 28.1566 29.9498 28.0559 29.8647 27.9713C29.7805 27.8862 29.6797 27.8194 29.5686 27.7749C29.4575 27.7304 29.3383 27.7094 29.2187 27.7129H21.1302L22.2608 29.8965H30.1231L30.1296 29.9095ZM13.41 19.0947C12.896 19.0947 12.4031 19.2989 12.0396 19.6624C11.6761 20.0259 11.4719 20.5188 11.4719 21.0329V22.4477C11.4719 22.9617 11.6761 23.4547 12.0396 23.8181C12.4031 24.1816 12.896 24.3858 13.41 24.3858H15.4774C15.5242 24.3838 15.5706 24.3955 15.6108 24.4196C15.651 24.4438 15.6833 24.4792 15.7035 24.5215L19.3213 31.5246C19.5029 31.8745 19.7869 32.1607 20.1353 32.345L21.3757 33.0363C21.6637 33.1915 21.9854 33.2736 22.3125 33.2754H29.2316L32.1388 38.0884C32.2706 38.3061 32.4439 38.4958 32.649 38.6465C32.8541 38.7973 33.0868 38.9062 33.334 38.967C33.4861 39.0051 33.6423 39.0246 33.7991 39.0251C34.152 39.0254 34.4982 38.9294 34.8005 38.7473L36.015 38.0108C36.4534 37.7433 36.7676 37.3127 36.8888 36.8137C37.0099 36.3146 36.928 35.7879 36.6611 35.3491L33.4761 30.0774V28.6432C33.477 28.0853 33.3678 27.5327 33.1549 27.0169C32.9419 26.5012 32.6294 26.0326 32.2352 25.6377C31.841 25.2429 31.3728 24.9297 30.8574 24.716C30.342 24.5023 29.7896 24.3923 29.2316 24.3923H21.5825L20.3679 22.0471C19.9161 21.1589 19.2274 20.413 18.378 19.8919C17.5285 19.3708 16.5514 19.0949 15.5549 19.0947H13.41Z" fill="black"/>
<circle cx="5.49135" cy="5.49135" r="5.49135" transform="matrix(-1 0 0 1 25.5178 27.8874)" fill="#F7F6EC"/>
<path d="M20.0248 34.9934C20.9168 34.9934 21.6399 34.2703 21.6399 33.3783C21.6399 32.4863 20.9168 31.7632 20.0248 31.7632C19.1328 31.7632 18.4097 32.4863 18.4097 33.3783C18.4097 34.2703 19.1328 34.9934 20.0248 34.9934Z" fill="black" stroke="black" stroke-width="1.93813" stroke-linecap="round" stroke-linejoin="round"/>
<path d="M34.1693 39.5029C35.7999 39.5029 37.1217 38.1811 37.1217 36.5505C37.1217 34.9199 35.7999 33.5981 34.1693 33.5981C32.5388 33.5981 31.2169 34.9199 31.2169 36.5505C31.2169 38.1811 32.5388 39.5029 34.1693 39.5029Z" fill="black" stroke="black" stroke-width="1.93813" stroke-linecap="round" stroke-linejoin="round"/>
<path d="M34.1671 37.8812C34.9022 37.8812 35.498 37.2853 35.498 36.5503C35.498 35.8153 34.9022 35.2195 34.1671 35.2195C33.4321 35.2195 32.8363 35.8153 32.8363 36.5503C32.8363 37.2853 33.4321 37.8812 34.1671 37.8812Z" fill="#F7F6EC"/>
<path d="M20.0121 26.5951C18.671 26.5979 17.3609 26.998 16.2472 27.7451C15.1335 28.4921 14.2662 29.5525 13.7549 30.7923C13.2436 32.032 13.1113 33.3955 13.3746 34.7104C13.6379 36.0254 14.2851 37.2328 15.2343 38.1801C16.1835 39.1274 17.3922 39.772 18.7077 40.0326C20.0232 40.2933 21.3864 40.1581 22.6251 39.6443C23.8638 39.1305 24.9224 38.261 25.6672 37.1458C26.4119 36.0306 26.8094 34.7196 26.8094 33.3785C26.8094 32.4866 26.6335 31.6033 26.2917 30.7794C25.95 29.9555 25.4491 29.2071 24.8177 28.577C24.1863 27.9469 23.4369 27.4475 22.6123 27.1075C21.7877 26.7674 20.9041 26.5933 20.0121 26.5951ZM20.0121 38.9166C18.9113 38.9166 17.8351 38.5902 16.9198 37.9786C16.0045 37.367 15.2911 36.4977 14.8699 35.4807C14.4486 34.4637 14.3384 33.3446 14.5531 32.2649C14.7679 31.1852 15.298 30.1934 16.0764 29.415C16.8548 28.6366 17.8465 28.1065 18.9262 27.8918C20.0059 27.677 21.125 27.7872 22.1421 28.2085C23.1591 28.6298 24.0284 29.3432 24.64 30.2585C25.2515 31.1738 25.578 32.2499 25.578 33.3507C25.578 34.8269 24.9916 36.2426 23.9478 37.2864C22.904 38.3302 21.4882 38.9166 20.0121 38.9166Z" fill="#F7F6EC" stroke="black" stroke-width="1.93813" stroke-linecap="round" stroke-linejoin="round"/>
<path d="M24.5035 24.5216L22.4168 26.6083C22.1468 26.8789 21.826 27.0935 21.473 27.24C21.1199 27.3864 20.7414 27.4618 20.3592 27.4618C19.9769 27.4618 19.5984 27.3864 19.2453 27.24C18.8923 27.0935 18.5715 26.8789 18.3015 26.6083C18.0312 26.3388 17.8167 26.0187 17.6703 25.6661C17.5239 25.3136 17.4486 24.9356 17.4486 24.5539C17.4486 24.1722 17.5239 23.7942 17.6703 23.4417C17.8167 23.0892 18.0312 22.769 18.3015 22.4995L19.7163 21.0847" fill="#FFD770"/>
<path d="M24.5035 24.5216L22.4168 26.6083C22.1468 26.8789 21.826 27.0935 21.473 27.24C21.1199 27.3864 20.7414 27.4618 20.3592 27.4618C19.9769 27.4618 19.5984 27.3864 19.2453 27.24C18.8923 27.0935 18.5715 26.8789 18.3015 26.6083V26.6083C18.0312 26.3388 17.8167 26.0187 17.6703 25.6661C17.5239 25.3136 17.4486 24.9356 17.4486 24.5539C17.4486 24.1722 17.5239 23.7942 17.6703 23.4417C17.8167 23.0892 18.0312 22.769 18.3015 22.4995L19.7163 21.0847" stroke="black" stroke-width="1.93813" stroke-linecap="round" stroke-linejoin="round"/>
</svg>
