<svg width="20" height="20" viewBox="0 0 20 20" fill="none" xmlns="http://www.w3.org/2000/svg">
<path d="M15.352 3.5C15.5684 3.5 15.7605 3.63909 15.8276 3.84473L17.7866 9.84473C17.8921 10.1679 17.651 10.5 17.311 10.5H16.0005V16C16.0005 16.2761 15.7766 16.5 15.5005 16.5H12.5005C12.2244 16.4999 12.0005 16.2761 12.0005 16V10.5H8.00049V16C8.00049 16.2761 7.77663 16.5 7.50049 16.5H4.50049C4.22443 16.4999 4.00049 16.2761 4.00049 16V10.5H2.68994C2.34996 10.5 2.10883 10.1679 2.21436 9.84473L4.17334 3.84473C4.24047 3.63913 4.43266 3.50008 4.64893 3.5H15.352Z" fill="currentColor"/>
</svg>
