<svg width="30" height="30" viewBox="0 0 30 30" fill="none" xmlns="http://www.w3.org/2000/svg">
<g filter="url(#filter0_d_6927_71680)">
<rect x="5" y="5" width="20" height="20" rx="10" fill="currentColor"/>
<rect x="5" y="5" width="20" height="20" rx="10" stroke="white"/>
<path d="M13.8796 11.0503C14.7624 11.0503 15.478 10.3347 15.478 9.45191C15.478 8.56914 14.7624 7.85352 13.8796 7.85352C12.9969 7.85352 12.2812 8.56914 12.2812 9.45191C12.2812 10.3347 12.9969 11.0503 13.8796 11.0503Z" fill="white"/>
<path d="M20.2659 20.9005L19.0733 16.2727C19.0164 16.0448 18.8099 15.8882 18.5785 15.8882H16.2895L16.0937 14.6885H18.2083C18.6319 14.6885 18.9772 14.3432 18.9772 13.9196C18.9772 13.4959 18.6319 13.1506 18.2083 13.1506H15.8409L15.816 12.9976C15.6772 12.1432 14.9154 11.5309 14.0503 11.5772C12.9183 11.6341 12.16 12.7662 12.5338 13.8341L13.7548 17.3193C13.826 17.5257 14.0218 17.661 14.239 17.661H17.5782L18.6283 21.3419C18.7565 21.7869 19.2157 22.0504 19.6643 21.9293C20.1164 21.8083 20.3834 21.3491 20.2694 20.897L20.2659 20.9005Z" fill="white"/>
<path d="M16.321 19.882C15.7443 20.4374 14.986 20.7399 14.1886 20.7399C13.3912 20.7399 12.5938 20.4196 12.0099 19.8393C11.4297 19.259 11.1093 18.483 11.1093 17.6606C11.1093 16.8383 11.4083 16.1156 11.953 15.5425C12.22 15.2613 12.2093 14.8163 11.9281 14.5493C11.6468 14.2823 11.2018 14.293 10.9348 14.5742C10.141 15.4108 9.70312 16.5072 9.70312 17.6606C9.70312 18.2658 9.8206 18.8532 10.0556 19.4085C10.2798 19.9425 10.6038 20.4231 11.0167 20.8325C11.4297 21.2454 11.9067 21.5658 12.4407 21.7937C12.9925 22.0286 13.5834 22.1461 14.1886 22.1461C15.3527 22.1461 16.4562 21.7011 17.2964 20.893C17.5776 20.6225 17.5847 20.1775 17.3177 19.8998C17.0507 19.6221 16.6022 19.6115 16.3245 19.8784L16.321 19.882Z" fill="white"/>
</g>
<defs>
<filter id="filter0_d_6927_71680" x="0.5" y="0.5" width="29" height="29" filterUnits="userSpaceOnUse" color-interpolation-filters="sRGB">
<feFlood flood-opacity="0" result="BackgroundImageFix"/>
<feColorMatrix in="SourceAlpha" type="matrix" values="0 0 0 0 0 0 0 0 0 0 0 0 0 0 0 0 0 0 127 0" result="hardAlpha"/>
<feOffset/>
<feGaussianBlur stdDeviation="2"/>
<feComposite in2="hardAlpha" operator="out"/>
<feColorMatrix type="matrix" values="0 0 0 0 0.43136 0 0 0 0 0.43136 0 0 0 0 0.43136 0 0 0 0.2 0"/>
<feBlend mode="normal" in2="BackgroundImageFix" result="effect1_dropShadow_6927_71680"/>
<feBlend mode="normal" in="SourceGraphic" in2="effect1_dropShadow_6927_71680" result="shape"/>
</filter>
</defs>
</svg>
