<svg width="16" height="16" viewBox="0 0 16 16" fill="none" xmlns="http://www.w3.org/2000/svg">
<path d="M11.5866 9.72C11.4646 9.66855 11.33 9.65463 11.2 9.68C11.1581 9.68689 11.1176 9.70039 11.08 9.72C11.0376 9.73487 10.9973 9.75503 10.96 9.78L10.86 9.86C10.7382 9.98776 10.6691 10.1568 10.6666 10.3333C10.6661 10.4211 10.683 10.508 10.7161 10.5893C10.7493 10.6705 10.7982 10.7444 10.86 10.8067C10.9247 10.8674 10.999 10.917 11.08 10.9533C11.202 11.0036 11.3362 11.0164 11.4656 10.9903C11.5949 10.9642 11.7136 10.9003 11.8066 10.8067C11.865 10.7415 11.9123 10.6672 11.9466 10.5867C11.984 10.5075 12.0022 10.4208 12 10.3333C11.9975 10.1568 11.9285 9.98776 11.8066 9.86C11.7445 9.79777 11.6694 9.74998 11.5866 9.72ZM13.3333 7.12V5C13.3333 4.46957 13.1226 3.96086 12.7475 3.58579C12.3725 3.21072 11.8637 3 11.3333 3H10.8133L10.3 1.45334C10.2553 1.32092 10.17 1.20591 10.0564 1.12456C9.94275 1.04321 9.80641 0.999641 9.66665 1H6.33331C6.19355 0.999641 6.05721 1.04321 5.94356 1.12456C5.82991 1.20591 5.7447 1.32092 5.69998 1.45334L5.18665 3H4.66665C4.13621 3 3.62751 3.21072 3.25243 3.58579C2.87736 3.96086 2.66665 4.46957 2.66665 5V7.12C2.27761 7.25754 1.94065 7.51205 1.70194 7.84863C1.46323 8.1852 1.33447 8.58737 1.33331 9V13C1.33331 13.1768 1.40355 13.3464 1.52858 13.4714C1.6536 13.5964 1.82317 13.6667 1.99998 13.6667H2.66665V14.3333C2.66665 14.5101 2.73688 14.6797 2.86191 14.8047C2.98693 14.9298 3.1565 15 3.33331 15C3.51012 15 3.67969 14.9298 3.80472 14.8047C3.92974 14.6797 3.99998 14.5101 3.99998 14.3333V13.6667H12V14.3333C12 14.5101 12.0702 14.6797 12.1952 14.8047C12.3203 14.9298 12.4898 15 12.6666 15C12.8435 15 13.013 14.9298 13.1381 14.8047C13.2631 14.6797 13.3333 14.5101 13.3333 14.3333V13.6667H14C14.1768 13.6667 14.3464 13.5964 14.4714 13.4714C14.5964 13.3464 14.6666 13.1768 14.6666 13V9C14.6655 8.58737 14.5367 8.1852 14.298 7.84863C14.0593 7.51205 13.7223 7.25754 13.3333 7.12ZM6.81331 2.33334H9.18665L9.40665 3H6.59331L6.81331 2.33334ZM3.99998 5C3.99998 4.82319 4.07022 4.65362 4.19524 4.5286C4.32027 4.40357 4.48984 4.33334 4.66665 4.33334H11.3333C11.5101 4.33334 11.6797 4.40357 11.8047 4.5286C11.9297 4.65362 12 4.82319 12 5V7H3.99998V5ZM13.3333 12.3333H2.66665V9C2.66665 8.82319 2.73688 8.65362 2.86191 8.5286C2.98693 8.40357 3.1565 8.33334 3.33331 8.33334H12.6666C12.8435 8.33334 13.013 8.40357 13.1381 8.5286C13.2631 8.65362 13.3333 8.82319 13.3333 9V12.3333ZM4.41331 9.72C4.33148 9.75173 4.25672 9.79931 4.19331 9.86C4.07149 9.98776 4.00244 10.1568 3.99998 10.3333C3.99943 10.4431 4.02598 10.5513 4.07729 10.6483C4.12859 10.7453 4.20305 10.8282 4.29407 10.8895C4.38508 10.9509 4.48984 10.9888 4.59902 10.9999C4.70821 11.011 4.81846 10.995 4.91998 10.9533C5.00094 10.917 5.07529 10.8674 5.13998 10.8067C5.20177 10.7444 5.25065 10.6705 5.28383 10.5893C5.317 10.508 5.33382 10.4211 5.33331 10.3333C5.33086 10.1568 5.2618 9.98776 5.13998 9.86C5.04623 9.7675 4.92718 9.70483 4.79786 9.67992C4.66853 9.655 4.53472 9.66895 4.41331 9.72ZM8.66665 9.66667H7.33331C7.1565 9.66667 6.98693 9.73691 6.86191 9.86193C6.73688 9.98696 6.66665 10.1565 6.66665 10.3333C6.66665 10.5101 6.73688 10.6797 6.86191 10.8047C6.98693 10.9298 7.1565 11 7.33331 11H8.66665C8.84346 11 9.01303 10.9298 9.13805 10.8047C9.26307 10.6797 9.33331 10.5101 9.33331 10.3333C9.33331 10.1565 9.26307 9.98696 9.13805 9.86193C9.01303 9.73691 8.84346 9.66667 8.66665 9.66667Z" fill="white"/>
</svg>
