<svg width="24" height="24" viewBox="-1.9 -2.5 24 24" fill="none" xmlns="http://www.w3.org/2000/svg">
  <path d="M3.2 5.2H2C1.17157 5.2 0.5 5.87157 0.5 6.7V16.996C0.5 17.8244 1.17157 18.496 2 18.496H3.2C4.02843 18.496 4.7 17.8244 4.7 16.996V6.7C4.7 5.87157 4.02843 5.2 3.2 5.2Z" fill="#0950BD" stroke="#16181C" stroke-linecap="round" stroke-linejoin="round"/>
  <path d="M5.29553 7.526V15.496C5.29553 16.2916 5.6116 17.0547 6.17421 17.6173C6.73682 18.1799 7.49988 18.496 8.29553 18.496H15.1685C15.717 18.496 16.2502 18.3157 16.686 17.9829C17.1219 17.65 17.4362 17.1831 17.5805 16.654L19.5385 9.466C19.6395 9.09518 19.6537 8.70607 19.5799 8.32889C19.5061 7.95172 19.3463 7.59664 19.113 7.29124C18.8796 6.98584 18.579 6.73835 18.2345 6.568C17.89 6.39765 17.5109 6.30902 17.1265 6.309H13.0315V2.5C13.0315 1.96957 12.8208 1.46086 12.4457 1.08579C12.0707 0.710714 11.562 0.5 11.0315 0.5H10.9955C10.6644 0.500055 10.3385 0.582314 10.047 0.739396C9.75556 0.896479 9.50764 1.12347 9.32553 1.4L5.29553 7.526Z" fill="#67AEFF" stroke="#16181C" stroke-linecap="round" stroke-linejoin="round"/>
</svg>
