<svg preserveAspectRatio="none"  viewBox="0 0 25.5003 27.727" fill="none" xmlns="http://www.w3.org/2000/svg">
<path id="Vector 2102" d="M25.4685 0.965751C25.5875 0.569014 25.3624 0.150888 24.9657 0.0318406C24.569 -0.0872064 24.1508 0.137906 24.0318 0.534644L24.7501 0.750197L25.4685 0.965751ZM0.0913804 23.3917C-0.106622 23.7555 0.027804 24.211 0.391628 24.409L6.32049 27.6356C6.68431 27.8336 7.13976 27.6992 7.33776 27.3353C7.53577 26.9715 7.40134 26.5161 7.03752 26.3181L1.76742 23.45L4.63553 18.1799C4.83353 17.816 4.69911 17.3606 4.33528 17.1626C3.97146 16.9646 3.51601 17.099 3.31801 17.4628L0.0913804 23.3917ZM3.09719 23.8636C3.49654 23.7536 3.73111 23.3407 3.62112 22.9413C3.51113 22.542 3.09824 22.3074 2.69889 22.4174L2.89804 23.1405L3.09719 23.8636ZM6.97819 21.22C6.58165 21.3397 6.35723 21.7582 6.47693 22.1547C6.59664 22.5512 7.01513 22.7757 7.41167 22.656L7.19493 21.938L6.97819 21.22ZM11.6937 21.0784C12.0696 20.9043 12.2331 20.4585 12.059 20.0826C11.8849 19.7068 11.439 19.5432 11.0632 19.7174L11.3785 20.3979L11.6937 21.0784ZM14.7008 17.4846C14.3779 17.7442 14.3267 18.2163 14.5862 18.5391C14.8458 18.8619 15.3179 18.9132 15.6407 18.6536L15.1707 18.0691L14.7008 17.4846ZM18.862 15.3344C19.115 15.0064 19.0542 14.5354 18.7262 14.2825C18.3982 14.0295 17.9272 14.0904 17.6742 14.4184L18.2681 14.8764L18.862 15.3344ZM20.0086 10.7629C19.8129 11.1279 19.9502 11.5825 20.3153 11.7782C20.6803 11.9739 21.1349 11.8367 21.3306 11.4716L20.6696 11.1172L20.0086 10.7629ZM23.2448 7.35982C23.401 6.97622 23.2167 6.53856 22.8331 6.38229C22.4495 6.22602 22.0119 6.41032 21.8556 6.79392L22.5502 7.07687L23.2448 7.35982ZM23.3671 2.65228C23.2377 3.04578 23.4518 3.46963 23.8453 3.59898C24.2388 3.72833 24.6627 3.51419 24.792 3.12069L24.0795 2.88648L23.3671 2.65228ZM0.750143 23.7502L0.96245 24.4695C1.68864 24.2552 2.39951 24.0557 3.09719 23.8636L2.89804 23.1405L2.69889 22.4174C1.99682 22.6108 1.27627 22.8129 0.537835 23.0309L0.750143 23.7502ZM7.19493 21.938L7.41167 22.656C8.89643 22.2078 10.3247 21.7126 11.6937 21.0784L11.3785 20.3979L11.0632 19.7174C9.78283 20.3105 8.42819 20.7823 6.97819 21.22L7.19493 21.938ZM15.1707 18.0691L15.6407 18.6536C16.7655 17.7493 17.8369 16.6636 18.862 15.3344L18.2681 14.8764L17.6742 14.4184C16.718 15.6582 15.7289 16.6579 14.7008 17.4846L15.1707 18.0691ZM20.6696 11.1172L21.3306 11.4716C21.987 10.2472 22.6241 8.88334 23.2448 7.35982L22.5502 7.07687L21.8556 6.79392C21.2521 8.27532 20.637 9.59078 20.0086 10.7629L20.6696 11.1172ZM24.0795 2.88648L24.792 3.12069C25.0195 2.42886 25.2449 1.71093 25.4685 0.965751L24.7501 0.750197L24.0318 0.534644C23.8117 1.26804 23.5902 1.97351 23.3671 2.65228L24.0795 2.88648Z" fill="currentColor"/>
</svg>
