<svg width="16" height="16" viewBox="0 0 16 16" fill="none" xmlns="http://www.w3.org/2000/svg">
<path d="M3.82197 4.80072H3.02197C2.46969 4.80072 2.02197 5.24844 2.02197 5.80072V12.6647C2.02197 13.217 2.46969 13.6647 3.02197 13.6647H3.82197C4.37426 13.6647 4.82197 13.217 4.82197 12.6647V5.80072C4.82197 5.24844 4.37426 4.80072 3.82197 4.80072Z" fill="#232328"/>
<path d="M5.26831 6.35069V11.664C5.26831 12.1945 5.47902 12.7032 5.8541 13.0782C6.22917 13.4533 6.73788 13.664 7.26831 13.664H11.8503C12.2159 13.664 12.5714 13.5438 12.862 13.3219C13.1525 13.1 13.3621 12.7887 13.4583 12.436L14.7636 7.64402C14.831 7.39681 14.8404 7.1374 14.7912 6.88595C14.742 6.6345 14.6355 6.39778 14.4799 6.19418C14.3244 5.99058 14.124 5.82559 13.8943 5.71202C13.6646 5.59845 13.4119 5.53937 13.1556 5.53935H10.4256V3.00002C10.4256 2.6464 10.2852 2.30726 10.0351 2.05721C9.78507 1.80716 9.44593 1.66669 9.09231 1.66669H9.06831C8.84757 1.66672 8.6303 1.72156 8.43598 1.82628C8.24166 1.93101 8.07638 2.08233 7.95498 2.26669L5.26831 6.35069Z" fill="#232328"/>
</svg>
