<svg width="33" height="33" viewBox="0 0 33 33" fill="none" xmlns="http://www.w3.org/2000/svg">
<path d="M22.7364 21.4016L20.865 14.0868C20.7108 13.4847 20.3183 12.9422 19.7506 12.5547C19.1899 12.1672 18.475 11.9526 17.7531 11.9526H14.7324C14.0105 11.9526 13.2956 12.1672 12.7349 12.5547C12.1742 12.9422 11.7747 13.4847 11.6205 14.0868L9.74913 21.4016C9.66502 21.7414 9.75613 22.0931 10.0155 22.3614C10.2748 22.6296 10.6533 22.7906 11.0668 22.7906H12.5456C12.7559 22.7906 12.9381 22.9158 12.9802 23.0887L14.3399 28.293C14.5431 29.0561 15.3211 29.5926 16.2462 29.5926C17.1714 29.5926 17.9494 29.0561 18.1526 28.293L19.5123 23.0887C19.5544 22.9158 19.7366 22.7906 19.9469 22.7906H21.4257C21.8322 22.7906 22.2177 22.6356 22.477 22.3614C22.7364 22.0931 22.8345 21.7414 22.7434 21.4016H22.7364Z" fill="#FF6363" stroke="black" stroke-width="1.5"/>
<path d="M16.2485 10.0756C17.9865 10.0756 19.3954 8.66668 19.3954 6.92867C19.3954 5.19067 17.9865 3.78174 16.2485 3.78174C14.5105 3.78174 13.1016 5.19067 13.1016 6.92867C13.1016 8.66668 14.5105 10.0756 16.2485 10.0756Z" fill="#FF6363" stroke="black" stroke-width="1.5"/>
</svg>
