<svg width="33" height="33" viewBox="0 0 33 33" fill="none" xmlns="http://www.w3.org/2000/svg">
<path d="M13.8033 12.8463C13.4038 12.268 12.7718 11.9341 12.0742 11.9341H5.53951C4.83596 11.9341 4.20395 12.268 3.81043 12.8463C3.41096 13.4247 3.32748 14.1342 3.58386 14.79L6.80353 23.1671C6.82142 23.2089 6.82738 23.2566 6.82738 23.3043V27.5972C6.82738 28.6883 7.71577 29.5767 8.80688 29.5767C9.89799 29.5767 10.7864 28.6883 10.7864 27.5972V23.3043C10.7864 23.2566 10.7923 23.2089 10.8102 23.1671L14.0299 14.79C14.2803 14.1342 14.1968 13.4247 13.8033 12.8463Z" fill="#67AEFF" stroke="black" stroke-width="1.5"/>
<path d="M8.8024 10.0594C10.54 10.0594 11.9485 8.65081 11.9485 6.91324C11.9485 5.17567 10.54 3.76709 8.8024 3.76709C7.06483 3.76709 5.65625 5.17567 5.65625 6.91324C5.65625 8.65081 7.06483 10.0594 8.8024 10.0594Z" fill="#67AEFF" stroke="black" stroke-width="1.5"/>
<path d="M29.0332 21.3855L27.1619 14.0707C27.0077 13.4686 26.6152 12.9261 26.0475 12.5386C25.4868 12.1511 24.7719 11.9365 24.05 11.9365H21.0292C20.3073 11.9365 19.5924 12.1511 19.0317 12.5386C18.471 12.9261 18.0715 13.4686 17.9173 14.0707L16.046 21.3855C15.9619 21.7253 16.053 22.077 16.3123 22.3453C16.5717 22.6135 16.9501 22.7745 17.3636 22.7745H18.8425C19.0528 22.7745 19.235 22.8997 19.277 23.0726L20.6367 28.2769C20.84 29.04 21.618 29.5765 22.5431 29.5765C23.4683 29.5765 24.2463 29.04 24.4495 28.2769L25.8092 23.0726C25.8513 22.8997 26.0335 22.7745 26.2437 22.7745H27.7226C28.1291 22.7745 28.5146 22.6195 28.7739 22.3453C29.0332 22.077 29.1314 21.7253 29.0402 21.3855H29.0332Z" fill="#FF6363" stroke="black" stroke-width="1.5"/>
<path d="M22.5454 10.0595C24.2834 10.0595 25.6923 8.65056 25.6923 6.91256C25.6923 5.17456 24.2834 3.76562 22.5454 3.76562C20.8074 3.76562 19.3984 5.17456 19.3984 6.91256C19.3984 8.65056 20.8074 10.0595 22.5454 10.0595Z" fill="#FF6363" stroke="black" stroke-width="1.5"/>
</svg>
