<svg width="20" height="20" viewBox="-0.25 -0.25 13.5 12.5" fill="none" xmlns="http://www.w3.org/2000/svg">
  <path d="M1 3.63333H1.7998C2.07595 3.63333 2.2998 3.85719 2.2998 4.13333V10.9976C2.29967 11.2736 2.07586 11.4976 1.7998 11.4976H1C0.723944 11.4976 0.500139 11.2736 0.5 10.9976V4.13333C0.5 3.85719 0.723858 3.63333 1 3.63333Z" fill="#073C8B" stroke="#16181C" stroke-linecap="round" stroke-linejoin="round"/>
  <path d="M6.99683 0.5H7.02124C7.24215 0.500058 7.45388 0.587946 7.61011 0.744141C7.76631 0.900344 7.85416 1.11211 7.85425 1.33301V3.87305C7.85445 4.14898 8.07828 4.37299 8.35425 4.37305H11.0847C11.2639 4.37312 11.4407 4.41379 11.6013 4.49316C11.7621 4.57266 11.9026 4.68854 12.0115 4.83105C12.1203 4.97356 12.1948 5.13945 12.2292 5.31543C12.2636 5.49134 12.2568 5.67275 12.2097 5.8457L10.905 10.6377C10.8377 10.8846 10.6905 11.1025 10.4871 11.2578C10.2837 11.4131 10.035 11.4971 9.77905 11.4971H5.19702C4.7992 11.4971 4.41778 11.3389 4.13647 11.0576C3.85525 10.7763 3.69702 10.3948 3.69702 9.99707V4.83398L6.30151 0.875C6.37739 0.75983 6.48089 0.665039 6.60229 0.599609C6.72357 0.534331 6.8591 0.500069 6.99683 0.5Z" fill="white" stroke="#16181C" stroke-linecap="round" stroke-linejoin="round"/>
</svg>
