<svg width="24" height="24" viewBox="-2.2 -2.5 24 24" fill="none" xmlns="http://www.w3.org/2000/svg">
  <path d="M3.2 5.201H2C1.17157 5.201 0.5 5.87257 0.5 6.701V16.997C0.5 17.8254 1.17157 18.497 2 18.497H3.2C4.02843 18.497 4.7 17.8254 4.7 16.997V6.701C4.7 5.87257 4.02843 5.201 3.2 5.201Z" stroke="#16181C" stroke-linecap="round" stroke-linejoin="round"/>
  <path d="M4.7 7.526V15.496C4.7 16.2916 5.01607 17.0547 5.57868 17.6173C6.14129 18.1799 6.90435 18.496 7.7 18.496H14.573C15.1214 18.496 15.6546 18.3157 16.0905 17.9829C16.5263 17.65 16.8407 17.1831 16.985 16.654L18.943 9.466C19.044 9.09518 19.0581 8.70607 18.9843 8.32889C18.9105 7.95172 18.7508 7.59664 18.5174 7.29124C18.2841 6.98584 17.9835 6.73835 17.639 6.568C17.2945 6.39765 16.9153 6.30902 16.531 6.309H12.436V2.5C12.436 1.96957 12.2253 1.46086 11.8502 1.08579C11.4751 0.710714 10.9664 0.5 10.436 0.5H10.4C10.0689 0.500055 9.74298 0.582314 9.4515 0.739396C9.16003 0.896479 8.91211 1.12347 8.73 1.4L4.7 7.526Z" stroke="#16181C" stroke-linecap="round" stroke-linejoin="round"/>
</svg>
