<svg width="33" height="33" viewBox="0 0 33 33" fill="none" xmlns="http://www.w3.org/2000/svg">
<g clip-path="url(#clip0_6911_26369)">
<rect x="4.25" y="4.46533" width="24" height="24" rx="4" fill="white"/>
<rect x="4.25" y="4.46533" width="24" height="24" rx="4" fill="white" stroke="black" stroke-width="2.66667"/>
<path d="M17.6453 21.4359C17.6453 21.8603 17.4767 22.2673 17.1767 22.5673C16.8766 22.8674 16.4697 23.0359 16.0453 23.0359C15.621 23.0359 15.214 22.8674 14.9139 22.5673C14.6139 22.2673 14.4453 21.8603 14.4453 21.4359C14.4453 21.0116 14.6139 20.6046 14.9139 20.3046C15.214 20.0045 15.621 19.8359 16.0453 19.8359C16.4697 19.8359 16.8766 20.0045 17.1767 20.3046C17.4767 20.6046 17.6453 21.0116 17.6453 21.4359Z" fill="black"/>
<path fill-rule="evenodd" clip-rule="evenodd" d="M16.0217 12.2775C15.4857 12.2775 15.0257 12.4375 14.7017 12.6663C14.3897 12.8871 14.2353 13.1439 14.1905 13.3655C14.1243 13.6617 13.9447 13.9202 13.6901 14.0855C13.4355 14.2507 13.1263 14.3097 12.8288 14.2496C12.5313 14.1895 12.2692 14.0152 12.0987 13.7641C11.9282 13.5129 11.863 13.205 11.9169 12.9063C12.0985 12.0055 12.6569 11.2703 13.3641 10.7703C14.1001 10.2503 15.0329 9.95752 16.0217 9.95752C18.0673 9.95752 20.1881 11.3255 20.1881 13.5223C20.1881 14.7943 19.4321 15.8231 18.4529 16.4231C18.1905 16.5837 17.8749 16.6335 17.5758 16.5615C17.2766 16.4895 17.0183 16.3016 16.8577 16.0391C16.6971 15.7767 16.6473 15.4611 16.7193 15.162C16.7914 14.8628 16.9793 14.6045 17.2417 14.4439C17.6977 14.1647 17.8681 13.8087 17.8681 13.5223C17.8681 13.0631 17.2961 12.2775 16.0217 12.2775Z" fill="black"/>
<path fill-rule="evenodd" clip-rule="evenodd" d="M16.0194 15.3696C16.6594 15.3696 17.1794 15.888 17.1794 16.5296V17.7312C17.1794 18.0389 17.0572 18.3339 16.8396 18.5515C16.6221 18.769 16.327 18.8912 16.0194 18.8912C15.7117 18.8912 15.4167 18.769 15.1991 18.5515C14.9816 18.3339 14.8594 18.0389 14.8594 17.7312V16.5296C14.8594 15.8896 15.3786 15.3696 16.0194 15.3696Z" fill="black"/>
<path fill-rule="evenodd" clip-rule="evenodd" d="M18.8426 14.8382C18.921 14.969 18.9728 15.1139 18.9951 15.2647C19.0174 15.4156 19.0097 15.5693 18.9726 15.7171C18.9354 15.865 18.8695 16.0041 18.7786 16.1264C18.6876 16.2488 18.5735 16.352 18.4426 16.4302L16.6154 17.5238C16.3515 17.6819 16.0355 17.7286 15.7371 17.6538C15.4387 17.5789 15.1823 17.3886 15.0242 17.1246C14.8661 16.8607 14.8194 16.5448 14.8942 16.2463C14.9691 15.9479 15.1595 15.6915 15.4234 15.5334L17.2514 14.439C17.3821 14.3608 17.527 14.3091 17.6777 14.2868C17.8285 14.2646 17.9821 14.2723 18.1299 14.3094C18.2776 14.3466 18.4166 14.4125 18.5389 14.5033C18.6612 14.5942 18.7644 14.7075 18.8426 14.8382Z" fill="black"/>
</g>
<rect x="4.25" y="4.46533" width="24" height="24" rx="4" stroke="black" stroke-width="1.5" stroke-linejoin="round"/>
<defs>
<clipPath id="clip0_6911_26369">
<rect x="4.25" y="4.46533" width="24" height="24" rx="4" fill="white"/>
</clipPath>
</defs>
</svg>
