<svg width="33" height="33" viewBox="0 0 33 33" fill="none" xmlns="http://www.w3.org/2000/svg">
<rect x="11.7031" y="4.55322" width="13.657" height="23.8248" rx="2" fill="#67AEFF" stroke="black" stroke-width="1.5"/>
<path d="M4.23438 28.3779H28.2637" stroke="black" stroke-width="1.5" stroke-linecap="round"/>
<rect x="5.89844" y="4.55273" width="13.928" height="23.8248" rx="2" fill="white" stroke="black" stroke-width="1.5"/>
<path fill-rule="evenodd" clip-rule="evenodd" d="M23.8264 7.17247C23.4572 6.80588 22.8616 7.08947 22.8616 7.63187V9.48954H19.5312C18.979 9.48954 18.5312 9.93725 18.5312 10.4895V12.241C18.5312 12.7933 18.979 13.241 19.5312 13.241H22.8616V15.3413C22.8616 15.8837 23.4572 16.1673 23.8264 15.8007L27.2464 12.4054C27.7441 11.9113 27.7441 11.0619 27.2464 10.5678L23.8264 7.17247Z" fill="black"/>
<path fill-rule="evenodd" clip-rule="evenodd" d="M22.8616 13.241H19.5312C18.979 13.241 18.5312 12.7933 18.5312 12.241V10.4895C18.5312 9.93723 18.979 9.48951 19.5312 9.48951H22.8616V7.63185C22.8616 7.08944 23.4572 6.80585 23.8264 7.17244L27.2464 10.5678C27.7441 11.0618 27.7441 11.9113 27.2464 12.4054L23.8264 15.8007C23.4572 16.1673 22.8616 15.8837 22.8616 15.3413V13.241ZM21.3616 14.741V15.3413C21.3616 16.1958 21.8475 16.9266 22.5607 17.2662C23.2896 17.6132 24.2205 17.5232 24.8832 16.8652L28.3032 13.4699C29.3918 12.3892 29.3918 10.584 28.3032 9.50327L24.8833 6.10795C24.2205 5.44997 23.2896 5.35987 22.5607 5.70695C21.8476 6.04651 21.3616 6.77731 21.3616 7.63185V7.98951H19.5312C18.1505 7.98951 17.0312 9.1088 17.0312 10.4895V12.241C17.0312 13.6217 18.1505 14.741 19.5312 14.741H21.3616Z" fill="white"/>
<circle cx="16.0078" cy="16.4658" r="1.5" fill="black"/>
</svg>
