<svg width="33" height="32" viewBox="0 0 33 32" fill="none" xmlns="http://www.w3.org/2000/svg">
<rect x="4.59375" y="3.99316" width="24" height="24" rx="4" fill="white" stroke="black" stroke-width="1.5"/>
<g clip-path="url(#clip0_7367_69106)">
<rect x="4.59375" y="3.99316" width="24" height="24" rx="4" fill="white"/>
<rect x="4.59375" y="3.99316" width="24" height="24" rx="4" fill="#67AEFF" stroke="black" stroke-width="1.5"/>
<mask id="path-4-outside-1_7367_69106" maskUnits="userSpaceOnUse" x="9.09375" y="16.793" width="21" height="12" fill="black">
<rect fill="white" x="9.09375" y="16.793" width="21" height="12"/>
<path fill-rule="evenodd" clip-rule="evenodd" d="M15.2937 18.793C15.1833 18.793 15.0937 18.8825 15.0937 18.993L15.0938 22.793C15.0938 22.9034 15.0042 22.993 14.8937 22.993L11.2938 22.993C11.1833 22.993 11.0938 23.0825 11.0938 23.193V26.993C11.0938 27.1034 11.1833 27.193 11.2938 27.193H27.8937C28.0042 27.193 28.0938 27.1034 28.0938 26.993V22.993V18.993C28.0938 18.8825 28.0042 18.793 27.8937 18.793H15.2937Z"/>
</mask>
<path fill-rule="evenodd" clip-rule="evenodd" d="M15.2937 18.793C15.1833 18.793 15.0937 18.8825 15.0937 18.993L15.0938 22.793C15.0938 22.9034 15.0042 22.993 14.8937 22.993L11.2938 22.993C11.1833 22.993 11.0938 23.0825 11.0938 23.193V26.993C11.0938 27.1034 11.1833 27.193 11.2938 27.193H27.8937C28.0042 27.193 28.0938 27.1034 28.0938 26.993V22.993V18.993C28.0938 18.8825 28.0042 18.793 27.8937 18.793H15.2937Z" fill="white"/>
<path d="M11.2938 22.993L11.2938 21.493L11.2938 22.993ZM15.0937 18.993L13.5937 18.993L15.0937 18.993ZM14.8937 22.993L14.8938 21.493L14.8937 22.993ZM16.5938 22.793L16.5937 18.993L13.5937 18.993L13.5938 22.793L16.5938 22.793ZM11.2937 24.493L14.8937 24.493L14.8938 21.493L11.2938 21.493L11.2937 24.493ZM12.5938 26.993V23.193H9.59375V26.993H12.5938ZM27.8937 25.693H11.2938V28.693H27.8937V25.693ZM26.5938 22.993V26.993H29.5938V22.993H26.5938ZM26.5938 18.993V22.993H29.5938V18.993H26.5938ZM15.2937 20.293H27.8937V17.293H15.2937V20.293ZM29.5938 18.993C29.5938 18.0541 28.8326 17.293 27.8937 17.293V20.293C27.1758 20.293 26.5938 19.7109 26.5938 18.993H29.5938ZM27.8937 28.693C28.8326 28.693 29.5938 27.9318 29.5938 26.993H26.5938C26.5938 26.275 27.1758 25.693 27.8937 25.693V28.693ZM9.59375 26.993C9.59375 27.9319 10.3549 28.693 11.2938 28.693V25.693C12.0117 25.693 12.5938 26.275 12.5938 26.993H9.59375ZM11.2938 21.493C10.3549 21.493 9.59375 22.2541 9.59375 23.193H12.5938C12.5938 23.9109 12.0117 24.493 11.2937 24.493L11.2938 21.493ZM16.5937 18.993C16.5937 19.7109 16.0117 20.293 15.2937 20.293V17.293C14.3549 17.293 13.5937 18.0541 13.5937 18.993L16.5937 18.993ZM13.5938 22.793C13.5938 22.075 14.1758 21.493 14.8938 21.493L14.8937 24.493C15.8326 24.493 16.5938 23.7319 16.5938 22.793L13.5938 22.793Z" fill="black" mask="url(#path-4-outside-1_7367_69106)"/>
</g>
<rect x="4.59375" y="3.99316" width="24" height="24" rx="4" stroke="black" stroke-width="1.5" stroke-linejoin="round"/>
<defs>
<clipPath id="clip0_7367_69106">
<rect x="4.59375" y="3.99316" width="24" height="24" rx="4" fill="white"/>
</clipPath>
</defs>
</svg>
