<svg width="17" height="16" viewBox="0 0 17 16" fill="none" xmlns="http://www.w3.org/2000/svg">
<path d="M4.16304 4.80078H3.36304C2.81075 4.80078 2.36304 5.2485 2.36304 5.80078V12.6648C2.36304 13.2171 2.81075 13.6648 3.36304 13.6648H4.16304C4.71532 13.6648 5.16304 13.2171 5.16304 12.6648V5.80078C5.16304 5.2485 4.71532 4.80078 4.16304 4.80078Z" stroke="#7A7A88" stroke-linecap="round" stroke-linejoin="round"/>
<path d="M5.16309 6.35075V11.6641C5.16309 12.1945 5.3738 12.7032 5.74887 13.0783C6.12395 13.4534 6.63265 13.6641 7.16309 13.6641H11.7451C12.1107 13.6641 12.4662 13.5439 12.7567 13.322C13.0473 13.1001 13.2569 12.7888 13.3531 12.4361L14.6584 7.64408C14.7258 7.39687 14.7352 7.13746 14.686 6.88601C14.6368 6.63456 14.5303 6.39784 14.3747 6.19424C14.2192 5.99064 14.0188 5.82565 13.7891 5.71208C13.5594 5.59851 13.3066 5.53943 13.0504 5.53941H10.3204V3.00008C10.3204 2.64646 10.1799 2.30732 9.9299 2.05727C9.67985 1.80722 9.34071 1.66675 8.98709 1.66675H8.96309C8.74235 1.66678 8.52507 1.72162 8.33075 1.82635C8.13644 1.93107 7.97116 2.08239 7.84975 2.26675L5.16309 6.35075Z" stroke="#7A7A88" stroke-linecap="round" stroke-linejoin="round"/>
</svg>
