<svg width="33" height="33" viewBox="0 0 33 33" fill="none" xmlns="http://www.w3.org/2000/svg">
<path d="M21.2486 12.8624C20.8492 12.2841 20.2171 11.9502 19.5196 11.9502H12.9848C12.2813 11.9502 11.6493 12.2841 11.2557 12.8624C10.8563 13.4408 10.7728 14.1503 11.0292 14.8062L14.2488 23.1833C14.2667 23.225 14.2727 23.2727 14.2727 23.3204V27.6133C14.2727 28.7044 15.1611 29.5928 16.2522 29.5928C17.3433 29.5928 18.2317 28.7044 18.2317 27.6133V23.3204C18.2317 23.2727 18.2377 23.225 18.2555 23.1833L21.4752 14.8062C21.7256 14.1503 21.6421 13.4408 21.2486 12.8624Z" fill="#67AEFF" stroke="black" stroke-width="1.5"/>
<path d="M16.2477 10.0755C17.9853 10.0755 19.3939 8.66692 19.3939 6.92935C19.3939 5.19178 17.9853 3.7832 16.2477 3.7832C14.5101 3.7832 13.1016 5.19178 13.1016 6.92935C13.1016 8.66692 14.5101 10.0755 16.2477 10.0755Z" fill="#67AEFF" stroke="black" stroke-width="1.5"/>
</svg>
