<svg width="33" height="33" viewBox="0 0 33 33" fill="none" xmlns="http://www.w3.org/2000/svg">
<g clip-path="url(#clip0_6911_26312)">
<rect x="12.3203" y="4.55322" width="13.657" height="23.8248" rx="2" fill="#67AEFF" stroke="black" stroke-width="1.5"/>
<rect x="6.51562" y="4.55273" width="13.928" height="23.8248" rx="2" fill="white" stroke="black" stroke-width="1.5"/>
<path d="M4.23438 28.3779H28.2637" stroke="black" stroke-width="1.5" stroke-linecap="round"/>
<circle cx="6.06717" cy="16.2513" r="1.2078" fill="white"/>
<path fill-rule="evenodd" clip-rule="evenodd" d="M22.4986 19.9107C22.4731 20.9096 21.6553 21.7116 20.6502 21.7116H19.1348C18.1195 21.7116 17.2953 20.8931 17.2859 19.88C17.0848 20.1752 16.8426 20.4451 16.5615 20.6841C15.6539 21.4557 14.472 21.7969 13.2589 21.8002L13.2498 21.8002C12.3712 21.7979 11.5098 21.6189 10.7574 21.2268C10.433 21.5251 9.99878 21.7116 9.50869 21.7116H7.84675C7.05909 21.7116 6.36091 21.2131 6.10208 20.4749C5.84333 21.2129 5.14526 21.7116 4.3574 21.7116H2.68634C1.42462 21.7116 0.5335 20.4757 0.931994 19.2786L3.1937 12.4841C3.44515 11.7287 4.1519 11.2191 4.94804 11.2191H7.25637C7.89626 11.2191 8.47833 11.5483 8.81273 12.0696C9.14161 11.558 9.71583 11.2191 10.3692 11.2191H11.9043C12.4395 11.2191 12.9216 11.4465 13.2592 11.8099C13.5969 11.4465 14.079 11.2191 14.6141 11.2191H16.1493C16.2935 11.2191 16.4338 11.2356 16.5685 11.2668C16.7032 11.2356 16.8435 11.2191 16.9877 11.2191H22.7973C23.2819 11.2191 23.7229 11.4055 24.0526 11.7105C24.8162 11.3104 25.6748 11.1206 26.5472 11.1206C27.8877 11.1206 29.1989 11.5751 30.1796 12.553C31.1674 13.5378 31.6752 14.9084 31.6752 16.4653C31.6752 18.0223 31.1674 19.3929 30.1796 20.3777C29.1989 21.3555 27.8877 21.8101 26.5472 21.8101C25.195 21.8101 23.8818 21.3506 22.9019 20.3698C22.7571 20.2248 22.6226 20.0715 22.4986 19.9107Z" fill="black"/>
<path fill-rule="evenodd" clip-rule="evenodd" d="M26.5447 20.1294C28.4702 20.1294 29.9918 18.8392 29.9918 16.4656C29.9918 14.092 28.4702 12.8018 26.5447 12.8018C24.5995 12.8018 23.0926 14.092 23.0877 16.4656C23.0926 18.8244 24.5995 20.1294 26.5447 20.1294ZM26.5447 18.4945C25.5598 18.4896 25.0181 17.7755 25.0181 16.4656C25.0181 15.1507 25.5598 14.4367 26.5447 14.4367C27.5197 14.4367 28.0664 15.1507 28.0614 16.4656C28.0664 17.7755 27.5197 18.4896 26.5447 18.4945ZM16.9852 12.9002C16.8924 12.9002 16.8171 12.9755 16.8171 13.0683V14.2489C16.8171 14.3417 16.8924 14.417 16.9852 14.417H18.7961C18.889 14.417 18.9642 14.4923 18.9642 14.5851V19.8628C18.9642 19.9557 19.0395 20.0309 19.1323 20.0309H20.6478C20.7406 20.0309 20.8158 19.9557 20.8158 19.8628V14.5851C20.8158 14.4923 20.8911 14.417 20.9839 14.417H22.7948C22.8877 14.417 22.9629 14.3417 22.9629 14.2489V13.0683C22.9629 12.9755 22.8877 12.9002 22.7948 12.9002H16.9852ZM14.4436 13.0683C14.4436 12.9755 14.5188 12.9002 14.6116 12.9002H16.1468C16.2396 12.9002 16.3149 12.9755 16.3149 13.0683V17.48C16.3198 19.0953 15.0788 20.1146 13.2518 20.1196C11.4199 20.1146 10.1937 19.0953 10.1986 17.48V13.0683C10.1986 12.9755 10.2739 12.9002 10.3667 12.9002H11.9019C11.9947 12.9002 12.0699 12.9755 12.0699 13.0683V17.3126C12.0699 18.002 12.5624 18.4945 13.2518 18.4945C13.9511 18.4945 14.4386 18.002 14.4436 17.3126V13.0683ZM2.52436 19.8097C2.48813 19.9186 2.56914 20.0309 2.68384 20.0309H4.3549C4.42897 20.0309 4.49431 19.9824 4.51578 19.9116L4.86699 18.7517C4.88845 18.6809 4.95379 18.6324 5.02786 18.6324H7.16721C7.24108 18.6324 7.30629 18.6806 7.32793 18.7512L7.68354 19.9121C7.70518 19.9827 7.77039 20.0309 7.84426 20.0309H9.50619C9.62081 20.0309 9.70181 19.9187 9.66574 19.8099L7.41342 13.0154C7.39063 12.9467 7.32633 12.9002 7.25387 12.9002H4.94555C4.87317 12.9002 4.80892 12.9466 4.78606 13.0152L2.52436 19.8097ZM6.79152 16.9968C6.82465 17.1048 6.74384 17.2141 6.63082 17.2141H5.56339C5.4505 17.2141 5.36971 17.105 5.40259 16.9971L6.0567 14.8491C6.06182 14.8323 6.07733 14.8208 6.09489 14.8208C6.11244 14.8208 6.12792 14.8323 6.13306 14.849L6.79152 16.9968Z" fill="white"/>
</g>
<defs>
<clipPath id="clip0_6911_26312">
<rect width="32" height="32" fill="white" transform="translate(0.25 0.465332)"/>
</clipPath>
</defs>
</svg>
