<svg width="16" height="16" viewBox="-0.5 -0.5 14.5 14" fill="none" xmlns="http://www.w3.org/2000/svg">
  <path d="M2.3 3.634H1.5C0.947715 3.634 0.5 4.08172 0.5 4.634V11.498C0.5 12.0503 0.947715 12.498 1.5 12.498H2.3C2.85228 12.498 3.3 12.0503 3.3 11.498V4.634C3.3 4.08172 2.85228 3.634 2.3 3.634Z" fill="#FFC01E" stroke="#16181C" stroke-linecap="round" stroke-linejoin="round"/>
  <path d="M3.3 5.184V10.4973C3.3 11.0278 3.51071 11.5365 3.88579 11.9115C4.26086 12.2866 4.76957 12.4973 5.3 12.4973H9.882C10.2476 12.4974 10.6031 12.3772 10.8937 12.1553C11.1842 11.9333 11.3938 11.6221 11.49 11.2693L12.7953 6.47733C12.8627 6.23012 12.8721 5.97071 12.8229 5.71926C12.7737 5.46781 12.6672 5.23109 12.5116 5.02749C12.3561 4.8239 12.1557 4.6589 11.926 4.54533C11.6963 4.43177 11.4436 4.37268 11.1873 4.37267H8.45733V1.83333C8.45733 1.47971 8.31686 1.14057 8.06681 0.890524C7.81676 0.640476 7.47762 0.5 7.124 0.5H7.1C6.87926 0.500036 6.66198 0.554876 6.46767 0.659598C6.27335 0.764319 6.10807 0.915647 5.98667 1.1L3.3 5.184Z" fill="white" stroke="#16181C" stroke-linecap="round" stroke-linejoin="round"/>
</svg>
