<svg width="20" height="20" viewBox="0 0 20 20" fill="none" xmlns="http://www.w3.org/2000/svg">
<path d="M8.88213 6.05426C9.76489 6.05426 10.4805 5.33864 10.4805 4.45587C10.4805 3.5731 9.76489 2.85748 8.88213 2.85748C7.99936 2.85748 7.28374 3.5731 7.28374 4.45587C7.28374 5.33864 7.99936 6.05426 8.88213 6.05426Z" fill="currentColor"/>
<path d="M15.2684 15.9045L14.0758 11.2766C14.0188 11.0488 13.8124 10.8921 13.581 10.8921H11.292L11.0962 9.69247H13.2107C13.6344 9.69247 13.9797 9.34716 13.9797 8.92354C13.9797 8.49991 13.6344 8.1546 13.2107 8.1546H10.8434L10.8185 8.00153C10.6797 7.14715 9.91785 6.53485 9.0528 6.58113C7.92076 6.63809 7.1625 7.77013 7.53629 8.8381L8.75733 12.3232C8.82853 12.5297 9.02433 12.665 9.24147 12.665H12.5807L13.6308 16.3459C13.759 16.7909 14.2182 17.0543 14.6668 16.9333C15.1188 16.8123 15.3858 16.353 15.2719 15.9009L15.2684 15.9045Z" fill="currentColor"/>
<path d="M11.3234 14.886C10.7467 15.4413 9.98849 15.7439 9.19107 15.7439C8.39366 15.7439 7.59624 15.4235 7.01242 14.8433C6.43217 14.263 6.11177 13.487 6.11177 12.6647C6.11177 11.8423 6.41081 11.1197 6.95547 10.5465C7.22246 10.2653 7.21178 9.82025 6.93055 9.55326C6.64932 9.28627 6.20432 9.29695 5.93733 9.57818C5.14348 10.4147 4.70562 11.5112 4.70562 12.6647C4.70562 13.2698 4.8231 13.8572 5.05805 14.4125C5.28232 14.9465 5.60627 15.4271 6.01922 15.8365C6.43217 16.2495 6.90919 16.5698 7.44317 16.7977C7.99496 17.0327 8.5859 17.1501 9.19107 17.1501C10.3552 17.1501 11.4587 16.7051 12.2989 15.897C12.5801 15.6265 12.5872 15.1815 12.3202 14.9038C12.0532 14.6261 11.6047 14.6155 11.327 14.8824L11.3234 14.886Z" fill="currentColor"/>
</svg>
