<svg width="16" height="16" viewBox="0 0 16 16" fill="none" xmlns="http://www.w3.org/2000/svg">
  <path d="M6.48 9.00447L7.83261 5.53341C7.88253 5.40546 8.00577 5.32122 8.14313 5.32122H10.0833C10.2673 5.32122 10.4166 5.47045 10.4166 5.65455V9.91337H7.0931C6.62387 9.91337 6.30148 9.44163 6.48 9.00447Z" fill="#68D6AE"/>
  <path d="M12.9244 14.4221V10.2467C12.9244 10.0626 12.7752 9.91337 12.5911 9.91337H10.4166M10.4166 9.91337H7.0931C6.62387 9.91337 6.30148 9.44163 6.48 9.00447L7.83261 5.53341C7.88253 5.40546 8.00577 5.32122 8.14313 5.32122H10.0833C10.2673 5.32122 10.4166 5.47045 10.4166 5.65455V9.91337Z" stroke="black" stroke-width="0.8" stroke-linecap="round"/>
  <circle cx="9.21475" cy="2.91129" r="1.43758" fill="#68D6AE" stroke="black" stroke-width="0.8"/>
  <path d="M10.3321 9.65493C10.406 9.95251 10.4454 10.264 10.4454 10.5845C10.4454 12.7039 8.72732 14.4221 6.60789 14.4221C4.48845 14.4221 2.77034 12.7039 2.77034 10.5845C2.77034 8.46505 4.48845 6.74694 6.60789 6.74694C6.80375 6.74694 6.99615 6.76159 7.18405 6.78993" stroke="black" stroke-width="0.8"/>
</svg>
