<svg width="32" height="32" viewBox="0 0 32 32" fill="none" xmlns="http://www.w3.org/2000/svg">
<path d="M14.3126 5.96674C15.0628 4.6779 16.9374 4.67787 17.6876 5.96674L28.2364 24.0986C28.9865 25.3879 28.0481 26.9999 26.5479 26.9999H5.45224C3.95204 26.9999 3.01366 25.3879 3.76376 24.0986L14.3126 5.96674ZM16.0001 21.5576C15.1717 21.5576 14.5001 22.2291 14.5001 23.0576C14.5001 23.886 15.1717 24.5576 16.0001 24.5576C16.8285 24.5575 17.5001 23.886 17.5001 23.0576C17.5001 22.2292 16.8285 21.5576 16.0001 21.5576ZM16.0001 10.4794C15.3098 10.4794 14.7501 10.9508 14.7501 11.5322V19.4267C14.7501 20.008 15.3097 20.4794 16.0001 20.4794C16.6904 20.4794 17.2501 20.008 17.2501 19.4267V11.5322C17.2501 10.9509 16.6904 10.4795 16.0001 10.4794Z" fill="#FFC01E"/>
<path d="M16.0001 20.4794C15.3097 20.4794 14.7501 20.008 14.7501 19.4267L14.7501 11.5322C14.7501 10.9508 15.3097 10.4794 16.0001 10.4794C16.6904 10.4794 17.25 10.9508 17.2501 11.5322L17.2501 19.4267C17.2501 20.008 16.6904 20.4794 16.0001 20.4794ZM16.0001 24.5576C15.1716 24.5576 14.5001 23.886 14.5001 23.0576C14.5001 22.2291 15.1716 21.5576 16.0001 21.5576C16.8285 21.5576 17.5 22.2291 17.5001 23.0576C17.5001 23.886 16.8285 24.5576 16.0001 24.5576Z" fill="black"/>
</svg>
