<svg width="12" height="12" viewBox="0 0 12 12" fill="none" xmlns="http://www.w3.org/2000/svg">
  <path
    d="M11.1886 9.51648C11.6462 9.97424 11.6462 10.7162 11.1886 11.1738C10.9598 11.4026 10.6598 11.5171 10.3599 11.5171C10.06 11.5171 9.76006 11.4026 9.53117 11.1738L5.99834 7.64093L2.4655 11.174C2.23662 11.4026 1.93669 11.5171 1.63676 11.5171C1.33684 11.5171 1.03691 11.4026 0.808029 11.174C0.350449 10.7162 0.350449 9.97424 0.808029 9.51666L4.34105 5.98364L0.808029 2.45081C0.350449 1.99304 0.350449 1.2511 0.808029 0.793518C1.26579 0.335754 2.00774 0.335754 2.46532 0.793518L5.99834 4.32635L9.53117 0.793518C9.98894 0.335938 10.7309 0.335754 11.1885 0.793518C11.6462 1.2511 11.6462 1.99304 11.1885 2.45081L7.65562 5.98364L11.1886 9.51648Z"
    fill="#9797A6" />
</svg>