<svg
  width="131"
  height="21"
  viewBox="0 0 131 21"
  fill="none"
  xmlns="http://www.w3.org/2000/svg">
  <g id="SCC_logo">
    <path
      fill-rule="evenodd"
      clip-rule="evenodd"
      d="M60.58 2.69422L60.7852 0.271023V0.268889L64.0732 0L63.1828 10.4995L43.4571 12.1149L44.3475 1.61547L47.6355 1.34658L47.4303 3.76978L52.3611 3.36644L52.5664 0.943245L55.8543 0.674356L55.6491 3.09756L60.58 2.69422ZM52.0864 6.59738L47.1555 7.00071L47.0187 8.61618L51.9496 8.21285L52.0864 6.59738ZM55.3744 6.32742L55.2376 7.94289L60.1685 7.53956L60.3053 5.92409L55.3744 6.32742Z"
      fill="#0E64D3"
    />
    <path
      d="M40.2419 1.81926L40.3874 0.203795L37.0994 0.472683L36.1406 11.7799L39.4286 11.5099L39.9758 5.04913L42.4418 4.84746L42.7155 1.61653L40.2419 1.81926Z"
      fill="#0E64D3"
    />
    <path
      d="M25.3189 14.2703L22.032 14.5392L21.4837 21L38.7434 19.5862L39.017 16.3563L25.0453 17.5002L25.3189 14.2703Z"
      fill="#0E64D3"
    />
    <path
      d="M25.7305 9.42391L34.7713 8.6834L34.4966 11.9143L22.1689 12.9237L23.1277 1.61653L35.4554 0.606067L35.1818 3.83807L26.1409 4.57858L25.7305 9.42391Z"
      fill="#0E64D3"
    />
    <path
      d="M43.0466 16.9624L51.2655 16.2891L50.9235 20.3267L54.2104 20.0578L54.5535 16.0202L62.7723 15.3469L63.046 12.116L43.3203 13.7315L43.0466 16.9624Z"
      fill="#0E64D3"
    />
    <path
      d="M88.9632 14.472L103.758 13.2598L103.69 14.0676L88.8948 15.2797L88.4159 20.9328L106.498 19.4518L106.703 17.0296L91.9091 18.2407L91.9775 17.433L106.771 16.2219L107.25 10.5752L89.1695 12.0488L88.9632 14.472Z"
      fill="#0E64D3"
    />
    <path
      d="M108.141 0.0693502L107.525 7.33788L108.347 7.27066L108.141 9.69279L88.4159 11.3083L88.6212 8.88613L104.237 7.60677L104.374 5.99131L89.58 7.20344L89.7852 4.78024L104.58 3.56917L104.648 2.76144L89.8536 3.97251L90.0599 1.54931L108.141 0.0693502Z"
      fill="#0E64D3"
    />
    <path
      d="M16.7124 0.271023L15.0684 19.6545L18.3553 19.3845L19.9993 0.00213446L16.7124 0.271023Z"
      fill="#0E64D3"
    />
    <path
      fill-rule="evenodd"
      clip-rule="evenodd"
      d="M11.6436 2.28982L11.7805 0.67435L11.7794 0.673283L15.0674 0.404394L13.4234 19.7879L10.1354 20.0567L10.8206 11.9805L8.35567 12.1821L7.67593 20.2584L4.38361 20.5284L5.75287 4.37584L0 4.84746L0.273637 1.61653L9.30797 0.877084L9.17224 2.49255L11.6436 2.28982ZM8.62822 8.95228L11.0953 8.75062L11.0964 8.75168L11.37 5.52075L8.90077 5.72242L8.62822 8.95228Z"
      fill="#0E64D3"
    />
    <path
      d="M70.4884 1.34764L67.2005 1.61653L65.5576 21L68.8444 20.7311L70.0769 6.19404L73.3649 5.92408L72.1324 20.4612L75.4193 20.1923L76.9265 2.42426L70.3516 2.96311L70.4884 1.34764Z"
      fill="#0E64D3"
    />
    <path
      d="M83.5014 1.88649L83.6382 0.271023L86.9261 0.00213446L85.2822 19.3845L81.9953 19.6545L82.6794 11.5782L77.7485 11.9816L78.0221 8.75062L82.9541 8.34729L83.2277 5.11636L78.2958 5.52076L78.5705 2.28982L83.5014 1.88649Z"
      fill="#0E64D3"
    />
    <path
      fill-rule="evenodd"
      clip-rule="evenodd"
      d="M126.616 13.1926L113.467 14.2692L113.603 12.6538L110.316 12.9227L109.63 20.9989L129.356 19.3835L130.041 11.3072L126.753 11.5761L126.616 13.1916V13.1926ZM113.124 18.3079L113.26 16.6924L126.41 15.6158L126.273 17.2313L113.124 18.3079Z"
      fill="#0E64D3"
    />
    <path
      d="M127.575 1.88649L127.712 0.271023L131 0.00213446L130.11 10.5005L126.822 10.7705L127.302 5.11636L124.836 5.31909L124.699 6.93349L114.014 7.80844L113.877 9.42391L124.562 8.54896L124.356 10.9722L110.384 12.116L110.932 5.6552L122.438 4.71302L122.575 3.09756L111.069 4.03973L111.274 1.61653L125.246 0.472689L125.109 2.08816L127.575 1.88649Z"
      fill="#0E64D3"
    />
  </g>
</svg>
