<svg width="95" height="43" viewBox="0 0 95 43" fill="none" xmlns="http://www.w3.org/2000/svg">
<g clip-path="url(#clip0_11290_218)">
<mask id="mask0_11290_218" style="mask-type:alpha" maskUnits="userSpaceOnUse" x="-352" y="2" width="595" height="56">
<path d="M242.169 7.70703L15.0438 26.6328L14.367 34.7432L11.1229 35.0146L11.7996 26.9023L-351.302 57.166L-350.958 53.9023L55.8719 20.0088L56.1434 16.7637L59.3875 16.4932L59.117 19.7373L242.438 4.46289L242.169 7.70703ZM44.2459 33.8652L28.0233 35.2168L27.8885 36.8408L44.1112 35.4883L43.8407 38.7334L24.3729 40.3545L25.0477 32.2441L41.2703 30.8916L41.4071 29.2686L28.4286 30.3516L25.1844 30.6201L25.4539 27.376L28.6981 27.1064L44.9207 25.7549L44.2459 33.8652ZM23.5584 21.0918L4.09066 22.7148L4.96957 12.1699L8.21468 11.8984L8.01254 14.332L12.8797 13.9258L13.0819 11.4932L16.327 11.2217L16.1248 13.6543L20.993 13.249L21.1932 10.8164L24.4373 10.5469L23.5584 21.0918ZM45.4637 19.2656L42.2186 19.5361L42.4207 17.1016L26.1981 18.4541L26.4686 15.209L42.6922 13.8574L42.826 12.2354L26.6034 13.5879L26.8729 10.3428L46.3407 8.71973L45.4637 19.2656ZM7.743 17.5742L7.60824 19.1973L12.4764 18.792L12.6112 17.1689L7.743 17.5742ZM15.8534 16.8975L15.7186 18.5205L20.5868 18.1152L20.7215 16.4912L15.8534 16.8975ZM89.8729 8.31152L73.6502 9.66309L73.3114 13.7197L89.535 12.3672L89.2635 15.6123L69.7957 17.2354L70.6746 6.68945L90.1424 5.06641L89.8729 8.31152ZM67.9725 10.1387L51.7489 11.4912L51.6141 13.1143L67.8377 11.7617L67.5662 15.0068L48.0985 16.6279L48.7752 8.51758L64.9989 7.16504L65.1336 5.54199L52.1551 6.625L48.91 6.89453L49.1815 3.64941L52.4256 3.38086L68.6493 2.02832L67.9725 10.1387Z" fill="white"/>
</mask>
<g mask="url(#mask0_11290_218)">
<path d="M3.86703 8.09999L91.8953 -0.621704L88.8529 34.8736L0.824577 43.7981L3.86703 8.09999Z" fill="black"/>
</g>
</g>
<defs>
<clipPath id="clip0_11290_218">
<rect width="94.1132" height="43" fill="white"/>
</clipPath>
</defs>
</svg>
