<svg width="25" height="24" viewBox="0 0 25 24" fill="none" xmlns="http://www.w3.org/2000/svg">
<rect width="24" height="24" transform="translate(0.889343)" fill="white"/>
<path d="M10.608 13.5067L12.6389 8.30012C12.7138 8.10819 12.8987 7.98183 13.1047 7.98183H16.0249C16.301 7.98183 16.5249 8.20568 16.5249 8.48183V14.8701H11.5396C10.8358 14.8701 10.3522 14.1624 10.608 13.5067Z" fill="#68D6AE"/>
<path d="M20.2866 21.6331V15.3701C20.2866 15.094 20.0628 14.8701 19.7866 14.8701H16.5249M16.5249 14.8701H11.5396C10.8358 14.8701 10.3522 14.1624 10.608 13.5067L12.6389 8.30012C12.7138 8.10819 12.8987 7.98183 13.1047 7.98183H16.0249C16.301 7.98183 16.5249 8.20568 16.5249 8.48183V14.8701Z" stroke="black" stroke-width="1.2" stroke-linecap="round"/>
<circle cx="14.7221" cy="4.36694" r="2.15637" fill="#68D6AE" stroke="black" stroke-width="1.2"/>
<path d="M16.3981 14.4824C16.5092 14.9288 16.5682 15.3959 16.5682 15.8767C16.5682 19.0559 13.991 21.6331 10.8118 21.6331C7.6327 21.6331 5.05551 19.0559 5.05551 15.8767C5.05551 12.6976 7.6327 10.1204 10.8118 10.1204C11.1056 10.1204 11.3942 10.1424 11.6761 10.1849" stroke="black" stroke-width="1.2"/>
</svg>
