<svg width="25" height="24" viewBox="0 0 25 24" fill="none" xmlns="http://www.w3.org/2000/svg">
<rect width="24" height="24" transform="translate(0.889343)" fill="white"/>
<path d="M20.3711 12.5038L21.6575 13.6493C21.895 13.8475 22.0538 14.1243 22.1049 14.4294C22.1561 14.7346 22.0963 15.0479 21.9364 15.3128L20.3853 17.9625C20.265 18.1653 20.0931 18.3327 19.8872 18.4478C19.6789 18.563 19.4451 18.6242 19.207 18.6256C19.0594 18.6265 18.9125 18.6045 18.7716 18.5602L17.1251 18.0166C16.8367 18.2016 16.5369 18.3671 16.2258 18.5132L15.88 20.1824C15.816 20.4895 15.645 20.7638 15.3976 20.9566C15.147 21.1527 14.8363 21.2563 14.5181 21.2497H11.3064C10.9882 21.2563 10.6775 21.1527 10.4269 20.9566C10.18 20.7636 10.0096 20.4893 9.94594 20.1824L9.59872 18.5132C9.29163 18.3652 8.99368 18.1988 8.70648 18.0152L7.05434 18.5602C6.91347 18.6045 6.76656 18.6265 6.61889 18.6256C6.38133 18.6239 6.14797 18.5628 5.94011 18.4478C5.73439 18.3331 5.56258 18.1662 5.44205 17.9639L3.83544 15.3128C3.66842 15.0455 3.6046 14.7265 3.65595 14.4156C3.70729 14.1046 3.87028 13.8231 4.11436 13.6237L5.39935 12V11.4962L4.11293 10.3507C3.87538 10.1525 3.71665 9.87573 3.66549 9.57058C3.61433 9.26544 3.67411 8.95206 3.83402 8.68718L5.44062 6.0375C5.56096 5.83467 5.73279 5.66726 5.93868 5.55224C6.14655 5.43722 6.37991 5.37607 6.61747 5.37437C6.7638 5.36513 6.91069 5.37857 7.05292 5.41421L8.67233 5.98342C8.96168 5.79843 9.26146 5.63288 9.57168 5.48679L9.9189 3.81757C9.98252 3.51072 10.153 3.2364 10.3999 3.04344C10.6505 2.84727 10.9611 2.74371 11.2793 2.7503H14.4641C14.7822 2.74371 15.0929 2.84727 15.3435 3.04344C15.5925 3.2384 15.7633 3.51304 15.8245 3.81757L16.1717 5.48679C16.48 5.63383 16.7774 5.79985 17.0639 5.98485L18.7175 5.44125C18.901 5.38155 19.0949 5.36059 19.287 5.37969C19.479 5.3988 19.665 5.45756 19.8332 5.55224C20.0395 5.66893 20.2103 5.83685 20.3312 6.03608L21.9364 8.68718C22.1057 8.95218 22.1727 9.26972 22.1251 9.58054C22.0774 9.89135 21.9183 10.1742 21.6774 10.3763L20.3711 11.4891V12.5038Z" fill="#B5B5C0" stroke="#131317" stroke-width="1.2"/>
<path d="M16.4463 12C16.4463 12.9435 16.0715 13.8484 15.4043 14.5156C14.7372 15.1828 13.8323 15.5576 12.8888 15.5576C11.9452 15.5576 11.0403 15.1828 10.3732 14.5156C9.70599 13.8484 9.33118 12.9435 9.33118 12C9.33118 11.0565 9.70599 10.1516 10.3732 9.4844C11.0403 8.81723 11.9452 8.44241 12.8888 8.44241C13.8323 8.44241 14.7372 8.81723 15.4043 9.4844C16.0715 10.1516 16.4463 11.0565 16.4463 12Z" fill="white" stroke="#131317" stroke-width="1.2"/>
</svg>
