<svg width="25" height="24" viewBox="0 0 25 24" fill="none" xmlns="http://www.w3.org/2000/svg">
<rect width="24" height="24" transform="translate(0.889343)" fill="white"/>
<path d="M5.58246 3.22571H20.1962C20.7485 3.22571 21.1962 3.67342 21.1962 4.22571V15.8396L16.4656 20.7743H5.58246C5.03017 20.7743 4.58246 20.3265 4.58246 19.7743V4.22571C4.58246 3.67342 5.03017 3.22571 5.58246 3.22571Z" fill="#FFEEB3"/>
<path d="M16.4656 20.7743H5.58246C5.03017 20.7743 4.58246 20.3265 4.58246 19.7743V4.22571C4.58246 3.67342 5.03017 3.22571 5.58246 3.22571H20.1962C20.7485 3.22571 21.1962 3.67342 21.1962 4.22571V15.8396M16.4656 20.7743V16.8396C16.4656 16.2873 16.9133 15.8396 17.4656 15.8396H21.1962M16.4656 20.7743L21.1962 15.8396" stroke="#131317" stroke-width="1.2"/>
<path d="M7.84491 7.67422H17.9337" stroke="black" stroke-width="1.2" stroke-linecap="round"/>
<path d="M7.84494 12H13.8615" stroke="black" stroke-width="1.2" stroke-linecap="round"/>
</svg>
