<svg xmlns="http://www.w3.org/2000/svg" width="32" height="32" fill="none">
  <g clip-path="url(#a)">
    <rect width="24" height="24" x="4" y="4" fill="#fff" rx="4"/>
    <rect width="24" height="24" x="4" y="4" fill="#67AEFF" stroke="#000000" stroke-width="2.67" rx="4"/>
    <path fill="#fff" stroke="#000000" stroke-linejoin="round" stroke-width="2.67" d="M30 28v-6a2 2 0 0 0-2-2H3.5a2 2 0 0 0-2 2v6c0 1.1.9 2 2 2H28a2 2 0 0 0 2-2Z"/>
  </g>
  <rect width="24" height="24" x="4" y="4" stroke="#000000" stroke-linejoin="round" stroke-width="2.67" rx="4"/>
  <path fill="#000000" fill-rule="evenodd" d="M16.27 8.17c-.37-.37-.97-.09-.97.45v1.84H12a1 1 0 0 0-1 1v1.72a1 1 0 0 0 1 1h3.3v2.08c0 .54.6.82.97.46l3.38-3.36c.5-.5.5-1.34 0-1.84l-3.38-3.35Z" clip-rule="evenodd"/>
  <defs>
    <clipPath id="a">
      <rect width="24" height="24" x="4" y="4" fill="#fff" rx="4"/>
    </clipPath>
  </defs>
</svg>