<svg viewBox="0 0 604 99" fill="none" xmlns="http://www.w3.org/2000/svg">
<path fill-rule="evenodd" clip-rule="evenodd" d="M279.35 12.925L280.295 1.57V1.56L295.435 0.299999L291.335 49.5L200.505 57.07L204.605 7.87L219.745 6.61L218.8 17.965L241.505 16.075L242.45 4.72L257.59 3.46L256.645 14.815L279.35 12.925ZM240.24 31.215L217.535 33.105L216.905 40.675L239.61 38.785L240.24 31.215ZM255.38 29.95L254.75 37.52L277.455 35.63L278.085 28.06L255.38 29.95Z" fill="#0E64D3"/>
<path d="M185.7 8.82497L186.37 1.25497L171.23 2.51497L166.815 55.5L181.955 54.235L184.475 23.96L195.83 23.015L197.09 7.87497L185.7 8.82497Z" fill="#0E64D3"/>
<path d="M116.985 67.17L101.85 68.43L99.325 98.705L178.8 92.08L180.06 76.945L115.725 82.305L116.985 67.17Z" fill="#0E64D3"/>
<path d="M118.88 44.46L160.51 40.99L159.245 56.13L102.48 60.86L106.895 7.875L163.66 3.14L162.4 18.285L120.77 21.755L118.88 44.46Z" fill="#0E64D3"/>
<path d="M198.615 79.785L236.46 76.63L234.885 95.55L250.02 94.29L251.6 75.37L289.445 72.215L290.705 57.075L199.875 64.645L198.615 79.785Z" fill="#0E64D3"/>
<path d="M410.045 68.115L478.17 62.435L477.855 66.22L409.73 71.9L407.525 98.39L490.785 91.45L491.73 80.1L423.61 85.775L423.925 81.99L492.045 76.315L494.25 49.855L410.995 56.76L410.045 68.115Z" fill="#0E64D3"/>
<path d="M498.35 0.624971L495.515 34.685L499.3 34.37L498.35 45.72L407.525 53.29L408.47 41.94L480.375 35.945L481.005 28.375L412.885 34.055L413.83 22.7L481.955 17.025L482.27 13.24L414.145 18.915L415.095 7.55997L498.35 0.624971Z" fill="#0E64D3"/>
<path d="M77.355 1.57L69.785 92.4L84.92 91.135L92.49 0.310001L77.355 1.57Z" fill="#0E64D3"/>
<path fill-rule="evenodd" clip-rule="evenodd" d="M54.015 11.03L54.645 3.45997L54.64 3.45497L69.78 2.19497L62.21 93.025L47.07 94.285L50.225 56.44L38.875 57.385L35.745 95.23L20.585 96.495L26.89 20.805L0.400024 23.015L1.66003 7.87497L43.26 4.40997L42.635 11.98L54.015 11.03ZM40.13 42.25L51.49 41.305L51.495 41.31L52.755 26.17L41.385 27.115L40.13 42.25Z" fill="#0E64D3"/>
<path d="M324.975 6.61498L309.835 7.87498L302.27 98.705L317.405 97.445L323.08 29.325L338.22 28.06L332.545 96.18L347.68 94.92L354.62 11.66L324.345 14.185L324.975 6.61498Z" fill="#0E64D3"/>
<path d="M384.895 9.14L385.525 1.57L400.665 0.310001L393.095 91.135L377.96 92.4L381.11 54.555L358.405 56.445L359.665 41.305L382.375 39.415L383.635 24.275L360.925 26.17L362.19 11.03L384.895 9.14Z" fill="#0E64D3"/>
<path fill-rule="evenodd" clip-rule="evenodd" d="M583.425 62.12L522.875 67.165L523.505 59.595L508.365 60.855L505.21 98.7L596.04 91.13L599.195 53.285L584.055 54.545L583.425 62.115V62.12ZM521.295 86.09L521.925 78.52L582.475 73.475L581.845 81.045L521.295 86.09Z" fill="#0E64D3"/>
<path d="M587.84 9.14L588.47 1.57L603.61 0.310001L599.51 49.505L584.37 50.77L586.58 24.275L575.225 25.225L574.595 32.79L525.395 36.89L524.765 44.46L573.965 40.36L573.015 51.715L508.68 57.075L511.205 26.8L564.185 22.385L564.815 14.815L511.835 19.23L512.78 7.875L577.115 2.515L576.485 10.085L587.84 9.14Z" fill="#0E64D3"/>
</svg>
